<svg id="Capa_1" enable-background="new 0 0 512 512" height="512" viewBox="0 0 512 512" width="512" xmlns="http://www.w3.org/2000/svg"><g><path d="m512 256c0 46.35-12.32 89.82-33.86 127.32-44.17 76.89-127.11 61.9-222.14 61.9-40.13 0-55.549 25.316-89.359 8.856-46.26-22.51-107.261-26.326-132.771-70.756-.01 0-.01-.01-.01-.01-21.54-37.5-33.86-80.96-33.86-127.31 0-141.38 114.62-256 256-256s256 114.62 256 256z" fill="#7fbb1b"/><path d="m478.14 383.32c-44.17 76.89-127.11 128.68-222.14 128.68-40.13 0-78.1-9.24-111.91-25.7-46.26-22.51-84.71-58.55-110.22-102.98 6.81-10.28 14.19-20.08 22.1-29.32 50.06-58.54 121.16-95.1 200.03-95.1 77.69 0 147.85 35.48 197.78 92.5 8.77 10 16.91 20.67 24.36 31.92z" fill="#b75c34"/><path d="m333.11 270.98c-92.75 29.76-165.19 111.9-189.02 215.32-46.26-22.51-84.72-58.56-110.23-102.99 49.9-75.4 130.81-124.41 222.14-124.41 26.78 0 52.65 4.22 77.11 12.08z" fill="#a54828"/><path d="m453.78 351.4c-8.31 16.93-21.35 31.73-38.42 42.24-18.12 11.15-39.26 22.46-63.68 32.43-31.26 12.77-64.37 19.15-97.47 19.15s-66.21-6.38-97.47-19.15c-24.42-9.97-45.56-21.28-63.68-32.43-16.19-9.97-28.75-23.8-37.09-39.64 50.06-58.54 121.16-95.1 200.03-95.1 77.69 0 147.85 35.48 197.78 92.5z" fill="#a54828"/><path d="m410.08 135.84 45.63 104.35c20.55 46.98 3.32 101.88-40.35 128.77-18.12 11.15-39.26 22.46-63.68 32.43-31.26 12.77-64.37 19.15-97.47 19.15s-61.117-14.901-92.377-27.671c-24.42-9.97-44.75-21.227-62.87-32.376-43.671-26.89-66.803-73.323-46.253-120.303l45.64-104.35c-32.22-11.39-51.21-29.38-62.26-45.11-11.08-15.78-11.91-36.58-2.14-53.2 9.21-15.67 25.66-24.28 42.47-24.28 9.52 0 19.16 2.76 27.66 8.56l33.91 23.11 74.59-9.96c17.69-2.36 34.77 7.45 41.63 23.93 6.87-16.48 23.94-26.29 41.63-23.93l74.59 9.96 33.91-23.11c23.52-16.04 55.7-8.83 70.13 15.72 4.54 7.72 6.79 16.34 6.79 24.94 0 9.92-3 19.81-8.93 28.26-11.05 15.73-30.03 33.72-62.25 45.11z" fill="#b75c34"/><path d="m254.21 420.54c-33.1 0-66.21-6.38-97.47-19.15-24.42-9.97-45.56-21.28-63.68-32.43-43.67-26.89-60.9-81.79-40.35-128.77l45.64-104.35c-32.22-11.39-51.21-29.38-62.26-45.11-11.08-15.78-11.91-36.58-2.14-53.2 9.21-15.67 25.66-24.28 42.47-24.28 9.52 0 19.16 2.76 27.66 8.56l33.91 23.11 74.59-9.96c17.69-2.36 34.77 7.45 41.63 23.93 0 0-53.68-11.62-69.64 25.65s-114.68 292.52 69.64 336z" fill="#a54828"/><path d="m289.157 406.422h-69.893c-16.964 0-30.716-13.752-30.716-30.716v-40.437h131.324v40.437c.001 16.964-13.751 30.716-30.715 30.716z" fill="#cc754a"/><path d="m343.93 256h-.2c-9.68-.03-17.31 8.2-16.26 17.82l7.59 70.02c1.95 18.08-12.2 33.85-30.39 33.85h-20.73c-16.42 0-29.73-13.31-29.73-29.73 0 16.42-13.31 29.73-29.73 29.73l-19.165-5.432c-18.18 0-33.905-10.338-31.945-28.418l7.58-70.02c1.05-9.6-6.55-17.82-16.2-17.82h-.25c-7.13 0-13.97-1.25-20.31-3.54-23.87-8.61-40.68-31.98-39.43-59.09 1.41-30.63 26.27-55.5 56.91-56.91 1.4-.06 2.8-.08 4.18-.05 24.36.55 45.13 15.64 53.94 36.96 5.65 13.68 18.69 22.83 33.49 22.83h1.86c14.8 0 27.84-9.15 33.49-22.83 9.31-22.52 31.97-38.11 58.12-36.91 30.64 1.41 55.5 26.28 56.91 56.91 1.58 34.32-25.77 62.63-59.73 62.63z" fill="#dc8758"/><path d="m223.96 377.69h-20.21c-18.18 0-32.34-15.77-30.38-33.85l7.58-70.02c1.05-9.6-6.55-17.82-16.2-17.82h8.29c22.46 0 40.06 19.29 38.02 41.65l-4.43 48.55c-1.23 13.42 6 25.69 17.33 31.49z" fill="#cc754a"/><path d="m165.85 136.41c-9.86 32.01-19.89 73.99-21.66 116.05-23.87-8.61-40.68-31.98-39.43-59.09 1.41-30.63 26.27-55.5 56.91-56.91 1.4-.06 2.8-.08 4.18-.05z" fill="#cc754a"/><g><path d="m265.828 352.913h-23.234c-19.59 0-35.47-15.881-35.47-35.47v-4.032c0-5.195 4.212-9.407 9.407-9.407h75.361c5.195 0 9.407 4.212 9.407 9.407v4.032c-.001 19.589-15.881 35.47-35.471 35.47z" fill="#516666"/><path d="m272.302 352.327c-2.094.391-4.261.592-6.474.592h-23.237c-19.586 0-35.466-15.88-35.466-35.475v-4.034c0-5.19 4.207-9.406 9.406-9.406h36.194c-5.199 0-9.406 4.216-9.406 9.406v4.034c0 17.382 12.493 31.842 28.983 34.883z" fill="#384948"/></g><g><ellipse cx="178.334" cy="197.481" fill="#fff9f1" rx="28.78" ry="35.836"/><path d="m188.526 231.001c-3.17 1.502-6.607 2.318-10.196 2.318-15.893 0-28.776-16.045-28.776-35.838s12.882-35.838 28.776-35.838c3.589 0 7.026.816 10.196 2.318-10.868 5.127-18.587 18.197-18.587 33.52s7.719 28.393 18.587 33.52z" fill="#f7eadc"/><path d="m195.778 197.485c0 12.824-7.654 23.432-17.59 25.1-.903.152-1.82.231-2.751.231-11.236 0-20.341-11.344-20.341-25.331 0-13.994 9.106-25.331 20.341-25.331.932 0 1.849.079 2.751.231 9.936 1.668 17.59 12.268 17.59 25.1z" fill="#516666"/><ellipse cx="330.088" cy="197.481" fill="#fff9f1" rx="28.78" ry="35.836"/><path d="m340.28 231.001c-3.17 1.502-6.607 2.318-10.196 2.318-15.893 0-28.776-16.045-28.776-35.838s12.882-35.838 28.776-35.838c3.589 0 7.026.816 10.196 2.318-10.868 5.127-18.587 18.197-18.587 33.52s7.72 28.393 18.587 33.52z" fill="#f7eadc"/><path d="m353.327 197.485c0 13.987-9.106 25.331-20.341 25.331-1.054 0-2.087-.101-3.098-.289-9.763-1.863-17.244-12.37-17.244-25.042 0-12.68 7.481-23.179 17.244-25.042 1.011-.188 2.044-.289 3.098-.289 11.235-.001 20.341 11.336 20.341 25.331z" fill="#516666"/><g fill="#384948"><path d="m321.692 197.485c0 9.748 3.127 18.587 8.196 25.042-9.763-1.863-17.244-12.37-17.244-25.042 0-12.68 7.481-23.179 17.244-25.042-5.07 6.455-8.196 15.293-8.196 25.042z"/><path d="m169.941 197.485c0 9.777 3.141 18.637 8.246 25.1-.903.152-1.82.231-2.751.231-11.236 0-20.341-11.344-20.341-25.331 0-13.994 9.106-25.331 20.341-25.331.932 0 1.849.079 2.751.231-5.105 6.462-8.246 15.322-8.246 25.1z"/></g></g><g fill="#dc8758"><ellipse cx="86.74" cy="72.305" rx="30.494" ry="39.529" transform="matrix(.707 -.707 .707 .707 -25.722 82.512)"/><ellipse cx="421.682" cy="72.305" rx="39.529" ry="30.494" transform="matrix(.707 -.707 .707 .707 72.38 319.352)"/></g></g></svg>