<svg id="Capa_1" enable-background="new 0 0 512 512" height="512" viewBox="0 0 512 512" width="512" xmlns="http://www.w3.org/2000/svg"><g><path d="m512 256c0 46.349-12.317 89.821-33.857 127.321-44.166 76.893-127.107 45.545-222.143 45.545-95.039 0-177.982 31.345-222.147-45.552-21.537-37.499-33.853-80.968-33.853-127.314 0-141.385 114.615-256 256-256s256 114.615 256 256z" fill="#8fd1e3"/><path d="m478.14 383.32c-44.17 76.89-127.11 128.68-222.14 128.68-40.13 0-78.1-9.24-111.91-25.7-46.26-22.51-84.71-58.55-110.22-102.98 6.81-10.28 14.19-20.08 22.1-29.32.6-.71 1.21-1.41 1.83-2.11 49.95-57.31 120.28-92.99 198.2-92.99 77.69 0 147.85 35.48 197.78 92.5.14.16.28.32.42.49 8.61 9.86 16.61 20.36 23.94 31.43z" fill="#b75c34"/><path d="m333.11 270.98c-92.75 29.76-165.19 111.9-189.02 215.32-46.26-22.51-84.72-58.56-110.23-102.99 49.9-75.4 130.81-124.41 222.14-124.41 26.78 0 52.65 4.22 77.11 12.08z" fill="#a54828"/><g><g><path d="m193.515 73.761-58.822-44.615c-7.996-6.065-19.237-5.515-26.512 1.398-19.513 18.541-47.066 59.333 6.752 113.151z" fill="#a54828"/><path d="m318.485 73.761 58.822-44.615c7.996-6.065 19.237-5.515 26.512 1.398 19.513 18.541 47.066 59.333-6.752 113.151z" fill="#b75c34"/></g><path d="m359.33 378.967 37.835-13.696c68.468-24.785 95.386-107.337 54.688-167.718l-90.711-134.581c-20.876-30.972-63.95-37.103-92.639-13.188l-12.503 10.423-12.503-10.423c-28.689-23.916-71.764-17.784-92.639 13.188l-90.711 134.581c-40.698 60.381-13.781 142.933 54.688 167.718l37.835 13.696c66.767 24.17 139.893 24.17 206.66 0z" fill="#dc8758"/><path d="m179.557 199.053c-15.89 65.29-5.38 154.55 21.34 181.35l13.84 13.88c-21.04-2.88-41.84-7.99-62.06-15.31l-37.84-13.7c-68.47-24.79-95.38-107.34-54.69-167.72l90.71-134.58c15.77-23.39 44.19-32.61 69.52-25.42-2.05 4.36-3.88 9.7-5.41 15.99z" fill="#cc754a"/><ellipse cx="256" cy="320.014" fill="#a54828" rx="47.543" ry="69.544"/><g><path d="m222.989 384.822h13.74c6.484 0 11.936-4.865 12.671-11.308l6.591-57.779h-52.264l6.591 57.779c.735 6.442 6.187 11.308 12.671 11.308z" fill="#fff9f1"/><path d="m237.858 384.774c-.37.03-.75.05-1.13.05h-13.74c-6.49 0-11.94-4.86-12.67-11.31l-6.59-57.77h16l6.59 57.77c.69 6.07 5.56 10.74 11.54 11.26z" fill="#f7eadc"/></g><g><path d="m275.252 384.822h13.74c6.484 0 11.936-4.865 12.671-11.308l6.591-57.779h-52.264l6.591 57.779c.735 6.442 6.187 11.308 12.671 11.308z" fill="#fff9f1"/><path d="m290.121 384.774c-.37.03-.75.05-1.13.05h-13.74c-6.49 0-11.94-4.86-12.67-11.31l-6.59-57.77h16l6.59 57.77c.69 6.07 5.56 10.74 11.54 11.26z" fill="#f7eadc"/></g><path d="m339.4 267.25v36.49c0 23.03-18.68 41.71-41.71 41.71-11.51 0-21.94-4.66-29.49-12.21-7.54-7.55-12.21-18-12.21-29.5 0 11.51-4.66 21.92-12.19 29.47-7.55 7.56-17.98 12.24-29.51 12.24-11.52 0-6.22-25.52-13.77-33.06-7.54-7.55-14.43 2.85-14.43-8.65l-13.49-36.49c0-37.7 30.55-68.27 68.26-68.27h30.28c37.7 0 68.26 30.57 68.26 68.27z" fill="#b75c34"/><path d="m268.2 260.6v72.64c-7.54-7.55-16.87-7.58-24.4-.03v-72.61z" fill="#a54828"/><path d="m223.805 267.245v36.49c0 11.509 4.665 21.956 12.212 29.502 1.225 1.225 2.522 2.378 3.89 3.404-7.06 5.529-15.958 8.808-25.612 8.808-11.527 0-21.938-4.665-29.484-12.212-7.547-7.547-12.212-17.993-12.212-29.502v-36.49c0-37.698 30.547-68.264 68.263-68.264h30.277c3.566 0 7.06.271 10.465.811-32.745 5.026-57.799 33.321-57.799 67.453z" fill="#a54828"/><g><path d="m269.973 215.922h-27.945c-23.562 0-42.663 19.101-42.663 42.663v4.849c0 6.249 5.066 11.314 11.314 11.314h90.643c6.249 0 11.314-5.066 11.314-11.314v-4.849c0-23.562-19.101-42.663-42.663-42.663z" fill="#516666"/><path d="m277.759 216.627c-2.519-.471-5.126-.712-7.787-.712h-27.949c-23.558 0-42.658 19.1-42.658 42.669v4.852c0 6.243 5.06 11.313 11.313 11.313h43.534c-6.254 0-11.313-5.071-11.313-11.313v-4.852c0-20.908 15.026-38.299 34.86-41.957z" fill="#384948"/></g><g><ellipse cx="147.653" cy="163.897" fill="#516666" rx="21.816" ry="23.999"/><path d="m158.552 184.682c-3.206 2.044-6.937 3.216-10.901 3.216-12.054 0-21.813-10.745-21.813-24.001 0-13.255 9.759-24.001 21.813-24.001 3.964 0 7.696 1.172 10.901 3.216-6.513 4.148-10.901 11.903-10.901 20.785s4.389 16.637 10.901 20.785z" fill="#384948"/><ellipse cx="362.111" cy="163.897" fill="#516666" rx="21.816" ry="23.999"/><path d="m373.01 184.682c-3.206 2.044-6.937 3.216-10.901 3.216-12.054 0-21.813-10.745-21.813-24.001 0-13.255 9.759-24.001 21.813-24.001 3.964 0 7.696 1.172 10.901 3.216-6.513 4.148-10.901 11.903-10.901 20.785s4.389 16.637 10.901 20.785z" fill="#384948"/></g></g></g></svg>