<svg id="Capa_1" enable-background="new 0 0 512 512" height="512" viewBox="0 0 512 512" width="512" xmlns="http://www.w3.org/2000/svg"><g><path d="m512 256c0 98.23-55.33 183.54-136.52 226.46-35.67 18.86-76.33-19.664-119.48-19.664-47.53 0-92.03 36.244-130.17 13.673-75.32-44.559-125.83-126.619-125.83-220.469 0-141.38 114.62-256 256-256s256 114.62 256 256z" fill="#f5cf33"/><path d="m375.48 482.46c-35.67 18.86-76.33 29.54-119.48 29.54-20.97 0-41.36-2.52-60.88-7.29-24.69-6.02-47.98-15.63-69.29-28.24 9.68-61.14 19.37-122.28 29.05-183.42 22.24 3.53 44.62 5.81 67.05 6.85 41.25 1.92 82.65-.37 123.55-6.85 10 63.14 20 126.27 30 189.41z" fill="#dc8758"/><path d="m221.93 299.9-26.81 204.81c-24.69-6.02-47.98-15.63-69.29-28.24 9.68-61.14 19.37-122.28 29.05-183.42 22.24 3.53 44.62 5.81 67.05 6.85z" fill="#cc754a"/><g><g><g><path d="m423.635 88.616c-6.655 6.88-24.505-3.032-35.926 2.299-8.388 3.915-9.142 15.015-20.535 17.656-91.548 21.217-73.266-45.297-73.266-45.297s45.353-4.663 73.275-32.594c27.923-27.923 42.826-40.49 61.464-21.852 13.157 13.157 22.737 51.137-5.012 79.788z" fill="#cc754a"/><path d="m423.635 88.616c-11.542 11.933-29.555 22.242-56.461 28.478-83.931 0-44.771-30.597-44.771-30.597 49.122-14.712 70.261-69.15 89.116-61.793 11.604 4.525 23.919 38.474 12.116 63.912z" fill="#a54828"/></g><g><path d="m76.724 88.616c6.655 6.88 24.505-3.032 35.926 2.299 8.388 3.915 9.142 15.015 20.535 17.656 91.548 21.217 73.266-45.297 73.266-45.297s-45.353-4.663-73.275-32.594c-27.922-27.923-42.825-40.49-61.463-21.852-13.158 13.157-22.737 51.137 5.011 79.788z" fill="#cc754a"/><path d="m76.724 88.616c11.542 11.933 29.555 22.242 56.461 28.478 83.931 0 44.771-30.597 44.771-30.597-49.122-14.712-70.261-69.15-89.116-61.793-11.603 4.525-23.919 38.474-12.116 63.912z" fill="#a54828"/></g></g><path d="m294.163 47.27-43.983 13.126-43.983-13.126c-13.207-3.941-27.493.314-36.392 10.838l-51.239 60.601c-15.556 18.398-21.368 43.129-15.637 66.53l29.523 120.536c8.562 34.957 39.896 59.542 75.886 59.542h83.684c35.99 0 67.324-24.586 75.886-59.542l29.523-120.536c5.732-23.401-.081-48.132-15.637-66.53l-51.239-60.601c-8.899-10.524-23.186-14.779-36.392-10.838z" fill="#dc8758"/><path d="m230.285 365.321h-21.947c-35.99 0-67.326-24.587-75.889-59.544l-29.52-120.538c-5.732-23.397.078-48.132 15.633-66.527l51.241-60.603c8.894-10.526 23.18-14.782 36.39-10.839l10.24 3.057c-1.668 1.98-3.188 4.594-4.464 7.782l-24.361 60.603c-7.399 18.395-10.161 43.129-7.434 66.527l14.035 120.538c4.072 34.957 18.967 59.544 36.076 59.544z" fill="#cc754a"/><g><path d="m386.325 132.229s26.539-2.927 45.298 13.728c4.666 4.143 1.334 11.838-4.877 11.244l-40.421-3.867z" fill="#516666"/><g><ellipse cx="114.035" cy="176.568" fill="#516666" rx="30.836" ry="44.337"/><path d="m129.44 214.965c-4.531 3.776-9.806 5.942-15.409 5.942-17.038 0-30.832-19.851-30.832-44.339s13.794-44.339 30.832-44.339c5.603 0 10.878 2.166 15.409 5.941-9.205 7.663-15.409 21.989-15.409 38.398s6.203 30.734 15.409 38.397z" fill="#384948"/><ellipse cx="386.329" cy="176.568" fill="#516666" rx="30.836" ry="44.337"/><path d="m401.734 214.965c-4.531 3.776-9.806 5.942-15.409 5.942-17.038 0-30.832-19.851-30.832-44.339s13.794-44.339 30.832-44.339c5.603 0 10.878 2.166 15.409 5.941-9.205 7.663-15.409 21.989-15.409 38.398s6.204 30.734 15.409 38.397z" fill="#384948"/></g><path d="m114.035 132.229s-26.539-2.927-45.298 13.728c-4.666 4.143-1.334 11.838 4.877 11.244l40.421-3.867z" fill="#384948"/></g><g><circle cx="250.18" cy="388.202" fill="#ffe0a7" r="57.816"/><path d="m267.532 443.369c-5.472 1.72-11.299 2.649-17.344 2.649-31.934 0-57.824-25.881-57.824-57.815s25.89-57.816 57.824-57.816c6.045 0 11.872.93 17.344 2.649-23.458 7.365-40.472 29.277-40.472 55.167s17.014 47.801 40.472 55.166z" fill="#ffd797"/><g><path d="m304.035 392.78c-18.924 0-35.565-9.762-45.17-24.518-5.498-8.442-8.685-18.516-8.685-29.338 0 10.821-3.188 20.896-8.685 29.338-9.606 14.756-26.246 24.518-45.171 24.518-30.936 0-55.088-26.724-51.988-57.494l7.712-76.358c5.081-50.382 47.498-88.725 98.131-88.725 25.316 0 48.575 9.588 66.144 25.473 17.57 15.885 29.451 38.066 31.986 63.252l7.712 76.358c3.103 30.771-21.059 57.494-51.986 57.494z" fill="#ffe5bf"/></g><g><path d="m204.167 335.286c-1.989 19.758 7.252 37.849 22.32 48.262-8.607 5.828-18.985 9.232-30.163 9.232-30.936 0-55.088-26.724-51.988-57.494l7.712-76.358c5.081-50.382 47.498-88.725 98.131-88.725 10.413 0 20.47 1.624 29.92 4.629-36.572 11.638-64.182 44.068-68.22 84.096z" fill="#ffe0a7"/></g><path d="m293.987 220.905c0 21.183-15.112 38.9-35.122 42.939v104.418c-5.498-8.442-11.872-8.442-17.37 0v-104.418c-20.01-4.039-35.122-21.756-35.122-42.939 0-4.794 3.891-8.685 8.685-8.685s8.685 3.891 8.685 8.685c0 14.574 11.864 26.437 26.437 26.437s26.437-11.864 26.437-26.437c0-4.794 3.891-8.685 8.685-8.685s8.685 3.891 8.685 8.685z" fill="#ffd797"/></g></g></g></svg>