<svg id="Capa_1" enable-background="new 0 0 512 512" height="512" viewBox="0 0 512 512" width="512" xmlns="http://www.w3.org/2000/svg"><g><path d="m512 256c0 87.7-44.1 165.1-111.34 211.23-41.16 28.24-90.98-21.308-144.66-21.308s-103.5 49.548-144.66 21.308c-67.24-46.13-111.34-123.53-111.34-211.23 0-141.38 114.62-256 256-256s256 114.62 256 256z" fill="#8fd1e3"/><path d="m400.66 467.23c-11.67 8.01-24.03 15.07-36.99 21.08-32.73 15.2-69.21-7.34-107.67-7.34-27.76 0-37.51 17.5-62.54 9.32-9.65-3.15-36.02 2.25-45.12-1.99-12.96-5.99-25.33-13.06-37-21.07l22.15-38.35c2.15-3.72 4.43-7.3 6.84-10.73 20.23-28.99 48.85-47.47 79.77-55.45 54.41-14.04 115.96 4.44 151.58 55.44 2.4 3.43 4.68 7.01 6.83 10.74z" fill="#f97855"/><path d="m243.67 381.86s-62.84 28.84-67.18 117.54c-23.38-7.63-45.27-18.53-65.15-32.17l22.15-38.35c20.33-35.2 52.03-57.26 86.61-66.18z" fill="#f36a38"/><path d="m363.67 488.31c-32.73 15.2-69.21 23.69-107.67 23.69-27.76 0-54.48-4.42-79.51-12.6-9.65-3.15-19.05-6.86-28.15-11.1 10.26-12.15 22.14-22.07 35.04-29.75 11.56-6.89 23.94-11.98 36.72-15.27 50.53-13.04 107.22 1.97 143.57 45.03z" fill="#f36a38"/><path d="m183.38 458.55c-3.63 11.93-6.14 25.49-6.89 40.85-9.65-3.15-19.05-6.86-28.15-11.1 10.26-12.15 22.14-22.07 35.04-29.75z" fill="#e05327"/><g fill="#f36a38"><path d="m183.857 72.391-84.656-66.699c-18.797-14.809-45.962 1.322-41.955 24.914l26.263 154.615z"/><path d="m325.217 72.391 84.656-66.698c18.797-14.809 45.962 1.322 41.955 24.914l-26.263 154.615z"/></g><g><path d="m155.952 106.954s-24.806-75.172-54.797-68.554-25.335 40.155-15.45 50.039c0 0-14.521 58.796 45.41 58.796s24.837-40.281 24.837-40.281z" fill="#f7eadc"/><path d="m356.048 106.954s24.806-75.172 54.797-68.554 25.335 40.155 15.45 50.039c0 0 14.521 58.796-45.41 58.796s-24.837-40.281-24.837-40.281z" fill="#fff9f1"/></g><path d="m371.68 418.14c-8.07 1.64-16.5 2.5-25.23 2.5h-180.9c-8.72 0-17.15-.86-25.22-2.49 20.23-28.99 48.85-47.47 79.77-55.45 54.41-14.04 115.96 4.44 151.58 55.44z" fill="#f36a38"/><path d="m460.596 328.213h-.011c-18.565 42.893-60.77 75.127-114.134 75.127h-126.265c-95.647 0-210.065-103.542-162.241-186.375l55.973-96.946c39.04-67.621 114.279-93.437 180.956-77.448 41.183 9.871 61.894 62.902 86.011 104.663l48.223 69.731c21.141 36.609 46.2 77.271 31.488 111.248z" fill="#f97855"/><g fill="#f36a38"><path d="m157.111 216.965c-31.235 82.833 7.817 186.375 70.275 186.375h-61.836c-95.647 0-155.429-103.542-107.605-186.375l55.973-96.946c35.088-60.77 99.411-87.785 160.492-81.012-31.89 5.419-62.414 32.423-80.746 81.012z"/><path d="m460.596 328.213h-.011c-262.302-28.614-192.782-226.404-165.711-285.642 41.183 9.871 79.091 35.687 103.208 77.448l55.973 96.946c21.142 36.609 21.253 77.271 6.541 111.248z"/><path d="m147.973 305.095c-25.616 10.804-57.384 18.843-96.557 23.118h-.011c-14.712-33.977 17.005-70.94 38.146-107.548l41.564-73.43c24.117-41.761 44.828-94.792 86.011-104.663 2.854 6.251 6.185 14.046 9.549 23.029 23.74 63.379 49.123 185.641-78.702 239.494z"/></g><path d="m226.675 65.6c-12.958 13.313-24.339 31.457-33.011 54.419l-36.553 96.946c-10.793 28.614-13.191 59.704-9.138 88.13-25.616 10.804-57.384 18.843-96.557 23.118h-.011c-14.712-33.977-14.601-74.639 6.54-111.247l55.973-96.946c24.117-41.761 62.025-67.577 103.208-77.448 2.854 6.251 6.185 14.045 9.549 23.028z" fill="#e05327"/><path d="m288.225 310.922c-12.677 0-24.294-5.484-32.225-14.667-7.931 9.183-19.548 14.667-32.225 14.667-4.418 0-8-3.582-8-8s3.582-8 8-8c11.009 0 20.737-6.621 24.785-16.867 1.206-3.054 4.157-5.061 7.44-5.061s6.234 2.007 7.44 5.061c4.047 10.246 13.776 16.867 24.785 16.867 4.418 0 8 3.582 8 8s-3.581 8-8 8z" fill="#e05327"/><g><path d="m285.047 251.942c0 2.298-.933 4.364-2.432 5.874-1.499 1.499-3.564 2.432-5.863 2.432-2.632 0-5.03 1.066-6.751 2.798-1.732 1.721-2.798 4.108-2.798 6.74 0 3.098-1.255 5.907-3.287 7.928-1.666 1.677-3.875 2.82-6.329 3.165-.51.088-1.043.121-1.587.121-3.087 0-5.896-1.255-7.917-3.287-2.032-2.021-3.287-4.83-3.287-7.928 0-2.632-1.066-5.019-2.798-6.74-1.721-1.732-4.119-2.798-6.751-2.798-2.298 0-4.364-.933-5.863-2.432-1.499-1.51-2.432-3.575-2.432-5.874 0-15.123 12.258-27.393 27.382-27.393h3.331c7.562 0 14.413 3.065 19.365 8.028 4.953 4.953 8.017 11.804 8.017 19.366z" fill="#516666"/><path d="m257.588 280.878c-.511.089-1.044.122-1.588.122-3.087 0-5.896-1.255-7.917-3.287-2.032-2.021-3.287-4.83-3.287-7.928 0-2.632-1.066-5.019-2.798-6.74-1.721-1.732-4.119-2.798-6.751-2.798-2.298 0-4.364-.933-5.863-2.432-1.499-1.51-2.432-3.575-2.432-5.874 0-15.123 12.258-27.393 27.382-27.393h3.331c.001.001-23.528 18.722-.077 56.33z" fill="#384948"/></g><g><ellipse cx="182.742" cy="219.776" fill="#fff9f1" rx="39.856" ry="49.628"/><path d="m196.857 266.196c-4.39 2.08-9.15 3.21-14.12 3.21-22.01 0-39.85-22.22-39.85-49.63s17.84-49.63 39.85-49.63c4.97 0 9.73 1.13 14.12 3.21-15.05 7.1-25.74 25.2-25.74 46.42s10.69 39.32 25.74 46.42z" fill="#f7eadc"/><path d="m206.9 219.78c0 17.76-10.6 32.45-24.36 34.76-1.25.21-2.52.32-3.81.32-15.56 0-28.17-15.71-28.17-35.08 0-19.38 12.61-35.08 28.17-35.08 1.29 0 2.56.11 3.81.32 13.76 2.31 24.36 16.99 24.36 34.76z" fill="#516666"/><ellipse cx="329.258" cy="219.776" fill="#fff9f1" rx="39.856" ry="49.628"/><path d="m343.372 266.196c-4.39 2.08-9.15 3.21-14.12 3.21-22.01 0-39.85-22.22-39.85-49.63s17.84-49.63 39.85-49.63c4.97 0 9.73 1.13 14.12 3.21-15.05 7.1-25.74 25.2-25.74 46.42s10.69 39.32 25.74 46.42z" fill="#f7eadc"/><path d="m361.44 219.78c0 19.37-12.61 35.08-28.17 35.08-1.46 0-2.89-.14-4.29-.4-13.52-2.58-23.88-17.13-23.88-34.68 0-17.56 10.36-32.1 23.88-34.68 1.4-.26 2.83-.4 4.29-.4 15.56 0 28.17 15.7 28.17 35.08z" fill="#516666"/><g fill="#384948"><path d="m317.63 219.78c0 13.5 4.33 25.74 11.35 34.68-13.52-2.58-23.88-17.13-23.88-34.68 0-17.56 10.36-32.1 23.88-34.68-7.02 8.94-11.35 21.18-11.35 34.68z"/><path d="m171.12 219.78c0 13.54 4.35 25.81 11.42 34.76-1.25.21-2.52.32-3.81.32-15.56 0-28.17-15.71-28.17-35.08 0-19.38 12.61-35.08 28.17-35.08 1.29 0 2.56.11 3.81.32-7.07 8.95-11.42 21.22-11.42 34.76z"/></g></g><g fill="#ffe5bf"><path d="m312.004 296.446c-3.799 0-7.057-2.876-7.452-6.737-.422-4.121 2.577-7.803 6.698-8.224l109.594-11.213c4.118-.422 7.803 2.577 8.224 6.698.422 4.121-2.577 7.803-6.698 8.224l-109.594 11.213c-.258.026-.516.039-.772.039z"/><path d="m380.22 346.818c-1.006 0-2.029-.204-3.009-.634l-57.649-25.291c-3.793-1.664-5.519-6.088-3.855-9.881s6.089-5.519 9.881-3.855l57.649 25.291c3.793 1.664 5.519 6.088 3.855 9.881-1.234 2.813-3.986 4.489-6.872 4.489z"/><path d="m199.996 296.446c-.255 0-.513-.013-.772-.04l-109.594-11.213c-4.121-.422-7.12-4.104-6.698-8.224s4.114-7.119 8.224-6.698l109.594 11.213c4.121.422 7.12 4.104 6.698 8.224-.395 3.862-3.653 6.738-7.452 6.738z"/><path d="m131.781 346.818c-2.887 0-5.638-1.676-6.872-4.489-1.664-3.793.062-8.217 3.855-9.881l57.649-25.291c3.794-1.664 8.218.062 9.881 3.855 1.664 3.793-.062 8.217-3.855 9.881l-57.649 25.291c-.98.431-2.003.634-3.009.634z"/></g></g></svg>