<svg id="Capa_1" enable-background="new 0 0 512 512" height="512" viewBox="0 0 512 512" width="512" xmlns="http://www.w3.org/2000/svg"><g><path d="m512 256c0 68.09-26.59 129.98-69.95 175.84-46.66 49.36-112.76-17.67-186.05-17.67-28.05 0-27.494 24.836-52.744 16.486-40.74-13.44-104.506 31.654-133.306 1.184-43.36-45.86-69.95-107.75-69.95-175.84 0-141.38 114.62-256 256-256s256 114.62 256 256z" fill="#f5cf33"/><path d="m442.05 431.84c-46.66 49.36-112.76 80.16-186.05 80.16s-139.39-30.8-186.05-80.16c14.9-98.14 92.53-172.94 186.05-172.94s171.15 74.8 186.05 172.94z" fill="#f36a38"/><path d="m173.33 466.22c0 11.2.81 22.2 2.37 32.92-40.74-13.44-76.95-36.83-105.75-67.3 14.89-98.14 92.52-172.94 186.05-172.94 18.4 0 36.18 2.9 52.99 8.3-78.39 25.15-135.66 104.74-135.66 199.02z" fill="#e05327"/><g><path d="m166.614 98.406-37.498-56.582c-16.631-25.096-47.809-36.234-76.577-27.357-29.523 9.109-49.167 37.011-47.787 67.877l2.287 51.152c.869 19.441 11.796 37.028 28.84 46.42l42.385 23.355 66.797-79.283z" fill="#516666"/><path d="m69.974 179.915 19.1 10.53-10.81 12.83-42.38-23.36c-17.05-9.39-27.97-26.98-28.84-46.42l-2.29-51.15c-.05-1.02-.07-2.04-.07-3.06 0-29.64 19.32-56.01 47.86-64.82 12.35-3.81 25.14-3.93 37.03-.84-.98.26-1.96.54-2.94.84-28.54 8.81-47.86 35.18-47.86 64.82 0 1.02.02 2.04.07 3.06l2.29 51.15c.87 19.44 11.79 37.03 28.84 46.42z" fill="#384948"/><path d="m157.815 137.72s-41.256-86.568-85.251-98.326-84.325 117.144 42.626 147.635 42.625-49.309 42.625-49.309z" fill="#ffe5bf"/><path d="m345.386 98.406 37.498-56.582c16.632-25.096 47.809-36.234 76.578-27.358 29.523 9.11 49.166 37.011 47.787 67.877l-2.287 51.152c-.869 19.441-11.796 37.028-28.84 46.42l-42.385 23.355-66.797-79.283z" fill="#516666"/><path d="m447.993 11.994c-22.99 7.1-40.97 26.08-46.28 50.34l-23.01 75.62-11.77-13.96-21.55-25.58 37.5-56.59c14.44-21.78 39.84-33.05 65.11-29.83z" fill="#384948"/><path d="m354.185 137.72s41.256-86.568 85.251-98.326 84.325 117.144-42.626 147.635-42.625-49.309-42.625-49.309z" fill="#ffe5bf"/><path d="m355.198 354.907 44.987-28.964c27.709-17.84 44.454-48.537 44.454-81.493v-57.42c0-16.861-7.215-32.915-19.823-44.109l-70.431-62.532c-17.356-15.409-42.135-19.209-63.31-9.707l-26.344 11.821c-5.554 2.492-11.908 2.492-17.462 0l-26.344-11.821c-21.175-9.502-45.954-5.702-63.31 9.707l-70.431 62.531c-12.608 11.194-19.823 27.249-19.823 44.109v57.421c0 32.955 16.745 63.653 44.454 81.493l44.987 28.964c9.522 6.13 20.607 9.39 31.931 9.39h134.534c11.325 0 22.41-3.26 31.931-9.39z" fill="#f97855"/><g><ellipse cx="184.021" cy="201.546" fill="#fde42f" rx="30.786" ry="38.334"/><path d="m194.923 237.402c-3.391 1.607-7.068 2.48-10.907 2.48-17.001 0-30.781-17.163-30.781-38.335s13.78-38.335 30.781-38.335c3.839 0 7.516.873 10.907 2.479-11.625 5.484-19.882 19.465-19.882 35.856s8.257 30.371 19.882 35.855z" fill="#f5cf33"/><path d="m202.681 201.55c0 13.718-8.188 25.065-18.816 26.849-.966.162-1.946.247-2.943.247-12.019 0-21.759-12.135-21.759-27.097 0-14.97 9.74-27.097 21.759-27.097.996 0 1.977.085 2.943.247 10.628 1.786 18.816 13.125 18.816 26.851z" fill="#516666"/><ellipse cx="327.979" cy="201.546" fill="#fde42f" rx="30.786" ry="38.334"/><path d="m338.881 237.402c-3.391 1.607-7.068 2.48-10.907 2.48-17.001 0-30.781-17.163-30.781-38.335s13.78-38.335 30.781-38.335c3.839 0 7.516.873 10.907 2.479-11.625 5.484-19.882 19.465-19.882 35.856s8.257 30.371 19.882 35.855z" fill="#f5cf33"/><path d="m352.837 201.55c0 14.962-9.74 27.097-21.759 27.097-1.128 0-2.232-.108-3.314-.309-10.443-1.993-18.445-13.232-18.445-26.788 0-13.564 8.002-24.795 18.445-26.788 1.081-.201 2.186-.309 3.314-.309 12.019 0 21.759 12.127 21.759 27.097z" fill="#516666"/><g fill="#384948"><path d="m318.997 201.55c0 10.428 3.345 19.882 8.767 26.788-10.443-1.993-18.445-13.232-18.445-26.788 0-13.564 8.002-24.795 18.445-26.788-5.422 6.906-8.767 16.36-8.767 26.788z"/><path d="m175.044 201.55c0 10.459 3.36 19.936 8.821 26.849-.966.162-1.946.247-2.943.247-12.019 0-21.759-12.135-21.759-27.097 0-14.97 9.74-27.097 21.759-27.097.996 0 1.977.085 2.943.247-5.461 6.914-8.821 16.392-8.821 26.851z"/></g></g><path d="m235.711 364.3h-46.98c-11.32 0-22.41-3.26-31.93-9.39l-44.98-28.96c-27.71-17.84-44.46-48.54-44.46-81.49v-57.43c0-16.86 7.22-32.91 19.82-44.1l70.43-62.54c17.36-15.41 42.14-19.21 63.32-9.7l.68.3c-4.31 2.38-8.38 5.52-12.05 9.4l-59.19 62.54c-10.59 11.19-16.66 27.24-16.66 44.1v57.43c0 32.95 14.07 63.65 37.36 81.49l37.81 28.96c8 6.13 17.31 9.39 26.83 9.39z" fill="#f36a38"/><g><g><path d="m187.56 283.557c-1.327 0-2.671-.331-3.911-1.027-3.853-2.164-5.221-7.041-3.057-10.893l12.559-22.357c10.521-18.728 13.33-40.488 7.909-61.273-4.854-18.612-21.677-31.611-40.912-31.611-4.418 0-8-3.582-8-8s3.582-8 8-8c26.513 0 49.703 17.918 56.394 43.573 6.471 24.813 3.118 50.791-9.442 73.148l-12.559 22.356c-1.467 2.613-4.184 4.084-6.981 4.084z" fill="#e05327"/></g><g><path d="m324.44 283.557c-2.798 0-5.514-1.47-6.982-4.083l-12.559-22.356c-12.56-22.356-15.913-48.334-9.442-73.147 6.691-25.655 29.881-43.573 56.394-43.573 4.418 0 8 3.582 8 8s-3.582 8-8 8c-19.234 0-36.058 12.999-40.912 31.611-5.421 20.785-2.612 42.545 7.909 61.273l12.559 22.357c2.164 3.852.796 8.729-3.057 10.893-1.238.694-2.583 1.025-3.91 1.025z" fill="#e05327"/></g></g><path d="m319.41 350.76c0 9.65-2.15 18.79-6.01 26.97-2.83 6.02-6.58 11.52-11.07 16.32-11.57 12.38-28.05 20.12-46.33 20.12s-34.76-7.74-46.33-20.12c-4.49-4.8-8.24-10.3-11.07-16.32-3.86-8.18-6.01-17.32-6.01-26.97 0-35.02 28.39-63.41 63.41-63.41s63.41 28.39 63.41 63.41z" fill="#ffd797"/><path d="m374.33 314.99c0 34.39-27.87 62.26-62.25 62.26-19.09 0-36.17-8.59-47.58-22.12-3.36-3.96-6.22-8.35-8.5-13.07-2.28 4.72-5.14 9.11-8.5 13.07-11.41 13.53-28.49 22.12-47.58 22.12-34.38 0-62.25-27.87-62.25-62.26 0-34.38 27.87-62.25 62.25-62.25 21.43 0 40.34 10.83 51.53 27.33 1.7 2.49 3.22 5.12 4.55 7.86 1.33-2.74 2.85-5.37 4.55-7.86 11.19-16.5 30.1-27.33 51.53-27.33 34.38 0 62.25 27.87 62.25 62.25z" fill="#ffe5bf"/><path d="m177.457 314.993c0 27.42 17.73 50.7 42.36 59-6.25 2.11-12.94 3.25-19.9 3.25-34.38 0-62.25-27.87-62.25-62.25 0-34.39 27.87-62.26 62.25-62.26 6.96 0 13.65 1.14 19.9 3.25-24.63 8.3-42.36 31.58-42.36 59.01z" fill="#ffe0a7"/><path d="m264.5 280.07v75.06c-.034-.04-.067-.079-.101-.119-4.42-5.236-12.379-5.236-16.799 0l-.101.119v-75.06z" fill="#ffd797"/><path d="m266.682 296.879h-21.364c-18.013 0-32.615-14.602-32.615-32.615v-3.707c0-4.777 3.873-8.65 8.65-8.65h69.295c4.777 0 8.65 3.873 8.65 8.65v3.707c-.001 18.013-14.603 32.615-32.616 32.615z" fill="#516666"/><path d="m272.635 296.341c-1.926.36-3.918.544-5.953.544h-21.367c-18.01 0-32.611-14.602-32.611-32.62v-3.709c0-4.772 3.868-8.649 8.649-8.649h33.281c-4.781 0-8.649 3.877-8.649 8.649v3.709c0 15.984 11.487 29.279 26.65 32.076z" fill="#384948"/><g><g fill="#516666"><path d="m431.393 229.542c0 8.044-16.521 14.566-24.566 14.566s-14.566-6.521-14.566-14.566c0-8.044 6.521-14.566 14.566-14.566s24.566 6.522 24.566 14.566z"/><path d="m380.983 244.108c0 8.044-6.521 14.566-14.566 14.566s-24.566-6.521-24.566-14.566 16.521-14.566 24.566-14.566 14.566 6.522 14.566 14.566z"/><path d="m413.026 273.24c0 8.044-6.521 24.566-14.566 24.566s-14.566-16.521-14.566-24.566 6.521-14.566 14.566-14.566 14.566 6.521 14.566 14.566z"/><path d="m340.577 104.74c0 8.044-6.521 14.566-14.566 14.566s-14.566-6.521-14.566-14.566 6.521-24.566 14.566-24.566 14.566 16.522 14.566 24.566z"/><path d="m328.31 136.831c0 8.044-16.521 14.566-24.566 14.566s-14.566-6.521-14.566-14.566 6.521-14.566 14.566-14.566 24.566 6.521 24.566 14.566z"/></g><g><path d="m80.607 229.542c0 8.044 16.521 14.566 24.566 14.566s14.566-6.521 14.566-14.566c0-8.044-6.521-14.566-14.566-14.566s-24.566 6.522-24.566 14.566z" fill="#384948"/><path d="m131.017 244.108c0 8.044 6.521 14.566 14.566 14.566s24.566-6.521 24.566-14.566-16.521-14.566-24.566-14.566-14.566 6.522-14.566 14.566z" fill="#516666"/><path d="m98.974 273.24c0 8.044 6.521 24.566 14.566 24.566s14.566-16.521 14.566-24.566-6.521-14.566-14.566-14.566-14.566 6.521-14.566 14.566z" fill="#384948"/><g fill="#516666"><path d="m200.56 104.74c0 8.04-6.53 14.57-14.57 14.57-3.74 0-7.15-1.41-9.73-3.73-2.97-2.66-4.84-6.54-4.84-10.84 0-8.04 6.52-24.57 14.57-24.57 4.87 0 9.18 6.06 11.82 12.63 1.74 4.28 2.75 8.77 2.75 11.94z"/><path d="m183.69 136.831c0 8.044 16.521 14.566 24.566 14.566s14.566-6.521 14.566-14.566-6.521-14.566-14.566-14.566-24.566 6.521-24.566 14.566z"/></g></g></g><g fill="#ffd797"><g><circle cx="342.046" cy="302.15" r="10.3"/><circle cx="313.47" cy="312.45" r="10.3"/><circle cx="336.129" cy="333.05" r="10.3"/></g><g><circle cx="169.954" cy="302.15" r="10.3"/><circle cx="198.53" cy="312.45" r="10.3"/><circle cx="175.871" cy="333.05" r="10.3"/></g></g><path d="m197.81 92.8-21.55 22.78c-2.97-2.66-4.84-6.54-4.84-10.84 0-8.04 6.52-24.57 14.57-24.57 4.87 0 9.18 6.06 11.82 12.63z" fill="#384948"/></g><g fill="#516666"><path d="m336.659 401.525c0 8.044 6.521 14.566 14.566 14.566s14.566-6.521 14.566-14.566-6.521-24.566-14.566-24.566-14.566 16.521-14.566 24.566z"/><path d="m377.069 416.09c0 8.044 6.521 14.566 14.566 14.566s24.566-6.521 24.566-14.566-16.521-14.566-24.566-14.566-14.566 6.522-14.566 14.566z"/><path d="m345.026 445.222c0 8.044 6.521 24.566 14.566 24.566s14.566-16.521 14.566-24.566-6.521-14.566-14.566-14.566-14.566 6.521-14.566 14.566z"/></g><g fill="#384948"><path d="m166.307 401.525c0 8.044-6.521 14.566-14.566 14.566s-14.566-6.521-14.566-14.566 6.521-24.566 14.566-24.566 14.566 16.521 14.566 24.566z"/><path d="m125.896 416.09c0 8.044-6.521 14.566-14.566 14.566s-24.566-6.521-24.566-14.566 16.521-14.566 24.566-14.566 14.566 6.522 14.566 14.566z"/><path d="m157.939 445.222c0 8.044-6.521 24.566-14.566 24.566s-14.566-16.521-14.566-24.566 6.521-14.566 14.566-14.566 14.566 6.521 14.566 14.566z"/></g><g fill="#516666"><path d="m251.615 465.802c0 8.044-16.521 14.566-24.566 14.566s-14.566-6.521-14.566-14.566 6.521-14.566 14.566-14.566 24.566 6.522 24.566 14.566z"/><path d="m299.516 465.802c0 8.044-6.521 14.566-14.566 14.566s-24.566-6.521-24.566-14.566 16.521-14.566 24.566-14.566 14.566 6.522 14.566 14.566z"/></g></g></svg>