<svg id="Capa_1" enable-background="new 0 0 512 512" height="512" viewBox="0 0 512 512" width="512" xmlns="http://www.w3.org/2000/svg"><g><path d="m512 256c0 82.12-38.667 155.209-98.787 202.054-43.388 33.807-97.949-12.963-157.213-12.963s-113.826 46.771-157.213 12.963c-60.12-46.845-98.787-119.934-98.787-202.054 0-141.385 114.615-256 256-256s256 114.615 256 256z" fill="#f5cf33"/><path d="m413.21 458.05c-43.39 33.81-97.95 53.95-157.21 53.95-30.37 0-59.5-5.29-86.53-15-25.71-9.23-49.53-22.46-70.68-38.95l64.16-134.78 12.48-26.21h161.14z" fill="#dc8758"/><path d="m211.29 374.37-41.82 122.63c-25.71-9.23-49.53-22.46-70.68-38.95l64.16-134.78z" fill="#cc754a"/><g><path d="m358.437 173.495c31.875-10.009 61.67-25.717 87.938-46.362l35.812-28.147c14.277-11.221 34.449 2.844 28.857 20.12l-33.967 104.935c-4.548 14.05-17.981 22.227-31.57 21.219-4.53-.336-86.617-.031-86.617-.031z" fill="#dc8758"/><path d="m476.48 159.103c2.363-7.208-6.305-12.938-11.995-7.921-26.082 23-72.152 57.225-115.354 57.225-65.063 0 40.021 25.629 40.021 25.629l52.14-12.209c9.839-2.304 17.764-9.57 20.911-19.172z" fill="#ffe5bf"/></g><g><path d="m153.563 173.495c-31.875-10.009-61.67-25.717-87.938-46.362l-35.812-28.147c-14.277-11.221-34.449 2.844-28.857 20.12l33.967 104.935c4.548 14.05 17.981 22.227 31.57 21.219 4.53-.336 86.617-.031 86.617-.031z" fill="#cc754a"/><path d="m35.52 159.103c-2.363-7.208 6.305-12.938 11.995-7.921 26.082 23 72.152 57.225 115.354 57.225 65.063 0-40.021 25.629-40.021 25.629l-52.14-12.209c-9.838-2.304-17.764-9.57-20.911-19.172z" fill="#ffe0a7"/></g><g><g><path d="m101.49 292.108 9.541 48.082c6.422 32.364 26.5 60.382 55.084 76.864l67.879 39.142-26.904-136.296z" fill="#a54828"/><path d="m410.509 292.108-9.541 48.082c-6.422 32.364-26.5 60.382-55.084 76.864l-67.879 39.142 26.905-136.296z" fill="#b75c34"/></g><path d="m389.72 324.41c-34.69 19.28-80.06 52.05-103.69 100.3h-59.93c-23.63-48.25-54.568-89.297-89.258-108.577-25.45-14.13-42.717-35.629-31.247-62.389 5.1-11.91 13.383-7.337 17.253-19.707l12.582-60.411c2.7-8.66-1.49-17.226 6.79-20.936l14.59-6.53c9.7-4.34 20.92-3.52 29.89 2.17l16.06 10.19 21.31 8.53c26.95 10.8 37.03 10.8 63.98 0l21.31-8.53 16.06-10.19c8.97-5.69 20.19-6.51 29.89-2.17l14.59 6.53c8.28 3.71 14.57 10.78 17.28 19.44l13.62 43.54c3.87 12.37 8.37 24.53 13.47 36.44 11.51 26.83.98 58.12-24.55 72.3z" fill="#dc8758"/><path d="m244.35 424.71h-18.25c-23.63-48.25-69.01-81.02-103.7-100.3-25.45-14.13-36.2-45.12-24.73-71.88l.18-.42c5.1-11.91 9.6-24.07 13.47-36.44l13.63-43.54c2.7-8.66 8.99-15.73 17.27-19.44l14.59-6.53c9.7-4.34 20.92-3.52 29.89 2.17l16.06 10.19c-27.66 27.67-50.69 78.69-13.13 125.53 37.56 46.85 54.72 69.57 54.72 140.66z" fill="#cc754a"/><path d="m256 252.958c-6.806 0-12.323 5.517-12.323 12.323v124.685h24.646v-124.685c0-6.806-5.517-12.323-12.323-12.323z" fill="#b75c34"/><path d="m209.774 444.638c0 20.781 20.696 37.627 46.226 37.627s46.226-16.846 46.226-37.627-20.696-26.989-46.226-26.989-46.226 6.209-46.226 26.989z" fill="#ffd797"/><g><path d="m247.6 415.5-3.41-2.18-17.72-11.33-7.97-21.91c-10.51-28.88-33.43-51.51-62.43-61.65l-12.69-4.43c-18.29-6.4-29.48-24.88-26.66-44.05l2.18-14.88c3.35-22.75 24.26-38.66 47.08-35.79 1.61.2 3.19.49 4.74.88 7.12 1.72 13.54 5.25 18.75 10.09 6.34 5.89 10.87 13.72 12.67 22.62l1.24 6.18c3.32 16.47 10.17 32.03 20.09 45.6 6.81 9.31 12.15 19.54 15.91 30.31 3.76 10.78 5.92 22.12 6.38 33.65z" fill="#ffe5bf"/><path d="m244.19 413.32-17.72-11.33-7.97-21.91c-10.51-28.88-33.43-51.51-62.43-61.65l-12.69-4.43c-18.29-6.4-29.48-24.88-26.66-44.05l2.18-14.88c3.35-22.75 24.26-38.66 47.08-35.79 1.61.2 3.19.49 4.74.88-2.72 20.44 1.83 42.6 18.91 63.89 35.48 44.25 52.75 66.98 54.56 129.27z" fill="#ffe0a7"/><path d="m285.53 401.99 7.975-21.914c10.508-28.873 33.426-51.502 62.43-61.642l12.683-4.434c18.297-6.397 29.482-24.876 26.665-44.053l-2.186-14.881c-3.342-22.75-24.262-38.652-47.077-35.785-18.016 2.264-32.572 15.785-36.156 33.586l-1.244 6.179c-3.317 16.475-10.172 32.034-20.091 45.6-13.621 18.631-21.38 40.899-22.285 63.96l-1.842 46.892z" fill="#ffe5bf"/></g><path d="m317.341 424.707c0-27.575-27.463-49.929-61.341-49.929s-61.341 22.354-61.341 49.929 27.463 35.814 61.341 35.814 61.341-8.239 61.341-35.814z" fill="#ffe5bf"/><path d="m247.259 460.317c-29.74-1.39-52.6-10.46-52.6-35.61 0-27.58 27.46-49.93 61.34-49.93 6.53 0 12.83.83 18.73 2.37-25.2 6.87-43.54 27.99-43.54 52.97 0 14.39 6.09 24.03 16.07 30.2z" fill="#ffe0a7"/><g><path d="m295.964 420.541c0 3.162-1.283 6.004-3.346 8.081-2.062 2.062-4.904 3.346-8.066 3.346-3.621 0-6.92 1.467-9.288 3.85-2.383 2.368-3.85 5.652-3.85 9.273 0 4.262-1.726 8.127-4.522 10.908-2.292 2.307-5.332 3.88-8.708 4.354-.703.122-1.436.168-2.185.168-4.247 0-8.112-1.726-10.892-4.522-2.796-2.78-4.522-6.646-4.522-10.908 0-3.621-1.467-6.905-3.85-9.273-2.368-2.383-5.668-3.85-9.288-3.85-3.162 0-6.004-1.283-8.066-3.346-2.062-2.078-3.346-4.919-3.346-8.081 0-20.807 16.866-37.688 37.673-37.688h4.583c10.404 0 19.829 4.216 26.643 11.045 6.814 6.814 11.03 16.239 11.03 26.643z" fill="#516666"/><path d="m258.185 460.352c-.703.122-1.436.168-2.185.168-4.247 0-8.112-1.726-10.892-4.522-2.796-2.78-4.522-6.646-4.522-10.908 0-3.621-1.467-6.905-3.85-9.273-2.368-2.383-5.668-3.85-9.288-3.85-3.162 0-6.004-1.283-8.066-3.346-2.062-2.078-3.346-4.919-3.346-8.081 0-20.807 16.866-37.688 37.673-37.688h4.583c0 .001-32.372 25.758-.107 77.5z" fill="#384948"/></g><path d="m305.395 195.26c.513 3.546.753 7.314.643 11.302-.178 6.433-7.632 9.892-12.626 5.832l-12.967-10.541-17.908 28.247c-3.039 4.795-10.035 4.795-13.075 0l-17.907-28.247-12.967 10.541c-4.994 4.06-12.448.601-12.626-5.832-.11-3.988.13-7.755.643-11.302 3.516-24.314 24.806-42.105 49.372-42.105h.046c24.566 0 45.856 17.792 49.372 42.105z" fill="#b75c34"/><path d="m232.165 195.26c-.31 2.12-.52 4.31-.61 6.59l-12.97 10.54c-4.99 4.06-12.45.61-12.63-5.83-.11-3.99.13-7.75.65-11.3 3.51-24.31 24.8-42.1 49.37-42.1h.04c4.38 0 8.67.57 12.76 1.64-18.84 4.92-33.72 20.49-36.61 40.46z" fill="#a54828"/><g><g><ellipse cx="157.288" cy="279" fill="#516666" rx="19.371" ry="28.679" transform="matrix(.766 -.643 .643 .766 -142.539 166.377)"/></g><g><path d="m174.7 301.741c-8.36 5.75-22.48 1.35-32.25-10.29-10.18-12.13-11.79-27.54-3.6-34.42 5.06-4.24 12.66-4.25 20.14-.77-.35.24-.69.49-1.02.77-8.19 6.88-6.58 22.29 3.6 34.42 3.9 4.65 8.49 8.14 13.13 10.29z" fill="#384948"/></g></g><g><g><ellipse cx="354.712" cy="279" fill="#516666" rx="28.679" ry="19.371" transform="matrix(.643 -.766 .766 .643 -87.019 371.387)"/></g><g><path d="m371.577 255.899c-4.91 2.12-9.8 5.74-13.92 10.65-10.18 12.13-11.79 27.54-3.59 34.42.5.42 1.02.8 1.56 1.13-7.22 3.11-14.47 2.97-19.35-1.13-8.2-6.88-6.59-22.29 3.6-34.42 9.56-11.39 23.28-15.85 31.7-10.65z" fill="#384948"/></g></g></g><path d="m191.35 144.33c0 10.07-5.61 19.64-15.18 24.24-14.46 6.95-31.67-.25-37.01-15.38-3.35-9.5-8.11-19.79-14.78-28.48-4.76-6.2-10.48-11.58-17.35-15.27-27.4-14.72-94.21-49.61-106.82-101.45-1.76-7.2 8.14-11.16 11.93-4.79 12.47 20.99 35.45 47.63 73.91 54.77 15.9 2.95 20.61-14.4 24.5-33.66 1.43-7.11 11.16-8.07 14.01-1.4 5.72 13.4 11.2 31.53 7.7 46.55-4.51 19.34 4.31 49.18 29.07 68.83-5.14-21.29-7.88-59.01 19.08-99.51 2.66-4 8.87-1.36 7.8 3.32-5.3 23.11-10.6 61.12 1.34 92.48 1.22 3.2 1.8 6.5 1.8 9.75z" fill="#b75c34"/><path d="m323.793 42.1c-1.074-4.684 5.132-7.315 7.796-3.315 26.965 40.495 24.22 78.215 19.078 99.504 24.764-19.653 33.58-49.489 29.072-68.827-3.502-15.021 1.983-33.156 7.7-46.552 2.848-6.673 12.582-5.707 14.016 1.405 3.883 19.256 8.596 36.609 24.494 33.656 38.465-7.144 61.437-33.783 73.913-54.774 3.786-6.371 13.685-2.41 11.933 4.791-12.611 51.842-79.426 86.737-106.824 101.45-16.506 8.864-26.389 27.486-32.13 43.757-5.336 15.122-22.552 22.322-37.007 15.379-12.668-6.085-18.39-20.859-13.388-33.993 11.945-31.366 6.645-69.369 1.347-92.481z" fill="#b75c34"/><path d="m132.26 69.46s-22.66 26.77-7.88 55.25c-4.76-6.2-10.48-11.58-17.35-15.27-27.4-14.72-94.21-49.61-106.82-101.45-1.76-7.2 8.14-11.16 11.93-4.79 12.47 20.99 35.45 47.63 73.91 54.77 15.9 2.95 20.61-14.4 24.5-33.66 1.43-7.11 11.16-8.07 14.01-1.4 5.72 13.4 11.2 31.53 7.7 46.55z" fill="#a54828"/></g></svg>