<svg id="Capa_1" enable-background="new 0 0 512 512" height="512" viewBox="0 0 512 512" width="512" xmlns="http://www.w3.org/2000/svg"><g><path d="m512 256c0 94.14-50.82 176.42-126.52 220.88-37.99 22.32-82.24-9.463-129.48-9.463s-91.49 31.783-129.48 9.463c-75.7-44.46-126.52-126.74-126.52-220.88 0-141.38 114.62-256 256-256s256 114.62 256 256z" fill="#f5cf33"/><path d="m385.48 476.88c-37.99 22.32-82.24 35.12-129.48 35.12-22.96 0-45.22-3.02-66.4-8.71-22.38-5.98-43.56-14.94-63.08-26.41l19.3-33.43c14.83-25.69 36.41-43.6 60.64-53.72 55.76-23.31 125.58-5.4 159.72 53.72z" fill="#b75c34"/><path d="m212.69 431.05-23.09 72.24c-22.38-5.98-43.56-14.94-63.08-26.41l19.3-33.43c14.83-25.69 36.41-43.6 60.64-53.72z" fill="#a54828"/><path d="m361.888 452.364h-211.776c-8.976 0-16.252-7.276-16.252-16.252v-23.29c0-8.976 7.276-16.252 16.252-16.252h211.776c8.976 0 16.252 7.276 16.252 16.252v23.29c0 8.976-7.276 16.252-16.252 16.252z" fill="#fff9f1"/><path d="m212.98 452.362h-62.87c-8.97 0-16.25-7.27-16.25-16.25v-23.29c0-8.97 7.28-16.25 16.25-16.25h62.87c-8.97 0-16.25 7.28-16.25 16.25v23.29c0 8.98 7.28 16.25 16.25 16.25z" fill="#f7eadc"/><path d="m446.49 363.49c-19.73 25.49-50.59 42.58-86.99 42.58h-207c-36.4 0-67.26-17.09-86.99-42.58-23.76-30.69 20.71-80.62 38.96-120.47l45.7-90.84c19.47-42.53 5.89-85.53 43.37-100.3 21.42-8.44 44.35-12.35 67.17-11.72 19.68.53 39.28 4.44 57.75 11.72 37.48 14.77 44.56 57.3 64.03 99.83l47.19 91.31c18.25 39.85 40.57 89.78 16.81 120.47z" fill="#dc8758"/><path d="m187 406.07h-34.5c-36.4 0-67.26-17.09-86.99-42.58-23.76-30.69 20.71-80.62 38.96-120.47l45.7-90.84c19.47-42.53 5.89-85.53 43.37-100.3 21.42-8.44 44.35-12.35 67.17-11.72-51.31 4.58-211.29 262.33-73.71 365.91z" fill="#cc754a"/><circle cx="254.332" cy="312.903" fill="#384948" r="55.48"/><g><path d="m227.82 99.79-8.56 120.96c-2.09 29.52-22.62 54.5-51.18 62.26l-17.65 4.8c-6.19 1.68-12.15 3.8-17.87 6.3-31.06 13.63-54.85 38.89-67.05 69.38-23.76-30.69-31.4-73.56-13.15-113.41l51.39-112.25c19.47-42.53 52.31-71.18 89.79-85.95 10.75 2.83 20.07 9.5 26.29 18.5 5.68 8.23 8.77 18.41 7.99 29.41z" fill="#b75c34"/><path d="m132.56 294.11c-31.06 13.63-54.85 38.89-67.05 69.38-23.76-30.69-31.4-73.56-13.15-113.41l51.39-112.25c19.47-42.53 52.31-71.18 89.79-85.95 10.75 2.83 20.07 9.5 26.29 18.5-41.17 47.14-89.7 141.21-87.27 223.73z" fill="#a54828"/><path d="m446.49 363.49c-14.45-36.11-45.14-64.87-84.92-75.68l-17.65-4.8c-28.56-7.76-49.09-32.74-51.18-62.26l-8.56-120.96c-1.63-23.03 13.7-42.48 34.28-47.91 37.48 14.77 70.32 43.42 89.79 85.95l51.39 112.25c18.25 39.85 10.61 82.72-13.15 113.41z" fill="#b75c34"/></g><g fill="#dc8758"><path d="m154.55 125.227c-2.411-22.444-11.103-65.31-42.412-88.738-12.462-9.325-30.012-7.642-40.657 3.714-26.661 28.444-74.826 95.224-66.932 200.51 1.689 22.533 26.943 34.926 45.973 22.742 31.314-20.049 73.863-55.562 99.645-111.272 3.892-8.412 5.373-17.74 4.383-26.956z"/><path d="m357.45 125.227c2.411-22.444 11.103-65.31 42.413-88.738 12.462-9.325 30.012-7.642 40.657 3.714 26.661 28.444 74.826 95.224 66.931 200.511-1.689 22.533-26.943 34.926-45.973 22.742-31.314-20.049-73.863-55.562-99.645-111.272-3.893-8.413-5.373-17.741-4.383-26.957z"/></g><g fill="#cc754a"><path d="m57.039 240.713c.43 5.65 2.33 10.66 5.25 14.81-4.06 2.88-7.99 5.52-11.77 7.94-19.03 12.18-44.28-.21-45.97-22.75-7.89-105.28 40.27-172.06 66.93-200.51 10.65-11.35 28.2-13.04 40.66-3.71 3.04 2.27 5.87 4.73 8.5 7.34-27.12 30.26-71.18 95.84-63.6 196.88z"/><path d="m502.199 255.523c-8.71 12.4-26.46 17.07-40.72 7.94-31.31-20.05-73.86-55.57-99.64-111.28-3.9-8.41-5.38-17.74-4.39-26.95 2.41-22.45 11.11-65.31 42.42-88.74 12.46-9.33 30.01-7.64 40.65 3.71 1.08 1.15 2.19 2.36 3.33 3.64-24.44 24.22-31.73 61.12-33.91 81.39-.99 9.21.49 18.54 4.38 26.95 22.67 48.99 58.31 82.37 87.88 103.34z"/></g><path d="m278.54 316.35v49.28c0 .49-.01.98-.05 1.46-.75 12.69-11.28 22.75-24.16 22.75s-23.41-10.06-24.16-22.75c-.04-.48-.05-.97-.05-1.46v-49.28z" fill="#fd5758"/><path d="m262.07 388.57c-2.43.82-5.03 1.27-7.74 1.27-12.88 0-23.41-10.06-24.16-22.75-.04-.48-.05-.97-.05-1.46v-49.28h15.47v49.28c0 .49.01.98.05 1.46.59 10.03 7.29 18.41 16.43 21.48z" fill="#e9424a"/><path d="m278.54 316.35v49.28c0 .49-.01.98-.05 1.46-5.945-2.178-11.265-5.651-15.615-10.077-4.657-4.738-12.433-4.738-17.09 0-4.35 4.426-9.67 7.899-15.615 10.077-.04-.48-.05-.97-.05-1.46v-49.28z" fill="#e9424a"/><path d="m335.378 305.86c0 23.607-19.317 43.435-42.922 43.103-17.039-.24-31.642-10.549-38.124-25.249-6.686 15.163-22.013 25.654-39.741 25.242-22.732-.529-41.305-20.357-41.305-43.095 0-43.204 35.024-78.228 78.228-78.228h5.636c43.204-.001 78.228 35.023 78.228 78.227z" fill="#fff9f1"/><path d="m238.975 250.54c-14.15 14.16-22.91 33.72-22.91 55.32 0 15.44 8.56 29.53 21.17 37.16-6.6 3.94-14.36 6.13-22.65 5.94-22.73-.53-41.3-20.36-41.3-43.1 0-21.6 8.76-41.16 22.91-55.32 14.15-14.15 33.71-22.91 55.31-22.91h5.64c6.4 0 12.62.77 18.58 2.22-14.15 3.44-26.78 10.73-36.75 20.69z" fill="#f7eadc"/><g><path d="m295.974 287.106c0 3.295-1.337 6.256-3.486 8.421-2.149 2.149-5.11 3.486-8.405 3.486-3.773 0-7.211 1.528-9.679 4.012-2.483 2.467-4.011 5.89-4.011 9.663 0 4.441-1.799 8.469-4.712 11.366-2.388 2.404-5.556 4.043-9.074 4.537-.732.127-1.496.175-2.276.175-4.425 0-8.453-1.799-11.35-4.712-2.913-2.897-4.712-6.925-4.712-11.366 0-3.773-1.528-7.195-4.011-9.663-2.467-2.483-5.906-4.012-9.679-4.012-3.295 0-6.256-1.337-8.405-3.486-2.149-2.165-3.486-5.126-3.486-8.421 0-21.681 17.574-39.271 39.255-39.271h4.776c10.841 0 20.662 4.393 27.762 11.509 7.1 7.1 11.493 16.921 11.493 27.762z" fill="#516666"/><path d="m256.608 328.59c-.732.127-1.496.175-2.276.175-4.425 0-8.453-1.799-11.35-4.712-2.913-2.897-4.712-6.925-4.712-11.366 0-3.773-1.528-7.195-4.011-9.663-2.467-2.483-5.906-4.012-9.679-4.012-3.295 0-6.256-1.337-8.405-3.486-2.149-2.165-3.486-5.126-3.486-8.421 0-21.681 17.574-39.271 39.255-39.271h4.776c-.001.001-33.732 26.84-.112 80.756z" fill="#384948"/></g><g><ellipse cx="156.475" cy="230.35" fill="#fff9f1" rx="35.894" ry="44.695"/><path d="m169.161 272.17c-3.94 1.86-8.22 2.88-12.69 2.88-19.82 0-35.89-20.01-35.89-44.7 0-24.68 16.07-44.69 35.89-44.69 4.47 0 8.75 1.02 12.69 2.88-13.57 6.38-23.21 22.69-23.21 41.81s9.64 35.44 23.21 41.82z" fill="#f7eadc"/><path d="m181.85 230.35c0 17.45-11.36 31.59-25.38 31.59h-.01c-14.01-.01-25.36-14.14-25.36-31.59s11.35-31.58 25.36-31.59h.01c14.02 0 25.38 14.14 25.38 31.59z" fill="#516666"/><path d="m145.95 230.35c0 12.34 4.01 23.51 10.51 31.59-14.01-.01-25.36-14.14-25.36-31.59s11.35-31.58 25.36-31.59c-6.49 8.08-10.51 19.25-10.51 31.59z" fill="#384948"/><ellipse cx="352.188" cy="230.35" fill="#fff9f1" rx="35.894" ry="44.695"/><path d="m364.874 272.17c-3.94 1.86-8.22 2.88-12.69 2.88-19.82 0-35.89-20.01-35.89-44.7 0-24.68 16.07-44.69 35.89-44.69 4.47 0 8.75 1.02 12.69 2.88-13.57 6.38-23.21 22.69-23.21 41.81s9.64 35.44 23.21 41.82z" fill="#f7eadc"/><ellipse cx="352.188" cy="230.35" fill="#516666" rx="25.372" ry="31.593"/><path d="m341.666 230.35c0 12.34 4.01 23.51 10.51 31.59-14.01-.01-25.36-14.14-25.36-31.59s11.35-31.58 25.36-31.59c-6.49 8.08-10.51 19.25-10.51 31.59z" fill="#384948"/></g></g></svg>