<svg id="Capa_1" enable-background="new 0 0 512 512" height="512" viewBox="0 0 512 512" width="512" xmlns="http://www.w3.org/2000/svg"><g><path d="m512 256c0 104.95-63.16 195.15-153.54 234.67-31.38 13.72-66.03-26.394-102.46-26.394-15.66 0-30.99-1.4-45.87-4.1-19.74-3.57-38.7 38.315-56.59 30.495-90.38-39.521-153.54-129.721-153.54-234.671 0-141.38 114.62-256 256-256s256 114.62 256 256z" fill="#b75c34"/><path d="m384.34 188.83-24.16 54.13c-31.3 70.11-35 149.44-10.37 222.15l8.65 25.56c-31.38 13.72-66.03 21.33-102.46 21.33s-71.08-7.61-102.46-21.33l8.65-25.56c24.63-72.71 20.93-152.04-10.37-222.15l-24.16-54.13c-11.15-24.97 5.42-53.53 32.63-56.24l.67-.06v-29.85c0-42.45 34.42-76.87 76.87-76.87h36.34c42.45 0 76.87 34.42 76.87 76.87v29.85l.67.06c27.21 2.71 43.78 31.27 32.63 56.24z" fill="#fff9f1"/><path d="m209.51 136.65c-7.79 9.24-11.7 31.89-7.87 52.18l10.23 54.13c13.26 70.11 14.83 149.44 4.39 222.15l-6.13 42.79c-19.74-3.57-38.7-9.41-56.59-17.23l8.65-25.56c24.63-72.71 20.93-152.04-10.37-222.15l-24.16-54.13c-11.15-24.97 5.42-53.53 32.63-56.24l.67-.06v-29.85c0-42.45 34.42-76.87 76.87-76.87h10.47c-17.98 0-32.56 34.42-32.56 76.87l-.16 16.93c-.05 6.2-2.08 12.3-6.07 17.04z" fill="#f7eadc"/><path d="m311.386 193.549h-110.772c-9.078 0-16.438-7.359-16.438-16.438 0-9.078 7.359-16.438 16.438-16.438h110.771c9.078 0 16.438 7.359 16.438 16.438 0 9.079-7.359 16.438-16.437 16.438z" fill="#f2b632"/><path d="m293.355 318.004c20.298-6.847 32.806-27.217 29.731-48.417l-17.693-121.981c-1.17-8.067-10.623-12.065-17.074-7.082-15.06 11.634-32.319 9.636-32.319 9.636s-17.259 1.998-32.319-9.635c-6.451-4.983-3.705 9.345-4.875 17.412l-29.892 111.65c-3.075 21.2 9.434 41.569 29.731 48.417 24.233 8.175 50.477 8.175 74.71 0z" fill="#f5cf33"/><path d="m241.787 318.006c4.609 4.089 9.395 6.134 14.203 6.134-12.611 0-25.233-2.045-37.336-6.134-20.304-6.842-32.815-27.212-29.732-48.411l17.684-121.988c1.172-8.069 10.622-12.058 17.076-7.074 4.487 3.459 9.163 5.714 13.528 7.173l-6.731 121.889c-1.17 21.199 3.583 41.569 11.308 48.411z" fill="#f2b632"/><g><ellipse cx="178.954" cy="122.611" fill="#516666" rx="14.576" ry="20.958"/><path d="m186.235 140.761c-2.142 1.785-4.635 2.809-7.284 2.809-8.054 0-14.574-9.384-14.574-20.959s6.52-20.959 14.574-20.959c2.649 0 5.142 1.024 7.284 2.809-4.351 3.622-7.284 10.394-7.284 18.15s2.933 14.528 7.284 18.15z" fill="#384948"/><ellipse cx="333.046" cy="122.611" fill="#516666" rx="14.576" ry="20.958"/><path d="m340.328 140.761c-2.142 1.785-4.635 2.809-7.284 2.809-8.054 0-14.574-9.384-14.574-20.959s6.52-20.959 14.574-20.959c2.649 0 5.142 1.024 7.284 2.809-4.351 3.622-7.284 10.394-7.284 18.15s2.933 14.528 7.284 18.15z" fill="#384948"/></g><g fill="#516666"><ellipse cx="218.806" cy="219.936" rx="8.744" ry="17.164" transform="matrix(.958 -.287 .287 .958 -53.835 71.9)"/><ellipse cx="293.194" cy="217.299" rx="17.164" ry="8.744" transform="matrix(.287 -.958 .958 .287 1.01 435.955)"/></g></g></svg>