<svg id="Capa_1" enable-background="new 0 0 512 512" height="512" viewBox="0 0 512 512" width="512" xmlns="http://www.w3.org/2000/svg"><g><path d="m497.38 341.49c-10.3 29.06-25.69 55.72-45.12 78.88-39.51 47.13-95.68 29.47-159.45 38.65-12.02 1.73-24.31 2.63-36.81 2.63-5.51 0-10.99-.18-16.42-.52-8.51-.54-16.91-1.49-25.18-2.85-61.76-10.09-116.08 8.07-154.59-37.83-19.46-23.18-34.88-49.86-45.18-78.96-9.48-26.73 17-60.66 17-90.64 0-75.76 1.28-138.68 53.59-185.56h.01c45.3-40.6 105.15-65.29 170.77-65.29 79.53 0 150.59 36.27 197.54 93.16 36.52 44.25 27.77 100.71 27.77 162.56 0 29.98 25.54 59.04 16.07 85.77z" fill="#7fbb1b"/><path d="m452.26 262.98v157.39c-39.512 47.135-95.682 79.821-159.449 89.003-12.02 1.731-26.681-33.183-39.18-33.183-14.165 0-25.691 34.659-39.231 32.447-61.754-10.093-116.083-42.282-154.59-88.187v-157.47z" fill="#617f7f"/><path d="m194.2 87.09v256.37s-23.01 31.87-38.3 58.26c-10.84 18.72-34.63 25.48-53.51 14.93-12.79-7.15-24.26-14.8-34.47-22.55-7.73-5.86-14.75-11.78-21.07-17.59-8.54-7.84-15.83-15.47-21.92-22.45-3.92-4.49-7.34-8.72-10.3-12.57-1.03-2.91-2.01-5.84-2.93-8.8-7.61-24.21-11.7-49.97-11.7-76.69v-85.55c0-13.12 3.88-25.94 11.16-36.85l17.18-25.74c14.01-21 34.32-35.54 56.88-42.57h.01c22.18-6.91 46.53-6.59 69.22 1.97 3.96 1.49 7.87 3.23 11.71 5.23z" fill="#809ca0"/><path d="m512 170.45v85.55c0 29.45-4.97 57.74-14.13 84.07-.17.47-.33.95-.5 1.42-3.92 5.1-8.66 10.86-14.28 17.02-6.47 7.11-14.1 14.74-22.96 22.5-6.54 5.74-13.76 11.55-21.67 17.26-8.75 6.31-18.35 12.51-28.85 18.38-18.88 10.55-42.67 3.79-53.51-14.93-15.29-26.39-38.3-58.26-38.3-58.26v-256.37l28.04-14.6c25.84-13.45 54.88-15.32 80.93-7.2h.01c22.56 7.03 42.87 21.57 56.88 42.57l17.18 25.74c7.28 10.91 11.16 23.73 11.16 36.85z" fill="#809ca0"/><g fill="#6e8c8e"><path d="m143.2 179.7s-14.22-43.877-60.13-56.5c-7.069-1.944-12.062 6.875-6.696 11.871 16.442 15.31 38.192 41.795 42.95 77.772z"/><path d="m368.8 179.7s14.22-43.877 60.13-56.5c7.069-1.944 12.062 6.875 6.696 11.871-16.442 15.31-38.192 41.795-42.95 77.772z"/></g><path d="m401.624 297.352c-6.516-16.134-5.815-34.23 1.91-49.821 8.083-16.314 12.554-34.246 12.554-53.07 0-75.397-71.674-136.518-160.088-136.518s-129.888 61.12-129.888 136.517c0 18.824-16.308 27.336-8.225 43.649 7.725 15.591 8.456 42.437 1.94 58.571-1.773 4.39-2.75 9.188-2.75 14.214v6.109c0 20.983 22.499 38.665 43.482 38.665h205.821c20.983 0 37.994-17.01 37.994-37.994v-6.109c0-5.025-.977-9.823-2.75-14.213z" fill="#6e8c8e"/><path d="m167.002 194.46c0 18.83 3.14 36.76 8.81 53.07 5.42 15.59 5.91 33.69 1.34 49.82-1.24 4.39-1.93 9.19-1.93 14.22v6.11c0 20.98 11.94 37.99 26.66 37.99h-56.26c-20.98 0-37.99-17.01-37.99-37.99v-6.11c0-5.03.97-9.83 2.75-14.22 6.51-16.13 5.81-34.23-1.91-49.82-8.09-16.31-12.56-34.24-12.56-53.07 0-75.4 71.68-136.52 160.09-136.52 4.62 0 9.19.17 13.71.5-57.53 5.93-102.71 64.56-102.71 136.02z" fill="#617f7f"/><g><path d="m143.08 388.814c-5.804-5.804-6.55-14.958-1.763-21.626l31.179-43.421c9.187-12.794 27.654-14.299 38.792-3.162 11.138 11.138 9.632 29.605-3.162 38.792l-43.421 31.179c-6.667 4.788-15.821 4.042-21.625-1.762z" fill="#fff9f1"/><path d="m211.286 320.607c-2.96-2.96-15.2 4.77-25.71 16.24l-35.67 38.93c-5.48 5.97-8.37 11.49-6.83 13.03-5.8-5.8-6.55-14.95-1.76-21.62l31.18-43.42c9.18-12.8 27.65-14.3 38.79-3.16z" fill="#f7eadc"/><path d="m364.188 388.814c5.804-5.804 6.55-14.958 1.763-21.626l-31.179-43.421c-9.187-12.794-27.654-14.299-38.792-3.162-11.138 11.138-9.632 29.605 3.162 38.792l43.421 31.179c6.667 4.788 15.821 4.042 21.625-1.762z" fill="#fff9f1"/><path d="m295.981 320.607c-2.96 2.96 4.77 15.2 16.24 25.71l38.93 35.67c5.97 5.48 11.49 8.37 13.03 6.83-5.8 5.8-14.95 6.55-21.62 1.76l-43.42-31.18c-12.8-9.18-14.3-27.65-3.16-38.79z" fill="#f7eadc"/></g><path d="m312.98 239.34-20.17 270.03c-12.02 1.73-24.31 2.63-36.81 2.63-14.16 0-28.06-1.15-41.6-3.37l-20.12-269.29c-.88-11.79 5.68-22.87 16.42-27.79 27.23-12.47 58.64-12.47 85.86 0 10.75 4.92 17.3 16 16.42 27.79z" fill="#809ca0"/><path d="m239.58 511.48c-8.51-.54-16.91-1.49-25.18-2.85l-20.12-269.29c-.88-11.79 5.68-22.87 16.42-27.79 7.61-3.48 15.55-5.99 23.62-7.53-4.8 5.84-7.57 15.6-7.12 25.88z" fill="#6e8c8e"/><g><ellipse cx="162.585" cy="255.72" fill="#516666" rx="18.897" ry="27.978"/><path d="m172.026 279.95c-2.777 2.383-6.009 3.749-9.443 3.749-10.442 0-18.895-12.527-18.895-27.979s8.453-27.979 18.895-27.979c3.434 0 6.666 1.367 9.443 3.749-5.641 4.835-9.443 13.876-9.443 24.23s3.801 19.394 9.443 24.23z" fill="#384948"/><ellipse cx="349.415" cy="255.72" fill="#516666" rx="18.897" ry="27.978"/><path d="m358.856 279.95c-2.777 2.383-6.009 3.749-9.443 3.749-10.442 0-18.895-12.527-18.895-27.979s8.453-27.979 18.895-27.979c3.434 0 6.666 1.367 9.443 3.749-5.641 4.835-9.443 13.876-9.443 24.23s3.802 19.394 9.443 24.23z" fill="#384948"/></g><g fill="#6e8c8e"><g><path d="m68.12 305.82c-7.51 37.01-4.19 68.59-.2 88.28-7.73-5.86-14.75-11.78-21.07-17.59-1.77-34.73 5.8-58.63 13.37-73.47 2.23-4.38 8.88-2.05 7.9 2.78z"/><path d="m51.44 281.89c-15.57 26.96-22.99 52.77-26.51 72.17-3.92-4.49-7.34-8.72-10.3-12.57-1.03-2.91-2.01-5.84-2.93-8.8 9.33-27.91 22.41-45.42 33.13-55.94 3.52-3.45 9.07.88 6.61 5.14z"/><path d="m460.13 381.01c-6.54 5.74-13.76 11.55-21.67 17.26 4.33-19.22 8.76-52.71.69-92.45-.98-4.83 5.67-7.16 7.9-2.78 7.88 15.48 15.78 40.79 13.08 77.97z"/><path d="m497.87 340.07c-.17.47-.33.95-.5 1.42-3.92 5.1-8.66 10.86-14.28 17.02-3.15-19.81-10.46-47.54-27.26-76.62-2.47-4.26 3.09-8.59 6.6-5.14 11.64 11.42 26.05 31.07 35.44 63.32z"/></g><path d="m294.269 270.972c2.562 4.699-2.483 9.939-7.289 7.585-10.069-4.931-21.385-7.697-33.346-7.697s-23.277 2.766-33.346 7.697c-4.806 2.354-9.851-2.887-7.289-7.585 7.842-14.383 23.099-24.142 40.635-24.142s32.793 9.759 40.635 24.142z"/><path d="m294.269 380.409c2.562 4.699-2.483 9.939-7.289 7.585-10.069-4.931-21.385-7.697-33.346-7.697s-23.277 2.766-33.346 7.697c-4.806 2.354-9.851-2.887-7.289-7.585 7.842-14.383 23.099-24.142 40.635-24.142s32.793 9.759 40.635 24.142z"/><path d="m288.266 414.675c2.183 4.005-2.116 8.471-6.212 6.465-8.581-4.202-18.225-6.56-28.42-6.56-10.194 0-19.838 2.358-28.42 6.56-4.096 2.006-8.396-2.46-6.212-6.465 6.683-12.258 19.686-20.575 34.632-20.575s27.948 8.317 34.632 20.575z"/><path d="m283.856 234.228c1.905 3.495-1.847 7.392-5.421 5.642-7.489-3.667-15.905-5.725-24.801-5.725s-17.313 2.057-24.801 5.725c-3.575 1.751-7.327-2.147-5.421-5.642 5.832-10.697 17.18-17.956 30.223-17.956 13.042.001 24.389 7.259 30.221 17.956z"/><path d="m154.45 67.26c-52.83-15.48-205.15 97.38-86.53 326.84-7.73-5.86-14.75-11.78-21.07-17.59-8.54-7.84-15.83-15.47-21.92-22.45-3.92-4.49-7.34-8.72-10.3-12.57-1.03-2.91-2.01-5.84-2.93-8.8-7.61-24.21-11.7-49.97-11.7-76.69v-85.55c0-13.12 3.88-25.94 11.16-36.85l17.18-25.74c14.01-21 34.32-35.54 56.88-42.57h.01c22.18-6.91 46.53-6.59 69.22 1.97z"/></g></g></svg>