<svg id="Capa_1" enable-background="new 0 0 512 512" height="512" viewBox="0 0 512 512" width="512" xmlns="http://www.w3.org/2000/svg"><g><path d="m512 256c0 27.24-4.26 53.49-12.14 78.12-66.462 71.798-129.72 78.07-243.86 78.07-110.32 0-187.978 17.575-240.33-67.83-10.14-27.54-15.67-57.3-15.67-88.36 0-141.38 114.62-256 256-256s256 114.62 256 256z" fill="#b75c34"/><path d="m499.86 334.12c-33.03 103.18-129.72 177.88-243.86 177.88-36.3 0-70.84-7.56-102.13-21.19-63.79-27.79-114.06-80.81-138.2-146.45 2.74-15.35 9.41-27.35 18.3-36.71 28.34-29.89 79.21-33.01 96.75-33.15 3.89-.03 6.14.08 6.14.08h244.37s61.48-3.1 97.35 27.81c9.35 8.04 16.95 18.41 21.28 31.73z" fill="#7fbb1b"/><path d="m153.87 490.81c-63.79-27.79-114.06-80.81-138.2-146.45 11.5-64.35 92.01-69.67 115.05-69.86l58.71 51.41s-101.91 39.16-35.56 164.9z" fill="#70a41c"/><path d="m478.58 302.39c-.99 17.28-9.61 33.58-24.19 48.07-36.85 36.65-111.86 61.73-198.39 61.73-54.6 0-104.61-9.98-143.35-26.56v-.01c-18.97-8.11-35.25-17.82-48.02-28.7-17.16-14.61-28.01-31.36-30.66-49.27 28.34-29.89 79.21-33.01 96.75-33.15 3.89-.03 6.14.08 6.14.08h244.37s61.48-3.1 97.35 27.81z" fill="#70a41c"/><path d="m478.68 265.7c0 18.529-8.761 36.015-24.288 51.45-36.856 36.646-111.861 28.901-198.392 28.901-54.599 0-104.611-5.632-143.345-22.212v-4.518c-18.978-8.111-35.255 15.167-48.026 4.282-19.884-16.936-31.309-36.747-31.309-57.903 0-22.246 12.643-42.991 34.459-60.495l15.801-91.465c2.289-13.219 8.862-24.855 18.209-33.497 9.347-8.633 21.468-14.281 34.825-15.526 20.662-1.922 40.83 7.086 53.198 23.747l10.244 13.805c5.392 7.269 13.824 11.352 22.557 11.352 2.774 0 5.584-.412 8.331-1.263 9.146-2.838 18.621-4.257 28.096-4.257s18.95 1.419 28.096 4.257c11.398 3.543 23.784-.503 30.897-10.089l10.235-13.805c11.27-15.179 29.002-24.004 47.696-24.004 1.831 0 3.671.082 5.511.256 26.723 2.49 48.456 22.585 53.024 49.024l16.872 97.617c17.404 16.131 27.309 34.651 27.309 54.343z" fill="#7fbb1b"/><g fill="#70a41c"><path d="m217.227 189.201c0-17.641-6.574-31.941-14.682-31.941s-21.713 14.301-21.713 31.941 13.604 31.941 21.713 31.941 14.682-14.3 14.682-31.941z"/><path d="m294.773 189.201c0-17.641 6.573-31.941 14.682-31.941s21.713 14.301 21.713 31.941-13.604 31.941-21.713 31.941-14.682-14.3-14.682-31.941z"/><path d="m200.055 102.269s-40.281-30.385-55.844 20.497c-8.779 28.724-11.597 53.187-12.386 69.048-.539 10.828-5.723 20.85-14.128 27.698-15.418 12.562-35.481 41.837-15.961 104.06 2.789 8.889 13.775.904 18.308 11.185-18.978-8.111-42.645-.269-55.416-11.154-19.883-16.936-31.308-36.747-31.308-57.903 0-22.246 12.643-42.991 34.459-60.495l15.801-91.465c2.289-13.219 8.862-24.855 18.209-33.497 9.347-8.633 21.468-14.281 34.825-15.526 20.662-1.922 40.83 7.086 53.198 23.747z"/></g><path d="m158.401 135.968c0 31.254-9.393 56.595-40.647 56.595-22.026 0-41.114-12.579-50.461-30.952-3.927-7.69 23.919-16.419 23.919-25.647s-27.847-17.948-23.919-25.647c9.347-18.374 28.435-30.952 50.461-30.952 31.254-.001 40.647 25.339 40.647 56.603z" fill="#f5cf33"/><path d="m133.628 189.807c-4.522 1.794-9.786 2.756-15.874 2.756-22.026 0-41.114-12.579-50.461-30.952-3.927-7.69 23.921-16.414 23.921-25.642s-27.849-17.952-23.921-25.652c9.347-18.374 28.435-30.952 50.461-30.952 6.088 0 11.343.961 15.865 2.746-14.373 4.669-26.228 14.922-32.985 28.206-3.927 7.699-6.134 16.424-6.134 25.652s2.206 17.952 6.134 25.642c6.757 13.283 18.612 23.545 32.994 28.196z" fill="#f2b632"/><path d="m136.86 135.968c0 15.078-23.18 27.299-51.77 27.299-6.253 0-12.249-.586-17.797-1.657-3.927-7.69-6.134-16.415-6.134-25.642 0-9.228 2.206-17.952 6.134-25.652 5.548-1.071 11.544-1.657 17.797-1.657 28.59 0 51.77 12.222 51.77 27.309z" fill="#516666"/><path d="m100.635 161.61c.064.119.128.247.201.366-4.962.842-10.253 1.291-15.746 1.291-6.253 0-12.249-.586-17.797-1.657-3.927-7.69-6.134-16.414-6.134-25.642s2.206-17.952 6.134-25.652c5.548-1.071 11.544-1.657 17.797-1.657 5.493 0 10.784.449 15.746 1.291-.073.119-.137.247-.201.366-3.927 7.699-6.134 16.424-6.134 25.652s2.206 17.952 6.134 25.642z" fill="#384948"/><path d="m435.997 135.968c0 9.229 18.721 17.945 14.8 25.643-7.669 15.058-21.879 26.229-38.882 29.761-3.735.778-7.608 1.19-11.581 1.19-31.263 0-40.656-25.34-40.656-56.595 0-31.264 9.393-56.604 40.656-56.604 4.239 0 8.377.467 12.35 1.355 16.662 3.706 30.559 14.766 38.112 29.597 3.921 7.702-14.799 16.42-14.799 25.653z" fill="#f5cf33"/><path d="m411.915 191.372c-3.735.778-7.608 1.19-11.581 1.19-31.263 0-40.656-25.34-40.656-56.595 0-31.264 9.393-56.604 40.656-56.604 4.239 0 8.377.467 12.35 1.355-15.261 13.184-38.505 46.333-.769 110.654z" fill="#f2b632"/><path d="m456.929 135.968c0 9.228-2.206 17.952-6.134 25.642-5.548 1.071-11.544 1.657-17.797 1.657-14.721 0-28.004-3.241-37.434-8.441-8.88-4.898-14.336-11.544-14.336-18.859 0-6.308 4.046-12.112 10.848-16.735 9.475-6.436 24.278-10.574 40.922-10.574 6.253 0 12.249.586 17.797 1.657 3.927 7.7 6.134 16.425 6.134 25.653z" fill="#516666"/><path d="m459.32 283.22-4.93 33.93c-36.85 36.65-111.86 61.73-198.39 61.73-54.6 0-104.61-9.99-143.35-26.58-.04-.01-.09-.03-.14-.05-18.92-8.11-35.14-17.79-47.88-28.65l-5.87-40.38c-2.84-19.58 14.46-36.13 33.89-32.42l1.74.33c.86.16 1.73.32 2.59.48 105.86 19.85 214.46 20.09 320.4.7 2.11-.38 4.21-.78 6.32-1.18l1.73-.33c19.43-3.71 36.74 12.84 33.89 32.42z" fill="#f5cf33"/><path d="m112.655 352.304c-.046-.018-.092-.037-.146-.055-18.914-8.111-35.136-17.788-47.879-28.645l-5.868-40.382c-2.838-19.582 14.455-36.134 33.891-32.426l1.739.33c.861.165 1.73.33 2.591.485-6.208 21.44-5.146 53.473 15.672 100.693z" fill="#f2b632"/><g fill="#516666"><ellipse cx="206.371" cy="189.201" rx="10.856" ry="21.971"/><ellipse cx="305.629" cy="189.201" rx="10.856" ry="21.971"/></g><path d="m395.564 154.827c-8.88-4.898-14.336-11.544-14.336-18.859 0-6.308 4.046-12.112 10.848-16.735-1.3 9.933-.576 21.733 3.488 35.594z" fill="#384948"/><path d="m417.38 252.31c-22 15.88-97.25 43.69-161.38 43.69-18.89 0-38.74-2.41-57.92-6.22-48.03-9.55-91.79-27.86-105.43-38.98l1.74.33c.86.16 1.73.32 2.59.48 36.36 6.82 73.04 11.32 109.83 13.51 70.32 4.19 141.02-.08 210.57-12.81z" fill="#f2b632"/><circle cx="376.033" cy="424.553" fill="#70a41c" r="12.363"/><circle cx="359.48" cy="463.133" fill="#70a41c" r="14.682"/><circle cx="331.168" cy="433.769" fill="#70a41c" r="14.682"/></g></svg>