<svg id="Capa_1" enable-background="new 0 0 512 512" height="512" viewBox="0 0 512 512" width="512" xmlns="http://www.w3.org/2000/svg"><g><path d="m512 256c0 110.34-69.81 204.38-167.67 240.34-1.36.5-2.73.99-4.1 1.47-1.3.45-47.493-70.391-48.803-69.961-25.26 8.35-7.377 42.595-35.427 42.595-17.71 0-36.061-8.934-45.371-12.014-1.34-.44-37.609 39.82-38.929 39.36-1.21-.42-2.42-.85-3.62-1.3-98.08-35.86-168.08-130.01-168.08-240.49 0-141.38 114.62-256 256-256s256 114.62 256 256z" fill="#b75c34"/><g><g><path d="m207.839 108.183-8.74 11.162-27.015 34.506c-55.449-21.292-64.709-66.449-63.687-97.844.151-4.729 5.213-7.589 5.714-11.571 1.277-10.197 6.129-12.959 15.134-8.012l34.115 17.912c12.155 6.678 17.042 17.269 15.027 30.994l1.246 8.612z" fill="#ffe5bf"/><path d="m207.839 108.183-8.74 11.162-17.597-11.19c-7.665-4.874-12.957-12.716-14.609-21.648-1.429-7.726-5.592-14.68-11.727-19.588l-20.293-16.236c-7.775-6.215-19.164-4.692-25.028 3.348l-1.447 1.977c.151-4.729.539-9.147 1.041-13.129 1.277-10.197 12.476-15.863 21.481-10.916l35.376 19.438c12.155 6.678 18.871 20.204 16.856 33.929l-.653 4.417z" fill="#f5cf33"/><path d="m304.161 108.184 8.74 11.162 27.015 34.506c55.449-21.292 64.709-66.449 63.687-97.844-.151-4.729-5.213-7.589-5.714-11.571-1.277-10.197-6.129-12.959-15.134-8.012l-34.115 17.912c-12.155 6.678-17.042 17.269-15.027 30.994l-1.246 8.612z" fill="#ffe5bf"/><path d="m304.161 108.184 8.74 11.162 17.597-11.19c7.665-4.874 12.957-12.716 14.609-21.648 1.429-7.726 5.592-14.68 11.727-19.588l20.293-16.236c7.775-6.215 19.164-4.692 25.028 3.348l1.447 1.977c-.151-4.729-.539-9.147-1.041-13.129-1.277-10.197-12.476-15.863-21.481-10.916l-35.376 19.438c-12.155 6.678-18.871 20.204-16.856 33.929l.653 4.417z" fill="#fde42f"/><path d="m338.366 490.246c-1.302.454-.744 8.462-2.055 8.895-25.261 8.349-52.257 12.859-80.311 12.859-28.058 0-55.051-4.511-80.311-12.856-1.334-.441 1.959-12.678.634-13.141l13.157-63.303-5.11-69.18 5.11-44.84 29.26-31.8 10-1.59 60.4-9.6 33.81 43 5.06 44.45-6.41 69.08z" fill="#fde42f"/><path d="m228.74 275.29-24.44 231.49c-9.753-2.003-19.299-4.557-28.612-7.635-1.334-.441-1.147-13.244-2.471-13.706l16.263-62.739-5.11-69.18 5.11-44.84 29.26-31.8z" fill="#f5cf33"/><path d="m256.001 250.37h60.303l6.65 58.324-66.733 40.305z" fill="#f97855"/><path d="m256.221 348.999-66.742-40.314 6.64-58.315h59.882z" fill="#f36a38"/><path d="m301.369 354.012-9.941 30.59c-2.724 8.381-10.537 14.056-19.344 14.056h-32.16c-8.816 0-16.629-5.675-19.353-14.056l-.17-.52-9.771-30.07c-2.715-8.381.265-17.556 7.397-22.739l6.801-4.947 19.22-13.961c7.123-5.174 16.78-5.174 23.912 0l26.022 18.908c7.122 5.184 10.111 14.359 7.387 22.739z" fill="#f97855"/><path d="m226.105 68.652c3.15 6.262 24.318 8.005 30.107 12.29h.009v-.009c11.578-8.57 26.438-4.201 26.438-18.616l26.438 5.005 12.458 50.511c1.258 5.136-4.892 17.145-.531 20.143 6.063 4.171 20.158 1.773 23.772 7.439 5.458 8.541 8.163 18.35 8.163 28.15 0 17.584-8.693 35.112-25.832 45.185l-10.215 9.062c.556 5.867 1.633 4.187 1.068 9.969-.808 8.275 7.252 24.097 4.256 31.82-3.415 8.835-8.22 17.168-14.302 24.66l-7.652 9.421h-88.139l-1.145-1.409-6.508-8.012c-6.082-7.49-10.884-15.819-14.303-24.655-5.079-13.124 9.735-27.526 11.086-41.794l-15.966-9.062c-17.14-10.064-25.842-27.601-25.842-45.176 0-9.802 2.706-19.62 8.165-28.164 3.623-5.671 15.788-4.887 21.849-9.057 4.351-2.998 8.352-11.871 9.62-17.007l4.238-52.024 12.231-21.638z" fill="#fde42f"/><path d="m230.398 77.412-22.56 30.771v19.76c0 6.506-2.161 12.828-6.144 17.972-3.983 5.145-6.144 11.466-6.144 17.972v40.976l10.244 19.13c1.315 2.457 1.954 5.213 1.846 7.998-.411 10.605-.988 39.877 3.357 70.28l-6.508-8.012c-6.082-7.49-10.884-15.819-14.303-24.655-5.079-13.124-7.11-27.365-5.759-41.633l.88-9.222c-17.14-10.064-25.842-27.601-25.842-45.176 0-16.307 7.491-32.662 22.683-43.114 4.351-2.998 7.463-7.491 8.731-12.628l12.458-50.511z" fill="#f5cf33"/><path d="m256.213 80.937c41.468 26.441 34.033 104.56 34.033 104.56s-8.594 81.394 15.519 128.581c10.524 20.594 5.386 45.919-13.187 59.699-9.634 7.148-21.71 12.427-36.365 12.427s-26.731-5.279-36.365-12.427c-18.574-13.78-23.711-39.105-13.187-59.699 24.113-47.188 15.519-128.581 15.519-128.581s-7.435-78.119 34.033-104.56z" fill="#ffe5bf"/><path d="m256.216 386.203c-14.652 0-26.731-5.278-36.37-12.42-18.568-13.782-23.704-39.113-13.186-59.705 24.12-47.181 15.522-128.576 15.522-128.576s-7.435-78.122 34.034-104.559c-18.038 26.438-14.803 104.559-14.803 104.559s3.736 81.394-6.754 128.576c-4.578 20.592-2.346 45.923 5.732 59.705 4.2 7.142 9.45 12.42 15.825 12.42z" fill="#ffe0a7"/><g fill="#516666"><ellipse cx="235.958" cy="315.497" rx="9.364" ry="17.226" transform="matrix(.707 -.707 .707 .707 -153.98 259.255)"/><ellipse cx="276.468" cy="315.497" rx="17.226" ry="9.364" transform="matrix(.707 -.707 .707 .707 -142.115 287.9)"/></g></g><g><path d="m351.097 211.119c-1.286 0-2.59-.309-3.802-.961-6.592-3.546-12.178-8.154-16.605-13.693-7.865-9.835-9.41-19.235-9.561-20.275-.636-4.395 2.411-8.473 6.806-9.109 4.361-.635 8.427 2.377 9.098 6.733.044.255 1.157 6.282 6.218 12.61 3.067 3.839 6.991 7.059 11.663 9.572 3.91 2.104 5.375 6.979 3.271 10.89-1.451 2.699-4.224 4.233-7.088 4.233z" fill="#fde42f"/><path d="m160.904 211.119c-2.864 0-5.636-1.534-7.088-4.233-2.104-3.91-.639-8.786 3.271-10.89 4.672-2.513 8.596-5.733 11.661-9.57 5.146-6.436 6.211-12.559 6.221-12.62.636-4.395 4.703-7.404 9.102-6.766 4.395.636 7.436 4.754 6.8 9.149-.151 1.039-1.696 10.44-9.562 20.277-4.425 5.537-10.011 10.144-16.603 13.691-1.211.653-2.516.962-3.802.962z" fill="#f5cf33"/><path d="m182.915 175.039c0 11.937-8.002 21.614-17.868 21.614-9.875 0-17.877-9.676-17.877-21.614 0-1.457.123-2.885.35-4.257 21.179-6.365 35.395 4.257 35.395 4.257z" fill="#516666"/><path d="m173.977 193.759c-2.63 1.835-5.685 2.894-8.939 2.894-9.875 0-17.868-9.676-17.868-21.614 0-1.457.123-2.885.35-4.257 6.896-2.072 13.053-2.346 18.218-1.769-.454 1.911-.7 3.935-.7 6.025 0 8.004 3.604 14.984 8.939 18.721z" fill="#384948"/><path d="m364.839 175.039c0 11.937-8.002 21.614-17.877 21.614s-17.877-9.676-17.877-21.614c0 0 6.47-4.834 17.177-6.025.473-.057.946-.095 1.438-.132 4.853-.378 10.509.019 16.78 1.901h.009c.228 1.371.35 2.8.35 4.256z" fill="#516666"/><path d="m355.891 193.759c-2.629 1.835-5.685 2.894-8.929 2.894-9.885 0-17.877-9.676-17.877-21.614 0 0 6.47-4.834 17.177-6.025.473-.057.946-.095 1.438-.132-.482 1.949-.738 4.02-.738 6.158 0 8.002 3.595 14.982 8.929 18.719z" fill="#384948"/><g fill="#516666"><path d="m137.264 183.081c-2.88 0-5.665-1.552-7.109-4.273-2.081-3.923-.588-8.789 3.335-10.871 3.879-2.058 7.826-3.693 11.731-4.859 7.155-2.149 14.366-2.842 21.41-2.055 12.515 1.393 20.255 6.946 21.096 7.575 3.558 2.658 4.287 7.696 1.629 11.253-2.642 3.537-7.639 4.279-11.195 1.672-.212-.149-5.262-3.623-13.313-4.519-4.885-.546-9.936-.048-15.016 1.478-2.904.867-5.863 2.096-8.808 3.659-1.2.638-2.489.94-3.76.94z"/><path d="m329.06 183.12c-2.448 0-4.865-1.124-6.449-3.244-2.658-3.557-1.896-8.62 1.662-11.277.841-.629 8.581-6.182 21.1-7.575.517-.063 1.104-.112 1.713-.158 6.101-.476 12.331.156 18.532 1.878h.037l1.134.336c3.891 1.161 7.834 2.796 11.723 4.858 3.922 2.081 5.416 6.948 3.335 10.87-2.081 3.923-6.945 5.415-10.87 3.335-2.812-1.491-5.625-2.677-8.371-3.529l-.436-.13c-4.677-1.404-9.332-1.938-13.844-1.586-.385.029-.745.056-1.104.099-8.256.919-13.34 4.496-13.389 4.532-1.439 1.073-3.113 1.59-4.773 1.591z"/></g></g><g><path d="m208.6 413.48-32.91 85.66c-1.34-.44-2.67-.89-3.99-1.35-1.21-.42-2.42-.85-3.62-1.3l16.29-142.97 10.78 10.83c2.26 2.27 3.97 5.05 4.95 8.11l8.86 27.48c1.43 4.41 1.31 9.2-.36 13.54z" fill="#f36a38"/><path d="m344.33 496.34c-1.36.5-2.73.99-4.1 1.47-1.3.45-2.61.9-3.92 1.33l-32.91-85.66c-1.66-4.34-1.79-9.13-.37-13.54l8.88-27.48c.98-3.06 2.67-5.84 4.93-8.11l11.17-11.21z" fill="#f97855"/></g><g fill="#f97855"><path d="m293.981 481.179-26.022 18.899c-7.132 5.184-16.79 5.184-23.912 0l-26.021-18.899c-1.864-1.353-3.453-2.989-4.701-4.805-3.604-5.127-4.701-11.748-2.696-17.944l5.325-16.383 4.616-14.198c2.724-8.381 10.537-14.056 19.353-14.056h32.16c8.806 0 16.619 5.675 19.344 14.056l9.941 30.581c2.725 8.39-.264 17.565-7.387 22.749z"/><path d="m322.235 269.601-22.591-33.146c-1.266-1.858-1.809-4.114-1.526-6.344l2.041-16.09c.933-7.355 9.733-10.648 15.265-5.712l11.701 10.441.87 9.232c1.353 14.263-.671 28.499-5.76 41.619z"/><path d="m309.097 17.652v49.669l-4.455 19.012c-1.788 7.596-10.036 11.691-17.168 8.523l-31.252-13.914v-.009c11.578-8.57 18.417-22.115 18.417-36.531v-27.167c0-9.714 8.059-17.556 17.859-17.215 9.334.341 16.599 8.296 16.599 17.632z"/></g><path d="m203.96 17.642v49.669l4.455 19.012c1.788 7.596 10.036 11.691 17.168 8.523l31.252-13.914v-.009c-11.578-8.57-18.417-22.115-18.417-36.531v-27.166c0-9.714-8.059-17.556-17.859-17.215-9.334.34-16.599 8.295-16.599 17.631z" fill="#f36a38"/><path d="m344.795 145.414c-12.145 1.145-23.534 5.023-32.397 8.939-5.184 2.289-10.254-3.424-7.388-8.314l16.544-28.207c1.258 5.136 4.37 9.629 8.731 12.628 6.063 4.171 10.896 9.288 14.51 14.954z" fill="#f97855"/><path d="m212.786 236.456-5.411 7.946-17.177 25.199c-5.089-13.12-7.113-27.355-5.761-41.619l.87-9.232 11.701-10.443c.085-.076.18-.151.265-.227 5.543-4.607 14.085-1.305 15.002 5.94l2.043 16.09c.274 2.232-.265 4.483-1.532 6.346z" fill="#f97855"/><path d="m200.035 154.353c-.814-.359-1.655-.719-2.507-1.078-8.456-3.528-18.861-6.82-29.89-7.86 3.613-5.666 8.447-10.783 14.51-14.955 4.361-2.998 7.473-7.491 8.731-12.628l13.753 23.449 2.79 4.758c2.866 4.889-2.204 10.603-7.387 8.314z" fill="#f97855"/><path d="m197.528 153.274c-8.456-3.528-18.861-6.82-29.89-7.86 3.613-5.666 8.447-10.783 14.51-14.955 4.361-2.998 7.473-7.491 8.731-12.628l13.753 23.449c-.823 1.627-1.807 3.178-2.942 4.635-1.74 2.261-3.14 4.739-4.162 7.359z" fill="#f36a38"/><path d="m207.64 231.992c-.114 2.885-.236 7.132-.265 12.41l-17.177 25.199c-5.089-13.12-7.113-27.355-5.761-41.619l.87-9.232 11.701-10.443c.085-.076.18-.151.265-.227l8.523 15.91c1.314 2.459 1.948 5.221 1.844 8.002z" fill="#f36a38"/></g></g></svg>