<svg id="Capa_1" enable-background="new 0 0 512 512" height="512" viewBox="0 0 512 512" width="512" xmlns="http://www.w3.org/2000/svg"><g><path d="m512 256c0 39.331-8.869 76.59-24.717 109.886-41.122 86.397-129.229 27.968-231.283 27.968s-190.161 58.429-231.283-27.968c-15.848-33.296-24.717-70.555-24.717-109.886 0-141.385 114.615-256 256-256s256 114.615 256 256z" fill="#7fbb1b"/><path d="m487.27 365.88c-41.11 86.4-129.22 146.12-231.27 146.12-49.08 0-94.94-13.82-133.9-37.78-42.04-25.84-76.03-63.5-97.37-108.34 8.99-24.27 20.52-46.87 34.18-67.3 29.25-43.77 68.28-77.59 113.08-96.62 26.29-11.17 54.56-17.25 84.01-17.25 79.99 0 151.31 44.82 197.71 114.81 13.4 20.18 24.71 42.46 33.56 66.36z" fill="#516666"/><path d="m199.81 256s-69.19 96.53-77.71 218.22c-42.04-25.84-76.03-63.5-97.37-108.34 28.25-76.27 81.55-136.01 147.26-163.92z" fill="#384948"/><path d="m453.71 299.52c-1.38 7.83-3.51 15.56-6.38 23.08l-13.39 35.13c-18.85 49.45-66.28 82.13-119.2 82.13h-116.7c-52.92 0-100.35-32.68-119.2-82.13l-13.39-35.13c-2.98-7.83-5.17-15.87-6.54-24.02 29.25-43.77 68.28-77.59 113.08-96.62 26.29-11.17 54.56-17.25 84.01-17.25 79.99 0 151.31 44.82 197.71 114.81z" fill="#384948"/><path d="m434.121 240.426h-355.462c-16.549 0-29.194-14.766-26.649-31.118l8.814-56.631c2.044-13.136 13.355-22.822 26.649-22.822h337.833c13.294 0 24.605 9.687 26.649 22.822l8.814 56.631c2.546 16.352-10.1 31.118-26.648 31.118z" fill="#6e8c8e"/><path d="m256.39 0c-63.43 0-120.719 37.912-145.512 96.295l-43.643 102.771c-12.885 30.342-13.524 64.494-1.784 95.296l13.389 35.129c18.849 49.453 66.277 82.132 119.201 82.132h116.698c52.924 0 100.351-32.679 119.201-82.132l13.389-35.129c11.741-30.803 11.101-64.955-1.784-95.296l-43.643-102.771c-24.794-58.383-82.082-96.295-145.512-96.295z" fill="#617f7f"/><path d="m297.591 411.624h-99.55c-52.92 0-100.35-32.68-119.2-82.13l-13.39-35.13c-11.74-30.8-11.1-64.96 1.78-95.3l43.65-102.77c24.79-58.38 82.08-96.29 145.51-96.29 17.22 0 33.98 2.79 49.77 8.04-42.37 14.05-77.67 45.72-95.74 88.25l-43.64 102.77c-12.89 30.34-13.53 64.5-1.78 95.3l13.38 35.13c18.85 49.45 66.28 82.13 119.21 82.13z" fill="#516666"/><path d="m394.82 225.95c-.79 28.39-25.61 51.58-54.01 51.58-8.78 0-15.32 7.2-15.32 15.29 0 1.85.34 3.74 1.07 5.6l11.2 28.55c.24.61.46 1.23.67 1.84 2.53 7.43 2.83 14.97 1.31 21.98-3.92 18.22-20.01 32.9-40.67 32.9h-85.36c-20.66 0-36.75-14.68-40.67-32.9-.922-4.254 10.259-8.703 10.768-13.203.33-2.917-10.453-5.855-9.458-8.776.21-.61.43-1.23.67-1.84l1.22-3.1 9.98-25.45c3.93-10.04-3.47-20.89-14.25-20.89h-.94c-3.92 0-7.74-.43-11.42-1.24-10.08-2.2-19.08-7.27-26.12-14.31-9.52-9.52-15.44-22.64-15.55-37.15-.21-29.41 24.61-53.47 54.02-53.47h169.79c14.66 0 27.93 5.94 37.54 15.55 9.94 9.939 15.95 23.779 15.53 39.039z" fill="#809ca0"/><path d="m217.93 383.69h-4.22c-20.66 0-36.75-14.68-40.67-32.9-.685-3.157 3.195-6.422 3.286-9.735.111-4.044-3.366-8.161-1.976-12.245.21-.61.43-1.23.67-1.84l1.22-3.1 2.14 5.62c8.29 21.78 22.14 40.3 39.55 54.2z" fill="#6e8c8e"/><g fill="#384948"><ellipse cx="228.183" cy="278.09" rx="12.988" ry="17.373" transform="matrix(.707 -.707 .707 .707 -129.806 242.8)"/><ellipse cx="284.597" cy="278.09" rx="17.373" ry="12.988" transform="matrix(.707 -.707 .707 .707 -113.283 282.691)"/></g><path d="m339.74 350.79c-54.7-14.4-112-14.4-166.7 0-1.52-7.01-1.22-14.55 1.31-21.98 53.97-13.09 110.11-13.09 164.08 0 2.53 7.43 2.83 14.97 1.31 21.98z" fill="#516666"/><g><ellipse cx="193.402" cy="222.749" fill="#fff9f1" rx="27.63" ry="34.404"/><path d="m203.186 254.929c-3.043 1.442-6.343 2.225-9.789 2.225-15.258 0-27.626-15.404-27.626-34.406s12.367-34.406 27.626-34.406c3.445 0 6.745.783 9.789 2.225-10.433 4.922-17.844 17.47-17.844 32.18s7.411 27.26 17.844 32.182z" fill="#f7eadc"/><path d="m210.149 222.752c0 12.312-7.348 22.496-16.887 24.097-.867.146-1.747.222-2.641.222-10.787 0-19.529-10.891-19.529-24.319 0-13.435 8.742-24.319 19.529-24.319.894 0 1.775.076 2.641.222 9.538 1.601 16.887 11.778 16.887 24.097z" fill="#516666"/><ellipse cx="319.378" cy="222.749" fill="#fff9f1" rx="27.63" ry="34.404"/><path d="m329.163 254.929c-3.043 1.442-6.343 2.225-9.789 2.225-15.258 0-27.626-15.404-27.626-34.406s12.367-34.406 27.626-34.406c3.445 0 6.745.783 9.789 2.225-10.433 4.922-17.844 17.47-17.844 32.18s7.411 27.26 17.844 32.182z" fill="#f7eadc"/><path d="m341.688 222.752c0 13.428-8.742 24.319-19.529 24.319-1.012 0-2.003-.097-2.974-.277-9.373-1.789-16.555-11.875-16.555-24.042 0-12.173 7.182-22.253 16.555-24.042.971-.18 1.962-.277 2.974-.277 10.787 0 19.529 10.884 19.529 24.319z" fill="#516666"/><g fill="#384948"><path d="m311.317 222.752c0 9.359 3.002 17.844 7.868 24.042-9.373-1.789-16.555-11.875-16.555-24.042 0-12.173 7.182-22.253 16.555-24.042-4.866 6.198-7.868 14.683-7.868 24.042z"/><path d="m185.345 222.752c0 9.387 3.016 17.893 7.917 24.097-.867.146-1.747.222-2.641.222-10.787 0-19.529-10.891-19.529-24.319 0-13.435 8.742-24.319 19.529-24.319.894 0 1.775.076 2.641.222-4.902 6.204-7.917 14.71-7.917 24.097z"/></g></g><g fill="#516666"><ellipse cx="212.102" cy="172.676" rx="10.873" ry="24.847" transform="matrix(.221 -.975 .975 .221 -3.209 341.335)"/><ellipse cx="300.678" cy="172.676" rx="24.847" ry="10.873" transform="matrix(.975 -.221 .221 .975 -30.745 70.778)"/></g><path d="m166.78 199.06c-10.41 24.51-12.83 51.52-7.17 77.23-10.08-2.2-19.08-7.27-26.12-14.31-9.52-9.52-15.44-22.64-15.55-37.15-.21-29.41 24.61-53.47 54.02-53.47h6.58z" fill="#6e8c8e"/></g></svg>