<svg id="Capa_1" enable-background="new 0 0 512 512" height="512" viewBox="0 0 512 512" width="512" xmlns="http://www.w3.org/2000/svg"><g><path d="m512 256c0 58.2-19.43 111.87-52.15 154.87-46.76 61.46-120.67 6.424-203.85 6.424-57.26 0-37.488 47.153-80.128 15.393-19.31-14.38-109.152-2.667-123.722-21.817-32.72-43-52.15-96.67-52.15-154.87 0-141.38 114.62-256 256-256s256 114.62 256 256z" fill="#f97855"/><path d="m324.813 140.553h-137.626v-55.919c0-23.231 18.832-42.063 42.063-42.063h53.5c23.231 0 42.063 18.832 42.063 42.063z" fill="#e9424a"/><path d="m428.277 398.24c-46.76 61.46-89.097 84.706-172.277 84.706-57.26 0-85.16 1.178-127.8-30.582-19.31-14.38-42.528-27.145-57.098-46.294l8.369-80.438 8.209-25.613c.04-.12.08-.24.12-.37l47.98-149.7c16.75-52.259 65.34-87.709 120.22-87.709s103.47 35.45 120.22 87.71l47.98 149.7c.04.13.08.25.12.37l7.62 23.773z" fill="#fff9f1"/><g><circle cx="224.473" cy="216.142" fill="#e9424a" r="24.583"/><circle cx="287.527" cy="216.142" fill="#fd5758" r="24.583"/></g><path d="m459.85 410.87c-46.76 61.46-120.67 101.13-203.85 101.13s-157.09-39.67-203.85-101.13l35.53-110.85c-1.96 6.57-2.89 13.19-2.89 19.69 0 32.2 22.87 61.47 56.47 67.56 31.43 5.7 62.63-11.02 75.31-40.33l39.43-91.22 39.43 91.22c11.02 25.47 36.03 41.44 63.02 41.44 4.07 0 8.18-.36 12.29-1.11 40.38-7.32 65.27-48.12 53.58-87.25z" fill="#ffe5bf"/><path d="m289.65 66.8c-40.31 11.14-73.35 41.91-86.57 83.15l-47.98 149.7c-.04.13-.08.25-.12.37l-39.212 122.327-44.667-42.505 10.848-61.943 5.731-17.879c.04-.12.08-.24.12-.37l47.98-149.7c16.75-52.26 65.34-87.71 120.22-87.71 11.58 0 22.87 1.58 33.65 4.56z" fill="#f7eadc"/><g><path d="m197.681 256-45.917 40.79c-21.818 19.382-17.722 54.557 7.966 68.407 23.533 12.688 52.774.466 60.278-25.195l20.986-71.762-36.423-12.24" fill="#e9424a"/><path d="m314.319 256 45.917 40.79c21.818 19.382 17.722 54.557-7.966 68.407-23.533 12.688-52.774.466-60.278-25.195l-20.986-71.762 36.423-12.24" fill="#fd5758"/></g><path d="m128.2 383.56-24.96 77.88c-19.31-14.38-36.52-31.42-51.09-50.57l35.53-110.85c-1.96 6.57-2.89 13.19-2.89 19.69 0 27.83 17.08 53.47 43.41 63.85z" fill="#ffe0a7"/><g fill="#fd5758"><path d="m214.27 452.364c19.369 0 35.07-15.701 35.07-35.07v-101.3l-20.968-22.37-48.107 115.092c-5.588 22.153 11.159 43.648 34.005 43.648z"/><path d="m297.73 452.364c-19.369 0-35.07-15.701-35.07-35.07v-101.3l40.043-22.37 29.032 115.092c5.588 22.153-11.159 43.648-34.005 43.648z"/></g><g fill="#e9424a"><path d="m227.53 449.774c-4.09 1.67-8.56 2.59-13.26 2.59-22.85 0-39.59-21.49-34.01-43.64l29.04-115.1 23.26 13-25.75 102.1c-4.43 17.56 5.17 34.7 20.72 41.05z"/><path d="m311.01 449.774c-4.06 1.67-8.54 2.59-13.28 2.59-19.37 0-35.07-15.7-35.07-35.07v-101.3l40.04-22.37 3.28 13-16.78 9.37v101.3c0 14.68 9.01 27.25 21.81 32.48z"/></g><g><path d="m256 .005c-21.948 0-29.426 20.787-26.75 42.571l-3.074 50.885c1.851 15.065 14.646 26.385 29.824 26.385 15.178 0 27.974-11.32 29.824-26.385l6.444-52.461c2.676-21.784-14.32-40.995-36.268-40.995z" fill="#fd5758"/><path d="m270.112 116.32c-4.22 2.25-9.04 3.52-14.12 3.52-15.18 0-27.97-11.32-29.82-26.38l-6.44-52.46c-2.68-21.79 14.32-41 36.26-41 5.02 0 9.79 1.01 14.12 2.82-14.58 6.11-24.22 21.38-22.15 38.18l6.44 52.46c1.23 10.02 7.31 18.38 15.71 22.86z" fill="#e9424a"/></g><g><ellipse cx="135.099" cy="206.806" fill="#516666" rx="24.458" ry="36.21"/><path d="m147.317 238.165c-3.594 3.084-7.777 4.852-12.222 4.852-13.514 0-24.455-16.212-24.455-36.211s10.941-36.211 24.455-36.211c4.444 0 8.628 1.769 12.222 4.852-7.301 6.258-12.222 17.958-12.222 31.359s4.921 25.1 12.222 31.359z" fill="#384948"/><ellipse cx="376.901" cy="206.806" fill="#516666" rx="24.458" ry="36.21"/><path d="m389.12 238.165c-3.594 3.084-7.777 4.852-12.222 4.852-13.514 0-24.455-16.212-24.455-36.211s10.941-36.211 24.455-36.211c4.444 0 8.628 1.769 12.222 4.852-7.301 6.258-12.222 17.958-12.222 31.359s4.921 25.1 12.222 31.359z" fill="#384948"/></g><path d="m316.77 256v31.12l-24.48 29.02c-3.49 4.14-6.43 8.69-8.75 13.54-2.32 4.84-4.03 9.98-5.07 15.3-1.05 5.38-3.93 10-7.92 13.29-.7.58-1.44 1.12-2.21 1.61-3.58 2.3-7.83 3.61-12.34 3.61-5.48 0-10.57-1.94-14.55-5.22-3.99-3.29-6.87-7.91-7.92-13.29-2.08-10.63-6.83-20.56-13.82-28.84l-24.48-29.02 6.24-31.12z" fill="#f5cf33"/><path d="m268.34 359.88c-3.58 2.3-7.83 3.61-12.34 3.61-5.48 0-10.57-1.94-14.55-5.22-3.99-3.29-6.87-7.91-7.92-13.29-2.08-10.63-6.83-20.56-13.82-28.84l-24.48-29.02 6.24-31.12h6.89l24.2 19.04 23.44 53.46v9.57c0 9.26 4.95 17.36 12.34 21.81z" fill="#f2b632"/><path d="m326.47 277.44c0 5.22-4.25 9.68-9.7 9.68-1.9 0-3.71-.56-5.25-1.54-1.53-.99-2.79-2.4-3.58-4.13-2.88-6.33-11.25-7.74-16.06-2.71l-18.27 19.15c-9.59 10.05-25.63 10.05-35.22 0l-15.26-15.99-3.982-7.612c-1.97-2.06-4.509-2.165-7.059-2.165-3.66 0-8.088 2.952-9.788 6.682-.79 1.73-2.297 3.779-3.827 4.769-1.54.98-1.344.502-3.244.502-6.1 0-10.69-2.536-9.51-8.526l2.95-14.98c2.18-11.09 9.29-20.6 19.32-25.83l3.56-1.85c11.57-6.03 18.82-17.99 18.82-31.02v-10.62c0-6.03 2.1-11.65 5.67-16.08 3.58-4.44 8.62-7.69 14.51-8.97 1.79-.39 3.62-.58 5.45-.58s3.66.19 5.45.58c.76.17 1.51.36 2.24.59 10.59 3.33 17.94 13.18 17.94 24.46v10.62c0 13.03 7.25 24.99 18.82 31.02l3.56 1.85c10.03 5.23 17.14 14.74 19.32 25.83l2.95 14.98c.13.64.19 1.27.19 1.89z" fill="#fde42f"/><path d="m263.69 166.79c-7.99 2.74-13.89 10.05-14.48 18.92l-2.18 32.7c-.71 10.64-6.87 20.15-16.29 25.14-5.73 3.04-9.26 8.97-9.26 15.38 0 .43.02.86.05 1.29l1.6 21.68-3.01-3.16c-1.97-2.06-4.55-3.04-7.1-3.04-3.66 0-7.26 2.02-8.96 5.75-.79 1.73-2.05 3.14-3.58 4.13-1.54.98-3.35 1.54-5.25 1.54-6.1 0-10.69-5.58-9.51-11.57l2.95-14.98c2.18-11.09 9.29-20.6 19.32-25.83l3.56-1.85c11.57-6.03 18.82-17.99 18.82-31.02v-10.62c0-6.03 2.1-11.65 5.67-16.08 3.58-4.44 8.62-7.69 14.51-8.97 1.79-.39 3.62-.58 5.45-.58s3.66.19 5.45.58c.76.17 1.51.36 2.24.59z" fill="#f5cf33"/></g></svg>