<svg id="Capa_1" enable-background="new 0 0 512 512" height="512" viewBox="0 0 512 512" width="512" xmlns="http://www.w3.org/2000/svg"><g><path d="m512 256c0 29.68-5.05 58.18-14.35 84.69-34.96 99.76-129.95 94.979-241.65 94.979s-206.69 4.781-241.65-94.979c-9.3-26.51-14.35-55.01-14.35-84.69 0-141.38 114.62-256 256-256s256 114.62 256 256z" fill="#f5cf33"/><g><g><ellipse cx="176.027" cy="105.808" fill="#6e8c8e" rx="37.51" ry="54.212" transform="matrix(.707 -.707 .707 .707 -23.26 155.461)"/><path d="m192.5 132.427c-7.066 0-18.356-3.74-28.854-14.238-7.285-7.285-12.315-16.147-13.803-24.315-.476-2.611-1.233-9.031 1.993-12.257 2.006-2.006 5.305-2.428 7.719-2.428 7.066 0 18.356 3.74 28.854 14.238 7.285 7.285 12.315 16.147 13.803 24.315.476 2.611 1.233 9.031-1.993 12.257-2.007 2.007-5.305 2.428-7.719 2.428z" fill="#617f7f"/></g><g><ellipse cx="335.973" cy="105.808" fill="#6e8c8e" rx="54.212" ry="37.51" transform="matrix(.707 -.707 .707 .707 23.587 268.559)"/><path d="m319.5 132.427c7.066 0 18.356-3.74 28.854-14.238 7.285-7.285 12.315-16.147 13.803-24.315.476-2.611 1.233-9.031-1.993-12.257-2.006-2.006-5.305-2.428-7.719-2.428-7.066 0-18.356 3.74-28.854 14.238-7.285 7.285-12.315 16.147-13.803 24.315-.476 2.611-1.233 9.031 1.993 12.257 2.007 2.007 5.305 2.428 7.719 2.428z" fill="#617f7f"/></g></g><path d="m350.714 184.06c0 52.315-30.784 115.77-94.714 115.77-21.46 0-41.55-5.84-58.78-16.03-34.11-20.13-35.934-64.983-35.934-99.74 0-10.427-18.986-25.007-15.181-36.474 15.187-45.774 58.175-78.876 108.946-79.276.31 0 .63-.01.95-.01 53.604 0 98.701 36.439 111.871 85.896 2.536 9.528-17.158 21.415-17.158 29.864z" fill="#809ca0"/><path d="m197.22 283.8c-34.11-20.13-51.62-57.26-51.62-99.74 0-8.895-4.357-17.557-2.457-25.877 11.688-51.176 57.295-89.443 111.906-89.873-49.609 1.69-81.399 134.46-57.829 215.49z" fill="#6e8c8e"/><path d="m497.65 340.69c-34.96 99.76-129.95 171.31-241.65 171.31-40.53 0-78.87-9.42-112.93-26.19-59.81-29.45-106.45-81.56-128.72-145.12l94.3-84.69-1.09-.74c-13.89-9.43-14.43-29.7-1.06-39.85l18.912-14.369c8.819-6.7 14.398-16.814 15.362-27.847.339-3.882.171-7.809-.716-11.603-.54-2.307-.797-4.619-.797-6.901 0-15.01 11.21-28.64 27.29-30.39l6.62-.72c9.93-1.08 19.76 2.76 26.33 10.28l1.33 1.51c.23.27.46.53.71.79 13.87 15.44 33.67 24.27 54.46 24.27 10.58 0 20.89-2.28 30.3-6.56 9.41-4.27 17.92-10.53 24.88-18.5l1.326-1.517c6.571-7.518 16.399-11.353 26.324-10.273l6.62.72c18.552 2.016 30.621 19.838 26.485 37.353-.889 3.767-1.038 7.672-.703 11.528.96 11.041 6.542 21.163 15.368 27.866l18.91 14.363c9.278 7.049 11.852 18.978 7.908 28.768-3.369 8.362-1.533 17.906 5.113 23.997z" fill="#6e8c8e"/><path d="m143.07 485.81c-59.81-29.45-106.45-81.56-128.72-145.12l79.12-72.516c6.645-6.091 8.482-15.635 5.113-23.996-3.945-9.79-1.368-21.72 7.917-28.769l19.076-14.493c8.715-6.621 14.228-16.615 15.18-27.518l.028-.32c.332-3.806.185-7.66-.7-11.376-.558-2.345-.824-4.695-.824-7.013 0-15.01 11.21-28.64 27.29-30.39l6.62-.72c9.93-1.08 19.76 2.76 26.33 10.28l1.33 1.51c.23.27.46.53.71.79-15.31 50.67-17.72 118.57 1.1 163.02 30.13 71.141-48.08 95.791-59.57 186.631z" fill="#617f7f"/><path d="m364.05 417.43-14.69 2.99c-60.66 12.37-123.15 12.56-183.87.56-.95-.18-1.9-.37-2.85-.56l-14.69-2.99c-31.73-6.47-52.59-36.21-48.81-67.56h313.72c3.78 31.35-17.08 61.09-48.81 67.56z" fill="#617f7f"/><path d="m206.5 349.87c-7.12 23.51-25.6 44.13-41.01 71.11-.95-.18-1.9-.37-2.85-.56l-14.69-2.99c-31.73-6.47-52.59-36.21-48.81-67.56z" fill="#516666"/><g fill="#fff9f1"><path d="m140.596 407.007-13.832-5.168c-8.305-3.103-12.521-12.351-9.418-20.655l10.787-28.869 43.906 16.406-10.787 28.869c-3.104 8.304-12.351 12.521-20.656 9.417z"/><path d="m371.404 407.007 13.832-5.168c8.305-3.103 12.521-12.351 9.418-20.655l-10.787-28.869-43.906 16.406 10.787 28.869c3.104 8.304 12.351 12.521 20.656 9.417z"/></g><path d="m303.76 239.96-47.76 59.22-47.76-59.22 19.5-31.65c3.502-5.692 6.414-11.694 8.708-17.911 3.036-8.226 10.783-13.759 19.551-13.759 8.768 0 16.516 5.533 19.551 13.759 2.294 6.217 5.206 12.219 8.708 17.911z" fill="#617f7f"/><path d="m412.86 349.87-8.24 9.31c-24.94 28.19-64.15 39.05-100.05 27.72l-28.54-9.02c-13.03-4.11-27.03-4.11-40.06 0l-28.54 9.02c-5.57 1.76-11.21 2.98-16.87 3.68-30.84 3.87-62.11-7.58-83.18-31.4l-8.24-9.31c.29-2.4.72-4.81 1.3-7.21l12.06-49.82c10.24-42.28 54.5-66.73 95.74-52.88l20.3 6.82c17.82 5.98 37.1 5.98 54.92 0l20.3-6.82c41.24-13.85 85.5 10.6 95.74 52.88l12.06 49.82c.58 2.4 1.01 4.81 1.3 7.21z" fill="#809ca0"/><g fill="#384948"><ellipse cx="208.249" cy="273.365" rx="13.929" ry="21.854" transform="matrix(.617 -.787 .787 .617 -135.37 268.639)"/><ellipse cx="303.751" cy="273.365" rx="21.854" ry="13.929" transform="matrix(.787 -.617 .617 .787 -103.951 245.585)"/></g><g><ellipse cx="170.14" cy="176.64" fill="#516666" rx="18.561" ry="22.442"/><path d="m179.413 196.076c-2.727 1.911-5.902 3.007-9.275 3.007-10.256 0-18.559-10.048-18.559-22.443s8.303-22.443 18.559-22.443c3.373 0 6.548 1.096 9.275 3.007-5.541 3.879-9.275 11.13-9.275 19.436s3.734 15.557 9.275 19.436z" fill="#384948"/><ellipse cx="341.86" cy="176.64" fill="#516666" rx="18.561" ry="22.442"/><path d="m351.133 196.076c-2.727 1.911-5.902 3.007-9.275 3.007-10.256 0-18.559-10.048-18.559-22.443s8.303-22.443 18.559-22.443c3.373 0 6.548 1.096 9.275 3.007-5.541 3.879-9.275 11.13-9.275 19.436s3.734 15.557 9.275 19.436z" fill="#384948"/></g><path d="m190.56 390.58c-30.84 3.87-62.11-7.58-83.18-31.4l-8.24-9.31c.29-2.4.72-4.81 1.3-7.21l12.06-49.82c10.24-42.28 54.5-66.73 95.74-52.88-41.51-6.79-55.98 108.37-17.68 150.62z" fill="#6e8c8e"/></g></svg>