<svg id="Capa_1" enable-background="new 0 0 512 512" height="512" viewBox="0 0 512 512" width="512" xmlns="http://www.w3.org/2000/svg"><g><path d="m512 256c0 87.05-43.46 163.96-109.86 210.21-41.44 28.86-91.81 7.65-146.14 7.65-14.07 0-27.88-1.14-41.33-3.33-38.5-6.24-74.1 17.06-104.81-4.32-66.4-46.25-109.86-123.16-109.86-210.21 0-141.38 114.62-256 256-256s256 114.62 256 256z" fill="#8fd1e3"/><path d="m402.14 466.21c-41.44 28.86-91.81 45.79-146.14 45.79s-104.7-16.93-146.14-45.79l59.93-200.87h172.42z" fill="#b75c34"/><path d="m244.37 265.34-29.7 243.33c-38.5-6.24-74.1-21.08-104.81-42.46l59.93-200.87z" fill="#a54828"/><g><path d="m321.094 400.808-1.144 22.606c-.945 18.666-19.508 31.773-37.132 25.553-.461-.163-.92-.337-1.376-.524l-7.434-3.042c-11.54-4.722-24.474-4.722-36.014 0l-7.434 3.042c-.457.187-.916.362-1.376.524-17.625 6.22-36.188-6.886-37.132-25.553l-1.144-22.606" fill="#cc754a"/><path d="m280.517 68.505 34.176 8.245 10.534-38.691c3.194-11.731 12.77-20.649 24.71-22.938 13.622-2.611 31.618-7.029 44.209-13.758 7.721-4.126 17.076 1.624 16.893 10.376-.561 26.814-12.19 68.276-74.969 83.081l28.97 87.5-15.97 88.57c-.181 11.262-5.324 21.87-14.055 28.987-8.897 7.252-14.06 18.121-14.06 29.599v31.555l3.855 3.855c12.527 12.527 10.752 33.317-3.716 43.54l-1.655 1.169c-6.638 14.334-23.378 20.911-37.998 14.928l-7.434-3.042c-11.54-4.722-24.474-4.722-36.014 0l-6.002 2.456-5.079-2.174c-14.62 5.982-22.303-1.195-28.941-15.529l-1.872-.177-5.193 2.369c-14.469-10.223-16.244-31.013-3.716-43.54l3.855-3.855v-31.555c0-11.478-5.163-22.347-14.06-29.599-8.731-7.116-13.875-17.724-14.055-28.987l-15.97-88.57 28.97-87.5c-62.78-14.805-74.409-56.267-74.969-83.081-.183-8.752 9.172-14.502 16.893-10.376 12.591 6.729 30.587 11.147 44.209 13.758 11.94 2.288 21.516 11.207 24.71 22.938l10.534 38.691 34.176-8.245c16.113-3.887 32.921-3.887 49.034 0z" fill="#dc8758"/><path d="m225.011 409.6c1.48 6.56 4 11.49 6.98 14.34l-1.43.59c-14.62 5.98-31.36-.59-38-14.93l-1.65-1.17c-14.47-10.22-16.25-31.01-3.72-43.54l3.86-3.85v-31.56c0-11.48-5.17-22.35-14.06-29.6-4.37-3.56-7.84-7.98-10.24-12.93s-3.73-10.42-3.82-16.05l-15.971-88.578 28.971-87.502c-62.78-14.8-74.41-56.26-74.97-83.08-.18-8.75 9.17-14.5 16.89-10.37 12.6 6.73 30.59 11.14 44.21 13.76 11.94 2.28 21.52 11.2 24.71 22.93l10.54 38.69 17.15-4.14-4.62 109.71.69 88.58c.05 5.63.69 11.1 1.87 16.05 1.17 4.95 2.86 9.37 5 12.93 4.34 7.25 6.87 18.12 6.87 29.6v31.56l-1.89 3.85c-6.12 12.53-5.25 33.32 1.82 43.54z" fill="#cc754a"/><ellipse cx="211.289" cy="390.321" fill="#384948" rx="12.736" ry="19.982" transform="matrix(.617 -.787 .787 .617 -226.257 315.841)"/><ellipse cx="298.612" cy="390.321" fill="#384948" rx="19.982" ry="12.736" transform="matrix(.787 -.617 .617 .787 -177.193 267.319)"/><g><ellipse cx="163.218" cy="196.891" fill="#516666" rx="14.802" ry="24.495" transform="matrix(.89 -.456 .456 .89 -71.848 96.142)"/><path d="m179.476 212.395c-.984 2.849-2.691 5.068-5.085 6.295-7.278 3.731-18.174-3.008-24.346-15.047s-5.283-24.82 1.995-28.551c2.393-1.227 5.192-1.317 8.08-.453-2.001 5.783-1.04 14.185 3.096 22.252s10.397 13.753 16.26 15.504z" fill="#384948"/></g><g><ellipse cx="348.782" cy="196.891" fill="#516666" rx="24.495" ry="14.802" transform="matrix(.456 -.89 .89 .456 14.459 417.443)"/><path d="m365.04 181.387c-.984-2.849-2.691-5.068-5.085-6.295-7.278-3.731-18.174 3.008-24.346 15.047s-5.283 24.82 1.995 28.551c2.393 1.227 5.192 1.317 8.08.453-2.001-5.783-1.04-14.185 3.096-22.252 4.136-8.068 10.397-13.753 16.26-15.504z" fill="#384948"/></g><path d="m167.946 143.266-24.993 21.253c-6.768 5.755-3.944 16.778 4.758 18.569l36.189 7.451 18.635-38.965z" fill="#cc754a"/><path d="m344.054 143.266 24.993 21.253c6.768 5.755 3.944 16.778-4.758 18.569l-36.189 7.451-18.635-38.965z" fill="#dc8758"/><g><path d="m298.601 94.77-22.541-12.941s5.952 16.754-12.398 33.573c-3.813 3.498-9.464 3.92-13.721 1.252-.579-.358-1.13-.773-1.653-1.252-18.349-16.818-12.39-33.573-12.39-33.573l-22.534 12.934c-6.846 3.935-15.052-2.203-13.277-9.894 2.761-11.968 13.685-17.856 13.685-17.856l-10.223-5.38c-5.53-2.912-3.956-11.281 2.261-11.904 20.646-2.06 36.405 4.493 44.382 8.899 3.598 1.989 7.976 1.989 11.568 0 7.976-4.407 23.743-10.96 44.389-8.899 6.217.622 7.79 8.992 2.261 11.904l-10.223 5.38s11.167 6.016 13.771 18.256c1.601 7.534-6.675 13.336-13.357 9.501z" fill="#b75c34"/><path d="m249.941 116.654c-.579-.358-1.13-.773-1.653-1.252-18.349-16.818-12.39-33.573-12.39-33.573l-22.534 12.934c-6.846 3.935-15.052-2.203-13.277-9.894 2.761-11.968 13.685-17.856 13.685-17.856l-10.223-5.38c-5.53-2.912-3.956-11.281 2.261-11.904 20.646-2.06 36.405 4.493 44.382 8.899 0 .002-11.01 34.397-.251 58.026z" fill="#a54828"/></g><path d="m256 362.672c-5.621 0-10.23-4.458-10.417-10.076l-6.232-187.481c-.313-9.411 7.232-17.211 16.648-17.211 9.417 0 16.961 7.8 16.648 17.211l-6.232 187.481c-.185 5.618-4.794 10.076-10.415 10.076z" fill="#fff9f1"/><g fill="#a54828"><path d="m116.687 21.955s56.547 10.165 65.657 55.341c0 0-62.494 3.953-65.657-55.341z"/><path d="m395.313 21.955s-56.547 10.165-65.656 55.341c-.001 0 62.493 3.953 65.656-55.341z"/></g></g></g></svg>