<svg id="Capa_1" enable-background="new 0 0 512 512" height="512" viewBox="0 0 512 512" width="512" xmlns="http://www.w3.org/2000/svg"><g><path d="m512 256c0 87.057-43.455 163.964-109.857 210.214-41.439 28.863-91.814-19.278-146.143-19.278-53.019 0-102.274 48.946-143.132 21.343-68.096-46.005-112.868-123.913-112.868-212.279 0-141.385 114.615-256 256-256s256 114.615 256 256z" fill="#f5cf33"/><path d="m402.14 466.21c-41.44 28.86-91.81 45.79-146.14 45.79s-104.7-16.93-146.14-45.79l59.93-200.87h172.42z" fill="#f36a38"/><path d="m244.37 265.34-29.7 243.33c-38.5-6.24-74.1-21.08-104.81-42.46l59.93-200.87z" fill="#e05327"/><g><path d="m365.852 343.214c2.749 25.314-9.55 49.9-31.463 62.872l-45.804 27.142h-65.172l-3.187-1.882-28.671-35.403c-21.913-12.973-34.826-27.433-32.077-52.747l-.499-118.423s3.238-68.387-34.513-112.707c-31.277-36.72-103.44-47.209-114.086-76.06-5.849-15.827-5.411-27.858 4.77-33.238 51.162-27.003 240.849 152.438 240.849 152.438s189.687-179.441 240.849-152.438c10.187 5.378 10.618 17.412 4.774 33.24-10.161 27.522-62.959 46.864-92.77 82.27-39.166 46.517-55.834 106.495-55.834 106.495z" fill="#f97855"/><path d="m220.226 431.347-42.617-25.26c-21.913-12.973-34.211-37.559-31.463-62.872l12.833-118.441s-4.009-62.032-41.854-106.495c-31.186-36.639-96.13-53.507-106.744-82.272-5.85-15.828-5.412-27.859 4.769-33.239 51.162-27.003 240.849 152.438 240.849 152.438-64.883 31.602-92.239 192.007-34.318 223.706 23.848 13.047 16.009 33.228-1.455 52.435z" fill="#f36a38"/><ellipse cx="255.999" cy="305.585" fill="#f36a38" rx="41.67" ry="129.3"/><circle cx="255.999" cy="424.438" fill="#e05327" r="49.781"/><g><path d="m320.443 395.944v28.196c0 17.8-14.432 32.233-32.232 32.233-8.893 0-16.951-3.604-22.783-9.436-5.831-5.831-9.436-13.903-9.436-22.796 0 17.8-14.418 32.233-32.218 32.233-8.907 0-4.809-19.717-10.64-25.549-5.831-5.831-11.15 2.21-11.15-6.684l-10.428-28.196c0-29.129 23.604-52.747 52.746-52.747h23.395c29.128-.001 52.746 23.617 52.746 52.746z" fill="#ffe5bf"/><path d="m231.122 395.944v28.196c0 8.893 3.605 16.965 9.436 22.796.946.947 1.948 1.838 3.006 2.631-5.456 4.272-12.331 6.806-19.79 6.806-8.907 0-16.951-3.604-22.783-9.436-5.831-5.831-9.436-13.903-9.436-22.796v-28.196c0-29.129 23.604-52.747 52.746-52.747h23.395c2.756 0 5.456.209 8.086.627-25.301 3.881-44.66 25.745-44.66 52.119z" fill="#ffe0a7"/></g><g><path d="m276.177 425.526c14.383-2.015 25.084-14.319 25.084-28.843v-4.773c0-12.634-12.059-21.778-24.224-18.369l-14.452 4.049c-4.308 1.207-8.865 1.207-13.174 0l-14.452-4.049c-12.165-3.409-24.224 5.736-24.224 18.369v4.773c0 14.524 10.701 26.828 25.084 28.843 13.388 1.875 26.971 1.875 40.358 0z" fill="#b75c34"/><path d="m271.395 426.114c-5.123.545-10.267.813-15.4.813-6.737 0-13.486-.46-20.18-1.401-14.384-2.011-25.078-14.32-25.078-28.843v-4.77c0-12.641 12.053-21.785 24.223-18.373l13.389 3.754c-4.128 3.454-6.812 8.641-6.812 14.619v4.77c0 14.523 10.694 26.832 25.078 28.843 1.593.224 3.187.416 4.78.588z" fill="#a54828"/></g><g><path d="m346.663 290.93c-1.375 0-2.77-.331-4.066-1.028-7.049-3.793-13.024-8.72-17.758-14.644-8.411-10.518-10.063-20.571-10.224-21.683-.681-4.7 2.578-9.061 7.279-9.741 4.664-.679 9.012 2.542 9.73 7.201.047.273 1.238 6.718 6.649 13.485 3.28 4.106 7.476 7.549 12.473 10.237 4.182 2.25 5.748 7.464 3.498 11.646-1.553 2.886-4.519 4.527-7.581 4.527z" fill="#f36a38"/><path d="m165.336 290.93c-3.063 0-6.027-1.64-7.58-4.526-2.25-4.182-.684-9.396 3.498-11.646 4.997-2.688 9.193-6.131 12.471-10.234 5.503-6.883 6.642-13.431 6.653-13.496.681-4.7 5.029-7.918 9.734-7.235 4.7.68 7.952 5.084 7.272 9.784-.161 1.112-1.814 11.165-10.226 21.685-4.732 5.922-10.707 10.849-17.756 14.641-1.296.696-2.691 1.027-4.066 1.027z" fill="#e05327"/><path d="m188.876 252.344c0 12.766-8.558 23.115-19.109 23.115-10.561 0-19.119-10.348-19.119-23.115 0-1.558.132-3.085.374-4.552 22.649-6.808 37.854 4.552 37.854 4.552z" fill="#516666"/><path d="m179.316 272.363c-2.812 1.962-6.08 3.095-9.56 3.095-10.561 0-19.109-10.348-19.109-23.115 0-1.558.132-3.085.374-4.552 7.374-2.215 13.96-2.509 19.483-1.892-.486 2.043-.749 4.208-.749 6.444.002 8.559 3.856 16.025 9.561 20.02z" fill="#384948"/><path d="m361.36 252.344c0 12.766-8.558 23.115-19.119 23.115s-19.119-10.348-19.119-23.115c0 0 6.919-5.169 18.37-6.444.506-.061 1.012-.101 1.538-.142 5.19-.405 11.239.02 17.945 2.033h.01c.243 1.468.375 2.995.375 4.553z" fill="#516666"/><path d="m351.79 272.363c-2.812 1.962-6.08 3.095-9.549 3.095-10.571 0-19.119-10.348-19.119-23.115 0 0 6.919-5.169 18.37-6.444.506-.061 1.012-.101 1.538-.142-.516 2.084-.789 4.299-.789 6.585 0 8.56 3.844 16.026 9.549 20.021z" fill="#384948"/><g fill="#e05327"><path d="m140.054 260.945c-3.08 0-6.059-1.66-7.603-4.57-2.226-4.195-.629-9.4 3.566-11.626 4.148-2.201 8.369-3.95 12.546-5.196 7.652-2.299 15.363-3.039 22.897-2.198 13.384 1.49 21.662 7.429 22.561 8.101 3.805 2.842 4.585 8.23 1.743 12.035-2.825 3.783-8.17 4.577-11.972 1.789-.227-.159-5.627-3.875-14.237-4.833-5.224-.584-10.626-.052-16.059 1.581-3.106.927-6.27 2.242-9.419 3.913-1.285.68-2.664 1.004-4.023 1.004z"/><path d="m323.095 260.986c-2.618 0-5.203-1.202-6.896-3.469-2.842-3.804-2.028-9.218 1.777-12.06.899-.672 9.177-6.611 22.565-8.101.553-.067 1.181-.119 1.832-.169 6.525-.509 13.187.166 19.819 2.008h.04l1.213.359c4.161 1.242 8.378 2.99 12.537 5.195 4.194 2.225 5.792 7.43 3.566 11.625s-7.428 5.791-11.625 3.567c-3.007-1.595-6.016-2.863-8.952-3.774l-.466-.139c-5.002-1.502-9.98-2.073-14.805-1.696-.412.031-.796.06-1.181.106-8.83.983-14.266 4.808-14.319 4.847-1.539 1.148-3.33 1.701-5.105 1.701z"/></g></g><g fill="#ffe5bf"><path d="m167.799 217.998-8.82 6.776s-125.103-125.093-148.599-188.767c24.299-13.314 103.42 7.97 166.556 76.383 28.606 30.997 24.313 79.912-9.137 105.608z"/><path d="m344.199 217.998 8.82 6.776s125.103-125.093 148.599-188.767c-24.299-13.314-103.42 7.97-166.556 76.383-28.607 30.997-24.313 79.912 9.137 105.608z"/></g></g></g></svg>