<svg id="Capa_1" enable-background="new 0 0 512 512" height="512" viewBox="0 0 512 512" width="512" xmlns="http://www.w3.org/2000/svg"><g><path d="m512 256c0 82.12-38.67 155.21-98.79 202.05-43.39 33.81-97.95-30.86-157.21-30.86s-113.82 64.67-157.21 30.86c-60.12-46.84-98.79-119.93-98.79-202.05 0-141.38 114.62-256 256-256s256 114.62 256 256z" fill="#f5cf33"/><path d="m413.21 458.05c-43.39 33.81-97.95 53.95-157.21 53.95-30.37 0-59.5-5.29-86.53-15-25.71-9.23-49.53-22.46-70.68-38.95l64.16-134.78 12.48-26.21h161.14z" fill="#6e8c8e"/><path d="m211.29 374.37-41.82 122.63c-25.71-9.23-49.53-22.46-70.68-38.95l64.16-134.78z" fill="#617f7f"/><g><g><path d="m501.21 220.12c-19.37 21.18-60.92 57.47-113.94 51.41l-16.15-39.38-44.07-107.43 82.17-60.53c13.69-10.08 32.61-9.21 45.22 2.19 21.39 19.35 50.1 56.76 57.31 121.63 1.3 11.71-2.58 23.41-10.54 32.11z" fill="#809ca0"/><path d="m375.15 203.19c2.87 20.31.98 28.75-4.03 28.96l-44.07-107.43 82.17-60.53c13.69-10.08 32.61-9.21 45.22 2.19 0 0-95.1 24.81-79.29 136.81z" fill="#6e8c8e"/><path d="m336.665 178.251s75.836-76.01 108.815-61.322c32.978 14.688 44.406 101.589-58.816 133.389s-49.999-72.067-49.999-72.067z" fill="#ffe5bf"/><path d="m184.95 124.72-60.22 146.81c-11.24 1.28-21.96.67-32.06-1.31-37.58-7.34-66.61-33.41-81.88-50.1-7.96-8.7-11.84-20.4-10.54-32.11 5.57-50.11 23.97-83.84 41.91-105.51 5.29-6.38 10.53-11.72 15.4-16.12 12.61-11.4 31.53-12.27 45.22-2.19z" fill="#809ca0"/><path d="m175.335 178.251s-75.836-76.01-108.815-61.322c-32.978 14.688-44.406 101.589 58.816 133.389s49.999-72.067 49.999-72.067z" fill="#ffe5bf"/></g><g fill="#fff9f1"><path d="m156.807 206.285s-24.858-75.328-54.911-68.697-25.387 40.238-15.482 50.143c0 0-14.551 58.918 45.504 58.918s24.889-40.364 24.889-40.364z"/><path d="m355.193 206.285s24.858-75.328 54.911-68.697 25.387 40.238 15.482 50.143c0 0 14.551 58.918-45.504 58.918s-24.889-40.364-24.889-40.364z"/></g><path d="m383.1 360.36-67.49 49.04c-2.7 1.96-5.47 3.77-8.3 5.43-15.82 9.29-28.491-24.545-46.234-24.543-17.743.001-40.557 33.839-56.377 24.553-2.84-1.67-5.61-3.48-8.31-5.44l-67.49-49.04c-35.54-25.82-50.41-71.6-36.84-113.38l25.78-79.34c13.58-41.78 52.52-70.07 96.45-70.07h83.42c43.93 0 82.87 28.29 96.45 70.07l25.78 79.34c13.571 41.78-1.299 87.56-36.839 113.38z" fill="#809ca0"/><path d="m242 409.4c2.06 1.96 4.17 3.77 6.34 5.44-13.64-1.63-31.41 7.18-43.64 0-2.84-1.67-5.61-3.48-8.31-5.44l-67.49-49.04c-35.54-25.82-50.41-71.6-36.84-113.38l25.78-79.34c13.58-41.78 52.52-70.07 96.45-70.07h41.36c-33.48 0-63.16 28.29-73.51 70.07l-19.65 79.34c-10.34 41.78.99 87.56 28.08 113.38z" fill="#6e8c8e"/><path d="m307.31 414.83c-10.5 6.16-21.84 10.28-33.47 12.36h-.01c-23.42 4.17-47.99.06-69.13-12.35-6.18-16.66-4.36-30.96-.57-41.55 4.46-12.48 11.65-19.82 11.65-19.82s30.63 3.48 40.22-21.92c0 0 12.88 21.92 40.23 21.92 0 0 24.54 25.06 11.08 61.36z" fill="#ffe5bf"/><path d="m273.83 427.19c-23.42 4.17-47.99.06-69.13-12.35-6.18-16.66-4.36-30.96-.57-41.55l37.87 36.11c2.06 1.96 4.17 3.77 6.34 5.44 8 6.16 16.63 10.28 25.49 12.35z" fill="#ffe0a7"/><g><ellipse cx="181.483" cy="250.849" fill="#516666" rx="18.897" ry="22.848"/><path d="m190.924 270.637c-2.777 1.946-6.009 3.062-9.443 3.062-10.442 0-18.895-10.23-18.895-22.85s8.453-22.849 18.895-22.849c3.434 0 6.666 1.116 9.443 3.062-5.641 3.949-9.443 11.332-9.443 19.788s3.802 15.838 9.443 19.787z" fill="#384948"/><ellipse cx="330.517" cy="250.849" fill="#516666" rx="18.897" ry="22.848"/><path d="m339.958 270.637c-2.777 1.946-6.009 3.062-9.443 3.062-10.442 0-18.895-10.23-18.895-22.85s8.453-22.849 18.894-22.849c3.434 0 6.666 1.116 9.443 3.062-5.641 3.949-9.443 11.332-9.443 19.788s3.802 15.838 9.444 19.787z" fill="#384948"/></g><path d="m288.226 361.473c-12.678 0-24.294-5.484-32.226-14.667-7.931 9.183-19.547 14.667-32.225 14.667-4.418 0-8-3.582-8-8s3.582-8 8-8c11.009 0 20.737-6.621 24.784-16.867 1.206-3.054 4.156-5.061 7.44-5.061s6.234 2.007 7.44 5.061c4.047 10.246 13.775 16.867 24.785 16.867 4.418 0 8 3.582 8 8s-3.58 8-7.998 8z" fill="#617f7f"/><path d="m256 331.545c-20.569 0-37.243-16.674-37.243-37.243v-39.759c0-20.569 16.674-37.243 37.243-37.243 20.569 0 37.243 16.674 37.243 37.243v39.759c0 20.569-16.674 37.243-37.243 37.243z" fill="#6e8c8e"/><path d="m270.857 328.463c-4.55 1.98-9.58 3.08-14.86 3.08-20.57 0-37.24-16.67-37.24-37.24v-39.76c0-20.57 16.67-37.24 37.24-37.24 5.28 0 10.31 1.1 14.86 3.08-13.18 5.73-22.4 18.87-22.4 34.16v39.76c0 15.29 9.22 28.43 22.4 34.16z" fill="#617f7f"/><g fill="#384948"><ellipse cx="238.024" cy="306.089" rx="12.764" ry="16.281" transform="matrix(.707 -.707 .707 .707 -146.722 257.959)"/><ellipse cx="273.976" cy="306.089" rx="16.281" ry="12.764" transform="matrix(.707 -.707 .707 .707 -136.192 283.382)"/></g></g><path d="m92.67 270.22c-37.58-7.34-66.61-33.41-81.88-50.1-7.96-8.7-11.84-20.4-10.54-32.11 5.57-50.11 23.97-83.84 41.91-105.51-16.79 46.66-29.07 127.28 50.51 187.72z" fill="#6e8c8e"/></g></svg>