<svg id="Capa_1" enable-background="new 0 0 512 512" height="512" viewBox="0 0 512 512" width="512" xmlns="http://www.w3.org/2000/svg"><g><path d="m512 256c0 59.13-20.05 113.58-53.73 156.92-40.76 52.47-101.48 51.583-170.78 60.083-10.32 1.27-20.83 1.92-31.49 1.92-82.25 0-155.44-1.713-202.27-62.003-.01-.01-.02-.03-.03-.04-33.66-43.33-53.7-97.77-53.7-156.88 0-141.38 114.62-256 256-256s256 114.62 256 256z" fill="#f5cf33"/><path d="m488.52 286.58c0 45.94-10.99 89.06-30.25 126.34-46.83 60.29-120.02 99.08-202.27 99.08s-155.44-38.79-202.27-99.08c-19.26-37.28-30.25-80.4-30.25-126.34 0-141.39 104.1-256 232.52-256s232.52 114.61 232.52 256z" fill="#f97855"/><path d="m287.49 510.08c-10.32 1.27-20.83 1.92-31.49 1.92-82.25 0-155.44-38.79-202.27-99.08-.01-.01-.02-.03-.03-.04-19.24-37.26-30.22-80.37-30.22-126.3 0-141.38 104.1-256 232.52-256 25.31 0 49.68 4.45 72.49 12.68-92.93 33.54-160.05 129.8-160.05 243.32 0 96.02 48.02 179.69 119.05 223.5z" fill="#f36a38"/><g><circle cx="256.001" cy="413.695" fill="#ffe0a7" r="52"/><path d="m268.712 464.125c-4.07 1.03-8.33 1.57-12.71 1.57-28.72 0-52-23.28-52-52 0-28.71 23.28-51.99 52-51.99 4.38 0 8.64.54 12.71 1.57-22.58 5.66-39.3 26.09-39.3 50.42 0 24.34 16.72 44.77 39.3 50.43z" fill="#ffd797"/><path d="m412.96 297.79c-16.77 18.05-41.43 48.12-69.16 93.3-.02.03-.03.06-.05.08-1.34 2.2-2.7 4.43-4.06 6.7-4.02 6.7-9.18 12.56-15.2 17.33s-12.9 8.46-20.35 10.81c-18.88 5.97-38.89-5.19-43.73-24.4l-4.41-17.5-4.41 17.5c-3.95 15.69-18.03 26.01-33.34 26.01-3.44 0-6.93-.52-10.39-1.61-.81-.26-1.61-.53-2.41-.82-13.85-4.99-25.54-14.65-33.14-27.32-1.36-2.27-2.72-4.5-4.06-6.7-.02-.02-.03-.05-.05-.08-27.73-45.18-52.39-75.25-69.16-93.3-12.7-13.69-14.37-34.29-3.97-49.8l63.87-95.15c10.89-16.23 32.77-20.78 49.22-10.23l.37.24 15.68 10.05 9.35 18.537c13.67 8.77 31.21 8.77 44.88 0l9.35-18.537 16.05-10.29c16.45-10.55 38.33-6 49.22 10.23l63.87 95.15c10.4 15.51 8.73 36.11-3.97 49.8z" fill="#ffe0a7"/><path d="m168.44 286.58c0 51.08 13.59 98.66 37.01 138.61-13.85-4.99-25.54-14.65-33.14-27.32-1.36-2.27-2.72-4.5-4.06-6.7-.02-.02-.03-.05-.05-.08-27.73-45.18-52.39-75.25-69.16-93.3-12.7-13.69-14.37-34.29-3.97-49.8l63.87-95.15c10.89-16.23 32.77-20.78 49.22-10.23l.37.24c-25.3 40.97-40.09 90.45-40.09 143.73z" fill="#ffd797"/><path d="m343.8 391.09c-.02.03-.03.06-.05.08-.65 1.25-1.35 2.47-2.12 3.67l-1.94 3.03c-4.02 6.7-9.18 12.56-15.2 17.33s-12.9 8.46-20.35 10.81c-18.88 5.97-38.89-5.19-43.73-24.4l-4.41-17.5-4.41 17.5c-3.95 15.69-18.03 26.01-33.34 26.01-3.44 0-6.93-.52-10.39-1.61-.81-.26-1.61-.53-2.41-.82-13.85-4.99-25.54-14.65-33.14-27.32l-1.94-3.03c-.77-1.2-1.47-2.42-2.12-3.67-.02-.02-.03-.05-.05-.08-8.92-17.1-6.93-37.88 4.96-52.98 1.19-1.51 2.48-2.97 3.87-4.36l32.86-32.85c9.17-9.17 14.32-21.61 14.32-34.57v-113.43l9.35 5.99c13.67 8.77 31.21 8.77 44.88 0l9.35-5.99v113.43c0 12.96 5.15 25.4 14.32 34.57l32.86 32.85c15.25 15.25 18.65 38.52 8.83 57.34z" fill="#fff9f1"/><path d="m205.45 425.19c-13.85-4.99-25.54-14.65-33.14-27.32l-1.94-3.03c-.77-1.2-1.47-2.42-2.12-3.67-.02-.02-.03-.05-.05-.08-8.92-17.1-6.93-37.88 4.96-52.98 5.84 31.52 16.96 60.94 32.29 87.08z" fill="#f7eadc"/><g><path d="m266.682 397.559h-21.364c-18.013 0-32.615-14.602-32.615-32.615v-3.707c0-4.777 3.873-8.65 8.65-8.65h69.295c4.777 0 8.65 3.873 8.65 8.65v3.707c-.001 18.013-14.603 32.615-32.616 32.615z" fill="#b75c34"/><path d="m272.635 397.02c-1.926.36-3.918.544-5.953.544h-21.367c-18.01 0-32.611-14.602-32.611-32.62v-3.709c0-4.772 3.868-8.649 8.649-8.649h33.281c-4.781 0-8.649 3.877-8.649 8.649v3.709c0 15.984 11.487 29.28 26.65 32.076z" fill="#a54828"/></g></g><g><g><path d="m443.84 168.015c-3.283 5.469-9.879 7.979-15.97 6.083-6.227-1.939-12.319-4.424-18.202-7.462-10.137-5.231-19.65-12.095-28.155-20.599-8.496-8.496-15.36-18.009-20.591-28.147-3.038-5.883-5.523-11.975-7.462-18.202-1.896-6.091.614-12.686 6.083-15.969 23.603-14.169 54.68-11.079 75.023 9.264 20.352 20.351 23.443 51.429 9.274 75.032z" fill="#ffe0a7"/><path d="m416.199 161.491c-2.009 2.009-4.205 3.727-6.53 5.146-10.137-5.231-19.65-12.095-28.155-20.599-8.496-8.496-15.36-18.009-20.591-28.147 1.419-2.325 3.137-4.522 5.146-6.53 13.838-13.838 36.284-13.838 50.122 0 13.846 13.846 13.846 36.292.008 50.13z" fill="#ffd797"/></g><g><path d="m68.16 168.015c3.283 5.469 9.879 7.979 15.97 6.083 6.227-1.939 12.319-4.424 18.202-7.462 10.137-5.231 19.65-12.095 28.155-20.599 8.496-8.496 15.36-18.009 20.591-28.147 3.038-5.883 5.523-11.975 7.462-18.202 1.896-6.091-.614-12.686-6.083-15.969-23.603-14.169-54.68-11.079-75.023 9.264-20.352 20.351-23.443 51.429-9.274 75.032z" fill="#ffe0a7"/><path d="m95.801 161.491c2.009 2.009 4.205 3.727 6.53 5.146 10.137-5.231 19.65-12.095 28.155-20.599 8.496-8.496 15.36-18.009 20.591-28.147-1.419-2.325-3.137-4.522-5.146-6.53-13.838-13.838-36.284-13.838-50.122 0-13.846 13.846-13.846 36.292-.008 50.13z" fill="#ffd797"/></g></g><g><ellipse cx="184.021" cy="256" fill="#fff9f1" rx="30.786" ry="38.334"/><path d="m194.923 291.856c-3.391 1.607-7.068 2.48-10.907 2.48-17.001 0-30.781-17.163-30.781-38.335s13.78-38.335 30.781-38.335c3.839 0 7.516.873 10.907 2.479-11.625 5.484-19.882 19.465-19.882 35.856s8.257 30.371 19.882 35.855z" fill="#f7eadc"/><path d="m202.681 256.003c0 13.718-8.188 25.065-18.816 26.849-.966.162-1.946.247-2.943.247-12.019 0-21.759-12.135-21.759-27.097 0-14.97 9.74-27.097 21.759-27.097.996 0 1.977.085 2.943.247 10.628 1.786 18.816 13.125 18.816 26.851z" fill="#516666"/><ellipse cx="327.979" cy="256" fill="#fff9f1" rx="30.786" ry="38.334"/><path d="m338.881 291.856c-3.391 1.607-7.068 2.48-10.907 2.48-17.001 0-30.781-17.163-30.781-38.335s13.78-38.335 30.781-38.335c3.839 0 7.516.873 10.907 2.479-11.625 5.484-19.882 19.465-19.882 35.856s8.257 30.371 19.882 35.855z" fill="#f7eadc"/><path d="m352.837 256.003c0 14.962-9.74 27.097-21.759 27.097-1.128 0-2.232-.108-3.314-.309-10.443-1.993-18.445-13.232-18.445-26.788 0-13.564 8.002-24.795 18.445-26.788 1.081-.201 2.186-.309 3.314-.309 12.019.001 21.759 12.128 21.759 27.097z" fill="#516666"/><g fill="#384948"><path d="m318.997 256.003c0 10.428 3.345 19.882 8.767 26.788-10.443-1.993-18.445-13.232-18.445-26.788 0-13.564 8.002-24.795 18.445-26.788-5.422 6.906-8.767 16.361-8.767 26.788z"/><path d="m175.044 256.003c0 10.459 3.36 19.936 8.821 26.849-.966.162-1.946.247-2.943.247-12.019 0-21.759-12.135-21.759-27.097 0-14.97 9.74-27.097 21.759-27.097.996 0 1.977.085 2.943.247-5.461 6.915-8.821 16.393-8.821 26.851z"/></g></g></g></svg>