<svg id="Capa_1" enable-background="new 0 0 512 512" height="512" viewBox="0 0 512 512" width="512" xmlns="http://www.w3.org/2000/svg"><g><path d="m512 256c0 123.21-87.05 226.1-203.01 250.5-17.1 3.61-34.82-40.366-52.99-40.366-5.54 0-11.04-.17-16.5-.53-12.42-.78-24.61 43.406-36.49 40.896-115.96-24.4-203.01-127.29-203.01-250.5 0-141.38 114.62-256 256-256s256 114.62 256 256z" fill="#f97855"/><path d="m308.99 346.25v160.25c-17.1 3.61-34.82 5.5-52.99 5.5s-35.89-1.89-52.99-5.5v-160.25z" fill="#ffe5bf"/><path d="m239.5 346.25v165.22c-12.42-.78-24.61-2.46-36.49-4.97v-160.25z" fill="#ffe0a7"/><g><path d="m195.745 128.353-30.348 17.23-24.036 13.638c-59.121-74.398-43.309-125.477-28.07-149.799 5.466-8.732 16.384-11.66 25.272-7.665 1.692.742 3.305 1.757 4.802 3.02 51.156 43.256 52.38 123.576 52.38 123.576z" fill="#ffe5bf"/><path d="m165.397 145.583-24.036 13.638c-59.121-74.398-43.309-125.477-28.07-149.799 5.466-8.732 16.384-11.66 25.272-7.665-19.065 32.755-33.289 94.284 25.572 142.759.429.351.859.703 1.262 1.067z" fill="#ffe0a7"/><path d="m316.26 128.353s1.217-80.315 52.371-123.574c9.354-7.91 23.575-5.743 30.079 4.637 15.244 24.326 31.043 75.404-28.068 149.802z" fill="#ffe5bf"/><g fill="#ffd797"><path d="m182.356 128.96s-.727-48.007-30.403-76.035c-7.311-6.905-19.322-5.111-24.064 3.757-8.871 16.588-15.19 47.817 19.853 91.923z"/><path d="m329.643 128.96s.727-48.007 30.403-76.035c7.311-6.905 19.322-5.111 24.064 3.757 8.871 16.588 15.19 47.817-19.853 91.923z"/></g><path d="m383.318 225.358-48.015 140.401c-5.369 15.699-18.286 27.637-34.359 31.753l-.005.001c-29.486 7.551-60.399 7.551-89.884-.001-14.166-3.628-29.628-17.918-34.36-31.754l-48.014-140.4z" fill="#ffe0a7"/><path d="m278.885 401.708c-7.6.98-15.25 1.46-22.89 1.46-15.1 0-30.2-1.89-44.94-5.66-7.08-1.81-14.48-6.29-20.71-12.05s-11.28-12.78-13.65-19.7l-48.01-140.4h45.77l48.02 140.4c2.36 6.92 7.41 13.94 13.64 19.7s13.64 10.24 20.72 12.05c7.281 1.86 14.641 3.26 22.05 4.2z" fill="#ffd797"/><path d="m273.411 374.907h-34.822c-14.44 0-26.146-11.706-26.146-26.146v-44.035h87.115v44.035c-.001 14.439-11.707 26.146-26.147 26.146z" fill="#f7eadc"/><path d="m381.126 276.837c-14.448 15.731-40.31 34.892-85.044 45.525l-40.086-6.252-31.055 4.841-5.885-23.474c-44.745-10.633-73.731-4.91-88.179-20.641-11.264-12.268-15.87-29.238-12.311-45.514l11.029-50.43h252.803l11.029 50.43c3.569 16.277-1.037 33.247-12.301 45.515z" fill="#ffe5bf"/><path d="m224.941 320.952-9.02 1.41c-44.745-10.633-70.596-29.794-85.044-45.525-11.264-12.268-15.87-29.238-12.311-45.514l11.029-50.43h55.56l2.212 11.905s-24.75 102.388 37.008 127.919c.192.075.384.16.566.235z" fill="#ffe0a7"/><g><ellipse cx="154.797" cy="221.115" fill="#516666" rx="20.421" ry="29.205"/><path d="m164.999 246.408c-3.001 2.487-6.494 3.914-10.204 3.914-11.283 0-20.418-13.076-20.418-29.206s9.135-29.206 20.418-29.206c3.711 0 7.204 1.426 10.204 3.914-6.096 5.048-10.204 14.484-10.204 25.293s4.108 20.244 10.204 25.291z" fill="#384948"/><ellipse cx="357.202" cy="221.115" fill="#516666" rx="20.421" ry="29.205"/><path d="m367.404 246.408c-3.001 2.487-6.494 3.914-10.204 3.914-11.283 0-20.418-13.076-20.418-29.206s9.135-29.206 20.418-29.206c3.711 0 7.204 1.426 10.204 3.914-6.096 5.048-10.204 14.484-10.204 25.293s4.108 20.244 10.204 25.291z" fill="#384948"/></g><path d="m316.263 289.748v26.365c0 16.644-13.495 30.14-30.139 30.14-8.316 0-15.851-3.37-21.303-8.824-5.453-5.453-8.823-13-8.823-21.316 0 16.644-13.482 30.14-30.126 30.14-8.329 0-4.497-18.437-9.95-23.89s-10.426 2.066-10.426-6.25l-9.751-26.365c0-27.238 22.071-49.322 49.321-49.322h21.876c27.237 0 49.321 22.084 49.321 49.322z" fill="#fff9f1"/><path d="m232.742 289.748v26.365c0 8.316 3.371 15.863 8.823 21.316.885.885 1.822 1.718 2.811 2.46-5.101 3.995-11.53 6.364-18.505 6.364-8.329 0-15.851-3.37-21.303-8.824-5.453-5.453-8.823-13-8.823-21.316v-26.365c0-27.238 22.071-49.322 49.321-49.322h21.876c2.577 0 5.101.196 7.561.586-23.659 3.63-41.761 24.075-41.761 48.736z" fill="#f7eadc"/><g><path d="m296.082 282.265c0 3.172-1.287 6.022-3.356 8.105-2.068 2.069-4.918 3.356-8.09 3.356-3.631 0-6.941 1.471-9.316 3.861-2.39 2.375-3.861 5.669-3.861 9.301 0 4.275-1.731 8.151-4.535 10.94-2.298 2.314-5.347 3.892-8.734 4.367-.705.123-1.44.169-2.191.169-4.26 0-8.136-1.731-10.925-4.535-2.804-2.789-4.535-6.665-4.535-10.94 0-3.631-1.471-6.926-3.861-9.301-2.375-2.39-5.685-3.861-9.316-3.861-3.172 0-6.022-1.287-8.09-3.356-2.069-2.084-3.356-4.934-3.356-8.105 0-20.869 16.916-37.8 37.784-37.8h4.597c10.434 0 19.888 4.229 26.722 11.078 6.834 6.832 11.063 16.286 11.063 26.721z" fill="#ffc1ae"/><path d="m258.191 322.194c-.705.123-1.44.169-2.191.169-4.26 0-8.136-1.731-10.925-4.535-2.804-2.789-4.535-6.665-4.535-10.94 0-3.631-1.471-6.926-3.861-9.301-2.375-2.39-5.685-3.861-9.316-3.861-3.172 0-6.022-1.287-8.09-3.356-2.069-2.084-3.356-4.934-3.356-8.105 0-20.869 16.916-37.8 37.784-37.8h4.597s-32.468 25.833-.107 77.729z" fill="#f4ad9d"/></g><path d="m403.988 184.485c-11.026-47.718-69.766-80.178-147.989-80.178s-136.962 32.46-147.988 80.178c-.92 2.599-1.426 5.395-1.426 8.31 0 13.753 11.149 24.902 24.902 24.902s24.902-11.149 24.902-24.902c0 13.753 11.149 24.902 24.902 24.902s24.902-11.149 24.902-24.902c0 13.753 11.149 24.902 24.902 24.902s24.902-11.149 24.902-24.902c0 13.753 11.149 24.902 24.902 24.902s24.902-11.149 24.902-24.902c0 13.753 11.149 24.902 24.902 24.902s24.902-11.149 24.902-24.902c0 13.753 11.149 24.902 24.902 24.902s24.902-11.149 24.902-24.902c.005-2.915-.501-5.711-1.421-8.31z" fill="#fff9f1"/><path d="m188.787 184.491c-.919 2.597-1.421 5.397-1.421 8.304 0 7.898 3.676 14.951 9.415 19.503-4.253 3.388-9.629 5.408-15.485 5.408-13.754 0-24.911-11.157-24.911-24.911 0 13.754-11.146 24.911-24.9 24.911s-24.9-11.157-24.9-24.911c0-2.907.502-5.706 1.421-8.304 11.029-47.727 69.773-80.182 147.989-80.182 14.16 0 27.678 1.058 40.395 3.099-57.536 9.148-98.572 37.991-107.603 77.083z" fill="#f7eadc"/></g></g></svg>