<svg id="Capa_1" enable-background="new 0 0 512 512" height="512" viewBox="0 0 512 512" width="512" xmlns="http://www.w3.org/2000/svg"><g><path d="m512 256c0 80.58-37.24 152.47-95.44 199.4-43.92 35.4-99.76-6.997-160.56-6.997-30.1 0-53.6 29.997-80.43 20.457-27.35-9.73-57.95 4.42-80.12-13.45-58.21-46.93-95.45-118.82-95.45-199.41 0-141.38 114.62-256 256-256s256 114.62 256 256z" fill="#7fbb1b"/><g><path d="m416.56 455.4c-43.92 35.4-99.76 56.6-160.56 56.6-60.79 0-116.63-21.2-160.55-56.59 9.55-22.85 23.68-42.95 41.09-59.36 5.41-5.12 11.14-9.87 17.15-14.23 29.05-21.1 64.61-33.24 102.31-33.24 45.5 0 87.88 17.68 119.46 47.47 17.41 16.41 31.54 36.51 41.1 59.35z" fill="#b75c34"/><g><g><path d="m129.314 153.706-12.098 121.667-41.932 16.574-3.104 1.225c-19.71 7.791-41.805-3.378-47.21-23.879l-23.403-88.689c-4.381-16.606.581-34.278 12.953-46.186l20.459-19.678c12.109-11.644 28.577-15.466 43.547-11.993 10.81 2.491 20.829 8.794 27.859 18.685z" fill="#ffe5bf"/><path d="m75.285 291.947-3.104 1.225c-19.71 7.791-41.805-3.378-47.21-23.879l-23.404-88.689c-4.381-16.606.581-34.278 12.953-46.186l20.459-19.678c12.109-11.644 28.577-15.466 43.547-11.993-30.784 14.084-85.5 126.746-3.241 189.2z" fill="#ffe0a7"/><path d="m59.186 265.739c-2.026 0-4.542-1.276-5.282-4.079l-23.4-88.689c-1.611-6.104.215-12.614 4.764-16.99l20.456-19.68c4.181-4.023 8.852-4.867 12.034-4.867 5.736 0 10.923 2.671 14.232 7.328l16.44 23.137-9.18 92.351-28.064 11.092c-.675.267-1.329.397-2 .397z" fill="#ffd797"/></g><g><path d="m382.685 153.705 22.934-32.275c16.757-23.582 50.56-26.751 71.407-6.694l20.456 19.68c12.376 11.907 17.333 29.583 12.951 46.189l-23.4 88.689c-5.408 20.496-27.501 31.669-47.214 23.877l-45.036-17.8z" fill="#ffe5bf"/><path d="m452.818 265.739c2.026 0 4.542-1.276 5.282-4.079l23.4-88.689c1.611-6.104-.215-12.614-4.764-16.99l-20.456-19.68c-4.181-4.023-8.852-4.867-12.034-4.867-5.736 0-10.923 2.671-14.232 7.328l-16.44 23.137 9.183 92.351 28.064 11.092c.672.267 1.326.397 1.997.397z" fill="#ffd797"/></g></g><path d="m311.738 411.365 93.153-67.679c33.234-24.146 47.141-66.946 34.447-106.016l-17.791-54.754c-23.303-71.718-90.135-120.275-165.544-120.275-75.409 0-142.242 48.557-165.544 120.275l-17.791 54.754c-12.694 39.069 1.212 81.87 34.447 106.016l86.837 41.471c11.344 8.242 31.344 37.573 44.494 40.188 9.471 1.884 18.199 4.615 27.771 3.58 16.075-1.739 31.8-7.592 45.521-17.56z" fill="#b75c34"/><path d="m266.215 428.916c-22.855 2.47-46.429-3.378-65.948-17.556l-93.153-67.68c-33.233-24.143-47.136-66.951-34.447-106.011l17.788-54.758c11.655-35.861 34.193-65.927 63.235-87.03s64.608-33.243 102.316-33.243c3.42 0 6.82.095 10.208.296-19.773 1.985-38.332 13.766-53.734 32.948-16.954 21.103-30.108 51.169-36.906 87.03l-10.377 54.758c-7.411 39.06.707 81.868 20.1 106.011l54.357 67.68c8.002 9.975 17.187 15.824 26.561 17.555z" fill="#a54828"/><path d="m266.22 348.88c-19.78 1.98-38.34 13.76-53.74 32.95-16.95 21.1-30.11 51.16-36.91 87.03l-5.38 28.4c-27.35-9.73-52.57-23.98-74.74-41.85 12.52-29.95 32.91-55.17 58.24-73.58 29.04-21.11 64.61-33.25 102.32-33.25 3.42 0 6.82.1 10.21.3z" fill="#a54828"/><path d="m384.314 213.024c.528-36.336-28.767-65.948-64.966-65.948-18.675 0-35.502 7.875-47.358 20.48-8.72 9.29-23.288 9.227-32.019-.042-12.362-13.133-30.129-21.114-49.733-20.396-1.784.063-3.558.2-5.3.412-31.86 3.811-56.774 30.995-57.249 63.573-.37 25.41 13.851 47.527 34.816 58.527 2.051 1.078 4.166 2.049 6.339 2.906 7.175 2.83 11.162 10.549 9.111 17.984-2.674 9.695-4.122 19.348-4.122 28.346 0 2.059.074 4.107.232 6.123 2.386 32.568 23.774 59.857 53.122 70.847 8.963 3.368 18.675 5.205 28.82 5.205 45.373 0 82.163-36.791 82.163-82.174 0-9.013-1.452-18.684-4.135-28.395-2.041-7.387 1.861-15.122 8.988-17.938 23.85-9.421 40.902-32.622 41.291-59.51z" fill="#ffe5bf"/><path d="m184.938 147.53c-3.832 11-6.989 22.834-9.364 35.386l-10.377 54.758c-1.995 10.525-2.871 21.325-2.692 31.955-20.966-11-35.186-33.117-34.816-58.527.475-32.577 25.389-59.761 57.249-63.572z" fill="#ffe0a7"/><path d="m227.186 395.836c-29.348-10.99-50.736-38.279-53.122-70.847 3.146 6.999 6.904 13.312 11.232 18.696z" fill="#ffe0a7"/><g><path d="m286.666 262.25c0 2.426-.985 4.607-2.567 6.201-1.582 1.582-3.763 2.567-6.189 2.567-2.778 0-5.31 1.125-7.127 2.954-1.829 1.817-2.954 4.337-2.954 7.115 0 3.27-1.325 6.236-3.47 8.369-1.758 1.77-4.091 2.977-6.681 3.341-.539.094-1.102.129-1.676.129-3.259 0-6.224-1.325-8.358-3.47-2.145-2.133-3.47-5.099-3.47-8.369 0-2.778-1.125-5.298-2.954-7.115-1.817-1.829-4.349-2.954-7.127-2.954-2.426 0-4.607-.985-6.189-2.567-1.582-1.594-2.567-3.774-2.567-6.201 0-15.965 12.941-28.918 28.906-28.918h3.517c7.983 0 15.215 3.235 20.443 8.475 5.228 5.228 8.463 12.46 8.463 20.443z" fill="#ffe0a7"/><path d="m257.678 292.797c-.539.094-1.102.129-1.676.129-3.259 0-6.224-1.325-8.358-3.47-2.145-2.133-3.47-5.099-3.47-8.369 0-2.778-1.125-5.298-2.954-7.115-1.817-1.829-4.349-2.954-7.127-2.954-2.426 0-4.607-.985-6.189-2.567-1.582-1.594-2.567-3.774-2.567-6.201 0-15.965 12.941-28.918 28.906-28.918h3.517s-24.838 19.763-.082 59.465z" fill="#ffd797"/></g><path d="m190.099 327.131c-6.976-.049-8.313 9.929-1.561 11.684 21.131 5.492 43.912 8.571 67.462 8.553 23.551.019 46.334-3.06 67.466-8.553 6.752-1.755 5.415-11.732-1.561-11.684-21.329.148-43.297.282-65.905.279-22.606.002-44.573-.131-65.901-.279z" fill="#ffd797"/><path d="m223.051 358.366c-3.488-.024-4.156 4.964-.78 5.842 10.565 2.746 21.956 4.285 33.731 4.276 11.776.009 23.167-1.53 33.733-4.276 3.376-.878 2.708-5.866-.78-5.842-10.664.074-21.649.141-32.953.139-11.304.001-22.287-.065-32.951-.139z" fill="#ffe0a7"/><g><ellipse cx="191.484" cy="209.233" fill="#fde42f" rx="30.786" ry="38.334"/><path d="m202.387 245.089c-3.391 1.607-7.068 2.48-10.907 2.48-17.001 0-30.781-17.163-30.781-38.335s13.78-38.335 30.781-38.335c3.839 0 7.516.873 10.907 2.48-11.625 5.484-19.882 19.465-19.882 35.856s8.257 30.369 19.882 35.854z" fill="#f5cf33"/><path d="m210.144 209.236c0 13.718-8.188 25.065-18.816 26.849-.966.162-1.946.247-2.943.247-12.019 0-21.759-12.135-21.759-27.097 0-14.97 9.74-27.097 21.759-27.097.996 0 1.977.085 2.943.247 10.629 1.786 18.816 13.125 18.816 26.851z" fill="#516666"/><ellipse cx="316.782" cy="209.233" fill="#fde42f" rx="30.786" ry="38.334"/><path d="m327.684 245.089c-3.391 1.607-7.068 2.48-10.907 2.48-17.001 0-30.781-17.163-30.781-38.335s13.78-38.335 30.781-38.335c3.839 0 7.516.873 10.907 2.48-11.625 5.484-19.882 19.465-19.882 35.856s8.257 30.369 19.882 35.854z" fill="#f5cf33"/><path d="m341.64 209.236c0 14.962-9.74 27.097-21.759 27.097-1.128 0-2.232-.108-3.314-.309-10.443-1.993-18.445-13.232-18.445-26.788 0-13.564 8.002-24.795 18.445-26.788 1.081-.201 2.186-.309 3.314-.309 12.019 0 21.759 12.127 21.759 27.097z" fill="#516666"/><g fill="#384948"><path d="m307.8 209.236c0 10.428 3.345 19.882 8.767 26.788-10.443-1.993-18.445-13.232-18.445-26.788 0-13.564 8.002-24.795 18.445-26.788-5.422 6.906-8.767 16.36-8.767 26.788z"/><path d="m182.507 209.236c0 10.459 3.36 19.936 8.821 26.849-.966.162-1.946.247-2.943.247-12.019 0-21.759-12.135-21.759-27.097 0-14.97 9.74-27.097 21.759-27.097.996 0 1.977.085 2.943.247-5.461 6.915-8.821 16.392-8.821 26.851z"/></g></g></g></g></svg>