<svg id="Capa_1" enable-background="new 0 0 512 512" height="512" viewBox="0 0 512 512" width="512" xmlns="http://www.w3.org/2000/svg"><g><path d="m512 256c0 62.49-22.39 119.74-59.58 164.19-46.96 56.12-117.53 45.069-196.42 45.069-40.21 0-78.25-9.27-112.11-25.79-32.58-15.9-61.28 8.241-84.3-19.279-37.2-44.45-59.59-101.7-59.59-164.19 0-141.38 114.62-256 256-256s256 114.62 256 256z" fill="#8fd1e3"/><g><path d="m452.42 420.19c-12.95 15.47-27.69 29.39-43.91 41.44-7.584 5.638-15.492-5.907-23.691-1.125-4.105 2.394-8.282 21.447-12.529 23.615-7.68 3.93-15.59 7.47-23.7 10.61-6.885 2.68-22.237-12.69-29.397-10.61s-6.128 21.61-13.533 23.06c-9.01 1.78-18.2 3.08-27.53 3.87-7.29.63-12.648-19.633-20.108-19.633s-16.862 20.263-24.152 19.633c-9.33-.79-18.52-2.09-27.53-3.87-6.276-1.229-5.307-29.307-11.408-30.99-8.298-2.289-23.587 21.629-31.522 18.54-8.11-3.14-16.02-6.68-23.7-10.61-6.365-3.25-7.977-20.401-14.018-24.155s-16.512 5.89-22.202 1.655c-16.22-12.04-30.96-25.96-43.9-41.43 2.24-4.87 4.64-9.63 7.22-14.29 6.77-12.26 14.69-23.77 23.62-34.4 39.75-47.38 99.38-77.25 165.57-77.25 6.48 0 12.89.29 19.23.85h.02c72.96 6.45 135.95 49.27 169.95 110.79 2.58 4.66 4.99 9.43 7.22 14.3z" fill="#dc8758"/><path d="m275.23 295.1c-68.35 9.01-123.65 88.66-131.34 191.11-1.401-.684-2.795-1.38-4.181-2.088-6.054-3.093-8.254-20.608-14.017-24.157-6.353-3.912-16.237 6.096-22.206 1.661-16.214-12.046-30.952-25.964-43.895-41.436 8.11-17.67 18.52-34.02 30.84-48.69 39.75-47.38 99.38-77.25 165.57-77.25 6.479 0 12.889.29 19.229.85z" fill="#cc754a"/><path d="m445.2 405.89c-5.65 14.17-19.49 24.18-35.67 24.18-21.2 0-38.38-17.18-38.38-38.38 0 21.2-17.19 38.38-38.39 38.38-21.19 0-38.38-17.18-38.38-38.38 0 21.2-17.18 38.38-38.38 38.38s-38.38-17.18-38.38-38.38c0 21.2-17.19 38.38-38.38 38.38-10.36 0-19.76-4.1-26.66-10.78-7.23-6.97-11.73-16.76-11.73-27.6 0 21.2-17.18 38.38-38.38 38.38-16.18 0-30.01-10-35.66-24.17 6.77-12.26 14.69-23.77 23.62-34.4 39.75-47.38 99.38-77.25 165.57-77.25 6.48 0 12.89.29 19.23.85h.02c72.96 6.45 135.95 49.27 169.95 110.79z" fill="#cc754a"/><path d="m447.91 361.13c0 21.2-17.18 38.38-38.38 38.38s-38.38-17.18-38.38-38.38c0 21.2-17.19 38.38-38.39 38.38-21.19 0-38.38-17.18-38.38-38.38 0 21.2-17.18 38.38-38.38 38.38s-38.38-17.18-38.38-38.38c0 21.2-17.19 38.38-38.38 38.38-10.36 0-19.76-4.1-26.66-10.78-7.23-6.97-11.73-16.76-11.73-27.6 0 21.2-17.18 38.38-38.38 38.38s-38.38-17.18-38.38-38.38l7.11-97.36 4.62-63.23c2.87-39.22 18.11-74.76 41.74-102.91 13.07-15.57 28.7-28.89 46.23-39.3v-.01c9.226-5.482 13.653 4.512 23.827.721 8.737-3.256 23.108-20.531 32.413-22.411 5.59-1.14 11.28-2.01 17.04-2.61 6.22-.65 10.23 12.97 16.62 12.97 5.42 0 13.09-13.71 18.39-13.24l-1.26 7.97c.95.08 3.17-7.79 4.11-7.69 5.76.6 11.45 1.47 17.04 2.61 10.391 2.1 20.466 13.889 30.14 17.695 9.076 3.571 17.799-.938 26.1 3.995v.01c49.21 29.25 83.51 81.28 87.97 142.2z" fill="#516666"/><path d="m269.122 39.276c-6.274.827-9.458-3.162-15.432-.964-49.908 18.367-87.966 82.738-91.869 162.225l-9.24 188.19c-7.23-6.97-11.73-16.76-11.73-27.6 0 21.2-17.18 38.38-38.38 38.38s-38.38-17.18-38.38-38.38l7.11-97.36 4.62-63.23c2.87-39.22 18.11-74.76 41.74-102.91 12.863-15.329 28.216-28.466 45.412-38.813 7.16-4.308 14.639-.053 22.391-3.35 10.867-4.622 22.27-16.287 34.081-18.718 5.782-1.19 11.662-2.103 17.624-2.726 6.226-.65 10.231 4.292 16.621 4.292 5.421.001 10.132.494 15.432.964z" fill="#384948"/><path d="m440.801 263.768c-20.76 34.33-58.44 57.28-101.49 57.28-32.48 0-61.91-13.06-83.31-34.24-21.4 21.18-50.83 34.24-83.31 34.24-43.05 0-80.73-22.95-101.49-57.28l4.62-63.23c.359-4.902.911-9.747 1.648-14.528 1.689-10.945-5.412-31.312-1.872-41.492 7.284-20.941 28.05-30.316 41.963-46.891 1.45-.77 2.93-1.5 4.42-2.21l7.2 26.39 1.36 4.99 125.46 59.67 125.46-59.67 1.36-4.99 7.2-26.39c1.49.71 2.97 1.44 4.42 2.21 14.227 16.949 42.652 27.446 49.928 48.942 3.266 9.65-11.495 28.807-9.883 39.137.761 4.878 1.329 9.824 1.695 14.83z" fill="#384948"/><path d="m258.312 235.428c-13.21 34.4-46.57 58.82-85.62 58.82-5.25 0-10.4-.44-15.41-1.3-43.31-7.32-76.29-45.01-76.29-90.4 0-34.9 19.5-65.25 48.19-80.74l1.36 4.99 39.85 18.95 85.61 40.72z" fill="#dc8758"/><path d="m170.392 145.748c-4.66 17.08-7.62 35.49-8.57 54.79l-4.54 92.41c-43.31-7.32-76.29-45.01-76.29-90.4 0-34.9 19.5-65.25 48.19-80.74l1.36 4.99z" fill="#cc754a"/><path d="m253.692 235.428c13.21 34.4 46.57 58.82 85.62 58.82 50.64 0 91.7-41.06 91.7-91.7 0-34.9-19.5-65.25-48.19-80.74l-1.36 4.99-125.46 59.67z" fill="#dc8758"/><circle cx="172.692" cy="202.546" fill="#516666" r="50.712"/><circle cx="172.692" cy="202.546" fill="#fde42f" r="39.471"/><path d="m186.381 239.566c-4.26 1.59-8.88 2.45-13.69 2.45-21.8 0-39.47-17.68-39.47-39.47 0-21.8 17.67-39.48 39.47-39.48 4.81 0 9.43.86 13.69 2.45-15.05 5.56-25.78 20.04-25.78 37.03 0 16.98 10.73 31.46 25.78 37.02z" fill="#f2b632"/><path d="m189.642 202.548c0 10.91-8.85 19.75-19.75 19.75-1.46 0-2.89-.16-4.26-.46-8.86-1.95-15.49-9.84-15.49-19.29s6.63-17.34 15.49-19.28c1.37-.31 2.8-.47 4.26-.47 10.9 0 19.75 8.84 19.75 19.75z" fill="#516666"/><path d="m160.601 202.548c0 7.01 1.83 13.59 5.03 19.29-8.86-1.95-15.49-9.84-15.49-19.29s6.63-17.34 15.49-19.28c-3.209 5.7-5.03 12.28-5.03 19.28z" fill="#384948"/><circle cx="339.308" cy="202.546" fill="#516666" r="50.712"/><circle cx="339.308" cy="202.546" fill="#fde42f" r="39.471"/><path d="m352.997 239.566c-4.26 1.59-8.88 2.45-13.69 2.45-21.8 0-39.47-17.68-39.47-39.47 0-21.8 17.67-39.48 39.47-39.48 4.81 0 9.43.86 13.69 2.45-15.05 5.56-25.78 20.04-25.78 37.03 0 16.98 10.73 31.46 25.78 37.02z" fill="#f2b632"/><path d="m361.861 202.548c0 10.91-8.84 19.75-19.75 19.75-4.28 0-8.24-1.36-11.47-3.68-5.01-3.57-8.28-9.44-8.28-16.07s3.26-12.49 8.27-16.07c3.24-2.32 7.2-3.68 11.48-3.68 10.911 0 19.75 8.84 19.75 19.75z" fill="#516666"/><path d="m330.642 218.618c-5.01-3.57-8.28-9.44-8.28-16.07s3.26-12.49 8.27-16.07c-2.19 4.91-3.41 10.35-3.41 16.07s1.22 11.16 3.42 16.07z" fill="#384948"/><path d="m512 130.37c0 14.09-14.45 26.33-30.88 35.69-21.32 12.15-45.96 19.45-46.63 19.65-2.35-14.99-6.5-29.33-12.25-42.81-75.89-11.47-166.24 70.66-166.24 70.66s-40.17-36.52-89.44-57.44c-24.62-10.48-51.52-17.05-76.8-13.22-5.75 13.48-9.9 27.82-12.25 42.81-1.19-.35-77.51-22.96-77.51-55.34 0-31.96 74.34-11.21 77.42-10.34-2.98-1.03-71.77-25.2-60.21-60.28 8.87-26.92 83.64 6.18 120.4 24.37 13 6.43 23.97 16.32 31.75 28.55 2.52 3.96 5.22 7.77 8.1 11.43 6.19 7.87 13.17 15.01 20.84 21.35 5.61 4.64 11.59 8.85 17.88 12.58 6.28 3.72 12.87 6.97 19.74 9.69 6.5 2.33 13.29 3.5 20.08 3.5s13.58-1.17 20.08-3.5c13.72-5.44 26.39-12.98 37.62-22.27 11.24-9.29 21.02-20.33 28.94-32.78 7.78-12.23 18.75-22.12 31.75-28.55 36.76-18.19 111.53-51.29 120.4-24.37 4.15 12.6-2.07 23.8-11.88 33.03-7.39 6.93-3.23 19.2 6.85 20.17 12.54 1.21 22.24 5.87 22.24 17.42z" fill="#fff9f1"/><path d="m481.12 166.06c-21.32 12.15-45.96 19.45-46.63 19.65-2.35-14.99-6.5-29.33-12.25-42.81 27.09 2.49 47.37 9.13 58.88 23.16z" fill="#f7eadc"/><path d="m256 186.469c-15.625 0-27.569 13.934-25.181 29.375l8.908 57.594c1.242 8.027 8.15 13.949 16.272 13.949 8.122 0 15.031-5.922 16.272-13.949l8.908-57.594c2.39-15.441-9.554-29.375-25.179-29.375z" fill="#516666"/><path d="m259.029 287.104c-.98.18-2 .28-3.03.28-8.12 0-15.03-5.92-16.27-13.95l-8.91-57.59c-2.39-15.45 9.56-29.38 25.18-29.38 1.03 0 2.04.06 3.03.18-7.6 1.66-13.15 14.76-11.94 29.2l4.8 57.59c.59 7.01 3.5 12.42 7.14 13.67z" fill="#384948"/><path d="m166.564 156.115c-24.625-10.472-51.52-17.042-76.804-13.22-5.748 13.483-9.905 27.828-12.246 42.812-1.197-.344-77.514-22.961-77.514-55.342 0-11.542 9.7-16.208 22.237-17.417 10.081-.973 14.239-13.237 6.858-20.172-9.816-9.222-16.038-20.421-11.881-33.031 8.871-26.916 83.637 6.184 120.397 24.371 12.996 6.437 23.966 16.322 31.751 28.558 2.514 3.954 5.221 7.766 8.1 11.425 0 .001-16.494 9.673-10.898 32.016z" fill="#f7eadc"/><path d="m278.31 57.94c0 22.2-8.45 42.43-22.31 57.64-13.86-15.21-22.31-35.44-22.31-57.64 0-8.3 1.18-16.33 3.38-23.92 6.22-.65 12.54-.98 18.93-.98 5.42 0 10.78.24 16.08.71h.01c.95.08 1.9.18 2.84.28 2.2 7.58 3.38 15.61 3.38 23.91z" fill="#dc8758"/><g><path d="m347.6 87.53c-19.75-5.78-37.49-18.66-49.04-37.62-2.62-4.3-4.81-8.74-6.59-13.27 20.14 4.07 39.09 11.5 56.24 21.69v.01c1.49 9.77 1.25 19.64-.61 29.19z" fill="#dc8758"/><path d="m220.03 36.63c-1.77 4.53-3.97 8.97-6.59 13.28-11.55 18.96-29.29 31.84-49.04 37.62-1.86-9.55-2.1-19.43-.61-29.2v-.01c17.15-10.19 36.1-17.62 56.24-21.69z" fill="#cc754a"/></g></g><g fill="#516666"><path d="m278.31 505.47c0 1.87-.06 3.74-.18 5.58-7.29.63-14.67.95-22.13.95s-14.84-.32-22.13-.95c-.12-1.84-.18-3.71-.18-5.58 0-22.2 8.45-42.43 22.31-57.65 13.86 15.22 22.31 35.45 22.31 57.65z"/><path d="m348.59 494.73c-13.77 5.36-28.12 9.55-42.93 12.45-.03-.06-.05-.11-.07-.17-7.97-20.73-7.33-42.64.15-61.81 18.39 9.22 33.54 25.07 41.51 45.8.48 1.24.92 2.48 1.34 3.73z"/><path d="m408.51 461.63c-11.38 8.46-23.49 15.99-36.22 22.49-6.99-15.47-9.04-32.26-6.55-48.31 16.14 4.08 31.15 12.83 42.77 25.82z"/><path d="m206.41 507.01c-.02.06-.04.11-.07.17-14.81-2.9-29.16-7.09-42.93-12.45.42-1.25.86-2.49 1.34-3.73 7.97-20.73 23.12-36.58 41.51-45.8 7.48 19.17 8.12 41.08.15 61.81z"/></g><path d="m139.71 484.12c-12.73-6.5-24.84-14.03-36.22-22.5 11.63-12.99 26.63-21.74 42.77-25.81 2.49 16.05.44 32.84-6.55 48.31z" fill="#384948"/></g></svg>