<svg id="Capa_1" enable-background="new 0 0 512 512" height="512" viewBox="0 0 512 512" width="512" xmlns="http://www.w3.org/2000/svg"><g><path d="m512 256c0 77.7-34.62 147.32-89.28 194.26-44.79 38.48-103.04 13.955-166.72 13.955-32.3 0-44.23 8.925-72.68-2.005-27.65-10.6-71.96 7.01-94.04-11.95-54.66-46.94-89.28-116.56-89.28-194.26 0-141.38 114.62-256 256-256s256 114.62 256 256z" fill="#f97855"/><g><path d="m422.72 450.26c-44.79 38.48-103.04 61.74-166.72 61.74s-121.93-23.26-166.72-61.74c79.14-118.13 254.3-118.13 333.44 0z" fill="#6e8c8e"/><path d="m306.74 368.05c-49.29 12.63-94.47 44.02-123.42 94.16l-18.98 32.88c-27.65-10.6-52.98-25.87-75.06-44.83 50.18-74.93 139.01-102.33 217.46-82.21z" fill="#617f7f"/></g><g><g><circle cx="114.682" cy="92.592" fill="#809ca0" r="89.848"/><path d="m138.494 179.242c-7.58 2.09-15.57 3.2-23.81 3.2-49.62 0-89.85-40.23-89.85-89.85s40.23-89.85 89.85-89.85c8.24 0 16.23 1.11 23.81 3.2-38.07 10.42-66.05 45.27-66.05 86.65 0 41.381 27.98 76.23 66.05 86.65z" fill="#6e8c8e"/><circle cx="114.682" cy="92.592" fill="#617f7f" r="49.045"/></g><g><circle cx="397.318" cy="92.592" fill="#809ca0" r="89.848"/><path d="m421.13 179.242c-7.58 2.09-15.57 3.2-23.81 3.2-49.62 0-89.85-40.23-89.85-89.85s40.23-89.85 89.85-89.85c8.24 0 16.23 1.11 23.81 3.2-38.07 10.42-66.05 45.27-66.05 86.65 0 41.381 27.98 76.23 66.05 86.65z" fill="#6e8c8e"/><circle cx="397.318" cy="92.592" fill="#617f7f" r="49.045"/></g></g><path d="m81.842 148.997-29.665 51.382c-61.249 106.085 15.312 238.692 137.808 238.692h132.029c122.497 0 199.057-132.607 137.809-238.692l-29.665-51.382c-77.404-134.067-270.912-134.067-348.316 0z" fill="#fff9f1"/><path d="m291.472 439.067h-101.49c-122.49 0-199.05-132.61-137.81-238.69l29.67-51.38c48.45-83.93 142.41-115.32 224.9-94.16-49.29 12.63-94.47 44.02-123.42 94.16l-29.66 51.38c-61.25 106.08 15.31 238.69 137.81 238.69z" fill="#f7eadc"/><path d="m288.226 329.352c-12.678 0-24.294-5.484-32.226-14.667-7.932 9.183-19.548 14.667-32.226 14.667-4.418 0-8-3.582-8-8s3.582-8 8-8c11.01 0 20.738-6.621 24.785-16.867 1.206-3.054 4.156-5.061 7.44-5.061s6.234 2.007 7.44 5.061c4.047 10.246 13.775 16.867 24.785 16.867 4.418 0 8 3.582 8 8s-3.58 8-7.998 8z" fill="#6e8c8e"/><g><path d="m239.84 221.76c-22.87 42.32-57.66 77.11-99.98 99.98-.59.32-1.18.62-1.77.91-30.53 15.09-67.47-2.27-74.96-35.84-.08-.35-.16-.7-.24-1.05-5.16-23.1 5.73-46.73 26.53-58.03 23.84-12.96 43.45-32.57 56.41-56.41 8.43-15.52 23.72-25.52 40.55-27.45 5.72-.67 11.62-.39 17.49.92.34.08.69.16 1.04.23 34.22 7.65 51.6 45.89 34.93 76.74z" fill="#6e8c8e"/><path d="m186.38 143.87c-1.04 1.69-2.06 3.4-3.06 5.13l-29.66 51.38c-22.99 39.82-26.57 83.39-15.57 122.27-30.53 15.09-67.47-2.27-74.96-35.84-.08-.35-.16-.7-.24-1.05-5.16-23.1 5.73-46.73 26.53-58.03 23.84-12.96 43.45-32.57 56.41-56.41 8.43-15.52 23.72-25.52 40.55-27.45z" fill="#617f7f"/><path d="m272.161 221.759c22.872 42.318 57.66 77.106 99.978 99.978 30.847 16.672 69.086-.711 76.735-34.931.078-.347.155-.694.233-1.041 5.165-23.106-5.725-46.735-26.528-58.039-23.838-12.954-43.452-32.568-56.406-56.406-11.305-20.803-34.933-31.693-58.039-26.528-.347.078-.694.155-1.041.233-34.22 7.648-51.604 45.887-34.932 76.734z" fill="#6e8c8e"/></g><g><ellipse cx="179.53" cy="220.776" fill="#fff9f1" rx="30.786" ry="38.334"/><path d="m190.432 256.632c-3.391 1.607-7.068 2.48-10.907 2.48-17.001 0-30.781-17.163-30.781-38.335s13.78-38.335 30.781-38.335c3.839 0 7.516.873 10.907 2.479-11.625 5.484-19.882 19.465-19.882 35.856s8.257 30.37 19.882 35.855z" fill="#f7eadc"/><path d="m198.19 220.779c0 13.718-8.188 25.065-18.816 26.849-.966.162-1.946.247-2.943.247-12.019 0-21.759-12.135-21.759-27.097 0-14.97 9.74-27.097 21.759-27.097.996 0 1.977.085 2.943.247 10.628 1.786 18.816 13.125 18.816 26.851z" fill="#516666"/><ellipse cx="332.47" cy="220.776" fill="#fff9f1" rx="30.786" ry="38.334"/><path d="m343.372 256.632c-3.391 1.607-7.068 2.48-10.907 2.48-17.001 0-30.781-17.163-30.781-38.335s13.78-38.335 30.781-38.335c3.839 0 7.516.873 10.907 2.479-11.625 5.484-19.882 19.465-19.882 35.856s8.257 30.37 19.882 35.855z" fill="#f7eadc"/><path d="m357.328 220.779c0 14.962-9.74 27.097-21.759 27.097-1.128 0-2.232-.108-3.314-.309-10.443-1.993-18.445-13.232-18.445-26.788 0-13.564 8.002-24.795 18.445-26.788 1.081-.201 2.186-.309 3.314-.309 12.019 0 21.759 12.127 21.759 27.097z" fill="#516666"/><g fill="#384948"><path d="m323.488 220.779c0 10.428 3.345 19.882 8.767 26.788-10.443-1.993-18.445-13.232-18.445-26.788 0-13.564 8.002-24.795 18.445-26.788-5.422 6.906-8.767 16.36-8.767 26.788z"/><path d="m170.553 220.779c0 10.459 3.36 19.936 8.821 26.849-.966.162-1.946.247-2.943.247-12.019 0-21.759-12.135-21.759-27.097 0-14.97 9.74-27.097 21.759-27.097.996 0 1.977.085 2.943.247-5.461 6.915-8.821 16.392-8.821 26.851z"/></g></g><g><path d="m295.848 259.728c0 3.153-1.279 5.986-3.336 8.058-2.056 2.056-4.89 3.336-8.043 3.336-3.61 0-6.9 1.462-9.261 3.839-2.376 2.361-3.839 5.636-3.839 9.246 0 4.25-1.721 8.104-4.509 10.876-2.285 2.3-5.316 3.869-8.683 4.341-.701.122-1.432.168-2.178.168-4.235 0-8.088-1.721-10.861-4.509-2.788-2.772-4.509-6.626-4.509-10.876 0-3.61-1.462-6.885-3.839-9.246-2.361-2.376-5.651-3.839-9.261-3.839-3.153 0-5.986-1.279-8.043-3.336-2.056-2.072-3.336-4.905-3.336-8.058 0-20.747 16.817-37.579 37.563-37.579h4.57c10.373 0 19.772 4.204 26.565 11.013 6.796 6.794 11 16.193 11 26.566z" fill="#516666"/><path d="m258.178 299.424c-.701.122-1.432.168-2.178.168-4.235 0-8.088-1.721-10.861-4.509-2.788-2.772-4.509-6.626-4.509-10.876 0-3.61-1.462-6.885-3.839-9.246-2.361-2.376-5.651-3.839-9.261-3.839-3.153 0-5.986-1.279-8.043-3.336-2.056-2.072-3.336-4.905-3.336-8.058 0-20.747 16.817-37.579 37.563-37.579h4.57c.001 0-32.277 25.682-.106 77.275z" fill="#384948"/></g></g></svg>