<svg id="Capa_1" enable-background="new 0 0 512 512" height="512" viewBox="0 0 512 512" width="512" xmlns="http://www.w3.org/2000/svg"><g><path d="m512 256c0 58.3-19.49 112.05-52.32 155.09-12.14 15.92-26.09-8.968-41.57 3.702-44.14 36.17-100.59 57.87-162.11 57.87-46.74 0-90.56-12.53-128.27-34.41-10.79-6.26-21.08-13.28-30.79-21-16.7-13.25-31.69 10.798-44.62-6.162-32.83-43.04-52.32-96.79-52.32-155.09 0-141.38 114.62-256 256-256s256 114.62 256 256z" fill="#8fd1e3"/><path d="m459.68 411.09c-11.69 15.332-25.072 29.306-39.869 41.641-48.617 7.311-101.501-37.939-163.811-37.939-46.74 0-50.517 44.634-88.227 22.754-10.79-6.26-61.123 26.763-70.833 19.043-16.69-13.25-31.69-28.54-44.62-45.5l33.14-236.76c11.91-85.049 84.66-148.329 170.54-148.329s158.63 63.28 170.54 148.33z" fill="#6e8c8e"/><path d="m298.36 31.27c-66.46 16.84-118.3 72.44-128.18 143.06l-39.994 285.712c-10.788-6.258-23.533 4.267-33.25-3.448-16.692-13.253-31.691-28.545-44.617-45.504l33.14-236.76c11.901-85.05 84.651-148.33 170.531-148.33 14.58 0 28.78 1.82 42.37 5.27z" fill="#617f7f"/><path d="m406.83 438.57 11.28 15.56c-44.14 36.17-100.59 57.87-162.11 57.87-46.74 0-90.56-12.53-128.27-34.41-10.79-6.26-21.08-13.28-30.79-21l13.06-18.02c9.43-13 9.8-30.35 1.31-43.99-17.09-27.44-22.23-61.16-13.33-93.04l47.77-171.11c2.75-9.83 8.6-18.15 16.32-24.01s17.31-9.26 27.52-9.26c3.7 0 7.3.44 10.75 1.28 18.63 4.52 32.93 20.52 34.6 40.41l9.87 117.15h27.22l9.86-117.15c.99-11.79 6.42-22.21 14.55-29.68 8.14-7.48 18.98-12.01 30.81-12.01 20.42 0 38.34 13.6 43.83 33.27l47.77 171.11c8.9 31.88 3.76 65.6-13.33 93.04-8.49 13.64-8.12 30.99 1.31 43.99z" fill="#fff9f1"/><path d="m200.34 98.44c-15.58 21.89-26.22 47.7-30.16 75.89l-42.45 303.26c-10.79-6.26-21.08-13.28-30.79-21l13.06-18.02c9.43-13 9.8-30.35 1.31-43.99-17.09-27.44-22.23-61.16-13.33-93.04l47.77-171.11c2.75-9.83 8.6-18.15 16.32-24.01s17.31-9.26 27.52-9.26c3.7 0 7.3.44 10.75 1.28z" fill="#f7eadc"/><g><path d="m310.377 248.397s-23.442 41.052-54.377 41.052-54.377-41.052-54.377-41.052z" fill="#f2b632"/><path d="m315.224 239.752c0 1.761-.457 3.469-1.291 4.954-.84 1.492-2.05 2.77-3.556 3.691l-37.605 23.024c-4.336 2.655-9.149 4.195-14.036 4.605-6.709.578-13.552-.961-19.508-4.605l-37.605-23.024c-1.506-.921-2.716-2.198-3.556-3.691-.834-1.486-1.291-3.193-1.291-4.954 0-4.605 3.106-8.632 7.556-9.801l16.302-4.289c3.314-.874 5.963-3.361 7.045-6.608l5.848-17.592c3.213-9.687 12.268-16.214 22.473-16.214s19.259 6.527 22.473 16.214l5.848 17.592c1.082 3.247 3.731 5.734 7.045 6.608l16.302 4.289c4.45 1.169 7.556 5.196 7.556 9.801z" fill="#fde42f"/><path d="m258.736 276.026c-6.709.578-13.552-.961-19.508-4.605l-37.605-23.024c-1.506-.921-2.716-2.198-3.556-3.691-.834-1.486-1.291-3.193-1.291-4.954 0-4.605 3.106-8.632 7.556-9.801l16.302-4.289c3.314-.874 5.963-3.361 7.045-6.608l5.848-17.592c3.213-9.687 12.268-16.214 22.473-16.214-17.942 10.91-25.646 80.768 2.736 90.778z" fill="#f5cf33"/></g><g><ellipse cx="199.58" cy="185.247" fill="#516666" rx="25.021" ry="30.252"/><path d="m212.08 211.447c-3.677 2.576-7.956 4.054-12.503 4.054-13.825 0-25.018-13.545-25.018-30.254s11.192-30.254 25.018-30.254c4.547 0 8.826 1.478 12.503 4.054-7.469 5.229-12.503 15.004-12.503 26.2s5.033 20.971 12.503 26.2z" fill="#384948"/><ellipse cx="312.42" cy="185.247" fill="#516666" rx="25.021" ry="30.252"/><path d="m324.92 211.447c-3.677 2.576-7.956 4.054-12.503 4.054-13.825 0-25.018-13.545-25.018-30.254s11.192-30.254 25.018-30.254c4.547 0 8.826 1.478 12.503 4.054-7.469 5.229-12.503 15.004-12.503 26.2s5.034 20.971 12.503 26.2z" fill="#384948"/></g></g></svg>