<svg id="Capa_1" enable-background="new 0 0 512 512" height="512" viewBox="0 0 512 512" width="512" xmlns="http://www.w3.org/2000/svg"><g><path d="m512 256c0 46.349-12.317 89.821-33.857 127.322-44.166 76.892-127.107 48.085-222.143 48.085-95.034 0-177.973 28.809-222.14-48.081-21.542-37.502-33.86-80.975-33.86-127.326 0-141.385 114.615-256 256-256s256 114.615 256 256z" fill="#516666"/><path d="m478.14 383.32c-44.17 76.89-127.11 128.68-222.14 128.68-40.13 0-78.1-9.24-111.91-25.7-46.26-22.51-84.71-58.55-110.22-102.98 6.81-10.28 14.19-20.08 22.1-29.32 50.06-58.54 121.16-95.1 200.03-95.1 77.69 0 147.85 35.48 197.78 92.5 8.77 10 16.91 20.67 24.36 31.92z" fill="#fff9f1"/><path d="m333.11 270.98c-92.75 29.76-165.19 111.9-189.02 215.32-46.26-22.51-84.72-58.56-110.23-102.99 49.9-75.4 130.81-124.41 222.14-124.41 26.78 0 52.65 4.22 77.11 12.08z" fill="#f7eadc"/><g><g><path d="m141.86 81.307s-49.687-95.785-97.584-65.326 13.421 161.512 13.421 161.512z" fill="#f7eadc"/><path d="m117.588 86.518s-28.871-55.657-56.702-37.959 7.799 93.849 7.799 93.849z" fill="#809ca0"/></g><g><path d="m370.14 81.307s49.687-95.785 97.584-65.326-13.421 161.512-13.421 161.512z" fill="#f7eadc"/><path d="m394.412 86.518s28.871-55.657 56.702-37.959-7.799 93.849-7.799 93.849z" fill="#809ca0"/></g><path d="m359.72 386.206 32.226-20.33c38.877-24.525 63.196-66.611 65.03-112.541l4.454-111.521c.407-10.199-3.59-20.089-10.967-27.143-102.824-98.318-197.297-98.69-197.297-98.69s-94.473.372-197.297 98.69c-7.378 7.054-11.375 16.943-10.967 27.143l4.454 111.521c1.835 45.93 40.605 73.564 79.482 98.089l21.555 14.759c20.344 12.834 38.645 41.679 61.38 46.492 50.018 10.589 103.191 1.765 147.947-26.469z" fill="#f7eadc"/><path d="m170.902 102.271c-3.071 7.912-4.738 19.008-4.57 30.451l1.854 125.1c.768 51.52 10.909 98.732 27.118 126.243l13.437 22.81c1.227 2.079 2.463 4.055 3.717 5.946-22.979-4.776-45.302-13.653-65.846-26.612l-32.221-20.329c-38.879-24.533-63.196-66.614-65.032-112.544l-4.457-111.523c-.412-10.197 3.586-20.086 10.965-27.146 61.408-58.711 119.829-82.495 156.938-92.131-12.538 16.388-27.015 41.437-41.903 79.735z" fill="#ede0d3"/><g><path d="m288.724 378.121h-65.446c-15.885 0-28.762-12.877-28.762-28.762v-37.864h122.97v37.864c0 15.885-12.877 28.762-28.762 28.762z" fill="#6e8c8e"/><path d="m256.982 378.125h-33.71c-15.881 0-28.756-12.884-28.756-28.765v-37.867h33.71v37.867c0 15.88 12.875 28.765 28.756 28.765z" fill="#617f7f"/><path d="m402.2 181.9c-.97-44.63-37.52-80.96-82.16-81.68-25.51-.41-48.45 10.6-64.04 28.26-15.61-17.68-38.6-28.7-64.14-28.26-7.39.13-14.56 1.23-21.38 3.19-34.37 9.85-59.91 41.34-60.68 78.59-.76 36.68 22.13 68.12 54.46 80.12 1.42.53 2.77 1.15 4.07 1.86 10.12 5.62 16.17 16.73 14.89 28.52l-2.11 19.5c7.18 3.39 30.51-2.93 37.86-2.93h74.06c10.67 0 30.89-2.21 37.86 2.93l-2.11-19.5c-1.44-13.28 6.42-25.73 18.95-30.38 32.37-12.01 55.27-43.49 54.47-80.22z" fill="#fff9f1"/><path d="m168.19 257.82c.03 2.06.08 4.11.14 6.16-1.3-.71-2.65-1.33-4.07-1.86-32.33-12-55.22-43.44-54.46-80.12.77-37.25 26.31-68.74 60.68-78.59-2.8 7.82-4.31 18.41-4.15 29.31z" fill="#f7eadc"/><path d="m289.221 267.255c0-59.292-15.234-107.357-34.026-107.357s-34.026 48.065-34.026 107.357 15.234 31.871 34.026 31.871 34.026 27.421 34.026-31.871z" fill="#f7eadc"/><path d="m303.25 351.218h-19.411c-15.375 0-27.839-12.463-27.839-27.839 0 15.375-12.463 27.839-27.839 27.839h-19.411c-17.033 0-30.283-14.767-28.457-31.696l.815-7.521c2.036-18.787 17.403-33.632 36.289-34.272.521-.018 2.795-.027 3.32-.027l39.512 7.728 31.055-7.728c.525 0 2.798.009 3.318.027 18.886.64 34.253 15.485 36.289 34.272l.815 7.521c1.826 16.929-11.423 31.696-28.456 31.696z" fill="#809ca0"/><path d="m204.621 319.522c-1.732 16.087 10.15 30.227 25.956 31.584-.796.075-1.601.112-2.416.112h-19.411c-17.033 0-30.283-14.767-28.457-31.697l.815-7.519c2.032-18.793 17.407-33.635 36.285-34.272.524-.019 1.049-.028 1.573-.028h24.327c-.524 0-1.049.009-1.573.028-18.887.637-34.253 15.478-36.285 34.272z" fill="#6e8c8e"/><g><path d="m266.879 323.5h-21.756c-18.343 0-33.214-14.87-33.214-33.214v-3.775c0-4.865 3.944-8.808 8.808-8.808h70.567c4.865 0 8.808 3.944 8.808 8.808v3.775c.001 18.344-14.87 33.214-33.213 33.214z" fill="#516666"/><path d="m272.941 322.952c-1.961.367-3.99.554-6.062.554h-21.759c-18.34 0-33.21-14.87-33.21-33.218v-3.777c0-4.86 3.939-8.808 8.808-8.808h33.892c-4.868 0-8.808 3.948-8.808 8.808v3.777c0 16.276 11.698 29.816 27.139 32.664z" fill="#384948"/></g></g><g><ellipse cx="169.466" cy="203.897" fill="#516666" rx="21.816" ry="23.999"/><path d="m180.365 224.682c-3.206 2.044-6.937 3.216-10.901 3.216-12.054 0-21.813-10.745-21.813-24.001 0-13.255 9.759-24.001 21.813-24.001 3.964 0 7.696 1.172 10.901 3.216-6.512 4.148-10.901 11.903-10.901 20.785s4.388 16.637 10.901 20.785z" fill="#384948"/><ellipse cx="340.293" cy="203.897" fill="#516666" rx="21.816" ry="23.999"/><path d="m351.192 224.682c-3.206 2.044-6.937 3.216-10.901 3.216-12.054 0-21.813-10.745-21.813-24.001 0-13.255 9.759-24.001 21.813-24.001 3.964 0 7.696 1.172 10.901 3.216-6.513 4.148-10.901 11.903-10.901 20.785s4.388 16.637 10.901 20.785z" fill="#384948"/></g></g></g></svg>