<svg id="Capa_1" enable-background="new 0 0 512 512" height="512" viewBox="0 0 512 512" width="512" xmlns="http://www.w3.org/2000/svg"><g><path d="m512 256c0 105.16-63.42 195.52-154.09 234.91-31.23 13.57-65.69-2.852-101.91-2.852-11.01 0-21.86-.7-32.51-2.05-24.43-3.09-47.78 14.313-69.56 4.833-90.59-39.431-153.93-129.741-153.93-234.841 0-141.38 114.62-256 256-256s256 114.62 256 256z" fill="#f97855"/><path d="m357.91 490.91c-31.23 13.57-65.69 21.09-101.91 21.09-36.28 0-70.8-7.55-102.07-21.16l29.41-48.82 24.6-40.84h95.91l24.62 40.86z" fill="#fff9f1"/><path d="m233.83 401.18-10.34 108.77c-24.43-3.09-47.78-9.63-69.56-19.11l54.01-89.66z" fill="#f7eadc"/><g><g><path d="m322.161 131.434-26.117 57.833 19.391 16.114 5.002 4.157c91.409-46.083 134.374-141.435 151.169-190.773 4.049-11.889-8.24-22.766-19.562-17.32 0 0 0 0-.016.008l-67.808 40.927c-37.436 17.998-53.384 48.427-62.059 89.054z" fill="#ffe5bf"/><path d="m309.15 127.944-13.106 61.322 19.391 16.114c22.701-117.325 134.991-202.712 136.594-203.929l-69.771 33.541c-37.436 17.998-64.433 52.326-73.108 92.952z" fill="#fff9f1"/></g><g><path d="m194.42 131.434 25.508 57.833-19.391 16.114-5.002 4.157c-91.41-46.084-134.375-141.436-151.17-190.774-4.049-11.889 8.24-22.766 19.562-17.32 0 0 0 0 .016.008l68.908 47.14c37.435 17.998 52.894 42.215 61.569 82.842z" fill="#ffd797"/><path d="m206.822 127.944 13.106 61.322-19.391 16.114c-22.701-117.325-134.991-202.712-136.595-203.929l69.771 33.541c37.437 17.998 64.434 52.326 73.109 92.952z" fill="#f7eadc"/></g></g><path d="m303.85 401.18h-95.91l-24.6 40.84c.56.02 1.13.03 1.69.04 8.72.1 17.11-1.33 24.89-4.03 31.09-10.77 65.04-10.77 96.13 0 7.04 2.44 14.58 3.84 22.42 4.01z" fill="#f7eadc"/><path d="m356.084 241.359.205-1.131c8.082-44.635-26.215-85.7-71.576-85.7h-53.453c-10.684 0-18.263 6.891-27.31 10.957-29.365 13.197-50.445 40.62-44.266 74.743l.205 1.131c3.734 20.622-4.366 41.381-20.565 54.677-16.983 13.94-27.602 35.347-26.832 59.207 1.259 39.049 34.321 64.854 73.388 65.3 8.728.1 9.155 1.756 16.941-.941 1.541-.534 10.19 1.579 11.744 1.098 29.807-9.223 61.934-8.716 91.486 1.522 7.786 2.697 16.168 4.121 24.896 4.021 39.067-.446 71.276-31.951 72.535-71 .769-23.86-9.849-45.268-26.832-59.207-16.201-13.296-24.3-34.055-20.566-54.677z" fill="#fff9f1"/><path d="m253.348 154.52h-22.082c-45.363 0-79.664 41.069-71.581 85.706l.21 1.126c3.726 20.629-4.368 41.385-20.566 54.678-16.987 13.946-27.607 35.354-26.839 59.214 1.263 39.048 33.47 70.55 72.539 70.992 8.725.105 17.114-1.316 24.892-4.021 1.537-.537 3.084-1.042 4.642-1.516-13.725-10.725-23.597-35.933-24.102-65.455-.4-23.86 5.22-45.268 14.209-59.214 8.578-13.293 12.862-34.049 10.894-54.678l-.116-1.126c-4.274-44.637 13.882-85.706 37.9-85.706z" fill="#f7eadc"/><g><g><ellipse cx="157.698" cy="253.952" fill="#516666" rx="20.956" ry="31.025"/><path d="m168.167 280.82c-3.079 2.642-6.664 4.158-10.472 4.158-11.579 0-20.953-13.891-20.953-31.027s9.374-31.026 20.953-31.026c3.808 0 7.392 1.515 10.472 4.158-6.256 5.362-10.472 15.387-10.472 26.869s4.216 21.506 10.472 26.868z" fill="#384948"/></g><g><ellipse cx="358.274" cy="253.952" fill="#516666" rx="20.956" ry="31.025"/><path d="m368.743 280.82c-3.079 2.642-6.664 4.158-10.472 4.158-11.579 0-20.953-13.891-20.953-31.027s9.374-31.026 20.953-31.026c3.808 0 7.392 1.515 10.472 4.158-6.256 5.362-10.472 15.387-10.472 26.869s4.216 21.506 10.472 26.868z" fill="#384948"/></g></g><g fill="#ffe5bf"><path d="m311.717 328.154c-3.799 0-7.057-2.876-7.452-6.737-.422-4.121 2.577-7.803 6.698-8.224l109.237-11.177c4.118-.424 7.803 2.577 8.224 6.698.422 4.121-2.577 7.803-6.698 8.224l-109.236 11.176c-.26.027-.517.04-.773.04z"/><path d="m426.543 378.362c-.583 0-1.176-.069-1.769-.212l-104.284-25.208c-4.026-.973-6.501-5.026-5.528-9.052s5.024-6.501 9.052-5.528l104.284 25.208c4.026.973 6.501 5.026 5.528 9.052-.829 3.434-3.9 5.74-7.283 5.74z"/><path d="m200.074 328.154c-.255 0-.513-.013-.772-.04l-109.237-11.176c-4.121-.421-7.12-4.104-6.698-8.224s4.112-7.121 8.224-6.698l109.236 11.177c4.121.421 7.12 4.104 6.698 8.224-.394 3.861-3.652 6.737-7.451 6.737z"/><path d="m85.249 378.362c-3.383 0-6.454-2.306-7.284-5.74-.973-4.026 1.501-8.079 5.528-9.052l104.283-25.208c4.023-.972 8.079 1.501 9.052 5.528s-1.501 8.079-5.528 9.052l-104.282 25.208c-.592.143-1.185.212-1.769.212z"/></g><g fill="#ffd797"><path d="m288.038 282.547c-3.288-3.289-8.619-3.288-11.908 0l-18.145 18.145-18.145-18.145c-3.288-3.288-8.619-3.288-11.908 0s-3.289 8.619 0 11.908l21.633 21.633v28.417c0 4.65 3.77 8.42 8.42 8.42s8.42-3.77 8.42-8.42v-28.417l21.632-21.633c3.29-3.289 3.29-8.62.001-11.908z"/><path d="m282.085 367.055c-2.155 0-4.31-.822-5.954-2.466-10.005-10.005-26.286-10.004-36.29 0-3.288 3.288-8.619 3.288-11.908 0s-3.289-8.619 0-11.908c16.571-16.572 43.535-16.571 60.105 0 3.289 3.288 3.289 8.619 0 11.908-1.644 1.644-3.799 2.466-5.953 2.466z"/></g></g></svg>