<svg id="Capa_1" enable-background="new 0 0 512 512" height="512" viewBox="0 0 512 512" width="512" xmlns="http://www.w3.org/2000/svg"><g><path d="m512 256c0 17.4-1.74 34.4-5.05 50.83-23.58 117.03-126.97 68.15-250.95 68.15s-227.37 48.88-250.95-68.15c-3.31-16.43-5.05-33.43-5.05-50.83 0-141.38 114.62-256 256-256s256 114.62 256 256z" fill="#f5cf33"/><path d="m506.95 306.83c-23.58 117.03-126.97 205.17-250.95 205.17-37.59 0-73.28-8.1-105.43-22.66-73.91-33.44-129.09-100.96-145.52-182.51 21.87-108.58 112.43-192.28 224.39-203.81 8.73-.91 17.59-1.37 26.56-1.37 123.98 0 227.38 88.13 250.95 205.18z" fill="#617f7f"/><path d="m242.04 121.41s-85.28 223.31-91.47 367.93c-73.91-33.44-129.09-100.96-145.52-182.51 21.87-108.58 112.43-192.28 224.39-203.81z" fill="#516666"/><g><path d="m373.876 28.231c-24.389 24.389-32.409 58.927-24.113 90.016 31.089 8.296 65.627.276 90.016-24.113 21.126-21.126 29.97-49.866 26.567-77.384-.973-7.866-7.221-14.114-15.086-15.086-27.518-3.403-56.258 5.441-77.384 26.567z" fill="#809ca0"/><path d="m366.87 54.388c-17.302 17.302-22.992 41.804-17.106 63.859 22.055 5.886 46.557.196 63.859-17.106 14.203-14.203 20.581-33.257 19.155-51.827-.576-7.5-6.58-13.504-14.081-14.081-18.57-1.426-37.625 4.952-51.827 19.155z" fill="#617f7f"/><path d="m134.667 28.231c24.389 24.389 32.409 58.927 24.113 90.016-31.089 8.296-65.627.276-90.016-24.113-21-21-29.865-49.525-26.626-76.893.974-8.241 7.394-14.661 15.635-15.636 27.369-3.239 55.893 5.625 76.894 26.626z" fill="#6e8c8e"/><path d="m141.674 54.388c17.302 17.302 22.992 41.804 17.106 63.859-22.055 5.886-46.557.196-63.859-17.106-14.203-14.203-20.581-33.257-19.155-51.827.576-7.5 6.58-13.504 14.08-14.081 18.571-1.426 37.625 4.952 51.828 19.155z" fill="#617f7f"/></g><path d="m185.418 495.576c-30.167 0-53.692-27.019-48.525-56.74 1.29-7.422 4.144-13.489 9.458-16.47 21.258-11.926 61.35 19.44 107.859 19.44s86.601-31.366 107.859-19.44c5.314 2.981 8.168 9.048 9.458 16.47 5.167 29.721-18.359 56.74-48.525 56.74z" fill="#6e8c8e"/><path d="m338.414 466.008h-90.746l-76.235-5.799c-54.08 0-97.716-40.767-92.577-94.602l39.441-245.635c5.322-55.748 36.47-101.597 92.471-101.597h87.007c56.001 0 102.827 42.568 108.149 98.316l23.763 248.916c5.139 53.836-37.193 100.401-91.273 100.401z" fill="#809ca0"/><path d="m259.049 466.011h-88.92c-54.08 0-96.41-46.57-91.27-100.4l23.76-248.92c5.32-55.75 52.15-98.32 108.15-98.32h87.01c.32 0 .64 0 .96.01-55.58.47-101.91 42.88-107.2 98.31l-23.76 248.92c-5.14 53.83 37.19 100.4 91.27 100.4z" fill="#6e8c8e"/><g><path d="m144.53 226.57c-.48 15.29-9.25 27.47-20.01 27.47-11.06 0-20.03-12.9-20.03-28.81 0-7.95 2.24-15.15 5.86-20.36 14.62 2.95 26.54 13.25 34.18 21.7z" fill="#516666"/><path d="m134.54 250.18c-2.95 2.45-6.38 3.86-10.02 3.86-11.07 0-20.03-12.9-20.03-28.81 0-7.95 2.23-15.15 5.85-20.36 6.01 1.21 11.57 3.67 16.56 6.73-1.52 4.05-2.38 8.7-2.38 13.63 0 10.66 4.03 19.97 10.02 24.95z" fill="#384948"/><path d="m408.31 225.23c0 15.91-8.97 28.81-20.04 28.81s-20.04-12.9-20.04-28.81c0-.17 0-.35.01-.52 7.95-8.35 19.76-17.79 34.01-20.12 3.74 5.23 6.06 12.55 6.06 20.64z" fill="#516666"/><path d="m398.28 250.18c-2.94 2.45-6.37 3.86-10.01 3.86-11.07 0-20.04-12.9-20.04-28.81 0-.17 0-.35.01-.52 6.08-6.38 14.41-13.4 24.37-17.4-2.71 4.91-4.34 11.14-4.34 17.92 0 10.66 4.03 19.97 10.01 24.95z" fill="#384948"/></g><ellipse cx="254.272" cy="322.569" fill="#6e8c8e" rx="65.681" ry="35.012"/><g><path d="m271.208 342.703c23.371 0 41.847-20.028 39.705-43.3-6.643-72.159-29.492-125.344-56.658-125.344-27.113 0-49.927 52.98-56.619 124.925-2.18 23.436 16.131 43.719 39.669 43.719z" fill="#fff9f1"/><path d="m230.707 298.984c-.9 23.44 6.71 43.72 16.51 43.72h-9.91c-23.54 0-41.85-20.28-39.67-43.72 6.69-71.95 29.51-124.93 56.62-124.93-11.28.03-20.76 53-23.55 124.93z" fill="#f7eadc"/></g><g><g fill="#6e8c8e"><path d="m355.223 266.175c10.151 3.803 25.509 7.243 45.751 5.313 5.439-.519 8.198 6.425 3.815 9.687-14.368 10.693-37.495 20.447-55.913-6.912-2.918-4.334 1.454-9.921 6.347-8.088z"/><path d="m362.83 209.844c7.54-7.788 19.939-17.481 39.054-24.416 5.136-1.863 4.652-9.319-.707-10.387-17.565-3.5-42.641-2.397-47.55 30.217-.776 5.167 5.569 8.34 9.203 4.586z"/></g><g fill="#617f7f"><path d="m153.321 266.175c-10.151 3.803-25.509 7.243-45.751 5.313-5.439-.519-8.198 6.425-3.815 9.687 14.368 10.693 37.495 20.447 55.913-6.912 2.917-4.334-1.455-9.921-6.347-8.088z"/><path d="m145.713 209.844c-7.54-7.788-19.939-17.481-39.054-24.416-5.136-1.863-4.652-9.319.707-10.387 17.565-3.5 42.641-2.397 47.55 30.217.777 5.167-5.569 8.34-9.203 4.586z"/></g></g><g fill="#384948"><ellipse cx="169.137" cy="371.927" rx="14.374" ry="28.214" transform="matrix(.958 -.287 .287 .958 -99.459 64.041)"/><ellipse cx="339.406" cy="367.593" rx="28.214" ry="14.374" transform="matrix(.287 -.958 .958 .287 -110.011 587.468)"/></g><g><g><path d="m337.223 323.812c9.986 4.217 23.504 12.277 36.877 27.595 3.593 4.116 10.371.971 9.43-4.412-3.083-17.643-13.171-40.626-45.355-33.421-5.099 1.142-5.765 8.205-.952 10.238z" fill="#6e8c8e"/></g><g><path d="m171.32 323.812c-9.986 4.217-23.504 12.277-36.877 27.595-3.593 4.116-10.371.971-9.43-4.412 3.083-17.643 13.171-40.626 45.355-33.421 5.099 1.142 5.765 8.205.952 10.238z" fill="#617f7f"/></g></g></g></svg>