<svg id="Capa_1" enable-background="new 0 0 512 512" height="512" viewBox="0 0 512 512" width="512" xmlns="http://www.w3.org/2000/svg"><g><path d="m512 256c0 61.35-21.59 117.67-57.58 161.76-46.94 57.51-370.81 31.9-396.84 0v-.01c-35.99-44.09-57.58-100.4-57.58-161.75 0-141.38 114.62-256 256-256s256 114.62 256 256z" fill="#8fd1e3"/><g><g><ellipse cx="147.478" cy="101.74" fill="#384948" rx="34.186" ry="23.091" transform="matrix(.48 -.878 .878 .48 -12.516 182.381)"/></g><g><ellipse cx="368.493" cy="101.74" fill="#516666" rx="23.091" ry="34.186" transform="matrix(.865 -.502 .502 .865 -1.263 198.791)"/><path d="m393.336 121.551c-1.472 4.222-4.05 7.649-7.678 9.756-11.034 6.407-27.652-1.643-37.134-17.972-9.481-16.329-8.235-34.752 2.799-41.159 3.629-2.107 7.883-2.646 12.279-1.832-2.994 8.571-1.465 20.456 4.888 31.398s15.918 18.161 24.846 19.809z" fill="#384948"/></g></g><path d="m403.519 416.09c11.145-89.057 24.945-83.04 38.178-131.49-36.15-172.751-139.009-254.151-173.93-277.365-7.134-4.742-16.4-4.742-23.534 0-34.921 23.214-137.78 104.614-173.93 277.366 29.364 58.749 44.068 56.999 55.214 146.056z" fill="#809ca0"/><path d="m70.307 284.601c36.151-172.748 139.007-254.148 173.925-277.361 7.14-4.75 16.4-4.75 23.54 0 .51.34 1.04.69 1.58 1.06-25.634 27.574-101.9 126.82-114.537 342.512-2.803 47.838-97.709-3.13-84.508-66.211z" fill="#6e8c8e"/><path d="m454.42 417.76c-46.94 57.51-118.39 94.24-198.42 94.24s-151.48-36.73-198.42-94.24c-.32-49.42 4.46-93.68 12.72-133.16 15.58-74.43 65.01-121.22 123.17-140.36 98.44-32.44 221.86 14.35 248.23 140.36 8.26 39.48 13.04 83.74 12.72 133.16z" fill="#ffe5bf"/><path d="m155.59 491.55c-38.4-16.39-71.98-41.89-98.01-73.79v-.01c-.32-49.42 4.46-93.67 12.72-133.15 15.58-74.43 65.01-121.22 123.17-140.36-27.11 77.35-47.89 189.92-37.88 347.31z" fill="#ffe0a7"/><path d="m393.16 285.39c-10.98 5.24-26.52-.96-44.56-7.65-4.02-1.49-8.16-3-12.4-4.42-23.4-8.49-49.83-14.06-78.21-14.13-28.39.07-54.82 5.64-78.22 14.13-4.25 1.42-8.39 2.93-12.41 4.43-18.04 6.68-33.58 12.88-44.55 7.64-12.15-4.99-17.14-33.97 5-65.75 20.76-31.1 68.66-65.02 130.18-63.71 61.51-1.31 109.41 32.61 130.17 63.71 22.14 31.78 17.15 60.76 5 65.75z" fill="#fd5758"/><path d="m348.6 277.74c-4.02-1.49-8.16-3-12.4-4.42-23.4-8.49-49.83-14.06-78.21-14.13-28.39.07-54.82 5.64-78.22 14.13-4.25 1.42-8.39 2.93-12.41 4.43 3.61-46.9 42.81-83.84 90.63-83.84 47.81 0 87.01 36.93 90.61 83.83z" fill="#e9424a"/><path d="m392.16 222.48c-21.39-33.52-70.77-70.07-134.17-68.66-27.23-.61-51.87 5.79-72.81 15.93-27.84 13.49-49.16 33.6-61.37 52.73-22.83 34.26-17.68 65.49-5.16 70.87 10.54 5.25 25.16-.18 42.13-6.76 5.31-2.07 10.86-4.25 16.58-6.25 24.12-9.15 51.37-15.16 80.63-15.23 29.25.07 56.5 6.08 80.62 15.23 24.01 8.38 44.88 19.91 58.71 13.01 12.52-5.38 17.67-36.61-5.16-70.87zm-7.24 53.42c-.19.28-.38.56-.56.84-2.44-2.78-5.62-4.97-9.37-6.26-7.43-2.54-15.28-.88-20.97 3.71-1.36-7.56-6.65-14.19-14.42-16.9-8.19-2.86-16.92-.59-22.71 5.12-2.25-7.82-8.77-14.09-17.33-15.59-8.61-1.52-16.93 2.19-21.7 8.84-3.54-7.42-11.1-12.55-19.87-12.55s-16.33 5.13-19.87 12.55c-4.77-6.65-13.09-10.36-21.7-8.84-8.56 1.5-15.08 7.77-17.33 15.59-5.79-5.71-14.52-7.98-22.71-5.12-6.4 2.23-11.11 7.12-13.34 12.99-.48 1.26-.84 2.57-1.08 3.91-5.69-4.59-13.54-6.25-20.97-3.71-3.75 1.29-6.93 3.48-9.37 6.26-.18-.28-.37-.56-.56-.84-2-2.87-4.55-5.12-7.42-6.7 3.78-2.87 6.65-6.98 7.95-11.92 1.63-6.21.43-12.49-2.78-17.49 6.21-.54 12.15-3.7 16.04-9.18 4.01-5.65 4.98-12.54 3.23-18.73 6.37 1.41 13.3-.01 18.73-4.46 5.51-4.52 8.25-11.14 8.04-17.75 1.36.68 2.79 1.22 4.27 1.6 4.91 1.3 10.3.9 15.22-1.51 6.39-3.12 10.59-8.92 11.91-15.38 5.05 4.22 11.94 6.13 18.87 4.6 6.92-1.53 12.35-6.17 15.15-12.13 4 5.44 10.45 8.97 17.72 8.97s13.71-3.53 17.72-8.97c2.8 5.96 8.23 10.6 15.15 12.13 6.93 1.53 13.82-.38 18.87-4.6 1.32 6.46 5.52 12.26 11.91 15.38 6.4 3.13 13.57 2.87 19.49-.09-.21 6.61 2.53 13.23 8.04 17.75 5.43 4.45 12.36 5.87 18.73 4.46-1.75 6.19-.78 13.08 3.23 18.73 3.89 5.48 9.83 8.64 16.04 9.18-3.21 5-4.41 11.28-2.78 17.49 1.3 4.94 4.17 9.05 7.95 11.92-2.87 1.58-5.42 3.83-7.42 6.7z" fill="#fff9f1"/><path d="m179.12 191.27c-1.48-.38-2.91-.92-4.27-1.6.21 6.61-2.53 13.23-8.04 17.75-5.43 4.45-12.36 5.87-18.73 4.46 1.75 6.19.78 13.08-3.23 18.73-3.89 5.48-9.83 8.64-16.04 9.18 3.21 5 4.41 11.28 2.78 17.49-1.3 4.94-4.17 9.05-7.95 11.92 2.87 1.58 5.42 3.83 7.42 6.7.19.28.38.56.56.84 2.44-2.78 5.62-4.97 9.37-6.26 7.43-2.54 15.28-.88 20.97 3.71.24-1.34.6-2.65 1.08-3.91-.79 5.34-1.55 10.78-2.26 16.31-16.97 6.58-31.59 12.01-42.13 6.76-12.52-5.38-17.67-36.61 5.16-70.87 12.21-19.13 33.53-39.24 61.37-52.73-2.08 6.93-4.11 14.1-6.06 21.52z" fill="#f7eadc"/><g fill="#617f7f"><circle cx="230.784" cy="82.708" r="9.882"/><circle cx="281.881" cy="82.708" r="9.882"/></g></g></svg>