<svg id="Capa_1" enable-background="new 0 0 512 512" height="512" viewBox="0 0 512 512" width="512" xmlns="http://www.w3.org/2000/svg"><g><path d="m512 256c0 22.35-2.86 44.03-8.25 64.69-75.917 85.683-128.72 82.561-247.75 82.561-118.86 0-182.591 5.069-247.63-82.091-5.46-20.81-8.37-42.64-8.37-65.16 0-141.38 114.62-256 256-256s256 114.62 256 256z" fill="#8fd1e3"/><path d="m502.37 318.06c-2.29-3.77-5.55-6.88-9.43-9 5.7-4.66 9.19-11.72 9.19-19.33 0-1.53-.15-3.09-.44-4.65-.87-4.66-2.99-8.76-5.94-12.05s-6.73-5.75-10.94-7.12c3.77-4.48 5.89-10.2 5.89-16.12 0-3.02-.55-6.09-1.72-9.08-1.72-4.41-4.56-8.06-8.06-10.74-3.5-2.69-7.68-4.41-12.06-4.97 2.12-3.76 3.23-8.02 3.23-12.32 0-4.52-1.22-9.09-3.79-13.21h.01c-4.74-7.6-12.91-11.78-21.26-11.78-.47 0-.94.01-1.41.04.89-2.62 1.34-5.36 1.34-8.1 0-6.03-2.17-12.08-6.56-16.88-4.93-5.38-11.68-8.11-18.45-8.11-2 0-4.01.24-5.98.72.18-1.2.26-2.41.26-3.62 0-7.58-3.43-15.07-9.95-19.99-4.51-3.39-9.79-5.03-15.02-5.03-3.56 0-7.1.75-10.36 2.23-.17-4.43-1.52-8.73-3.88-12.46s-5.74-6.87-9.99-8.98c-3.57-1.78-7.36-2.62-11.1-2.62-5.14 0-10.17 1.6-14.38 4.54-.99-4.32-3.1-8.31-6.11-11.54-3.02-3.23-6.92-5.71-11.48-6.99-2.27-.64-4.55-.94-6.79-.94-6.79 0-13.24 2.78-17.89 7.53-1.76-4.05-4.58-7.58-8.14-10.19-3.55-2.62-7.84-4.32-12.56-4.75-.76-.07-1.51-.1-2.25-.1-8.54 0-16.24 4.34-20.76 11.09-4.53-6.71-12.2-11.02-20.7-11.02-.77 0-1.56.04-2.35.11-4.72.44-9 2.16-12.54 4.79-3.55 2.63-6.36 6.16-8.11 10.22-4.64-4.71-11.06-7.47-17.81-7.47-2.27 0-4.58.31-6.88.97-4.56 1.3-8.45 3.78-11.46 7.02-3 3.24-5.1 7.24-6.08 11.55-4.19-2.91-9.19-4.48-14.3-4.48-3.76 0-7.58.85-11.17 2.65-4.23 2.12-7.61 5.29-9.96 9.02-2.35 3.74-3.68 8.05-3.84 12.47-3.24-1.45-6.75-2.2-10.27-2.2-5.26 0-10.57 1.66-15.08 5.09-.01 0-.01 0-.01 0-4.43 3.36-7.42 7.91-8.87 12.86-.68 2.3-1.02 4.68-1.02 7.07 0 1.24.1 2.48.28 3.71-1.94-.47-3.92-.7-5.9-.7-6.8 0-13.57 2.75-18.5 8.17-4.36 4.79-6.51 10.81-6.51 16.82 0 2.77.46 5.54 1.37 8.19-.45-.02-.9-.04-1.35-.04-8.37 0-16.55 4.21-21.28 11.85-2.53 4.1-3.74 8.64-3.74 13.13 0 4.34 1.13 8.63 3.28 12.41-4.39.57-8.56 2.31-12.05 5.01-3.5 2.69-6.32 6.35-8.03 10.77-1.15 2.96-1.69 6.01-1.69 9.01 0 5.95 2.14 11.69 5.94 16.18-4.2 1.38-7.98 3.86-10.91 7.16-2.94 3.29-5.03 7.41-5.89 12.07-.28 1.53-.42 3.06-.42 4.57 0 7.63 3.51 14.72 9.24 19.38-4.62 2.54-8.35 6.49-10.61 11.28 16.7 63.65 57.31 117.63 111.64 151.76 39.4 24.76 86.02 39.08 135.99 39.08 119.03 0 219.1-81.25 247.75-191.31-.4-.91-.87-1.78-1.38-2.63z" fill="#ffe0a7"/><path d="m74.427 289.041c1.689 2.78 4.093 5.073 6.954 6.637-4.203 3.436-6.777 8.643-6.777 14.254 0 1.128.111 2.279.325 3.429.641 3.436 2.205 6.46 4.38 8.886s4.963 4.24 8.067 5.25c-2.78 3.304-4.343 7.522-4.343 11.887 0 2.227.406 4.491 1.268 6.696 1.268 3.252 3.363 5.944 5.944 7.92 2.581 1.984 5.663 3.252 8.893 3.665-1.563 2.773-2.382 5.914-2.382 9.085 0 3.333.9 6.703 2.795 9.741-.007 0-.007 0-.007 0 3.495 5.604 9.52 8.687 15.677 8.687.347 0 .693-.007 1.04-.029-.656 1.932-.988 3.953-.988 5.973 0 4.447 1.6 8.908 4.837 12.448 3.635 3.967 8.613 5.98 13.605 5.98 1.475 0 2.957-.177 4.41-.531-.133.885-.192 1.777-.192 2.669 0 5.59 2.529 11.113 7.337 14.741 3.326 2.5 7.219 3.709 11.076 3.709 2.625 0 5.236-.553 7.64-1.644.125 3.267 1.121 6.438 2.861 9.188 1.74 2.751 4.233 5.066 7.367 6.622 2.633 1.313 5.427 1.932 8.185 1.932 3.79 0 7.499-1.18 10.604-3.348.73 3.186 2.286 6.128 4.506 8.51 2.227 2.382 5.103 4.211 8.466 5.155 1.674.472 3.355.693 5.007.693 5.007 0 9.763-2.05 13.192-5.553 1.298 2.987 3.377 5.59 6.003 7.514 2.618 1.932 5.781 3.186 9.262 3.503.56.052 1.113.074 1.659.074 6.297 0 11.976-3.2 15.309-8.178 3.341 4.948 8.997 8.126 15.265 8.126.568 0 1.15-.03 1.733-.081 3.481-.324 6.637-1.593 9.247-3.532 2.618-1.939 4.69-4.542 5.98-7.536 3.422 3.473 8.156 5.509 13.133 5.509 1.674 0 3.377-.229 5.074-.715 3.363-.959 6.231-2.787 8.451-5.177 2.212-2.389 3.761-5.339 4.484-8.517 3.09 2.146 6.777 3.304 10.545 3.304 2.773 0 5.59-.627 8.237-1.954 3.119-1.563 5.612-3.901 7.345-6.651 1.733-2.758 2.714-5.936 2.832-9.196 2.389 1.069 4.978 1.622 7.573 1.622 3.879 0 7.794-1.224 11.12-3.753h.007c3.267-2.478 5.472-5.833 6.541-9.483.501-1.696.752-3.451.752-5.214 0-.914-.074-1.829-.206-2.736 1.431.347 2.891.516 4.351.516 5.014 0 10.007-2.028 13.642-6.025 3.215-3.532 4.801-7.971 4.801-12.403 0-2.043-.339-4.085-1.01-6.039.332.015.664.03.995.03 6.172 0 12.204-3.105 15.692-8.738 1.866-3.023 2.758-6.371 2.758-9.682 0-3.2-.833-6.364-2.419-9.151 3.237-.42 6.312-1.703 8.886-3.694 2.581-1.984 4.661-4.683 5.921-7.942.848-2.183 1.246-4.432 1.246-6.644 0-4.388-1.578-8.62-4.38-11.931 3.097-1.018 5.885-2.846 8.045-5.28 2.168-2.426 3.709-5.464 4.344-8.901.206-1.128.31-2.256.31-3.37 0-5.626-2.588-10.855-6.814-14.291.034-.019.068-.038.102-.057 5.185-2.893 7.593-9.116 5.879-14.8-13.295-44.09-42.292-81.381-80.482-105.372-29.054-18.258-63.433-28.818-100.281-28.818-87.775 0-161.568 59.915-182.695 141.075.293.667.64 1.309 1.016 1.936z" fill="#ffd797"/><path d="m205.87 221.69-60.57 156.64s-42.89 37.62-25.29 94.59c-54.33-34.13-94.94-88.11-111.64-151.76 2.26-4.79 5.99-8.74 10.61-11.28-5.73-4.66-9.24-11.75-9.24-19.38 0-1.51.14-3.04.42-4.57.86-4.66 2.95-8.78 5.89-12.07 2.93-3.3 6.71-5.78 10.91-7.16-3.8-4.49-5.94-10.23-5.94-16.18 0-3 .54-6.05 1.69-9.01 1.71-4.42 4.53-8.08 8.03-10.77 3.49-2.7 7.66-4.44 12.05-5.01-2.15-3.78-3.28-8.07-3.28-12.41 0-4.49 1.21-9.03 3.74-13.13 4.73-7.64 12.91-11.85 21.28-11.85.45 0 .9.02 1.35.04-.91-2.65-1.37-5.42-1.37-8.19 0-6.01 2.15-12.03 6.51-16.82 4.93-5.42 11.7-8.17 18.5-8.17 1.98 0 3.96.23 5.9.7-.18-1.23-.28-2.47-.28-3.71 0-2.39.34-4.77 1.02-7.07z" fill="#ffd797"/><g><path d="m398.823 187.784c89.531 8.299 108.958-41.996 113.017-68.593 1.298-8.507-5.471-16.124-14.071-15.829-61.574 2.114-114.279 36.098-127.952 45.665-2.318 1.622-5.071 2.489-7.9 2.489h-211.834c-2.829 0-5.582-.867-7.9-2.489-13.672-9.567-66.377-43.551-127.952-45.665-8.6-.295-15.369 7.322-14.071 15.829 4.059 26.597 23.486 76.892 113.017 68.593z" fill="#ffe5bf"/><g fill="#617f7f"><path d="m143.555 188.697s-112.258-27.255-102.737-54.573 119.857 34.714 119.857 34.714z"/><path d="m377.183 188.697s112.258-27.255 102.737-54.573-119.857 34.714-119.857 34.714z"/></g><g><path d="m194.92 246.334c4.831-12.985-57.079-22.622-70.064-27.453s-27.422 1.783-32.253 14.768c-3.426 9.217-1.089 19.169 5.204 25.887-7.881 4.078-13.351 12.229-13.562 21.729-.225 9.704 5.105 18.25 13.077 22.6-6.424 6.678-8.885 16.688-5.491 25.985 3.462 9.5 12.067 15.649 21.53 16.422-3.17 8.94-1.103 19.293 6.135 26.351 7.051 6.87 17.106 8.749 25.801 5.707.64 8.973 6.094 17.309 14.885 21.197 4.374 1.931 8.995 2.515 13.411 1.931 8.385-1.108 15.999-6.436 19.669-14.734z" fill="#ffe0a7"/><path d="m317.151 246.334c-4.831-12.985 57.079-22.622 70.064-27.453s27.422 1.783 32.253 14.768c3.426 9.217 1.089 19.169-5.204 25.887 7.881 4.078 13.351 12.229 13.562 21.729.225 9.704-5.105 18.25-13.077 22.6 6.424 6.678 8.885 16.688 5.491 25.985-3.462 9.5-12.067 15.649-21.53 16.422 3.17 8.94 1.103 19.293-6.135 26.351-7.051 6.87-17.106 8.749-25.801 5.707-.64 8.973-6.094 17.309-14.885 21.197-4.374 1.931-8.995 2.515-13.411 1.931-8.385-1.108-15.999-6.436-19.669-14.734z" fill="#ffe5bf"/></g><path d="m415.114 191.587c0-51.013-71.222-92.367-159.079-92.367s-159.078 41.354-159.078 92.367c0 20.494 11.497 39.429 30.949 54.749 22.27 17.54 51.999 32.323 56.63 60.29l8.726 80.098c0 20.885 6.307 44.033 27.192 44.033 3.831 0 8.66 7.737 12.144 6.677 10.452-3.179 18.982-10.767 23.437-20.595 5.94 13.104 19.125 22.225 34.45 22.225 20.885 0 37.815-16.93 37.815-37.815l13.951-84.266c4.63-27.967 19.644-53.109 41.914-70.648 19.452-15.32 30.949-34.254 30.949-54.748z" fill="#fff9f1"/><path d="m233.818 437.044c-3.833 1.314-7.946 2.027-12.23 2.027-20.888 0-37.813-16.935-37.813-37.823l-13.955-84.264c-4.625-27.961-19.644-53.103-41.906-70.65-19.453-15.32-30.951-34.251-30.951-54.748 0-51.006 71.222-92.36 159.077-92.36-41.816 0-75.716 41.354-75.716 92.36 0 20.497 5.468 39.428 14.728 54.748 10.605 17.547 17.748 42.689 19.955 70.65l6.631 84.264c0 16.604 5.096 30.71 12.18 35.796z" fill="#f7eadc"/><g><g><ellipse cx="174.032" cy="238" fill="#516666" rx="21.024" ry="31.126"/><path d="m184.535 264.957c-3.089 2.651-6.686 4.171-10.506 4.171-11.617 0-21.022-13.936-21.022-31.128s9.405-31.128 21.022-31.128c3.82 0 7.417 1.52 10.506 4.171-6.276 5.38-10.506 15.437-10.506 26.957.001 11.519 4.23 21.577 10.506 26.957z" fill="#384948"/></g><g><ellipse cx="338.038" cy="238" fill="#516666" rx="21.024" ry="31.126"/><path d="m348.542 264.957c-3.089 2.651-6.686 4.171-10.506 4.171-11.617 0-21.022-13.936-21.022-31.128s9.405-31.128 21.022-31.128c3.82 0 7.417 1.52 10.506 4.171-6.276 5.38-10.506 15.437-10.506 26.957 0 11.519 4.229 21.577 10.506 26.957z" fill="#384948"/></g></g><path d="m286.08 410.53c-1.74 1.86-9.98-2.679-12.45-1.549l-3.501 10.479-8.31 3.8c-1.99.91-4.14 1.33-6.28 1.25-1.81-.06-3.61-.48-5.29-1.25l-8.31-3.8-3.943-8.985c-2.47-1.13-10.267 1.915-12.007.055-5.73-6.06-7.35-15.36-3.26-23.26l.99-1.92c3.48-6.75 10.45-10.98 18.05-10.98h28.53c7.6 0 14.56 4.23 18.05 10.98l.99 1.92c4.091 7.9 2.471 17.2-3.259 23.26z" fill="#ffe5bf"/><path d="m255.54 424.51c-1.81-.06-3.61-.48-5.29-1.25l-8.31-3.8-3.943-8.985c-2.47-1.13-10.267 1.915-12.007.055-5.73-6.06-7.35-15.36-3.26-23.26l.99-1.92c3.48-6.75 10.45-10.98 18.05-10.98h5.8s-11 31.15 7.97 50.14z" fill="#ffe0a7"/><g fill="#516666"><path d="m251.701 408.297c0 4.876-3.23 9.481-8.357 10.805l-1.405.361-9.601-4.384c-2.468-1.134-4.605-2.689-6.351-4.545l5.147-8.167c4.605-7.294 15.41-6.812 19.343.883.833 1.636 1.224 3.362 1.224 5.047z"/><path d="m286.083 410.535c-1.746 1.856-3.883 3.411-6.351 4.545l-9.601 4.384-1.405-.361c-5.127-1.324-8.357-5.929-8.357-10.805 0-1.685.391-3.411 1.224-5.046 3.933-7.695 14.738-8.177 19.343-.883z"/></g><path d="m404.438 135.761c10.745-7.224 14.307-21.61 7.856-33.098-5.668-10.083-17.266-14.738-27.971-12.039 1.224-10.073-3.772-20.316-13.303-25.282-8.919-4.655-19.353-3.421-26.857 2.318-2.328-8.949-9.531-16.263-19.203-18.259-9.722-2.007-19.283 1.906-24.961 9.27-4.103-8.257-12.621-13.925-22.463-13.925-6.641 0-12.681 2.588-17.166 6.812-4.485-4.224-10.524-6.812-17.166-6.812-9.892 0-18.44 5.719-22.523 14.036-5.678-7.424-15.28-11.357-25.041-9.33-9.672 2.017-16.865 9.34-19.182 18.29-7.514-5.729-17.958-6.943-26.867-2.277-9.531 4.996-14.517 15.25-13.253 25.332-10.725-2.659-22.323 2.047-27.951 12.17-6.401 11.527 11.2 19.252 22.005 26.405-1.094 1.294-4.318 14.205-5.171 15.75-6.652 12.149-13.925 22.565-1.775 29.227 10.534 5.769 23.396 3.19 30.971-5.508 4.304 8.327 13.123 13.895 23.125 13.564 8.909-.291 16.584-5.207 20.798-12.36 4.776 6.531 12.621 10.635 21.319 10.273 8.498-.361 15.832-4.916 20.095-11.578 4.505 6.662 12.129 11.036 20.778 11.036 8.648 0 16.273-4.374 20.778-11.026 4.264 6.662 11.588 11.206 20.095 11.578 8.698.361 16.544-3.742 21.319-10.273 4.224 7.153 11.899 12.069 20.818 12.36.281.01.552.01.833.01 9.661 0 18.129-5.508 22.303-13.634 7.645 8.728 20.587 11.237 31.111 5.347 12.089-6.772 16.403-22.052 9.641-34.141-.865-1.537-1.868-2.952-2.992-4.236z" fill="#ffe5bf"/><path d="m198.338 170.043c-4.214 7.153-11.889 12.069-20.798 12.36-10.003.331-18.821-5.237-23.125-13.564-7.575 8.698-20.436 11.277-30.971 5.508-12.15-6.662-16.594-21.901-9.942-34.051.853-1.545 1.836-2.96 2.93-4.254-10.805-7.153-14.447-21.55-8.046-33.078 5.628-10.123 17.226-14.828 27.951-12.17-1.264-10.083 3.722-20.336 13.253-25.332 8.909-4.665 19.353-3.451 26.867 2.277 2.318-8.949 9.511-16.273 19.182-18.29 9.762-2.027 19.363 1.906 25.041 9.33 0 .002-59.122 33.872-22.342 111.264z" fill="#ffe0a7"/></g></g></svg>