<svg id="Capa_1" enable-background="new 0 0 512 512" height="512" viewBox="0 0 512 512" width="512" xmlns="http://www.w3.org/2000/svg"><g><path d="m512 256c0 68.095-26.587 129.981-69.947 175.843-46.667 49.36-112.763 5.087-186.053 5.087s-139.386 44.272-186.053-5.087c-43.36-45.862-69.947-107.748-69.947-175.843 0-141.385 114.615-256 256-256s256 114.615 256 256z" fill="#8fd1e3"/><path d="m442.05 431.84c-42.07 44.5-99.93 73.92-164.63 79.27-7.06.59-14.21-11.97-21.42-11.97s-14.36 12.56-21.42 11.97c-64.7-5.35-122.56-34.77-164.63-79.27 1.53-10.09 3.73-19.94 6.53-29.48-.01 0 0-.01 0-.01 1.939-6.576 19.132 1.956 21.634-4.315 1.783-4.468-11.259-23.818-9.204-28.115 31.56-66.01 94.54-111.02 167.09-111.02s135.53 45.01 167.09 111.02c2.377 4.97-5.396 20.032-3.385 25.23 2.169 5.607 14.092 1.367 15.815 7.21 2.8 9.54 5 19.39 6.53 29.48z" fill="#f36a38"/><path d="m324.74 469.64c-29.64 11.66-42.13 28.36-47.32 41.47-7.06.59-14.21.89-21.42.89s-14.36-.3-21.42-.89c-5.19-13.11-17.68-29.81-47.32-41.47-4.26-1.68-3.21-8.02 1.36-8.15 16.73-.51 42.74 3.72 67.38 28.36 24.64-24.64 50.65-28.87 67.38-28.36 4.57.13 5.62 6.47 1.36 8.15z" fill="#516666"/><path d="m173.33 466.22c0 11.2.81 22.2 2.37 32.92-40.74-13.44-76.95-36.83-105.75-67.3 1.531-10.092 3.726-19.937 6.533-29.479 1.024-3.481 18.212-5.444 21.631-4.325 18.318 5.993-13.291-19.343-10.328-25.742 31.166-67.298 94.791-113.394 168.214-113.394 18.4 0 36.18 2.9 52.99 8.3-78.39 25.15-135.66 104.74-135.66 199.02z" fill="#e05327"/><g><g><path d="m172.207 81.329-29.962-45.21c-13.289-20.052-38.201-28.952-61.188-21.859-23.59 7.279-39.285 29.573-38.183 54.236l1.827 40.872c.694 15.534 9.425 29.587 23.044 37.091l33.867 18.661 53.373-63.349z" fill="#f97855"/><path d="m94.988 146.456 15.261 8.414-8.637 10.252-33.863-18.665c-13.623-7.503-22.349-21.558-23.044-37.091l-1.83-40.87c-.04-.815-.056-1.63-.056-2.445 0-23.683 15.437-44.754 38.242-51.793 9.868-3.044 20.088-3.14 29.588-.671-.783.208-1.566.432-2.349.671-22.804 7.039-38.242 28.11-38.242 51.793 0 .815.016 1.63.056 2.445l1.83 40.87c.695 15.533 9.421 29.588 23.044 37.09z" fill="#e05327"/><path d="m165.175 112.742s-32.965-69.17-68.118-78.565-67.378 93.601 34.059 117.965 34.059-39.4 34.059-39.4z" fill="#ffe5bf"/><path d="m339.793 81.329 29.962-45.21c13.289-20.052 38.201-28.952 61.188-21.859 23.59 7.279 39.285 29.573 38.183 54.236l-1.827 40.872c-.694 15.534-9.425 29.587-23.044 37.091l-33.867 18.661-53.373-63.349z" fill="#f97855"/><path d="m421.78 12.283c-18.37 5.673-32.736 20.839-36.979 40.223l-18.386 60.423-9.405-11.154-17.219-20.439 29.964-45.217c11.538-17.403 31.833-26.409 52.025-23.836z" fill="#e05327"/><path d="m346.825 112.742s32.965-69.17 68.118-78.565 67.378 93.601-34.059 117.965-34.059-39.4-34.059-39.4z" fill="#ffe5bf"/></g><path d="m454.91 196.122s.015 6.21.005 6.243l2.66 12.572-1.707 5.981-16.085 56.454-139.966 48.863-43.817 15.291-179.269-49.135-6.781-90.026c0-8.928-17.241-17.649-13.749-25.654 3.68-8.435 9.17-16.073 16.201-22.318l80.395-59.923c18.88-16.759 42.028-28.972 65.062-18.641l28.646 12.855c6.036 2.708 12.953 2.708 18.988 0l28.647-12.854c23.034-10.332 49.983-6.199 68.863 10.56l76.595 68.003c7.026 6.242 12.518 13.877 16.204 22.316 3.491 8.005-.892 10.485-.892 19.413z" fill="#f97855"/><path d="m62.863 272.921-8.041-70.557c0-8.929-2.111-17.65 1.382-25.652 3.68-8.431 9.17-16.065 16.2-22.308l76.595-68.014c18.88-16.759 45.829-20.892 68.863-10.549l.74.326c-4.687 2.588-9.114 6.003-13.105 10.223l-64.371 68.014c-11.517 12.17-18.118 29.624-18.118 47.96v62.457c0 13.438 2.152 26.532 6.177 38.673z" fill="#f36a38"/><path d="m244.18 395.15h-61.34c-3.25 0-6.49-.25-9.68-.74-8.88-1.35-17.42-4.56-25.04-9.47l-48.92-31.51c-30.14-19.4-48.35-52.77-48.35-88.62v-29.96l4.45-17.54c7.44 19.49 26.13 53.17 69.89 70.73 10.3 4.14 22 7.38 35.26 9.34 50.92 7.51 73.63 55.02 83.73 97.77z" fill="#fff9f1"/><path d="m173.16 394.41c-8.88-1.35-17.42-4.56-25.04-9.47l-48.92-31.51c-30.14-19.4-48.35-52.77-48.35-88.62v-29.96l4.45-17.54c7.44 19.49 26.13 53.17 69.89 70.73 1 5.28 2.33 10.45 3.99 15.45z" fill="#f7eadc"/><path d="m88.157 297.314c11.185 16.277 32.91 38.396 72.721 50.697 5.359 1.656 4.958 9.394-.567 10.364-27.697 4.865-74.471 3.633-81.86-57.357-.672-5.548 6.541-8.31 9.706-3.704z" fill="#516666"/><path d="m461.15 234.85v29.96c0 35.85-18.21 69.22-48.35 88.62l-48.92 31.51c-10.35 6.67-22.41 10.21-34.72 10.21h-61.34c5.71-24.14 15.43-49.81 32-68.91 12.74-14.74 29.57-25.59 51.73-28.86 66.91-9.87 93.86-52.5 104-77.18.76-1.87 1.44-3.63 2.02-5.26.09-.25.17-.49.26-.73z" fill="#fff9f1"/><path d="m423.843 297.314c-11.185 16.277-32.91 38.396-72.721 50.697-5.359 1.656-4.958 9.394.567 10.364 27.697 4.865 74.471 3.633 81.86-57.357.672-5.548-6.541-8.31-9.706-3.704z" fill="#516666"/><g fill="#fff9f1"><ellipse cx="160.449" cy="216.699" rx="47.69" ry="56.222"/><ellipse cx="351.551" cy="216.699" rx="47.69" ry="56.222"/></g><g><ellipse cx="177.72" cy="218.152" fill="#fde42f" rx="33.48" ry="41.689"/><path d="m189.577 257.147c-3.688 1.747-7.686 2.697-11.861 2.697-18.489 0-33.476-18.666-33.476-41.691s14.986-41.691 33.476-41.691c4.175 0 8.174.949 11.861 2.697-12.643 5.964-21.623 21.169-21.623 38.995s8.98 33.029 21.623 38.993z" fill="#f5cf33"/><path d="m198.014 218.156c0 14.919-8.904 27.259-20.463 29.2-1.05.176-2.117.269-3.201.269-13.071 0-23.664-13.197-23.664-29.469 0-16.28 10.593-29.469 23.664-29.469 1.084 0 2.15.092 3.201.269 11.558 1.941 20.463 14.272 20.463 29.2z" fill="#516666"/><ellipse cx="334.28" cy="218.152" fill="#fde42f" rx="33.48" ry="41.689"/><path d="m346.136 257.147c-3.688 1.747-7.686 2.697-11.861 2.697-18.489 0-33.476-18.666-33.476-41.691s14.986-41.691 33.476-41.691c4.175 0 8.174.949 11.861 2.697-12.643 5.964-21.623 21.169-21.623 38.995s8.981 33.029 21.623 38.993z" fill="#f5cf33"/><path d="m361.314 218.156c0 16.272-10.593 29.469-23.664 29.469-1.226 0-2.428-.118-3.604-.336-11.357-2.167-20.06-14.39-20.06-29.133 0-14.751 8.703-26.965 20.06-29.133 1.176-.218 2.377-.336 3.604-.336 13.071 0 23.664 13.189 23.664 29.469z" fill="#516666"/><g fill="#384948"><path d="m324.512 218.156c0 11.341 3.637 21.623 9.534 29.133-11.357-2.167-20.06-14.39-20.06-29.133 0-14.751 8.703-26.965 20.06-29.133-5.897 7.51-9.534 17.792-9.534 29.133z"/><path d="m167.957 218.156c0 11.374 3.654 21.681 9.593 29.2-1.05.176-2.117.269-3.201.269-13.071 0-23.664-13.197-23.664-29.469 0-16.28 10.593-29.469 23.664-29.469 1.084 0 2.15.092 3.201.269-5.939 7.518-9.593 17.826-9.593 29.2z"/></g></g><g><g><path d="m181.569 307.341c-1.443 0-2.905-.359-4.253-1.117-4.19-2.353-5.678-7.657-3.324-11.846l13.658-24.314c11.442-20.367 14.496-44.032 8.601-66.637-5.279-20.241-23.575-34.378-44.493-34.378-4.805 0-8.7-3.895-8.7-8.7s3.895-8.7 8.7-8.7c28.834 0 54.054 19.486 61.331 47.387 7.038 26.986 3.391 55.237-10.268 79.551l-13.659 24.313c-1.597 2.842-4.551 4.441-7.593 4.441z" fill="#e05327"/></g><g><path d="m330.431 307.341c-3.043 0-5.997-1.599-7.593-4.441l-13.658-24.313c-13.66-24.313-17.306-52.565-10.268-79.55 7.277-27.9 32.497-47.387 61.331-47.387 4.805 0 8.7 3.895 8.7 8.7s-3.895 8.7-8.7 8.7c-20.918 0-39.214 14.137-44.493 34.378-5.895 22.604-2.841 46.27 8.601 66.637l13.658 24.314c2.353 4.189.866 9.493-3.324 11.846-1.348.757-2.811 1.116-4.254 1.116z" fill="#e05327"/></g></g><path d="m323.172 380.427c0 10.495-2.338 20.435-6.536 29.331-3.078 6.547-7.156 12.528-12.039 17.749-12.583 13.464-30.505 21.881-50.386 21.881s-37.803-8.418-50.386-21.881c-4.883-5.22-8.961-11.202-12.039-17.749-4.198-8.896-6.536-18.836-6.536-29.331 0-38.086 30.875-68.961 68.961-68.961s68.961 30.876 68.961 68.961z" fill="#f7eadc"/><g><path d="m382.901 341.526c0 37.4-30.31 67.71-67.699 67.71-20.761 0-39.336-9.342-51.745-24.056-3.654-4.307-6.764-9.081-9.244-14.214-2.48 5.133-5.59 9.907-9.244 14.214-12.409 14.714-30.984 24.056-51.745 24.056-37.389 0-67.699-30.31-67.699-67.71 0-37.389 30.31-67.699 67.699-67.699 23.306 0 43.871 11.778 56.041 29.722 1.849 2.708 3.502 5.568 4.948 8.548 1.446-2.98 3.099-5.84 4.948-8.548 12.17-17.944 32.735-29.722 56.041-29.722 37.389 0 67.699 30.31 67.699 67.699z" fill="#fff9f1"/><path d="m168.794 341.53c0 29.82 19.282 55.138 46.068 64.165-6.797 2.295-14.073 3.534-21.642 3.534-37.389 0-67.699-30.31-67.699-67.699 0-37.4 30.31-67.71 67.699-67.71 7.569 0 14.845 1.24 21.642 3.534-26.786 9.027-46.068 34.345-46.068 64.176z" fill="#f7eadc"/><path d="m263.457 303.549v81.63c-.037-.043-.073-.086-.109-.129-4.807-5.694-13.463-5.694-18.269 0l-.109.129v-81.63z" fill="#516666"/><g fill="#ffd797"><g><circle cx="347.79" cy="327.562" r="11.202"/><circle cx="316.713" cy="338.764" r="11.202"/><circle cx="341.355" cy="361.167" r="11.202"/></g><g><circle cx="160.635" cy="327.562" r="11.202"/><circle cx="191.712" cy="338.764" r="11.202"/><circle cx="167.07" cy="361.167" r="11.202"/></g></g></g><path d="m265.828 321.83h-23.234c-19.59 0-35.47-15.881-35.47-35.47v-4.032c0-5.195 4.212-9.407 9.407-9.407h75.361c5.195 0 9.407 4.212 9.407 9.407v4.032c-.001 19.59-15.881 35.47-35.471 35.47z" fill="#516666"/><path d="m272.301 321.245c-2.094.391-4.261.592-6.474.592h-23.237c-19.586 0-35.466-15.88-35.466-35.475v-4.034c0-5.19 4.207-9.406 9.406-9.406h36.194c-5.199 0-9.406 4.216-9.406 9.406v4.034c0 17.382 12.493 31.841 28.983 34.883z" fill="#384948"/><g fill="#516666"><path d="m272.123 205.076c8.619-15.808 29.737-47.304 68.115-64.197 5.014-2.207 2.915-9.697-2.51-8.936-17.611 2.469-40.292 8.843-63.774 24.008 0 0-5.128-39.91 50.787-61.915 4.255-1.675 3.209-8.013-1.361-8.152-16.73-.508-42.74 3.727-67.38 28.367-24.64-24.64-50.65-28.875-67.38-28.367-4.571.139-5.617 6.478-1.361 8.152 55.914 22.005 50.787 61.915 50.787 61.915-23.482-15.165-46.163-21.539-63.774-24.008-5.425-.76-7.523 6.729-2.51 8.936 38.378 16.893 59.496 48.389 68.115 64.197 3.218 5.903 9.4 9.571 16.123 9.571 6.723-.001 12.905-3.668 16.123-9.571z"/><path d="m406.684 203.987c3.6 19.419 3.88 50.421-15.573 87.269-2.619 4.961 3.136 10.148 7.729 6.928 23.025-16.145 55.228-50.09 17.326-98.441-3.447-4.398-10.5-1.25-9.482 4.244z"/><path d="m461.153 202.365v32.485c-1.61-4.959-3.382-9.592-5.285-13.931-.098-.239-.207-.478-.315-.718-11.397-25.59-27.308-40.619-39.565-49.048-4.165-2.86-1.664-9.375 3.35-8.766 16.628 2.012 28.341 7.276 36.465 14.323 3.49 8.004 5.35 16.726 5.35 25.655z"/><path d="m105.316 203.987c-3.6 19.419-3.88 50.421 15.573 87.269 2.619 4.961-3.136 10.148-7.729 6.928-23.025-16.145-55.228-50.09-17.326-98.441 3.447-4.398 10.5-1.25 9.482 4.244z"/><path d="m50.847 202.365v32.485c1.61-4.959 3.382-9.592 5.285-13.931.098-.239.207-.478.315-.718 11.397-25.59 27.308-40.619 39.565-49.048 4.165-2.86 1.664-9.375-3.35-8.766-16.628 2.012-28.341 7.276-36.465 14.323-3.49 8.004-5.35 16.726-5.35 25.655z"/></g></g><g fill="#516666"><path d="m435.52 402.36c-23.14 39.97-68.52 39.87-98 34.7-7.52-1.32-8.06-11.85-.77-14.1 41.96-12.97 69.15-33.95 86.34-53.04 4.94 10.33 9.11 21.18 12.43 32.44z"/><path d="m174.48 437.06c-29.48 5.17-74.86 5.27-98-34.7-.01 0 0-.01 0-.01 3.32-11.26 7.49-22.1 12.43-32.43 17.19 19.09 44.38 40.07 86.34 53.04 7.29 2.25 6.75 12.78-.77 14.1z"/></g></g></svg>