<svg id="Capa_1" enable-background="new 0 0 512 512" height="512" viewBox="0 0 512 512" width="512" xmlns="http://www.w3.org/2000/svg"><g><path d="m94.506 214.419c3.25-30.82-81.096-45.619-67.896-72.189 41.88-84.3 128.87-142.23 229.39-142.23s187.51 57.93 229.39 142.23c13.2 26.57-71.146 41.369-67.896 72.189z" fill="#8fd1e3"/><path d="m486.013 256c0 141.38-88.633 223.91-230.013 223.91s-230.013-82.53-230.013-223.91c0-9.18-25.507-18.26-24.557-27.19 3.25-30.82 11.98-60.01 25.18-86.58 63.24-49.47 142.87-78.96 229.39-78.96s166.15 29.49 229.39 78.96c13.2 26.57 21.93 55.76 25.18 86.58.95 8.93-24.557 18.01-24.557 27.19z" fill="#70a41c"/><path d="m512 256c0 141.38-114.62 256-256 256s-256-114.62-256-256c0-9.18.48-18.26 1.43-27.19 60.17-73.89 151.86-121.08 254.57-121.08s194.4 47.19 254.57 121.08c.95 8.93 1.43 18.01 1.43 27.19z" fill="#7fbb1b"/><path d="m305.625 494.985h-99.249c-46.513 0-84.219-37.706-84.219-84.219v-37.851h267.687v37.851c0 46.512-37.707 84.219-84.219 84.219z" fill="#70a41c"/><g><path d="m436.6 249.459v55.86l-36.606 93.541-143.994 1.259-145.22 10.83-35.38-105.63v-55.86c0-84.36 68.38-152.75 152.74-152.75h55.72c84.36 0 152.74 68.39 152.74 152.75z" fill="#b75c34"/><path d="m191.28 363.849c0 14.65 3.84 28.4 10.56 40.31l-91.06 6.79-35.38-105.63v-55.86c0-84.36 68.38-152.75 152.74-152.75h55.72c10.3 0 20.36 1.02 30.08 2.96-69.96 13.98-122.66 75.73-122.66 149.79z" fill="#a54828"/><path d="m345.4 187.869v210.99h-178.8v-210.99c0-33.7 27.32-61.02 61.02-61.02h56.76c33.7 0 61.02 27.32 61.02 61.02z" fill="#dc8758"/><path d="m191.28 249.459v114.39c0 12.53 2.81 24.39 7.83 35.01h-32.51v-210.99c0-33.7 27.32-61.02 61.02-61.02h25.31c-37.42 27.83-61.65 72.39-61.65 122.61z" fill="#cc754a"/><path d="m436.6 305.319v58.521c0 45.387-36.793 82.18-82.18 82.18h-196.85c-45.381 0-82.17-36.789-82.17-82.17v-58.53l48.263 52.559c17.388 18.936 45.213 24.071 68.215 12.589 40.373-20.153 87.871-20.153 128.244 0 23.002 11.482 50.827 6.347 68.215-12.589z" fill="#ffe5bf"/><path d="m273.45 446.019h-115.88c-45.38 0-82.17-36.79-82.17-82.17v-58.53l48.26 52.56c17.31 18.84 44.96 24.02 67.9 12.74 3.44 42.21 38.79 75.4 81.89 75.4z" fill="#ffe0a7"/><g><ellipse cx="94.506" cy="214.419" fill="#fff9f1" rx="45.617" ry="56.801"/><path d="m110.661 267.549c-5.025 2.381-10.473 3.674-16.161 3.674-25.192 0-45.61-25.432-45.61-56.804s20.419-56.804 45.61-56.804c5.688 0 11.136 1.293 16.161 3.674-17.225 8.126-29.461 28.843-29.461 53.13s12.235 45.003 29.461 53.13z" fill="#f7eadc"/><path d="m122.156 214.423c0 20.327-12.132 37.141-27.881 39.785-1.431.24-2.884.366-4.361.366-17.809 0-32.242-17.981-32.242-40.151 0-22.181 14.433-40.151 32.242-40.151 1.477 0 2.93.126 4.361.366 15.749 2.645 27.881 19.447 27.881 39.785z" fill="#516666"/><ellipse cx="417.494" cy="214.419" fill="#fff9f1" rx="45.617" ry="56.801"/><path d="m433.648 267.549c-5.025 2.381-10.473 3.674-16.161 3.674-25.192 0-45.61-25.432-45.61-56.804s20.419-56.804 45.61-56.804c5.688 0 11.136 1.293 16.161 3.674-17.225 8.126-29.461 28.843-29.461 53.13s12.236 45.003 29.461 53.13z" fill="#f7eadc"/><path d="m454.328 214.423c0 22.17-14.433 40.151-32.242 40.151-1.671 0-3.308-.16-4.91-.458-15.474-2.953-27.332-19.606-27.332-39.693 0-20.098 11.858-36.74 27.332-39.693 1.602-.298 3.239-.458 4.91-.458 17.809.001 32.242 17.97 32.242 40.151z" fill="#516666"/><g fill="#384948"><path d="m404.185 214.423c0 15.451 4.956 29.461 12.991 39.693-15.474-2.953-27.332-19.606-27.332-39.693 0-20.098 11.858-36.74 27.332-39.693-8.035 10.233-12.991 24.242-12.991 39.693z"/><path d="m81.204 214.423c0 15.497 4.979 29.541 13.071 39.785-1.431.24-2.884.366-4.361.366-17.809 0-32.242-17.981-32.242-40.151 0-22.181 14.433-40.151 32.242-40.151 1.477 0 2.93.126 4.361.366-8.092 10.245-13.071 24.288-13.071 39.785z"/></g></g><g fill="#384948"><ellipse cx="229.935" cy="205.749" rx="15.613" ry="28.825"/><ellipse cx="282.065" cy="205.749" rx="15.613" ry="28.825"/></g></g></g></svg>