<svg id="Capa_1" enable-background="new 0 0 512 512" height="512" viewBox="0 0 512 512" width="512" xmlns="http://www.w3.org/2000/svg"><g><path d="m512 256c0 17.87-1.83 35.32-5.32 52.16-24.09 116.37-127.17 82.203-250.68 82.203s-226.59 34.167-250.68-82.203c-3.49-16.84-5.32-34.29-5.32-52.16 0-141.38 114.62-256 256-256s256 114.62 256 256z" fill="#8fd1e3"/><path d="m506.68 308.16c-24.09 116.37-127.17 203.84-250.68 203.84s-226.59-87.47-250.68-203.84c17.61-148.28 123.13-262.24 250.68-262.24s233.07 113.96 250.68 262.24z" fill="#6e8c8e"/><ellipse cx="256" cy="287.663" fill="#617f7f" rx="90.534" ry="54.101"/><path d="m256 512c-123.51 0-226.59-87.47-250.68-203.84 17.61-148.28 123.13-262.24 250.68-262.24-44.41 0-82.14 86.61-95.74 207.06-4.78 42.32-2.98 85.17 6.21 126.75 17.42 78.87 50.99 132.27 89.53 132.27z" fill="#617f7f"/><g><path d="m189.16 362.372c0 69.807 7.897 126.396-7.032 126.396s-47.032-56.59-47.032-126.396 32.103-126.396 47.032-126.396c14.93 0 7.032 56.589 7.032 126.396z" fill="#fff9f1"/><path d="m157.848 362.368c0 50.81 17 94.61 32.01 114.69-1.29 7.51-3.67 11.71-7.73 11.71-14.93 0-47.04-56.59-47.04-126.4 0-69.8 32.11-126.39 47.04-126.39 4.06 0 6.44 4.2 7.73 11.71-15.01 20.08-32.01 63.88-32.01 114.68z" fill="#f7eadc"/><path d="m322.839 362.372c0 69.807-7.897 126.396 7.032 126.396s47.032-56.59 47.032-126.396-32.103-126.396-47.032-126.396-7.032 56.589-7.032 126.396z" fill="#fff9f1"/><path d="m341.239 481.532c-4.25 4.69-8.19 7.24-11.36 7.24-14.93 0-7.04-56.59-7.04-126.4 0-69.8-7.89-126.39 7.04-126.39 3.17 0 7.11 2.55 11.36 7.24-5.22 17.39-.33 64.17-.33 119.15s-4.89 101.77.33 119.16z" fill="#f7eadc"/></g><g><g><ellipse cx="154.41" cy="186.399" fill="#516666" rx="21.962" ry="26.553"/><path d="m165.382 209.396c-3.227 2.261-6.984 3.558-10.974 3.558-12.135 0-21.959-11.889-21.959-26.555s9.824-26.555 21.959-26.555c3.991 0 7.747 1.297 10.974 3.558-6.556 4.589-10.974 13.169-10.974 22.996-.001 9.828 4.417 18.408 10.974 22.998z" fill="#384948"/><ellipse cx="357.59" cy="186.399" fill="#516666" rx="21.962" ry="26.553"/><path d="m368.562 209.396c-3.227 2.261-6.984 3.558-10.974 3.558-12.135 0-21.959-11.889-21.959-26.555s9.824-26.555 21.959-26.555c3.991 0 7.747 1.297 10.974 3.558-6.556 4.589-10.974 13.169-10.974 22.996-.001 9.828 4.418 18.408 10.974 22.998z" fill="#384948"/></g><path d="m400.025 285.892-3.869 46.191c-2.765 33.093-40.364 50.732-67.573 31.704l-31.374-21.94c-17.889-12.507-31.989-29.315-41.206-48.592-9.218 19.278-23.317 36.086-41.206 48.592l-31.374 21.94c-27.221 19.027-53.93-5.677-56.695-38.769l6.425-47.943c-3.266-39.033-14.646-48.451 21.257-64.121 38.51-16.807 92.733-40.821 133.551-34.928 19.625 2.833 38.962 8.291 57.477 16.371 35.901 15.671 57.841 52.462 54.587 91.495z" fill="#809ca0"/><path d="m287.957 178.032c-19.62 2.83-38.96 8.29-57.48 16.37-35.9 15.67-57.85 52.46-54.59 91.49l3.87 46.19c.88 10.48 5.25 19.4 11.67 26.11l-8.01 5.6c-27.22 19.02-64.81 1.38-67.57-31.71l-3.87-46.19c-3.27-39.03 18.68-75.82 54.59-91.49 28.51-12.45 58.97-18.67 89.43-18.67 10.68-.001 21.36.759 31.96 2.3z" fill="#6e8c8e"/><g fill="#617f7f"><g><path d="m241.896 234c-.268 0-.539-.013-.811-.041-4.396-.442-7.602-4.365-7.159-8.761l1.501-14.921c.179-1.773-.487-3.464-1.827-4.639s-3.103-1.614-4.838-1.207l-10.456 2.46c-4.301 1.008-8.607-1.655-9.62-5.956-1.012-4.301 1.655-8.607 5.956-9.62l10.456-2.46c6.729-1.583 13.854.193 19.052 4.752 5.199 4.56 7.89 11.39 7.197 18.27l-1.501 14.921c-.415 4.127-3.892 7.202-7.95 7.202z"/><path d="m270.104 234c-4.058 0-7.535-3.076-7.95-7.199l-1.502-14.921c-.692-6.881 1.999-13.711 7.197-18.271 5.2-4.56 12.328-6.334 19.053-4.751l10.455 2.46c4.301 1.012 6.967 5.318 5.955 9.619-1.011 4.3-5.316 6.966-9.619 5.955l-10.455-2.459c-1.738-.411-3.498.031-4.839 1.206-1.34 1.175-2.006 2.866-1.827 4.64l1.502 14.92c.442 4.396-2.763 8.318-7.159 8.761-.271.027-.542.04-.811.04z"/></g><g><g><circle cx="133.15" cy="277.075" r="10.588"/><circle cx="165.466" cy="302.14" r="10.588"/><circle cx="202.674" cy="314.429" r="10.588"/><circle cx="134.345" cy="314.429" r="10.588"/><circle cx="176.577" cy="333.905" r="10.588"/><circle cx="150.29" cy="351.784" r="10.588"/></g><g><circle cx="378.85" cy="277.075" r="10.588"/><circle cx="346.534" cy="302.14" r="10.588"/><circle cx="309.326" cy="314.429" r="10.588"/><circle cx="377.655" cy="314.429" r="10.588"/><circle cx="335.423" cy="333.905" r="10.588"/><circle cx="361.71" cy="351.784" r="10.588"/></g></g></g></g></g></svg>