<svg id="Capa_1" enable-background="new 0 0 512 512" height="512" viewBox="0 0 512 512" width="512" xmlns="http://www.w3.org/2000/svg"><g><path d="m512 256c0 71.79-29.55 136.68-77.15 183.17-46.15 45.05-109.26 21.56-178.85 21.56-26.87 0-52.76.903-77.09-6.776-38.7-12.2-73.42 12.876-101.76-14.784-47.6-46.49-77.15-111.38-77.15-183.17 0-141.38 114.62-256 256-256s256 114.62 256 256z" fill="#f97855"/><path d="m434.85 439.17c-46.15 45.05-109.26 72.83-178.85 72.83s-132.7-27.78-178.85-72.83l5.54-17.06c16.34-50.29 63.2-84.34 116.08-84.34h114.46c52.88 0 99.74 34.05 116.08 84.34z" fill="#6e8c8e"/><path d="m233.8 337.77c-20.52 0-38.71 34.05-45.05 84.34l-9.84 78.07c-38.7-12.2-73.42-33.35-101.76-61.01l5.54-17.06c16.34-50.29 63.21-84.34 116.08-84.34z" fill="#617f7f"/><g><path d="m189.54 129.044-97.135-121.706c-8.662-10.854-25.571-9.433-32.3 2.715-16.746 30.229-22.5 65.328-16.281 99.322l30.403 166.185z" fill="#617f7f"/><path d="m322.46 129.044 97.135-121.706c8.662-10.854 25.571-9.433 32.3 2.715 16.746 30.229 22.5 65.328 16.281 99.322l-30.403 166.185z" fill="#6e8c8e"/></g><g><path d="m141.489 125.86s-60.6-100.81-80.705-80.705 16.815 165.41 16.815 165.41z" fill="#ffe0a7"/><path d="m370.511 125.86s60.6-100.81 80.705-80.705-16.815 165.41-16.815 165.41z" fill="#ffe5bf"/></g><path d="m407.507 421.923 32.383-23.528c31.122-22.611 44.144-62.691 32.257-99.276l-42.836-131.837c-16.34-50.29-63.205-84.34-116.083-84.34h-114.456c-52.878 0-86.57 53.12-102.911 103.411l-56.009 112.766c-11.887 36.586 1.135 76.665 32.257 99.276l32.383 23.528c90.342 65.637 212.674 65.637 303.015 0z" fill="#809ca0"/><circle cx="256" cy="393.898" fill="#617f7f" r="45.948"/><path d="m233.633 470.179c-45.57-3.96-90.31-20.05-129.14-48.26l-32.38-23.52c-31.12-22.62-44.15-62.7-32.26-99.28l42.84-131.84c16.34-50.29 63.2-84.34 116.08-84.34h44.59c-28.9 0-54.51 34.97-63.44 86.62l-23.41 135.39c-6.5 37.57.62 78.73 17.63 101.96l17.69 24.16c12.939 17.67 27.089 30.71 41.8 39.11z" fill="#6e8c8e"/><path d="m413.03 285.56c0 17.97-28.26 34.5-52.6 45.4-22.05 9.87-38.11 29.62-43.18 53.25l-4 18.67c-2.78 12.94-14.71 21.96-28.12 20.89-6.45-.51-12.45-3.52-17.02-8.09l-12.11-12.11-12.11 12.11c-4.57 4.57-10.57 7.58-17.02 8.09-13.41 1.07-25.34-7.95-28.12-20.89l-4-18.67c-4.87-22.7-19.88-41.82-40.61-52.04-.84-.42-1.7-.82-2.57-1.21-24.34-10.9-52.6-27.43-52.6-45.4 0-31.57 39.47-35.31 60.68-56.52 12.7-12.7 6.96-24.7.29-32.29-2.49-2.84-3.73-6.4-3.73-9.97 0-3.4 1.12-6.81 3.34-9.63 4.54-5.77 12.55-7.63 19.08-4.26.22.11.43.23.65.35 16.16 8.74 29.12 31 36.58 46.46 2.96 6.13 9.08 9.7 15.43 9.7 2.61 0 5.26-.6 7.75-1.87 5.32-2.72 11.14-4.08 16.96-4.08s11.64 1.36 16.96 4.08c8.55 4.37 19.01.82 23.18-7.83 7.56-15.67 20.77-38.32 37.23-46.81 2.2-1.13 4.56-1.68 6.91-1.68 4.62 0 9.16 2.11 12.17 5.94 4.56 5.79 4.47 14.06-.39 19.6-6.67 7.59-12.41 19.59.29 32.29 21.21 21.21 60.68 24.95 60.68 56.52z" fill="#ffe0a7"/><path d="m269.33 357.95h-26.66s5.12-69.92-26.81-138.25c2.96 6.13 9.08 9.7 15.43 9.7 2.61 0 5.26-.6 7.75-1.87 5.32-2.72 11.14-4.08 16.96-4.08s11.64 1.36 16.96 4.08c8.55 4.37 19.01.82 23.18-7.83-31.93 68.33-26.81 138.25-26.81 138.25z" fill="#ffe5bf"/><path d="m179.28 173.24-22.77 131.71c-1.56 8.97-2.33 18.14-2.37 27.22-.84-.42-1.7-.82-2.57-1.21-24.34-10.9-52.6-27.43-52.6-45.4 0-31.57 39.47-35.31 60.68-56.52 12.7-12.7 6.96-24.7.29-32.29-2.49-2.84-3.73-6.4-3.73-9.97 0-3.4 1.12-6.81 3.34-9.63 4.54-5.77 12.55-7.63 19.08-4.26.22.11.43.23.65.35z" fill="#ffd797"/><g><path d="m295.518 373.88c0 3.127-1.269 5.937-3.308 7.991-2.039 2.039-4.849 3.308-7.976 3.308-3.58 0-6.843 1.45-9.185 3.807-2.357 2.341-3.807 5.589-3.807 9.169 0 4.215-1.707 8.037-4.471 10.786-2.266 2.281-5.272 3.837-8.611 4.305-.695.121-1.42.166-2.16.166-4.2 0-8.021-1.707-10.771-4.471-2.764-2.749-4.471-6.571-4.471-10.786 0-3.58-1.45-6.828-3.807-9.169-2.341-2.357-5.604-3.807-9.185-3.807-3.127 0-5.937-1.269-7.976-3.308-2.039-2.054-3.308-4.864-3.308-7.991 0-20.575 16.677-37.267 37.252-37.267h4.532c10.287 0 19.608 4.169 26.345 10.922 6.738 6.737 10.907 16.057 10.907 26.345z" fill="#516666"/><path d="m258.16 413.246c-.695.121-1.42.166-2.16.166-4.2 0-8.021-1.707-10.771-4.471-2.764-2.749-4.471-6.571-4.471-10.786 0-3.58-1.45-6.828-3.807-9.169-2.341-2.357-5.604-3.807-9.185-3.807-3.127 0-5.937-1.269-7.976-3.308-2.039-2.054-3.308-4.864-3.308-7.991 0-20.575 16.677-37.267 37.252-37.267h4.532s-32.01 25.469-.106 76.633z" fill="#384948"/></g><g><path d="m213.92 245.17c-3.3 16.74-15.44 29.16-29.9 29.16-17 0-30.78-17.16-30.78-38.33 0-12.8 5.03-24.13 12.77-31.09 1.46 2.13 3.09 4.52 4.88 7.05 3.588 5.073 3.536 16.315 8.39 21.466 5.442 5.774 15.946 5.337 22.87 8.534 3.72 1.72 7.65 2.86 11.77 3.21z" fill="#fff9f1"/><path d="m194.92 271.86c-3.39 1.6-7.06 2.48-10.9 2.48-17 0-30.78-17.17-30.78-38.34 0-12.8 5.03-24.13 12.77-31.1 1.459 2.136 3.086 4.532 4.877 7.062 2.015 2.847-3.196 11.215-.772 14.227-1.62 4.65 4.925 4.42 4.925 9.811 0 16.39 8.26 30.37 19.88 35.86z" fill="#f7eadc"/><path d="m202.15 241.96c-1.97 10.94-9.25 19.38-18.29 20.89-.96.17-1.94.25-2.94.25-12.02 0-21.76-12.13-21.76-27.1 0-10.46 4.76-19.53 11.73-24.04 7.61 10.76 18.16 23.95 31.26 30z" fill="#516666"/><path d="m358.76 236c0 21.17-13.78 38.33-30.78 38.33-14.46 0-26.6-12.42-29.9-29.16 4.12-.35 8.05-1.49 11.77-3.21 7.516-3.471 19.019.405 24.783-5.96 4.282-4.728 3.234-19.454 6.477-24.04 1.79-2.53 3.42-4.92 4.88-7.05 7.74 6.96 12.77 18.29 12.77 31.09z" fill="#fff9f1"/><path d="m338.88 271.86c-3.39 1.6-7.07 2.48-10.91 2.48-14.46 0-26.59-12.43-29.89-29.17 3.835-.32 7.5-1.332 10.989-2.859 3.489-1.526 8.089 7.061 11.219 4.686.03 3.691-.81-3.371 0 0 2.752 11.452 9.684 20.652 18.592 24.863z" fill="#f7eadc"/><path d="m352.84 236c0 14.97-9.74 27.1-21.76 27.1-1.13 0-2.23-.11-3.32-.31-8.86-1.69-15.97-10.05-17.91-20.83 13.1-6.05 23.65-19.24 31.26-30 6.97 4.51 11.73 13.58 11.73 24.04z" fill="#516666"/><g fill="#384948"><path d="m327.76 262.79c-8.86-1.69-15.97-10.05-17.91-20.83 3.21-1.48 6.26-3.39 9.16-5.59.07 10.28 3.39 19.6 8.75 26.42z"/><path d="m183.86 262.85c-.96.17-1.94.25-2.94.25-12.02 0-21.76-12.13-21.76-27.1 0-10.46 4.76-19.53 11.73-24.04 2.01 2.85 4.23 5.87 6.66 8.88-1.62 4.64-2.51 9.77-2.51 15.16 0 10.46 3.36 19.94 8.82 26.85z"/></g></g></g></svg>