<svg id="Capa_1" enable-background="new 0 0 512 512" height="512" viewBox="0 0 512 512" width="512" xmlns="http://www.w3.org/2000/svg"><g><path d="m512 256c0 87.057-43.455 163.964-109.857 210.214-41.439 28.863-91.814-16.826-146.143-16.826-53.019 0-102.274 46.494-143.132 18.891-68.096-46.005-112.868-123.913-112.868-212.279 0-141.385 114.615-256 256-256s256 114.615 256 256z" fill="#b75c34"/><path d="m384.843 454.753c-41.44 28.86-74.513 46.023-128.843 46.023s-86.093-10.105-127.533-38.965l-3.388-11.281-6.479-13.6 3.522-11.82 21.31-8.72-9.48-30.94 6.538-21.911 22.125-2.703-8.874-41.707 5.994-20.089 19.086-27.818 152.941-1.412 20.509 29.228 5.99 20.09-1.77 34.541 15.02 9.87 6.54 21.91-6.54 25.437 18.37 14.223 3.52 11.82-5.733 11.046z" fill="#fff9f1"/><path d="m371.51 363.54c-29.27 38.77-65.04 36.81-65.04 36.81s-79.45 2.3-15.72-20.05c39.71-13.93 58.78-41.99 67.51-61.17z" fill="#809ca0"/><path d="m352.27 299.04c-30.18 64.46-79.88 61.73-79.88 61.73s-79.45 2.3-15.71-20.05c51.59-18.09 68.33-60.06 72.84-75.38h12.69z" fill="#809ca0"/><path d="m244.37 265.34-27.412 224.583-2.288 9.441c-38.5-6.24-58.881-22.102-89.591-43.482l-6.483-18.953 3.526-11.818 13.686-16.664-1.854-22.996 6.537-21.911 15.018-12.01-1.768-32.4 5.994-20.089 19.085-27.818z" fill="#f7eadc"/><path d="m140.49 363.54c29.27 38.77 65.04 36.81 65.04 36.81s79.45 2.3 15.72-20.05c-39.71-13.93-58.78-41.99-67.51-61.17z" fill="#617f7f"/><path d="m159.73 299.04c30.18 64.46 79.88 61.73 79.88 61.73s79.45 2.3 15.71-20.05c-51.59-18.09-68.33-60.06-72.84-75.38h-12.69z" fill="#617f7f"/><path d="m402.14 466.21c-41.44 28.86-91.81 45.79-146.14 45.79-14.07 0-27.88-1.14-41.33-3.33-.12-.02-.23-.04-.35-.05-38.36-6.28-73.85-21.09-104.46-42.41l6.01-20.14 2.73-9.14c33.62 9.69 68.02 15.74 102.61 18.17 57.75 4.06 116.04-2 172.19-18.17l2.73 9.14z" fill="#809ca0"/><path d="m221.21 455.1-6.54 53.57c-.12-.02-.23-.04-.35-.05-38.36-6.28-73.85-21.09-104.46-42.41l6.01-20.14 2.73-9.14c33.62 9.69 68.02 15.74 102.61 18.17z" fill="#617f7f"/><g><path d="m321.094 410.808-1.144 22.606c-.945 18.666-19.508 31.773-37.132 25.553-.461-.163-.92-.337-1.376-.524l-7.434-3.042c-11.54-4.722-24.474-4.722-36.014 0l-7.434 3.042c-.457.187-.916.362-1.376.524-17.625 6.22-36.188-6.886-37.132-25.553l-1.144-22.606z" fill="#617f7f"/><path d="m336.07 104.82 28.97 87.5-8.55 47.41-8.217 7.329 6.187 3.951-5.39 29.88c-.18 11.26-5.32 21.87-14.05 28.99-4.45 3.62-7.96 8.16-10.37 13.21-2.4 5.06-3.69 10.65-3.69 16.39v31.55l.02.02-.03-.01c-9.56 4.5-20 7.12-30.79 8.44-.56.07-1.12.13-1.68.19-3.38.37-6.79.62-10.21.76-.71.03-1.41.06-2.11.07-13.62.39-27.42-.83-40.38-2.56-.85-.11-1.69-.23-2.52-.35-3.52-.49-6.97-1.01-10.33-1.54-.77-.12-1.53-.24-2.28-.36-11.17-1.79-21.3-3.63-29.59-4.65l-.02-.01 11.027-31.55c0-11.48-6.009-32.528-14.909-39.778-4.36-3.56-9.796-2.729-12.196-7.679s-11.941-5.504-12.031-11.133l-5.39-29.88 5.678-4.516-7.708-6.764-8.55-47.41 28.97-87.5c-62.78-14.8-74.41-56.27-74.97-83.08-.18-8.75 9.17-14.5 16.89-10.38 12.59 6.73 30.59 11.15 44.21 13.76 11.94 2.29 21.52 11.21 24.71 22.94l10.54 38.69 15.43-3.72 14.08 6.665c8.06-1.95 20.95-14.105 29.18-14.105s20.736 11.402 28.796 13.352l14.464-5.912h.01l15.42 3.72 10.54-38.69c3.19-11.73 12.77-20.65 24.71-22.94 13.62-2.61 31.62-7.03 44.21-13.76 7.72-4.12 17.07 1.63 16.89 10.38-.561 26.81-12.191 68.28-74.971 83.08z" fill="#fff9f1"/><path d="m377.357 200.165h-20.867v-16.102h20.867c4.446 0 8.051 3.605 8.051 8.051 0 4.446-3.605 8.051-8.051 8.051z" fill="#384948"/><path d="m191.051 371.04v-31.56c0-11.48-5.17-22.35-14.06-29.6-4.37-3.56-7.84-7.98-10.24-12.93s-3.73-10.42-3.82-16.05l-5.389-29.89 5.677-4.516-7.71-6.764-8.548-47.409 28.971-87.502c-62.78-14.8-74.41-56.26-74.97-83.08-.18-8.75 9.17-14.5 16.89-10.37 12.6 6.73 30.59 11.14 44.21 13.76 11.94 2.28 21.52 11.2 24.71 22.93l10.54 38.69 17.15-4.14-4.62 109.71.69 88.58c.05 5.63.69 11.1 1.87 16.05 1.17 4.95 2.86 9.37 5 12.93 4.34 7.25 6.87 18.12 6.87 29.6v27.271" fill="#f7eadc"/><path d="m135.6 200.165h20.867v-16.102h-20.867c-4.447 0-8.051 3.605-8.051 8.051 0 4.446 3.605 8.051 8.051 8.051z" fill="#384948"/><g><ellipse cx="163.218" cy="206.891" fill="#516666" rx="14.802" ry="24.495" transform="matrix(.89 -.456 .456 .89 -76.41 97.243)"/><path d="m179.476 222.395c-.984 2.849-2.691 5.068-5.085 6.295-7.278 3.731-18.174-3.008-24.346-15.047s-5.283-24.82 1.995-28.551c2.393-1.227 5.192-1.317 8.08-.453-2.001 5.783-1.04 14.185 3.096 22.252s10.397 13.753 16.26 15.504z" fill="#384948"/></g><g><ellipse cx="348.782" cy="206.891" fill="#516666" rx="24.495" ry="14.802" transform="matrix(.456 -.89 .89 .456 5.56 422.881)"/><path d="m365.04 191.387c-.984-2.849-2.691-5.068-5.085-6.295-7.278-3.731-18.174 3.008-24.346 15.047s-5.283 24.82 1.995 28.551c2.393 1.227 5.192 1.317 8.08.453-2.001-5.783-1.04-14.185 3.096-22.252 4.136-8.068 10.397-13.753 16.26-15.504z" fill="#384948"/></g><path d="m256 351.213c-5.621 0-10.23-4.458-10.417-10.076l-6.232-187.481c-.313-9.411 7.232-17.211 16.648-17.211 9.417 0 16.961 7.8 16.648 17.211l-6.232 187.481c-.185 5.618-4.794 10.076-10.415 10.076z" fill="#809ca0"/><g fill="#6e8c8e"><path d="m116.687 31.955s56.547 10.165 65.657 55.341c0 0-62.494 3.953-65.657-55.341z"/><path d="m395.313 31.955s-56.547 10.165-65.656 55.341c-.001 0 62.493 3.953 65.656-55.341z"/></g><path d="m356.49 239.73-2.03 11.28-15.48 8.92c-8.79 5.07-15.35 13.24-18.39 22.91l-30.43 96.64-3.41 10.82 1.73-10.63 17.13-105.41c2.78-17.12 16.53-30.34 33.75-32.44z" fill="#809ca0"/><path d="m338.3 167.37-27.43 40.56c-3.54 5.23-5.9 11.16-6.93 17.39l-25.67 155.11-2.41 14.58.3-14.51 3.43-163.24c.14-6.82 1.82-13.53 4.89-19.62l16.48-32.64c8.63-17.08 5.45-37.75-7.92-51.45l-37.04-37.96c8.23 0 16.46.97 24.52 2.92l18.74 4.52h.01l35.38 37.87c11.91 12.74 13.43 32.03 3.65 46.47z" fill="#809ca0"/><path d="m225.25 390.3-4.6-14.61-29.24-92.85c-3.04-9.67-9.6-17.84-18.39-22.91l-15.48-8.92-2.03-11.28 17.13 2.09c17.22 2.1 30.97 15.32 33.75 32.44l16.54 101.79z" fill="#6e8c8e"/><path d="m235.78 377.94.36 17.07-2.88-17.42-23.06-139.35-2.14-12.92c-1.03-6.23-3.39-12.16-6.93-17.39l-27.43-40.56c-9.77-14.44-8.26-33.73 3.65-46.47l35.39-37.87 1.72-.41v-.01l17.02-4.1c8.06-1.95 16.29-2.92 24.52-2.92l-37.04 37.96c-2.37 2.42-4.42 5.07-6.13 7.87-7.98 13.01-8.89 29.45-1.84 43.49.02.03.03.06.05.09l16.48 32.64c3.07 6.09 4.75 12.8 4.89 19.62z" fill="#809ca0"/><path d="m321.09 418.43-1.65 1.17c-4.98 10.75-15.64 17.14-26.83 17.14-3.73 0-7.51-.71-11.17-2.21l-7.43-3.05c-11.54-4.72-24.48-4.72-36.02 0l-6 2.46-1.43.59c-14.62 5.98-31.36-.6-38-14.93l-1.65-1.17c-14.47-10.23-16.25-31.02-3.72-43.54l3.85-3.86.02.01c10.81-4.28 21.93-7.45 33.21-9.51 18.65-3.42 37.72-3.79 56.47-1.14 13.67 1.94 27.17 5.49 40.21 10.65l.03.01 3.83 3.84c12.53 12.52 10.75 33.31-3.72 43.54z" fill="#6e8c8e"/><path d="m231.99 433.94-1.43.59c-14.62 5.98-31.36-.6-38-14.93l-1.65-1.17c-14.47-10.23-16.25-31.02-3.72-43.54l3.85-3.86.02.01c10.81-4.28 21.93-7.45 33.21-9.51v5.22c0 2.82-.65 5.61-1.89 8.14-2.75 5.63-4.09 12.92-4.09 20.18 0 8.89 2.02 17.73 5.91 23.36l.81 1.17c1.48 6.56 4 11.49 6.98 14.34z" fill="#617f7f"/><ellipse cx="211.289" cy="400.321" fill="#384948" rx="12.736" ry="19.982" transform="matrix(.617 -.787 .787 .617 -234.128 319.672)"/><ellipse cx="298.612" cy="400.321" fill="#384948" rx="19.982" ry="12.736" transform="matrix(.787 -.617 .617 .787 -183.362 269.448)"/><path d="m212.83 121.42c-7.98 13.01-8.89 29.45-1.84 43.49l-1.15 27.41.36 45.92-2.14-12.92c-1.03-6.23-3.39-12.16-6.93-17.39l-27.43-40.56c-9.77-14.44-8.26-33.73 3.65-46.47l35.39-37.87 1.72-.41z" fill="#6e8c8e"/></g><path d="m389.88 425.11c-14.96 1.52-30.07-.58-40.92-2.88-5.66-1.2-6.9-8.71-1.94-11.7 15.76-9.51 25.66-19.03 31.03-25.08l9.23 30.94z" fill="#809ca0"/><path d="m122.12 425.11c14.96 1.52 30.07-.58 40.92-2.88 5.66-1.2 6.9-8.71 1.94-11.7-15.76-9.51-25.66-19.03-31.03-25.08l-9.23 30.94z" fill="#617f7f"/><path d="m266.347 0h-20.694c-7.616 0-13.655 6.422-13.188 14.023l5.102 83.01c.389 6.335 5.64 11.273 11.987 11.273h12.891c6.347 0 11.598-4.938 11.987-11.273l5.102-83.01c.468-7.601-5.571-14.023-13.187-14.023z" fill="#516666"/><path d="m263.225 108.283c-.26.02-.52.03-.78.03h-12.89c-6.34 0-11.59-4.94-11.98-11.28l-5.11-83.01c-.46-7.6 5.58-14.02 13.19-14.02h14.45c-7.61 0-13.65 6.42-13.18 14.02l5.1 83.01c.37 6.08 5.21 10.87 11.2 11.25z" fill="#384948"/></g></svg>