<?xml version="1.0" encoding="UTF-8"?>
<svg id="Signature" xmlns="http://www.w3.org/2000/svg" viewBox="0 0 249.6 73.16">
  <path d="M15.36,37.37c0,.22-.08.42-.23.61-.16.19-.34.28-.56.28h-.09c-1.81-.72-3.51-1.72-5.09-3-1.58-1.28-2.9-2.75-3.96-4.41-.09-.38-.14-.75-.14-1.12,0-.66.12-1.25.38-1.78.25-.53.59-1.05,1.03-1.55.34-.38.7-.74,1.08-1.1.38-.36.73-.71,1.08-1.05.19-.19.52-.5,1.01-.94.48-.44,1.01-.87,1.57-1.31.56-.44,1.1-.85,1.62-1.24.52-.39.88-.63,1.1-.73l.19-.05c.19,0,.37.09.54.26.17.17.26.35.26.54,0,.16-.06.28-.19.38-.25.25-.5.48-.75.7-.25.22-.5.45-.75.7l-1.57,1.57c-.52.52-1.02,1.04-1.52,1.57-.19.19-.44.45-.75.8-.31.34-.62.7-.91,1.08-.3.38-.56.75-.77,1.12-.22.38-.33.7-.33.98,0,.22.19.54.59.96.39.42.87.88,1.43,1.38.56.5,1.19,1.02,1.88,1.57.69.55,1.31,1.07,1.88,1.57.56.5,1.04.95,1.43,1.34.39.39.59.68.59.87Z" style="stroke: #000; stroke-miterlimit: 10;"/>
  <path d="M77,43.6c0,.16-.08.31-.23.47-.38.34-.86.72-1.45,1.12-.59.41-1.22.79-1.88,1.15-.66.36-1.31.66-1.97.91-.66.25-1.23.38-1.73.38-.63,0-1.18-.12-1.66-.38-.48-.25-.91-.59-1.29-1.01s-.67-.9-.89-1.43c-.22-.53-.36-1.08-.42-1.64-.06-.59-.12-1.18-.19-1.76-.06-.58-.09-1.16-.09-1.76,0-1.5.16-3.24.47-5.23.31-1.98.7-4.02,1.17-6.09.47-2.08.98-4.09,1.55-6.05.56-1.95,1.11-3.65,1.64-5.09-.72,1.16-1.45,2.3-2.18,3.42-.73,1.12-1.48,2.23-2.23,3.33-.66,1-1.33,2-2.02,3-.69,1-1.41,1.98-2.18,2.95-.77.97-1.58,1.88-2.44,2.72-.86.84-1.79,1.59-2.79,2.25-.06.03-.16.05-.28.05-.16,0-.31-.06-.47-.19-.16-.12-.27-.27-.33-.42l-.05.05s-.05-.02-.05-.05-.02-.06-.05-.09c-.31-.91-.54-1.84-.68-2.81-.14-.97-.24-1.94-.3-2.91-.06-.94-.12-1.88-.16-2.81s-.1-1.88-.16-2.81c-.12-1.69-.24-3.38-.35-5.09-.11-1.7-.24-3.41-.4-5.13-1.06,2.66-2.05,5.33-2.95,8.02-.91,2.69-1.88,5.38-2.91,8.06-.75,1.94-1.58,3.83-2.48,5.67-.91,1.84-1.98,3.59-3.23,5.25-.66.84-1.39,1.62-2.2,2.34-.81.72-1.69,1.34-2.62,1.88s-1.93.94-2.98,1.24c-1.05.3-2.1.45-3.16.45-.16,0-.3-.08-.42-.23-.12-.16-.19-.31-.19-.47,0-.38.17-.59.52-.66.66-.16,1.27-.29,1.85-.4.58-.11,1.18-.29,1.8-.54,1.47-.66,2.76-1.56,3.87-2.72,1.11-1.16,2.1-2.44,2.98-3.84.87-1.41,1.63-2.88,2.27-4.41.64-1.53,1.23-3,1.76-4.41.47-1.25.91-2.52,1.31-3.8.41-1.28.82-2.55,1.24-3.82s.87-2.52,1.36-3.77c.48-1.25,1.05-2.47,1.71-3.66-.88.53-1.77,1.01-2.67,1.43-.91.42-1.8.9-2.67,1.43-.66.38-1.31.79-1.97,1.24-.66.45-1.28.95-1.88,1.5-.59.55-1.13,1.13-1.62,1.76-.48.63-.87,1.3-1.15,2.02-.12.31-.22.62-.28.91-.06.3-.14.6-.23.91-.03.16-.11.27-.23.35-.12.08-.25.12-.38.12s-.28-.06-.47-.19c-.19-.12-.28-.25-.28-.38,0-1.16.2-2.23.61-3.23.41-1,.95-1.93,1.64-2.79.69-.86,1.46-1.65,2.32-2.37.86-.72,1.74-1.36,2.65-1.92,1.44-.91,2.95-1.79,4.55-2.65,1.59-.86,3.19-1.55,4.78-2.09h.09c.31,0,.55.12.7.38.09.06.16.16.19.28.03.12.02.23-.05.33.53,2.09.94,4.21,1.22,6.35.28,2.14.53,4.29.75,6.45.16,1.56.3,3.1.45,4.62.14,1.52.16,3.05.07,4.62,1.19-1.56,2.39-3.1,3.61-4.62,1.22-1.52,2.37-3.07,3.47-4.66,1.22-1.75,2.42-3.48,3.61-5.18,1.19-1.7,2.41-3.4,3.66-5.09.44-.56.88-1.14,1.34-1.73.45-.59.91-1.16,1.38-1.69.12-.12.27-.19.42-.19.19,0,.39.1.61.3.22.2.33.4.33.59v.09c-.97,3.5-2.03,6.94-3.19,10.31-1.16,3.38-2.14,6.84-2.95,10.41-.38,1.69-.71,3.37-1.01,5.04-.3,1.67-.45,3.35-.45,5.04,0,.44.02.95.05,1.55.03.59.12,1.16.28,1.71.16.55.4,1.01.73,1.38s.8.56,1.43.56c.56,0,1.19-.15,1.88-.45.69-.3,1.35-.63,1.99-1.01.64-.38,1.2-.71,1.66-1.01.47-.3.75-.45.84-.45.19,0,.36.08.52.23.16.16.23.33.23.52Z" style="stroke: #000; stroke-miterlimit: 10;"/>
  <path d="M94.95,27.34c0,1.19-.13,2.48-.4,3.89-.27,1.41-.66,2.81-1.2,4.22-.53,1.41-1.18,2.77-1.95,4.1-.77,1.33-1.64,2.51-2.62,3.54s-2.08,1.85-3.28,2.46c-1.2.61-2.49.91-3.87.91-1.03,0-1.92-.27-2.67-.82-.75-.55-1.38-1.24-1.9-2.09s-.9-1.76-1.15-2.74c-.25-.98-.38-1.91-.38-2.79,0-1.03.14-2.05.42-3.05.87-2.88,2.28-5.44,4.22-7.69,1.94-2.25,4.3-3.94,7.08-5.06.06-.03.14-.05.23-.05.22,0,.38.08.49.23.11.16.16.33.16.52,0,.22-.12.41-.38.56-.44.25-.88.49-1.31.73-.44.23-.88.52-1.31.87-1.72,1.25-3.19,2.8-4.41,4.64-1.22,1.84-2.14,3.78-2.77,5.81-.22.66-.33,1.39-.33,2.2,0,.66.09,1.36.28,2.11s.47,1.45.84,2.09c.38.64.85,1.17,1.43,1.59.58.42,1.26.63,2.04.63.5,0,.98-.09,1.43-.28.45-.19.88-.42,1.29-.7,1.19-.84,2.25-1.94,3.19-3.28.94-1.34,1.73-2.79,2.39-4.34s1.16-3.12,1.5-4.73c.34-1.61.52-3.13.52-4.57v-.56c-.06-.81-.34-1.5-.82-2.06-.48-.56-1.09-1.02-1.8-1.36-.22-.09-.43-.17-.63-.23-.2-.06-.4-.14-.59-.23-.31-.12-.47-.34-.47-.66,0-.22.06-.41.19-.56.12-.16.3-.22.52-.19h.05c.69.06,1.37.22,2.04.47.67.25,1.27.59,1.8,1.03.53.44.98.95,1.34,1.55.36.59.59,1.27.68,2.02.06.31.09.62.09.91v.96Z" style="stroke: #000; stroke-miterlimit: 10;"/>
  <path d="M147.12,12.66c0,1.12-.27,2.17-.8,3.14-1.19,2.13-2.7,3.98-4.52,5.55-1.83,1.58-3.82,2.9-5.98,3.96,2.03.34,3.64,1.22,4.83,2.62,1.19,1.41,1.78,3.14,1.78,5.2,0,1.69-.34,3.29-1.03,4.8-.69,1.52-1.62,2.85-2.79,4.01-1.17,1.16-2.52,2.07-4.05,2.74-1.53.67-3.14,1.01-4.83,1.01s-3.3-.27-4.83-.82c-1.53-.55-3-1.27-4.41-2.18-.25-.16-.5-.32-.75-.49-.25-.17-.5-.35-.75-.54-.16-.09-.23-.23-.23-.42,0-.06.03-.16.09-.28-1.31,1.38-2.81,2.49-4.5,3.35s-3.47,1.29-5.34,1.29c-.19,0-.34-.08-.45-.23-.11-.16-.16-.31-.16-.47,0-.38.17-.59.52-.66.62-.16,1.23-.29,1.8-.4.58-.11,1.18-.3,1.8-.59,1.47-.66,2.77-1.56,3.89-2.72,1.12-1.16,2.12-2.44,3-3.84.87-1.41,1.63-2.88,2.27-4.43.64-1.55,1.23-3.02,1.76-4.43.47-1.25.91-2.51,1.31-3.77.41-1.27.82-2.53,1.24-3.8s.87-2.52,1.36-3.75c.48-1.23,1.04-2.44,1.66-3.63-.88.53-1.77,1-2.67,1.41-.91.41-1.78.88-2.62,1.41-1.31.81-2.61,1.76-3.89,2.84-1.28,1.08-2.2,2.35-2.77,3.82-.12.31-.22.61-.28.89-.06.28-.12.56-.19.84-.09.28-.3.42-.61.42-.12,0-.29-.05-.49-.16-.2-.11-.3-.23-.3-.35,0-1.28.27-2.48.8-3.61.53-1.12,1.23-2.17,2.11-3.14.87-.97,1.88-1.86,3.02-2.67,1.14-.81,2.32-1.56,3.54-2.25,1.22-.69,2.44-1.3,3.66-1.85,1.22-.55,2.33-1.04,3.33-1.48.06-.03.12-.06.16-.09.05-.03.1-.05.16-.05.19,0,.38.07.56.21s.28.32.28.54c0,.03-.08.25-.23.66-.16.41-.34.85-.56,1.34-.22.48-.42.95-.61,1.38-.19.44-.3.72-.33.84.69-.62,1.48-1.26,2.37-1.9.89-.64,1.83-1.23,2.81-1.76.98-.53,1.98-.97,3-1.31,1.02-.34,2.01-.52,2.98-.52,1.38,0,2.53.37,3.47,1.1.94.73,1.41,1.8,1.41,3.21ZM144.78,12.66c0-.81-.27-1.36-.82-1.64-.55-.28-1.18-.42-1.9-.42-1.03,0-2.1.2-3.21.61-1.11.41-2.2.92-3.26,1.55-1.06.63-2.08,1.31-3.05,2.04-.97.73-1.83,1.43-2.58,2.09-.72,1.97-1.42,3.94-2.11,5.91-.69,1.97-1.41,3.94-2.16,5.91-.75,1.94-1.58,3.84-2.48,5.7-.91,1.86-2,3.62-3.28,5.27-.19.28-.42.56-.7.84.06-.03.16-.05.28-.05.06,0,.16.03.28.09,1.47.84,2.96,1.58,4.48,2.2,1.52.63,3.13.94,4.85.94,1.38,0,2.71-.27,4.01-.8,1.3-.53,2.44-1.27,3.45-2.2,1-.94,1.8-2.02,2.41-3.26.61-1.23.91-2.55.91-3.96,0-1.28-.24-2.32-.73-3.12-.48-.8-1.12-1.43-1.92-1.9s-1.7-.8-2.72-.98c-1.02-.19-2.06-.3-3.12-.33-.06.03-.16.07-.28.12-.12.05-.27.09-.42.14-.16.05-.3.09-.42.12-.12.03-.2.05-.23.05-.25,0-.44-.09-.56-.26-.12-.17-.19-.37-.19-.59,0-.28.16-.48.47-.61.09-.25.22-.38.38-.4.16-.02.31-.05.47-.12.31-.12.68-.33,1.1-.61s.79-.5,1.1-.66c.91-.53,1.82-1.09,2.74-1.66.92-.58,1.84-1.18,2.74-1.8.56-.41,1.21-.92,1.95-1.55.73-.62,1.44-1.31,2.11-2.06.67-.75,1.24-1.52,1.71-2.32s.7-1.55.7-2.27Z" style="stroke: #000; stroke-miterlimit: 10;"/>
  <path d="M163.25,24.66c0,.78-.19,1.55-.56,2.32-.38.77-.85,1.49-1.43,2.18-.58.69-1.21,1.31-1.9,1.88-.69.56-1.33,1.05-1.92,1.45-.91.63-1.85,1.2-2.84,1.73-.98.53-2.06.8-3.21.8-.25,0-.52-.03-.82-.09-.3-.06-.45-.27-.45-.61,0-.44.2-.7.61-.8.09-.03.2-.05.33-.05s.25-.02.38-.05c.34-.06.68-.17,1.01-.33.33-.16.66-.33,1.01-.52.53-.34,1.2-.83,2.02-1.45.81-.62,1.61-1.31,2.39-2.06.78-.75,1.45-1.52,1.99-2.3.55-.78.82-1.52.82-2.2,0-.44-.23-.66-.7-.66-.19,0-.38.03-.56.09-.19.06-.38.12-.56.19-1.5.5-2.88,1.26-4.12,2.27-1.25,1.02-2.33,2.2-3.23,3.54-.91,1.34-1.62,2.78-2.13,4.31-.52,1.53-.77,3.06-.77,4.59,0,.5.04,1.07.12,1.71.08.64.23,1.24.47,1.8s.55,1.04.96,1.43c.41.39.94.59,1.59.59.25,0,.48-.04.7-.12.22-.08.44-.18.66-.3.84-.47,1.62-1.1,2.34-1.9.72-.8,1.36-1.6,1.92-2.41.16-.19.3-.39.45-.61.14-.22.29-.44.45-.66.09-.16.25-.23.47-.23.19,0,.37.06.54.19.17.12.26.3.26.52,0,.06-.03.16-.09.28-.38.69-.84,1.45-1.41,2.27-.56.83-1.19,1.6-1.88,2.32-.69.72-1.43,1.32-2.23,1.8-.8.48-1.63.73-2.51.73-.97,0-1.77-.27-2.41-.82-.64-.55-1.15-1.22-1.52-2.02s-.64-1.66-.8-2.58c-.16-.92-.23-1.76-.23-2.51,0-2.37.5-4.65,1.5-6.82,1-2.17,2.34-4.09,4.03-5.74.5-.5,1.08-1.01,1.73-1.52s1.35-.98,2.09-1.41c.73-.42,1.48-.77,2.25-1.03.77-.27,1.51-.4,2.23-.4.91,0,1.63.3,2.18.91.55.61.82,1.37.82,2.27Z" style="stroke: #000; stroke-miterlimit: 10;"/>
  <path d="M175.11,39.2c0,.16-.05.28-.14.38-.59.72-1.16,1.43-1.71,2.13-.55.7-1.12,1.35-1.73,1.95s-1.29,1.1-2.04,1.52-1.61.73-2.58.91c-.84-.38-1.42-.87-1.73-1.48-.31-.61-.47-1.35-.47-2.23v-1.69c0-.81.09-1.66.26-2.53.17-.87.35-1.72.54-2.53.28-1.22.6-2.53.96-3.94.36-1.41.78-2.8,1.27-4.2.48-1.39,1.04-2.73,1.66-4.03.62-1.3,1.33-2.43,2.11-3.4.16-.16.31-.23.47-.23.19,0,.38.07.56.21s.28.32.28.54v.09c-.53,1.66-1.13,3.4-1.8,5.23-.67,1.83-1.31,3.69-1.92,5.58-.61,1.89-1.12,3.77-1.55,5.65s-.63,3.69-.63,5.44c0,.19,0,.45.02.8.02.34.12.56.3.66.69-.12,1.41-.48,2.18-1.08.77-.59,1.48-1.22,2.16-1.88.67-.66,1.26-1.25,1.76-1.78.5-.53.84-.8,1.03-.8.16,0,.32.08.49.23.17.16.26.31.26.47ZM175.44,9.29c0,.19-.08.41-.23.66l-.05.14c.06.19.09.33.09.42-.22.16-.38.32-.47.49-.09.17-.31.26-.66.26-.28,0-.56-.12-.84-.35s-.42-.52-.42-.87c0-.56.05-1.02.16-1.38.11-.36.52-.54,1.24-.54.28,0,.55.12.8.38.25.25.38.52.38.8Z" style="stroke: #000; stroke-miterlimit: 10;"/>
  <path d="M194.28,22.84c0,.06-.03.16-.09.28-.06.53-.12,1.04-.16,1.52-.05.48-.12.98-.21,1.48-.16,1.03-.33,2.05-.52,3.05-.19,1-.39,2-.61,3-.78,3.59-1.74,7.12-2.88,10.59-1.14,3.47-2.4,6.91-3.77,10.31-.5,1.22-1.02,2.44-1.57,3.68-.55,1.23-1.16,2.44-1.83,3.61-.67,1.17-1.41,2.29-2.23,3.35-.81,1.06-1.73,2.03-2.77,2.91-1.44,1.28-3.09,1.92-4.97,1.92-1,0-1.97-.17-2.91-.52-.94-.34-1.81-.8-2.62-1.38-.81-.58-1.54-1.27-2.18-2.06-.64-.8-1.13-1.65-1.48-2.55-.03-.03-.05-.11-.05-.23,0-.19.08-.34.23-.47.16-.12.33-.19.52-.19.22,0,.41.11.56.33.16.28.3.56.45.84s.32.55.54.8c.81,1,1.8,1.84,2.98,2.51,1.17.67,2.4,1.01,3.68,1.01,1.47,0,2.77-.52,3.89-1.55.87-.78,1.7-1.73,2.48-2.86.78-1.12,1.52-2.34,2.23-3.66s1.36-2.69,1.97-4.12c.61-1.44,1.17-2.87,1.69-4.29.52-1.42.99-2.81,1.43-4.15.44-1.34.84-2.58,1.22-3.7-1.12,1.09-2.34,1.95-3.66,2.58-1.31.62-2.77.94-4.36.94h-.14c-.06,0-.11-.02-.14-.05-.72-.16-1.32-.44-1.8-.84-.48-.41-.88-.88-1.17-1.43-.3-.55-.51-1.14-.63-1.78-.12-.64-.19-1.29-.19-1.95,0-1.88.27-3.73.82-5.58.55-1.84,1.37-3.55,2.46-5.11.69-.94,1.47-1.85,2.34-2.74.87-.89,1.83-1.67,2.86-2.34,1.03-.67,2.12-1.22,3.28-1.64,1.16-.42,2.34-.63,3.56-.63.19,0,.48.02.89.05.41.03.82.09,1.24.16.42.08.8.2,1.12.35.33.16.49.34.49.56ZM192.64,23.4c-.47-.12-1-.19-1.59-.19-1.09,0-2.17.2-3.23.61-1.06.41-2.06.95-3,1.62-.94.67-1.8,1.43-2.58,2.27-.78.84-1.47,1.69-2.06,2.53-.88,1.31-1.54,2.77-1.99,4.36-.45,1.59-.68,3.19-.68,4.78,0,.34.02.75.07,1.22s.14.91.28,1.34.36.78.66,1.08c.3.3.68.45,1.15.45.97,0,1.91-.23,2.84-.7.92-.47,1.77-1.06,2.55-1.78.78-.72,1.48-1.52,2.09-2.41s1.1-1.74,1.48-2.55c.94-2.03,1.69-4.11,2.27-6.23.58-2.12,1.16-4.25,1.76-6.38Z" style="stroke: #000; stroke-miterlimit: 10;"/>
  <path d="M207.83,39.2c0,.16-.05.28-.14.38-.59.72-1.16,1.43-1.71,2.13-.55.7-1.12,1.35-1.73,1.95s-1.29,1.1-2.04,1.52-1.61.73-2.58.91c-.84-.38-1.42-.87-1.73-1.48-.31-.61-.47-1.35-.47-2.23v-1.69c0-.81.09-1.66.26-2.53.17-.87.35-1.72.54-2.53.28-1.22.6-2.53.96-3.94.36-1.41.78-2.8,1.27-4.2.48-1.39,1.04-2.73,1.66-4.03.62-1.3,1.33-2.43,2.11-3.4.16-.16.31-.23.47-.23.19,0,.38.07.56.21s.28.32.28.54v.09c-.53,1.66-1.13,3.4-1.8,5.23-.67,1.83-1.31,3.69-1.92,5.58-.61,1.89-1.12,3.77-1.55,5.65s-.63,3.69-.63,5.44c0,.19,0,.45.02.8.02.34.12.56.3.66.69-.12,1.41-.48,2.18-1.08.77-.59,1.48-1.22,2.16-1.88.67-.66,1.26-1.25,1.76-1.78.5-.53.84-.8,1.03-.8.16,0,.32.08.49.23.17.16.26.31.26.47ZM208.16,9.29c0,.19-.08.41-.23.66l-.05.14c.06.19.09.33.09.42-.22.16-.38.32-.47.49-.09.17-.31.26-.66.26-.28,0-.56-.12-.84-.35s-.42-.52-.42-.87c0-.56.05-1.02.16-1.38.11-.36.52-.54,1.24-.54.28,0,.55.12.8.38.25.25.38.52.38.8Z" style="stroke: #000; stroke-miterlimit: 10;"/>
  <path d="M242.7,9.1c-1.16,3.06-2.58,5.96-4.27,8.7-1.69,2.73-3.45,5.45-5.3,8.13-1.59,2.34-3.25,4.62-4.97,6.84-1.72,2.22-3.5,4.41-5.34,6.56-.63.75-1.26,1.49-1.9,2.23-.64.73-1.3,1.46-1.99,2.18-.09.12-.23.19-.42.19s-.36-.08-.52-.23-.23-.33-.23-.52c0-.16.03-.27.09-.33.72-.97,1.45-1.93,2.2-2.88.75-.95,1.48-1.93,2.2-2.93,1.56-2.06,3.08-4.12,4.55-6.16,1.47-2.05,2.92-4.15,4.36-6.3,1.19-1.78,2.33-3.59,3.42-5.44,1.09-1.84,2.2-3.67,3.33-5.48.53-.87,1.09-1.75,1.66-2.62.58-.87,1.18-1.7,1.8-2.48.16-.16.31-.23.47-.23.25,0,.45.08.59.23.14.16.23.34.26.56Z" style="stroke: #000; stroke-miterlimit: 10;"/>
  <path d="M249.08,29.77c0,.19,0,.37-.02.54-.02.17-.04.35-.07.54-1.09,1.69-2.43,3.15-4.01,4.38-1.58,1.23-3.32,2.16-5.23,2.79l-.09.05c-.19,0-.37-.1-.54-.3-.17-.2-.26-.4-.26-.59,0-.16.19-.42.59-.8.39-.38.84-.77,1.36-1.2s1.02-.81,1.5-1.17c.48-.36.8-.6.96-.73.59-.44,1.23-.96,1.92-1.57.69-.61,1.22-1.23,1.59-1.85.03-.03.05-.09.05-.19,0-.25-.11-.56-.33-.94-.22-.38-.48-.75-.8-1.12-.31-.38-.63-.73-.94-1.08-.31-.34-.56-.61-.75-.8-.53-.53-1.05-1.05-1.57-1.55-.52-.5-1.04-.98-1.57-1.45-.25-.25-.52-.48-.8-.7-.28-.22-.55-.45-.8-.7-.12-.12-.19-.25-.19-.38,0-.19.09-.37.28-.54.19-.17.38-.26.56-.26h.05s.05,0,.05.02.02.02.05.02c.22.12.59.37,1.12.73.53.36,1.08.76,1.64,1.2.56.44,1.09.86,1.59,1.27.5.41.84.7,1.03.89.34.34.71.7,1.1,1.05.39.36.76.73,1.1,1.1.44.47.78.98,1.03,1.52.25.55.38,1.15.38,1.8Z" style="stroke: #000; stroke-miterlimit: 10;"/>
</svg>