<?xml version="1.0" standalone="no"?>
<!DOCTYPE svg PUBLIC "-//W3C//DTD SVG 20010904//EN"
 "http://www.w3.org/TR/2001/REC-SVG-20010904/DTD/svg10.dtd">
<svg version="1.0" xmlns="http://www.w3.org/2000/svg"
 width="1024.000000pt" height="1024.000000pt" viewBox="0 0 1024.000000 1024.000000"
 preserveAspectRatio="xMidYMid meet">
<metadata>
Created by potrace 1.14, written by Peter Selinger 2001-2017
</metadata>
<g transform="translate(0.000000,1024.000000) scale(0.100000,-0.100000)"
fill="#000000" stroke="none">
<path d="M5155 10054 c-11 -1 -81 -8 -155 -14 -326 -28 -418 -46 -555 -110
-33 -15 -125 -54 -205 -86 -297 -119 -409 -187 -565 -341 -111 -110 -243 -252
-257 -277 -12 -21 -103 -107 -134 -126 -20 -12 -28 -12 -44 -2 -14 8 -20 9
-20 1 0 -18 -162 -171 -197 -186 -18 -7 -62 -42 -98 -78 -36 -36 -69 -65 -75
-65 -5 0 -17 -14 -26 -32 -9 -17 -20 -36 -25 -42 -45 -57 -57 -76 -67 -111
-25 -88 -82 -248 -94 -262 -6 -8 -21 -12 -33 -9 -19 5 -23 -2 -40 -72 -10 -42
-27 -91 -37 -108 -10 -17 -18 -50 -18 -72 0 -23 -7 -59 -15 -79 -10 -27 -16
-93 -19 -218 -2 -100 -11 -213 -19 -255 -32 -159 -37 -182 -42 -191 -11 -16
-52 -243 -81 -444 -28 -193 -23 -1014 8 -1145 5 -25 11 -80 13 -123 3 -79 19
-187 36 -243 5 -17 9 -53 9 -80 0 -27 5 -67 10 -88 10 -47 -6 -95 -40 -119
-24 -17 -23 -20 20 -77 42 -56 58 -107 69 -230 28 -312 31 -360 25 -384 -7
-30 -8 -30 -34 -14 -16 10 -24 10 -40 0 -11 -6 -27 -12 -36 -12 -10 0 -33 -18
-54 -39 l-36 -40 2 -103 c2 -123 9 -147 52 -183 46 -38 68 -28 135 60 29 38
60 71 69 73 11 2 20 -14 34 -65 25 -92 30 -54 7 55 -21 102 -24 399 -5 473 7
24 14 76 17 114 3 39 7 90 10 115 3 25 10 106 15 180 6 74 12 153 15 175 3 22
10 85 16 140 13 123 28 195 40 195 12 0 21 23 49 120 12 41 29 87 36 102 8 14
14 38 14 51 0 14 4 28 8 31 5 3 12 56 15 118 4 62 10 152 13 199 4 48 3 104
-1 125 -7 37 -8 37 -15 14 -6 -17 -8 -2 -9 47 -1 39 3 74 8 77 5 3 16 36 26
73 9 38 21 76 26 85 12 24 11 48 -2 48 -9 0 -10 26 -5 93 14 191 35 284 82
365 30 51 27 76 -4 42 -32 -34 -47 -15 -27 33 8 20 15 44 15 53 0 9 10 36 21
60 18 35 28 43 57 49 30 5 39 3 52 -15 9 -12 32 -25 51 -29 22 -5 33 -13 30
-22 -2 -8 -5 -21 -6 -29 -5 -33 -18 -76 -28 -87 -6 -9 -5 -18 3 -28 20 -24 28
-18 41 28 6 23 15 47 21 54 5 7 7 16 4 22 -3 5 -3 16 0 25 7 18 49 22 60 5 5
-9 56 -9 89 0 27 8 265 0 265 -9 0 -12 -17 -15 -150 -30 -58 -7 -112 -14 -120
-17 -41 -12 31 -21 229 -27 273 -9 360 -20 431 -56 65 -33 206 -60 310 -60
106 0 118 -14 26 -30 -80 -14 -216 -10 -421 10 -67 7 -199 10 -300 8 -313 -7
-268 -41 70 -53 99 -3 261 -15 360 -26 143 -16 213 -19 340 -14 279 11 327 19
430 70 50 25 105 56 124 70 39 29 45 28 35 -9 -5 -20 -13 -26 -33 -26 l-26 -1
24 -19 c13 -11 28 -20 33 -20 5 0 35 25 67 55 60 57 82 65 107 41 16 -17 105
-52 182 -72 35 -9 107 -14 209 -14 86 0 153 -3 149 -7 -8 -8 -16 -9 -78 -12
-26 -1 -30 -4 -18 -11 9 -6 44 -8 85 -4 39 3 108 1 153 -5 52 -7 91 -7 101 -2
10 6 23 6 32 0 12 -7 11 -9 -2 -9 -9 0 -19 -7 -23 -15 -5 -15 0 -17 72 -29 19
-3 45 -15 59 -26 16 -12 34 -18 45 -15 12 4 18 1 18 -9 0 -8 13 -29 30 -46 24
-24 28 -36 23 -60 -4 -25 -2 -30 13 -30 25 -1 58 -22 62 -39 2 -8 -1 -26 -7
-42 -8 -23 -7 -27 5 -22 8 3 14 18 14 33 0 35 20 51 21 18 1 -13 2 -27 4 -33
1 -5 3 -17 3 -25 2 -18 19 -2 25 25 2 11 4 8 2 -7 -1 -15 2 -29 7 -30 4 -2 10
-84 14 -183 5 -142 3 -203 -10 -289 -9 -60 -14 -111 -12 -114 34 -33 115 157
117 273 0 28 4 59 8 70 11 27 21 -37 21 -131 0 -54 4 -73 15 -78 24 -9 37 63
33 185 -4 147 6 145 28 -4 4 -20 10 -40 15 -43 5 -3 9 -14 9 -24 0 -11 9 -24
20 -30 16 -9 18 -15 9 -37 -8 -22 -7 -30 5 -39 9 -6 16 -17 16 -24 0 -7 14
-29 30 -50 30 -38 30 -39 10 -53 -23 -16 -36 -112 -18 -134 13 -16 60 -17 76
-1 9 9 12 9 12 0 0 -7 -4 -12 -10 -12 -5 0 -10 -9 -10 -21 0 -15 6 -20 23 -19
12 1 25 1 30 0 4 -1 13 -3 20 -4 8 -1 12 -16 11 -43 -2 -46 14 -60 47 -43 15
9 19 7 19 -5 0 -10 21 -26 53 -41 34 -15 58 -34 65 -49 7 -15 30 -34 54 -45
24 -10 37 -19 31 -19 -7 -1 -13 -8 -13 -17 0 -11 -8 -14 -27 -12 -16 2 -27 8
-26 16 3 14 -6 15 -26 3 -11 -7 -7 -13 17 -25 35 -18 62 -21 62 -6 0 15 37 12
43 -4 4 -9 -3 -16 -19 -20 -13 -4 -24 -11 -24 -16 0 -14 -21 -12 -54 5 -15 8
-50 15 -77 15 -51 0 -72 16 -46 35 12 9 14 14 5 23 -26 26 -41 14 -34 -28 5
-32 3 -40 -9 -40 -9 0 -12 -6 -9 -15 8 -20 5 -20 -57 15 -65 36 -71 37 -64 7
6 -22 4 -23 -25 -19 -17 2 -42 -1 -56 -8 -19 -11 -35 -11 -81 -1 -32 7 -83 15
-113 17 -52 4 -54 4 -30 -10 14 -9 23 -16 20 -16 -23 -5 -333 -32 -360 -31
-19 0 -40 -5 -46 -10 -7 -6 -25 -12 -40 -15 -16 -3 -34 -10 -41 -16 -7 -6 -19
-8 -28 -4 -8 3 -14 0 -12 -7 1 -8 -9 -11 -30 -9 -17 2 -34 -2 -38 -7 -3 -6
-14 -11 -23 -11 -9 0 -26 -11 -37 -24 -11 -13 -29 -25 -40 -27 -14 -3 -23 -16
-29 -47 -9 -37 -26 -59 -26 -32 0 5 -14 23 -32 40 -29 28 -32 29 -49 14 -10
-9 -15 -22 -12 -30 7 -20 -14 -18 -25 2 -15 27 -31 13 -20 -16 16 -39 17 -82
3 -96 -7 -7 -15 -10 -18 -7 -3 3 -18 2 -32 -1 l-26 -7 27 -32 27 -32 -24 -3
c-44 -7 -57 -51 -26 -90 8 -11 12 -11 19 0 6 8 7 4 3 -12 -4 -14 -15 -32 -25
-40 -21 -18 -32 -56 -36 -132 -2 -31 -8 -83 -13 -115 -6 -32 -9 -132 -7 -223
2 -90 0 -176 -6 -189 -5 -14 -12 -110 -17 -214 -7 -172 -6 -195 11 -246 11
-31 17 -66 15 -79 -3 -13 2 -26 11 -31 16 -9 42 -74 42 -108 0 -14 6 -23 15
-23 9 0 15 -9 15 -22 0 -21 1 -21 13 -3 9 11 16 14 21 7 3 -6 -1 -17 -9 -25
-18 -18 -19 -45 -5 -83 10 -25 11 -26 24 -9 13 18 14 18 25 -3 13 -25 31 -29
31 -7 0 21 17 19 30 -4 13 -25 13 -221 0 -255 -12 -34 -40 -34 -40 -2 0 14 -4
28 -10 31 -5 3 -10 1 -10 -4 0 -20 -20 -11 -32 14 -15 32 -54 34 -64 3 -8 -26
-32 -54 -126 -150 -37 -37 -73 -68 -80 -68 -6 0 -24 -12 -39 -26 -16 -15 -41
-27 -60 -28 -19 -2 -50 -10 -69 -19 -19 -8 -61 -18 -94 -22 l-58 -7 28 -29
c15 -16 25 -32 21 -35 -6 -6 -19 1 -120 68 -31 21 -63 38 -71 38 -8 0 -18 4
-21 10 -3 5 -19 10 -35 10 -16 0 -40 5 -53 11 -21 9 -30 8 -55 -11 -44 -33
-44 -42 -6 -85 19 -21 34 -42 34 -46 0 -9 113 -90 157 -113 46 -23 61 -20 96
19 36 41 48 42 102 10 22 -13 55 -32 72 -41 18 -10 35 -25 38 -35 3 -9 17 -29
31 -44 16 -18 23 -33 18 -44 -4 -9 -10 -32 -13 -51 -4 -22 -9 -31 -14 -22 -11
17 -27 15 -27 -3 0 -9 -13 -45 -29 -80 -16 -36 -25 -67 -20 -70 11 -8 12 -45
0 -45 -4 0 -8 -22 -7 -49 0 -27 5 -49 11 -48 5 1 11 -8 13 -21 2 -16 8 -22 19
-18 8 3 25 6 38 6 19 0 26 8 34 35 5 20 7 52 4 72 -5 30 -4 35 10 30 21 -8 35
11 43 61 6 36 10 42 30 42 19 0 24 -5 24 -26 0 -23 3 -25 25 -20 20 5 25 3 25
-12 0 -10 5 -23 11 -29 8 -8 8 -13 0 -17 -20 -13 -11 -34 39 -93 27 -32 50
-63 50 -70 0 -6 25 -23 55 -37 78 -35 70 -64 -10 -35 -34 13 -81 -2 -226 -71
-81 -38 -123 -38 -199 0 -77 39 -136 39 -260 1 -193 -59 -380 -71 -487 -32
-35 13 -63 27 -63 32 0 4 15 23 33 41 18 18 44 50 57 70 19 29 32 38 53 38 18
0 26 4 21 11 -3 6 -17 8 -30 5 -14 -4 -24 -2 -24 4 0 5 3 10 8 10 4 0 13 10
21 21 10 17 10 23 1 29 -9 5 -9 9 -1 14 6 4 11 3 11 -3 0 -12 29 -3 48 15 16
17 16 29 -1 15 -10 -8 -17 -7 -25 1 -9 9 -12 9 -12 0 0 -7 -11 -12 -24 -12
-25 0 -40 -22 -25 -37 14 -14 -11 -67 -44 -90 -24 -17 -33 -19 -48 -10 -17 10
-16 12 11 24 19 7 30 19 30 32 0 32 -17 33 -38 4 -11 -16 -24 -25 -28 -20 -4
4 3 18 15 31 24 25 21 46 -5 46 -8 0 -14 -6 -14 -14 0 -7 -11 -25 -25 -40 -14
-15 -25 -34 -25 -43 0 -14 2 -14 19 1 14 13 21 14 27 5 4 -7 -1 -18 -11 -25
-16 -12 -21 -12 -34 0 -21 17 -41 10 -41 -15 0 -22 32 -39 38 -21 7 21 20 13
15 -9 -4 -14 0 -26 11 -35 12 -8 14 -14 6 -19 -9 -6 -9 -10 1 -16 7 -4 10 -12
5 -16 -4 -4 -13 0 -20 10 -16 21 -25 21 -51 1 -15 -11 -17 -17 -7 -22 9 -6 7
-13 -8 -30 -11 -11 -26 -25 -34 -29 -9 -5 -16 -25 -17 -48 -2 -26 -11 -49 -27
-67 -29 -32 -25 -78 8 -78 24 0 70 20 70 31 0 8 29 26 80 50 14 6 39 19 56 27
25 12 38 13 60 4 33 -12 45 -13 127 -12 31 1 57 -3 57 -7 0 -11 90 -10 107 0
37 23 359 -7 408 -37 11 -7 37 -11 59 -8 29 3 41 0 48 -12 9 -16 11 -16 22 0
10 13 17 14 30 7 11 -6 35 -7 60 -2 91 17 307 29 328 18 11 -6 26 -8 34 -5 26
10 44 -5 44 -38 0 -36 -13 -61 -28 -52 -5 3 -15 -1 -22 -9 -7 -8 -20 -15 -30
-15 -11 0 -24 -17 -38 -49 -19 -47 -23 -50 -67 -56 -32 -5 -45 -11 -41 -20 6
-16 -18 -27 -40 -18 -9 3 -26 -5 -43 -21 -17 -17 -41 -28 -67 -30 -21 -2 -48
-7 -58 -12 -14 -5 -17 -4 -12 4 6 11 -21 61 -34 62 -3 0 -11 -9 -18 -21 -11
-18 -11 -24 3 -39 9 -10 12 -21 7 -24 -5 -3 -72 -8 -148 -11 -185 -7 -267 -15
-277 -25 -10 -9 14 -60 37 -79 22 -19 20 -34 -9 -59 -14 -12 -25 -26 -25 -30
0 -23 89 -70 109 -58 6 4 26 0 46 -8 23 -10 43 -12 58 -7 13 5 33 4 47 -1 32
-13 99 -11 116 2 7 7 15 7 18 2 10 -16 164 -34 172 -20 9 13 22 9 44 -14 16
-17 23 -19 32 -10 16 16 39 15 79 -4 67 -33 99 -63 99 -94 0 -29 32 -71 63
-83 21 -8 33 -75 19 -98 -8 -13 -8 -20 3 -29 20 -16 19 -49 0 -56 -11 -5 -15
-17 -13 -43 3 -31 0 -36 -20 -39 -16 -3 -22 -8 -18 -19 3 -8 3 -20 -1 -26 -5
-7 -8 -21 -8 -31 0 -11 -8 -20 -18 -22 -10 -1 -27 -14 -38 -28 -11 -15 -25
-24 -30 -20 -5 3 -18 2 -29 -1 -15 -5 -20 -15 -20 -41 0 -26 -4 -34 -18 -34
-27 0 -62 29 -62 51 0 10 -5 19 -11 19 -7 0 -9 -9 -6 -22 6 -23 -8 -58 -23
-58 -5 0 -21 11 -36 25 -15 14 -35 25 -44 25 -10 0 -21 10 -25 22 -4 15 -8 18
-12 10 -3 -9 -12 -5 -28 13 -32 34 -61 32 -80 -5 -13 -25 -20 -29 -53 -27 -37
2 -39 -1 -28 -39 6 -19 2 -23 -28 -28 -20 -4 -40 -14 -45 -23 -6 -11 -22 -17
-45 -17 -20 0 -36 -4 -36 -9 0 -5 -15 -6 -33 -3 -25 5 -36 2 -50 -14 -18 -22
-42 -26 -52 -10 -9 15 -25 12 -25 -4 0 -21 -31 -28 -50 -11 -14 13 -18 13 -33
-2 -14 -14 -22 -15 -49 -6 -18 6 -54 11 -81 11 -30 -1 -54 5 -65 16 -10 9 -23
16 -28 16 -5 0 -15 9 -22 20 -7 12 -16 19 -21 16 -14 -9 1 -70 23 -88 27 -22
19 -23 -26 0 -72 35 -187 152 -298 302 -14 19 -49 63 -78 99 -270 334 -450
563 -510 653 -101 151 -120 159 -52 23 22 -44 40 -85 40 -91 0 -6 7 -17 15
-24 8 -7 15 -25 15 -40 0 -15 8 -34 18 -44 11 -9 31 -41 47 -71 15 -30 32 -55
37 -55 5 0 17 -17 26 -38 9 -20 32 -51 50 -68 20 -20 30 -37 26 -47 -3 -10 2
-20 16 -27 11 -6 30 -26 40 -43 11 -18 20 -29 20 -24 0 4 36 -29 80 -74 44
-44 80 -83 80 -86 0 -2 20 -23 44 -46 24 -23 49 -52 55 -64 7 -13 18 -23 26
-23 7 0 17 -5 21 -11 5 -8 -1 -10 -20 -7 -31 6 -41 -5 -27 -29 10 -17 10 -17
11 1 0 15 3 16 15 6 8 -7 22 -10 30 -6 10 4 15 -1 15 -15 0 -15 5 -19 15 -15
10 4 15 -1 15 -14 0 -11 4 -19 8 -18 16 5 72 -50 66 -66 -4 -10 2 -16 18 -18
13 -2 22 -9 20 -16 -1 -7 9 -12 23 -12 27 0 32 -9 14 -27 -9 -9 -7 -10 10 -6
25 6 54 -14 47 -34 -4 -10 -1 -13 12 -9 12 4 27 -3 42 -19 13 -14 29 -25 36
-25 6 0 18 -7 25 -16 12 -15 11 -16 -11 -9 -14 4 -26 12 -28 16 -8 20 -32 8
-32 -17 0 -24 3 -25 32 -19 26 6 30 5 25 -9 -5 -11 6 -22 41 -39 81 -40 167
-90 174 -101 5 -8 306 -12 1021 -14 l1014 -2 41 30 c23 16 48 30 55 30 7 0 20
9 30 20 9 11 23 20 30 20 7 0 20 8 28 18 9 9 26 24 39 32 13 8 34 25 47 36 13
12 39 32 58 45 19 13 35 27 35 32 0 4 5 7 11 7 20 0 213 166 279 240 178 199
222 288 234 472 16 242 17 244 32 212 32 -69 54 -157 54 -216 0 -70 -22 -197
-47 -273 -27 -84 -97 -200 -114 -190 -4 3 -39 -25 -76 -62 -38 -38 -92 -88
-121 -113 -30 -25 -68 -58 -85 -74 -48 -43 -257 -200 -296 -222 -18 -10 -43
-25 -55 -31 -17 -10 194 -13 1047 -13 587 0 1067 4 1067 8 0 9 -289 155 -330
167 -34 10 -56 31 -96 90 -34 51 -54 73 -232 259 -56 59 -113 129 -126 154
-13 26 -43 73 -67 104 -24 31 -70 98 -103 148 -32 50 -80 111 -106 136 -42 39
-224 188 -349 284 -41 32 -46 40 -57 100 -7 36 -17 77 -22 91 -12 30 -8 361 4
381 12 19 15 110 4 103 -6 -3 -10 -12 -10 -19 0 -13 -173 -284 -188 -296 -4
-3 -20 -25 -37 -50 -33 -50 -107 -152 -115 -160 -3 -3 -16 -20 -29 -37 -12
-18 -27 -33 -32 -33 -13 0 9 40 33 61 11 10 16 23 12 33 -3 9 -1 16 5 16 13 0
61 81 61 104 0 12 5 16 15 12 9 -3 15 0 15 9 0 8 5 15 10 15 6 0 10 7 10 15 0
9 7 18 15 21 8 4 15 15 15 25 0 12 7 19 20 19 12 0 20 6 19 13 -2 17 24 77 33
77 4 0 8 11 8 25 0 14 4 25 9 25 5 0 11 13 14 30 4 16 16 39 27 50 11 11 20
28 20 38 0 10 11 29 25 42 16 15 23 30 19 42 -3 10 3 30 14 46 12 16 22 50 25
82 2 30 11 74 20 97 9 22 18 52 21 65 3 12 8 38 12 55 4 22 2 38 -7 49 -11 13
-8 20 22 45 28 24 32 32 23 47 -9 14 -8 28 3 61 13 39 13 44 -3 56 -15 10 -16
16 -6 27 8 10 10 35 7 73 -5 57 -5 57 20 51 29 -7 35 14 9 35 -9 7 -13 21 -10
34 3 12 3 25 -1 28 -12 13 -9 72 5 89 8 10 12 24 9 31 -3 8 -1 19 5 25 8 8 4
17 -13 31 -13 10 -20 23 -16 27 4 5 12 2 17 -6 7 -12 10 -11 16 5 5 11 3 20
-4 23 -21 7 -13 31 13 38 19 5 23 10 16 21 -4 9 -5 32 0 52 5 20 9 51 9 69 0
17 5 32 10 32 7 0 8 13 4 35 -4 26 -1 42 12 63 10 15 18 29 18 32 -1 3 -4 17
-8 33 -5 20 -3 27 9 27 23 0 29 27 11 45 -20 20 -20 39 -1 55 8 7 12 16 9 21
-10 17 -12 169 -2 175 5 3 8 27 8 52 -1 26 2 59 5 74 5 19 2 32 -9 43 -19 19
-13 37 9 28 23 -8 18 33 -6 56 -20 19 -21 25 -12 80 6 39 6 64 0 70 -5 5 -6
18 -2 28 5 10 10 35 11 55 2 31 -1 37 -19 40 -18 3 -22 9 -19 38 1 19 -3 47
-9 63 -11 25 -10 31 5 39 17 9 16 11 -4 30 -11 11 -23 32 -27 48 -3 16 -12 31
-20 35 -14 5 -13 8 2 25 10 11 22 17 26 14 5 -3 9 0 9 5 0 6 -4 11 -8 11 -17
0 -52 37 -52 54 0 10 5 14 10 11 6 -3 10 1 10 10 0 9 -4 14 -9 10 -5 -3 -12
-1 -16 5 -3 5 1 10 9 10 9 0 16 4 16 8 0 19 -15 21 -37 7 -23 -15 -23 -15 -23
12 0 15 -1 39 -2 52 -2 13 3 26 10 28 7 3 12 -5 12 -21 0 -16 6 -26 15 -26 18
0 21 66 5 90 -9 13 -12 13 -21 -2 -5 -10 -17 -18 -25 -18 -13 0 -15 11 -12 60
2 44 -1 63 -11 69 -7 5 -10 14 -6 20 5 9 11 7 21 -6 12 -16 13 -14 12 20 -1
30 -5 37 -21 37 -17 0 -18 5 -12 36 l6 36 -31 -7 c-27 -6 -32 -4 -37 14 -3 12
-11 21 -17 21 -7 0 -23 19 -36 43 -12 23 -34 57 -47 75 -24 33 -25 37 -24 220
1 236 3 265 19 285 8 10 10 25 5 44 -15 58 -3 70 68 67 36 -1 52 2 56 12 4 11
9 12 19 4 16 -14 6 -43 -12 -36 -8 3 -14 0 -14 -7 0 -7 16 -13 37 -14 20 -1
40 -8 44 -15 16 -28 48 -60 56 -55 11 7 77 -123 93 -183 22 -78 34 -110 42
-110 5 0 6 -17 2 -38 -4 -28 -2 -41 10 -51 10 -8 16 -29 16 -54 0 -22 5 -57
11 -78 9 -30 9 -42 -1 -54 -7 -8 -8 -15 -3 -15 14 0 46 -209 58 -385 9 -118
22 -211 35 -240 9 -22 13 -42 35 -190 31 -210 14 -407 -66 -760 -17 -77 -35
-162 -39 -190 -9 -49 -64 -359 -79 -442 l-8 -41 49 19 c141 55 202 104 306
242 56 74 70 99 69 127 0 45 23 104 51 131 12 11 22 24 22 29 0 4 15 24 33 43
17 18 33 40 35 48 2 8 13 24 24 36 24 26 68 143 68 183 0 16 4 31 8 34 5 3 9
19 10 36 0 17 -4 28 -9 25 -5 -4 -9 1 -9 9 0 9 7 16 15 16 8 0 15 5 15 11 0 5
-4 8 -8 5 -9 -6 -11 13 -11 129 0 102 -17 228 -36 265 -17 34 -35 113 -41 185
-11 111 -16 250 -10 244 8 -8 36 -146 36 -181 0 -18 4 -45 10 -62 19 -61 52
-201 78 -336 6 -30 9 63 9 277 1 291 5 395 19 445 9 32 -29 40 -77 16 -73 -35
-222 -167 -246 -218 -15 -32 -21 -39 -22 -24 -1 12 9 36 22 55 12 19 29 47 37
62 8 16 27 36 44 44 21 11 25 17 16 23 -10 6 -10 11 1 25 45 55 119 115 143
115 16 0 12 19 -14 75 -5 11 -10 31 -12 45 -5 42 -33 34 -111 -29 -113 -93
-127 -84 -108 68 28 236 42 602 43 1101 0 402 -13 642 -43 773 -16 68 5 112
102 216 123 132 207 266 286 459 19 48 45 112 58 142 99 239 96 230 80 253
-11 16 -13 35 -9 70 l7 49 -64 -46 c-35 -25 -76 -55 -91 -66 -16 -12 -73 -82
-129 -156 -137 -183 -165 -208 -189 -165 -10 20 9 114 60 291 30 103 54 312
46 405 -5 74 -4 85 23 140 18 39 44 73 74 98 25 20 55 53 67 72 20 32 20 36 5
58 -8 13 -13 32 -9 41 4 11 -2 26 -17 42 -19 20 -29 23 -58 18 -40 -6 -38 -5
-168 -64 -50 -22 -118 -46 -150 -51 -32 -6 -70 -13 -85 -16 -18 -3 -32 1 -47
16 -19 19 -21 33 -21 134 -1 72 -5 118 -13 128 -7 9 -32 26 -57 39 -25 12 -58
34 -75 49 -38 35 -160 123 -200 144 -50 27 -157 67 -180 67 -11 0 -25 4 -31 9
-11 10 -112 37 -168 46 -22 3 -59 12 -83 20 -24 8 -55 15 -68 15 -26 0 -65 31
-65 53 0 13 -58 103 -93 144 -27 31 -105 83 -182 122 -87 44 -323 92 -785 158
-19 2 -80 0 -135 -7 -55 -6 -149 -15 -210 -20 -60 -6 -127 -12 -148 -16 -45
-6 -77 2 -77 21 0 7 -7 16 -16 19 -15 6 -129 6 -169 0z m155 -79 c-8 -8 -42
-21 -75 -30 -33 -9 -84 -23 -114 -31 -30 -8 -56 -12 -58 -10 -9 9 91 48 160
62 40 9 74 17 76 20 2 2 9 4 15 4 6 0 4 -7 -4 -15z m-280 -85 c-20 -13 -43
-13 -35 0 3 6 16 10 28 10 18 0 19 -2 7 -10z m-370 -160 c0 -5 -4 -10 -10 -10
-5 0 -10 5 -10 10 0 6 5 10 10 10 6 0 10 -4 10 -10z m-280 -230 c0 -5 -4 -10
-10 -10 -5 0 -10 5 -10 10 0 6 5 10 10 10 6 0 10 -4 10 -10z m-53 -36 c-3 -3
-12 -4 -19 -1 -8 3 -5 6 6 6 11 1 17 -2 13 -5z m970 -64 c-14 -11 -32 -20 -40
-20 -8 0 -25 -8 -38 -18 -13 -11 -49 -31 -79 -45 -30 -14 -73 -38 -95 -52 -66
-42 -104 -59 -112 -51 -9 9 36 45 56 46 8 0 28 10 45 23 39 29 255 137 274
137 9 0 5 -7 -11 -20z m-387 -199 c0 -15 -73 -69 -103 -76 -46 -12 -22 19 41
53 67 36 62 34 62 23z m-590 -82 c-36 -29 -80 -51 -80 -41 0 12 29 36 65 55
38 20 47 11 15 -14z m-322 -151 c-66 -80 -110 -121 -309 -288 -101 -85 -205
-174 -232 -197 -26 -24 -57 -43 -68 -43 -30 0 88 114 341 331 261 223 292 249
303 249 5 0 -11 -23 -35 -52z m1132 -602 c0 -3 -4 -8 -10 -11 -5 -3 -10 -1
-10 4 0 6 5 11 10 11 6 0 10 -2 10 -4z m-2007 -1050 c24 -19 21 -26 -11 -26
-35 0 -45 9 -31 27 14 16 19 16 42 -1z m1705 -212 c-59 -51 -106 -78 -187
-105 -107 -37 -88 -18 57 57 81 42 151 80 157 85 5 5 13 9 18 9 5 0 -15 -21
-45 -46z m-348 -13 c0 -15 -29 -21 -108 -21 -85 0 -125 8 -116 21 7 12 224 12
224 0z m2833 -18 c-7 -2 -19 -2 -25 0 -7 3 -2 5 12 5 14 0 19 -2 13 -5z
m-4658 -355 c-4 -13 -9 -35 -12 -51 -7 -34 -39 -98 -46 -91 -5 6 7 48 29 102
8 18 14 39 14 47 0 8 5 15 11 15 7 0 9 -8 4 -22z m58 -30 c-17 -59 -33 -84
-33 -51 0 12 5 25 10 28 6 3 10 19 10 34 0 28 7 41 21 41 4 0 0 -24 -8 -52z
m43 -25 c-11 -11 -19 6 -11 24 8 17 8 17 12 0 3 -10 2 -21 -1 -24z m-200 -50
c-11 -11 -19 6 -11 24 8 17 8 17 12 0 3 -10 2 -21 -1 -24z m189 -52 c-4 -44
-11 -70 -18 -68 -7 1 -13 -13 -15 -31 -5 -46 -26 -35 -33 16 -6 47 2 69 21 57
9 -5 11 -4 6 4 -4 6 -2 28 5 49 6 20 14 43 16 51 3 10 7 11 14 4 8 -8 9 -35 4
-82z m-168 -33 c-3 -8 -6 -5 -6 6 -1 11 2 17 5 13 3 -3 4 -12 1 -19z m3900
-35 c-3 -10 -5 -4 -5 12 0 17 2 24 5 18 2 -7 2 -21 0 -30z m-3897 -19 c0 -8
-4 -14 -10 -14 -5 0 -10 4 -10 9 0 5 -3 18 -7 28 -6 16 -5 16 10 4 9 -7 17
-20 17 -27z m14 -29 c-4 -8 -15 -15 -26 -15 -17 0 -19 -5 -15 -27 3 -15 0 -38
-5 -52 -10 -25 -11 -25 -18 -6 -14 33 -11 61 8 82 26 31 65 43 56 18z m86 -42
c0 -40 -38 -133 -58 -140 -24 -10 -22 3 8 61 17 31 30 68 30 82 0 14 4 22 10
19 6 -3 10 -13 10 -22z m-50 -18 c0 -8 -4 -15 -10 -15 -5 0 -10 7 -10 15 0 8
5 15 10 15 6 0 10 -7 10 -15z m106 -22 c-4 -21 -10 -60 -13 -88 -3 -27 -11
-65 -19 -84 -12 -29 -16 -32 -30 -20 -13 11 -14 9 -9 -14 6 -22 4 -26 -9 -21
-13 5 -16 0 -16 -24 0 -17 -3 -32 -7 -34 -5 -1 -18 -23 -31 -48 -18 -37 -21
-40 -17 -15 4 17 9 44 12 62 3 17 16 42 29 54 13 12 24 31 24 41 0 11 11 23
28 29 24 9 25 11 9 20 -20 12 -15 45 14 97 11 18 19 44 19 58 0 13 5 24 11 24
8 0 9 -12 5 -37z m64 -135 c0 -4 -4 -8 -9 -8 -5 0 -11 -9 -14 -20 -3 -11 -10
-20 -16 -20 -6 0 -8 7 -6 15 3 8 7 21 9 28 4 15 36 19 36 5z m-218 -50 c-9 -9
-12 -7 -12 12 0 19 3 21 12 12 9 -9 9 -15 0 -24z m-27 -96 c-3 -10 -9 -12 -15
-6 -6 6 -5 22 3 43 l12 34 3 -28 c2 -14 1 -34 -3 -43z m245 49 c0 -6 -4 -13
-10 -16 -5 -3 -10 1 -10 9 0 9 5 16 10 16 6 0 10 -4 10 -9z m4623 -51 c3 -13
0 -20 -9 -20 -8 0 -14 9 -14 20 0 11 4 20 9 20 5 0 11 -9 14 -20z m41 -77
c-15 -11 -19 -11 -26 1 -4 8 -5 22 -2 31 6 14 8 14 26 -2 18 -16 18 -18 2 -30z
m-4947 5 c-3 -8 -6 -5 -6 6 -1 11 2 17 5 13 3 -3 4 -12 1 -19z m59 -125 c-10
-10 -19 5 -10 18 6 11 8 11 12 0 2 -7 1 -15 -2 -18z m4487 -403 c3 -12 0 -20
-8 -20 -14 0 -27 25 -18 34 11 11 21 6 26 -14z m-423 -590 c0 -5 5 -10 12 -10
23 0 57 -51 67 -101 13 -59 6 -116 -17 -145 -20 -23 -121 -74 -150 -74 -10 0
-22 -3 -26 -7 -4 -5 -19 -8 -33 -8 -15 0 -28 -6 -30 -12 -3 -7 2 -13 11 -13 9
0 16 -5 16 -11 0 -7 -10 -9 -24 -7 -17 3 -27 0 -31 -11 -4 -10 -9 -12 -13 -5
-10 15 -82 28 -82 14 0 -5 -4 -10 -10 -10 -5 0 -10 7 -10 15 0 10 -10 15 -29
15 -16 0 -34 7 -41 15 -7 8 -21 15 -30 15 -21 0 -83 31 -89 43 -2 5 -14 12
-28 18 -13 5 -22 13 -19 17 3 5 -4 8 -16 8 -14 -1 -27 11 -40 33 -16 28 -17
39 -7 70 29 91 72 111 84 39 16 -93 76 -154 191 -193 104 -35 138 -37 188 -9
55 31 111 93 138 153 20 43 21 95 3 149 -5 14 -3 22 4 22 6 0 11 -4 11 -10z
m-322 -52 c3 -15 -4 -18 -42 -18 -33 0 -46 4 -46 14 0 30 82 34 88 4z m110
-20 c-7 -19 -38 -22 -38 -4 0 10 9 16 21 16 12 0 19 -5 17 -12z m1662 -143 c0
-8 -4 -15 -10 -15 -5 0 -7 7 -4 15 4 8 8 15 10 15 2 0 4 -7 4 -15z m70 -107
c38 -27 38 -41 1 -67 -55 -40 -68 -28 -55 52 8 43 14 45 54 15z m-2006 -43
c11 -8 17 -17 15 -20 -7 -6 -59 18 -59 28 0 12 23 8 44 -8z m406 -16 c0 -5 -4
-9 -10 -9 -5 0 -10 7 -10 16 0 8 5 12 10 9 6 -3 10 -10 10 -16z m-310 -11 c0
-7 -4 -19 -9 -27 -11 -17 -25 3 -17 24 7 18 26 20 26 3z m27 -40 c-3 -8 -6 -5
-6 6 -1 11 2 17 5 13 3 -3 4 -12 1 -19z m60 -45 c5 19 23 24 23 6 0 -6 9 -9
19 -6 12 3 22 -1 25 -9 3 -8 16 -14 28 -14 31 0 52 -15 43 -30 -5 -8 -11 -8
-17 -2 -15 15 -38 3 -38 -19 0 -12 -5 -16 -14 -13 -8 3 -25 0 -37 -6 -18 -10
-24 -10 -34 3 -6 8 -26 16 -45 18 -19 2 -56 16 -81 31 -25 15 -50 28 -55 28
-5 0 -19 11 -31 24 -19 20 -20 26 -9 35 10 9 16 7 26 -4 9 -11 22 -14 42 -10
17 4 28 2 28 -4 0 -7 10 -9 25 -5 17 4 32 1 44 -10 17 -16 19 -16 25 -1 3 9 4
21 0 26 -3 5 -2 15 3 22 4 7 11 -5 17 -33 5 -25 11 -37 13 -27z m-343 -113
c20 0 27 12 15 27 -20 23 5 13 30 -12 13 -14 29 -25 36 -25 7 0 26 -7 41 -15
16 -8 36 -15 44 -15 8 0 23 -7 33 -15 11 -7 38 -16 60 -20 47 -7 66 -13 182
-51 93 -30 220 -44 446 -47 119 -2 160 -5 173 -17 25 -20 56 -23 62 -5 12 29
51 17 69 -21 9 -19 27 -39 41 -44 13 -5 25 -17 25 -27 5 -65 4 -90 -4 -101 -7
-8 -4 -24 9 -48 19 -35 19 -36 -3 -54 -13 -10 -23 -26 -23 -37 0 -10 -14 -26
-30 -35 -23 -13 -30 -24 -30 -48 0 -18 -6 -33 -15 -36 -8 -3 -24 -22 -35 -42
-18 -31 -20 -38 -7 -47 12 -8 11 -13 -4 -29 -10 -10 -24 -16 -31 -14 -19 7
-35 -31 -43 -101 -4 -33 -13 -66 -22 -72 -8 -7 -20 -27 -28 -46 -8 -20 -21
-33 -32 -33 -14 0 -15 -2 -4 -9 18 -11 5 -31 -20 -31 -22 0 -27 -35 -6 -43 9
-4 9 -7 0 -14 -13 -9 -15 -73 -1 -73 4 0 8 -4 8 -10 0 -5 -6 -10 -14 -10 -40
0 -70 -86 -46 -131 12 -21 -2 -58 -26 -72 -8 -5 -14 -25 -14 -47 0 -33 -3 -40
-20 -40 -16 0 -20 -6 -18 -28 2 -31 -9 -55 -22 -47 -18 11 -32 -24 -22 -55 10
-29 8 -34 -12 -31 -5 1 -6 -5 -3 -14 10 -23 -2 -43 -29 -49 -31 -8 -32 -25 0
-19 42 8 40 -24 -5 -69 -34 -34 -40 -47 -37 -73 3 -28 1 -32 -22 -32 -47 0
-80 -12 -74 -28 4 -8 1 -16 -5 -16 -26 -3 -30 -4 -37 -12 -12 -11 -19 -9 -46
16 -94 83 -118 95 -118 57 0 -28 -24 -25 -40 5 -7 14 -18 25 -23 25 -5 0 -4 7
3 15 18 22 2 37 -31 30 -20 -5 -29 -3 -29 6 0 6 -6 17 -14 23 -26 21 -28 64
-5 87 20 20 20 21 3 40 -16 17 -16 22 -4 29 13 8 12 13 -2 38 -10 16 -19 44
-20 61 -1 18 -6 35 -10 37 -4 3 -5 11 -2 18 3 7 -2 19 -10 26 -10 7 -14 21
-10 34 3 14 -1 28 -10 35 -9 8 -16 19 -16 27 0 7 -6 17 -14 21 -7 4 -21 32
-30 61 -10 29 -23 58 -31 65 -22 22 -65 111 -65 134 0 12 -6 26 -13 30 -7 4
-19 28 -26 53 -7 25 -19 61 -28 80 -13 29 -14 44 -5 88 7 35 8 62 2 78 -6 14
-8 30 -5 34 3 5 -3 14 -14 19 -26 14 -37 67 -20 98 11 21 10 29 -5 57 -10 19
-17 44 -15 57 1 13 -1 39 -5 57 -4 18 -11 65 -16 105 -5 39 -12 84 -15 100 -6
21 -4 27 9 27 10 0 14 5 11 11 -4 6 -13 8 -21 5 -14 -6 -38 27 -27 38 3 3 21
6 39 6 32 0 33 1 23 24 -8 16 -8 30 -1 42 6 10 8 42 5 71 -5 43 -3 54 11 59
24 9 32 -4 17 -27 -14 -23 -14 -22 16 -38 28 -14 40 -14 25 1 -17 17 -15 39 5
68 l17 25 9 -38 c5 -20 15 -37 21 -37z m1586 -1261 c0 -10 -4 -19 -10 -19 -5
0 -10 12 -10 26 0 14 4 23 10 19 6 -3 10 -15 10 -26z m-2394 -566 c-11 -11
-19 6 -11 24 8 17 8 17 12 0 3 -10 2 -21 -1 -24z m1021 11 c-3 -3 -12 -4 -19
-1 -8 3 -5 6 6 6 11 1 17 -2 13 -5z m-7 -60 c0 -8 -4 -12 -10 -9 -5 3 -10 10
-10 16 0 5 5 9 10 9 6 0 10 -7 10 -16z m-627 -371 c-7 -2 -21 -2 -30 0 -10 3
-4 5 12 5 17 0 24 -2 18 -5z m601 -407 c34 8 35 -14 2 -45 l-25 -23 -25 27
c-14 15 -26 31 -26 36 0 12 24 17 37 7 6 -5 23 -6 37 -2z m876 -217 c0 -6 -4
-7 -10 -4 -5 3 -10 11 -10 16 0 6 5 7 10 4 6 -3 10 -11 10 -16z m-1813 5 c-3
-3 -12 -4 -19 -1 -8 3 -5 6 6 6 11 1 17 -2 13 -5z m1788 -43 c3 -5 1 -12 -5
-16 -5 -3 -10 1 -10 9 0 18 6 21 15 7z m-37 -60 c-15 -25 -28 -27 -28 -6 0 8
7 15 15 15 8 0 15 5 15 12 0 6 3 9 6 6 3 -3 -1 -15 -8 -27z m-57 -68 c-54 -73
-60 -79 -71 -63 -15 23 -12 30 15 30 14 0 25 5 25 11 0 7 -9 9 -21 6 -15 -4
-19 -1 -17 11 3 12 13 16 31 15 15 -1 27 2 27 8 0 5 7 9 16 9 13 0 12 -5 -5
-27z m-73 -82 c3 -8 -1 -12 -9 -9 -7 2 -15 10 -17 17 -3 8 1 12 9 9 7 -2 15
-10 17 -17z m649 -110 c-3 -40 -10 -78 -15 -83 -15 -15 -25 77 -12 102 6 11 8
37 5 58 -6 35 -6 36 10 17 14 -16 16 -34 12 -94z m-677 65 c0 -3 -4 -8 -10
-11 -5 -3 -10 -1 -10 4 0 6 5 11 10 11 6 0 10 -2 10 -4z m640 -22 c0 -8 -5
-12 -10 -9 -6 4 -8 11 -5 16 9 14 15 11 15 -7z m-680 -24 c0 -5 -5 -10 -11
-10 -5 0 -7 5 -4 10 3 6 8 10 11 10 2 0 4 -4 4 -10z m-56 -72 c-16 -18 -30
-35 -31 -37 -2 -2 -5 -2 -7 0 -7 7 44 69 57 69 6 0 -2 -15 -19 -32z"/>
<path d="M5901 4224 c0 -11 3 -14 6 -6 3 7 2 16 -1 19 -3 4 -6 -2 -5 -13z"/>
<path d="M7212 3988 c5 -15 28 -23 28 -10 0 5 -7 13 -16 16 -10 4 -14 1 -12
-6z"/>
<path d="M6335 2430 c3 -5 10 -10 16 -10 5 0 9 5 9 10 0 6 -7 10 -16 10 -8 0
-12 -4 -9 -10z"/>
<path d="M3045 7113 c-9 -23 -100 -280 -127 -358 -38 -114 -47 -145 -40 -145
11 0 55 111 106 265 26 77 51 148 56 157 6 10 10 27 10 37 0 11 5 23 10 26 12
8 13 35 1 35 -5 0 -12 -8 -16 -17z"/>
<path d="M6263 6549 c-14 -14 -1 -74 17 -74 11 0 15 13 17 43 1 42 -11 54 -34
31z"/>
<path d="M6211 6534 c0 -11 3 -14 6 -6 3 7 2 16 -1 19 -3 4 -6 -2 -5 -13z"/>
<path d="M6292 6410 c0 -14 2 -19 5 -12 2 6 2 18 0 25 -3 6 -5 1 -5 -13z"/>
<path d="M6525 6110 c-3 -5 -1 -10 4 -10 6 0 11 5 11 10 0 6 -2 10 -4 10 -3 0
-8 -4 -11 -10z"/>
<path d="M6520 5860 c0 -5 5 -10 11 -10 5 0 7 5 4 10 -3 6 -8 10 -11 10 -2 0
-4 -4 -4 -10z"/>
<path d="M7637 5813 c-4 -3 -7 -11 -7 -17 0 -6 5 -5 12 2 6 6 9 14 7 17 -3 3
-9 2 -12 -2z"/>
<path d="M7490 5771 c0 -11 5 -23 10 -26 6 -3 10 3 10 14 0 11 -4 23 -10 26
-5 3 -10 -3 -10 -14z"/>
<path d="M7495 5600 c-3 -5 -1 -10 4 -10 6 0 11 5 11 10 0 6 -2 10 -4 10 -3 0
-8 -4 -11 -10z"/>
<path d="M3550 5410 c-33 -8 -105 -38 -140 -58 -44 -26 -62 -32 -71 -26 -5 3
-17 0 -25 -7 -23 -19 -27 -4 -7 27 l18 28 -25 -7 c-13 -3 -29 -2 -35 3 -8 7
-23 0 -46 -20 -19 -16 -79 -63 -134 -104 -127 -95 -151 -120 -159 -173 -6 -40
-4 -43 24 -58 35 -18 39 -32 8 -37 -57 -8 -12 -49 70 -63 33 -5 45 -13 53 -32
13 -34 11 -70 -3 -77 -10 -5 -10 -7 0 -12 6 -3 12 -11 12 -18 0 -7 11 -34 25
-60 l25 -48 -21 -17 c-18 -14 -20 -23 -15 -58 7 -36 11 -41 45 -52 21 -6 48
-11 59 -11 12 0 25 -6 29 -13 4 -7 21 -18 36 -25 35 -15 51 -7 101 48 20 22
41 38 45 35 5 -3 7 -23 4 -45 -7 -51 16 -64 52 -30 24 23 39 21 41 -3 0 -7 2
-23 3 -37 1 -21 3 -22 11 -9 15 26 58 13 62 -19 3 -28 28 -43 28 -17 0 9 9 28
20 42 25 32 25 45 3 41 -10 -1 -24 1 -31 6 -8 5 -21 1 -34 -11 -22 -18 -22
-18 -3 30 6 14 2 17 -21 17 -33 0 -65 26 -57 46 4 11 16 13 49 8 40 -6 44 -4
44 14 0 12 -6 25 -14 29 -7 4 -16 29 -20 56 -7 42 -5 47 12 47 15 0 19 5 15
19 -6 23 22 43 136 100 87 43 107 46 75 10 -24 -27 -24 -111 0 -158 10 -19 48
-65 85 -103 l67 -68 89 1 c122 0 162 18 231 99 30 35 54 68 54 72 0 15 25 8
41 -11 15 -16 15 -20 0 -38 -9 -10 -28 -24 -43 -31 -16 -6 -28 -16 -28 -22 0
-5 -5 -10 -11 -10 -18 0 -70 -48 -60 -55 6 -3 37 -3 70 -1 65 6 75 0 39 -24
-25 -16 -52 -21 -110 -22 -31 0 -38 -4 -38 -19 0 -23 -8 -24 -30 -4 -22 20
-50 9 -51 -19 0 -20 -1 -20 -10 3 -7 18 -14 22 -32 16 -32 -11 -100 -11 -114
-1 -7 4 -33 5 -59 1 -35 -5 -43 -9 -35 -19 6 -7 8 -26 5 -43 -7 -37 17 -63 41
-43 8 7 15 9 15 6 0 -4 7 0 16 8 20 20 30 14 37 -24 8 -35 0 -60 -18 -60 -7 0
-18 -7 -25 -15 -7 -8 -26 -15 -42 -15 -41 0 -90 -27 -86 -48 3 -14 20 -18 98
-23 120 -8 235 -4 286 9 21 6 64 16 94 22 42 8 65 20 98 51 23 22 42 45 42 51
0 6 10 8 25 4 22 -6 26 -3 32 25 4 23 17 39 49 58 67 40 62 45 -106 107 -23 8
5 20 69 29 70 9 95 34 88 86 l-5 38 38 -21 c20 -12 48 -37 61 -56 49 -72 81
-65 145 28 40 58 40 57 35 210 -1 42 1 88 4 103 6 21 4 27 -10 27 -12 0 -15 5
-11 16 4 10 -1 22 -11 30 -17 13 -17 14 5 20 25 7 29 26 7 44 -8 7 -15 27 -15
44 0 38 -40 80 -68 72 -11 -4 -29 2 -45 14 -14 11 -31 20 -39 20 -8 0 -29 11
-46 24 -21 15 -41 22 -57 19 -17 -4 -36 4 -62 24 -50 39 -120 65 -142 53 -10
-5 -34 -5 -56 0 -22 5 -64 14 -93 20 -29 7 -107 11 -175 10 -149 -2 -310 9
-318 21 -3 5 -16 9 -30 8 -13 0 -40 2 -59 5 -19 2 -51 1 -70 -4z m-298 -82
c-6 -6 -15 -8 -19 -4 -4 4 -1 11 7 16 19 12 27 3 12 -12z m222 -342 c-24 -17
-65 -23 -83 -12 -21 13 6 26 59 26 41 0 43 -1 24 -14z m-409 -5 c6 -1 2 -6 -8
-12 -20 -12 -67 -4 -67 10 0 8 37 9 75 2z m300 -12 c10 -15 -1 -23 -20 -15 -9
3 -13 10 -10 16 8 13 22 13 30 -1z m-197 -24 c-3 -3 -13 -2 -22 1 -14 5 -15 9
-4 15 13 8 36 -6 26 -16z m72 -14 c0 -9 -24 -21 -41 -21 -5 0 -9 7 -9 15 0 9
9 15 25 15 14 0 25 -4 25 -9z m65 -1 c3 -5 -3 -10 -15 -10 -12 0 -18 5 -15 10
3 6 10 10 15 10 5 0 12 -4 15 -10z m632 -81 c16 -16 -15 -79 -38 -79 -43 0
-48 58 -6 78 29 14 31 14 44 1z m153 -59 c0 -25 -30 -41 -53 -29 -9 6 -17 19
-17 29 0 16 7 20 35 20 28 0 35 -4 35 -20z m-174 -367 c-10 -10 -19 5 -10 18
6 11 8 11 12 0 2 -7 1 -15 -2 -18z m172 -54 c13 0 22 -5 22 -14 0 -10 -10 -15
-29 -15 -17 0 -33 -4 -36 -10 -10 -16 -35 -12 -42 6 -8 21 25 47 47 38 8 -4
25 -6 38 -5z"/>
<path d="M7530 5295 c0 -15 4 -24 10 -20 6 3 10 12 10 20 0 8 -4 17 -10 20 -6
4 -10 -5 -10 -20z"/>
<path d="M7600 5020 c0 -5 5 -10 11 -10 5 0 7 5 4 10 -3 6 -8 10 -11 10 -2 0
-4 -4 -4 -10z"/>
<path d="M2067 4873 c-3 -66 0 -143 7 -198 7 -49 11 -95 9 -101 -2 -6 3 -31
10 -55 8 -24 25 -79 38 -122 16 -55 25 -73 30 -60 8 23 27 309 28 441 1 34 5
62 10 62 5 0 58 -56 117 -125 59 -68 110 -123 112 -120 7 6 -19 65 -29 65 -4
0 -11 9 -14 21 -21 64 -185 238 -262 278 -23 11 -44 21 -46 21 -2 0 -6 -48
-10 -107z"/>
<path d="M3683 4466 c-25 -12 -31 -54 -11 -74 9 -9 17 -3 33 26 12 20 20 43
17 50 -5 14 -9 14 -39 -2z"/>
<path d="M3753 4463 c-22 -14 -33 -63 -15 -63 18 0 52 33 52 50 0 26 -11 30
-37 13z"/>
<path d="M3813 4429 c-26 -10 -28 -17 -9 -41 11 -15 14 -14 29 12 19 32 13 42
-20 29z"/>
<path d="M3770 4390 c0 -5 5 -10 10 -10 6 0 10 5 10 10 0 6 -4 10 -10 10 -5 0
-10 -4 -10 -10z"/>
<path d="M7745 4180 c3 -5 8 -10 11 -10 2 0 4 5 4 10 0 6 -5 10 -11 10 -5 0
-7 -4 -4 -10z"/>
<path d="M8432 4160 c0 -14 2 -19 5 -12 2 6 2 18 0 25 -3 6 -5 1 -5 -13z"/>
<path d="M2600 3975 c0 -11 5 -27 10 -35 8 -12 10 -12 10 5 0 11 -5 27 -10 35
-8 12 -10 12 -10 -5z"/>
<path d="M2620 3868 c0 -16 5 -28 10 -28 13 0 13 20 0 40 -8 12 -10 9 -10 -12z"/>
<path d="M2636 3773 c-20 -124 -19 -136 14 -180 37 -50 50 -54 50 -15 0 25
-47 222 -54 230 -2 2 -7 -14 -10 -35z"/>
<path d="M2240 3768 c1 -23 44 -63 97 -91 57 -30 73 -29 73 7 0 28 -23 44
-103 74 -69 26 -67 26 -67 10z"/>
<path d="M2590 3450 c0 -11 4 -20 10 -20 5 0 14 9 20 20 9 17 8 20 -10 20 -13
0 -20 -7 -20 -20z"/>
<path d="M2710 3380 c-14 -11 -29 -20 -35 -20 -17 -1 -103 -84 -109 -106 -10
-35 17 -59 66 -59 34 0 53 8 96 40 57 43 55 35 31 128 -11 42 -15 44 -49 17z"/>
<path d="M5500 3276 c0 -14 5 -28 10 -31 6 -4 10 7 10 24 0 17 -4 31 -10 31
-5 0 -10 -11 -10 -24z"/>
<path d="M2812 2967 c-10 -12 -9 -16 4 -21 21 -8 23 -6 15 17 -6 17 -9 17 -19
4z"/>
<path d="M4889 2529 c-8 -5 -12 -9 -9 -10 44 -7 61 -6 58 3 -5 15 -32 18 -49
7z"/>
<path d="M4852 2478 c3 -7 18 -14 34 -16 28 -3 28 -3 9 12 -24 19 -48 21 -43
4z"/>
<path d="M4744 2395 c-19 -14 -19 -14 2 -15 12 0 27 7 34 15 17 20 -9 21 -36
0z"/>
<path d="M4624 2374 c3 -9 6 -17 6 -19 0 -2 9 -1 20 2 16 4 18 8 9 19 -16 20
-43 18 -35 -2z"/>
<path d="M4494 2315 c-4 -8 -15 -15 -25 -15 -10 0 -19 -4 -19 -10 0 -17 29
-11 50 10 22 22 25 30 10 30 -6 0 -13 -7 -16 -15z"/>
<path d="M4810 2302 c0 -13 23 -32 39 -32 11 0 10 4 -4 20 -19 21 -35 26 -35
12z"/>
<path d="M4120 2261 c0 -17 18 -21 24 -6 3 9 0 15 -9 15 -8 0 -15 -4 -15 -9z"/>
<path d="M4661 2253 c7 -10 15 -20 16 -22 2 -2 3 3 3 11 0 9 -7 19 -16 22 -15
6 -15 4 -3 -11z"/>
<path d="M4765 2250 c3 -5 8 -10 11 -10 2 0 4 5 4 10 0 6 -5 10 -11 10 -5 0
-7 -4 -4 -10z"/>
<path d="M4447 2233 c-13 -13 -7 -21 13 -16 11 3 20 0 20 -6 0 -6 -9 -11 -20
-11 -11 0 -20 -4 -20 -9 0 -19 18 -21 46 -6 16 8 35 15 42 15 22 0 13 20 -14
30 -29 12 -58 13 -67 3z"/>
<path d="M4718 2233 c7 -3 16 -2 19 1 4 3 -2 6 -13 5 -11 0 -14 -3 -6 -6z"/>
<path d="M4576 2214 c-9 -8 -16 -20 -16 -25 0 -6 7 -3 16 5 8 9 20 16 25 16 5
0 9 5 9 10 0 15 -16 12 -34 -6z"/>
<path d="M4020 2200 c0 -5 5 -10 10 -10 6 0 10 5 10 10 0 6 -4 10 -10 10 -5 0
-10 -4 -10 -10z"/>
<path d="M4075 2190 c-3 -5 -1 -10 4 -10 6 0 11 5 11 10 0 6 -2 10 -4 10 -3 0
-8 -4 -11 -10z"/>
<path d="M3928 2145 c-19 -25 -23 -45 -10 -45 12 0 35 45 31 58 -2 6 -12 0
-21 -13z"/>
<path d="M4106 2155 c4 -8 8 -15 10 -15 2 0 4 7 4 15 0 8 -4 15 -10 15 -5 0
-7 -7 -4 -15z"/>
<path d="M4520 2160 c0 -13 18 -22 24 -11 3 5 -1 11 -9 15 -8 3 -15 1 -15 -4z"/>
<path d="M4080 2120 c-13 -8 -12 -10 3 -10 9 0 17 5 17 10 0 12 -1 12 -20 0z"/>
<path d="M4035 2090 c3 -5 8 -10 11 -10 2 0 4 5 4 10 0 6 -5 10 -11 10 -5 0
-7 -4 -4 -10z"/>
<path d="M3936 2055 c-3 -9 0 -15 9 -15 8 0 15 7 15 15 0 8 -4 15 -9 15 -5 0
-11 -7 -15 -15z"/>
<path d="M4090 2060 c-12 -8 -12 -10 2 -15 19 -7 38 1 38 16 0 12 -21 11 -40
-1z"/>
<path d="M3158 1217 c-47 -42 -77 -81 -97 -122 -16 -33 -41 -75 -55 -94 -14
-19 -26 -40 -26 -45 0 -14 -95 -168 -143 -231 -21 -27 -61 -68 -88 -90 -28
-22 -104 -91 -168 -152 -104 -101 -121 -113 -152 -113 -51 0 -111 -51 -203
-170 -55 -72 -83 -100 -99 -100 -12 -1 -67 -23 -122 -50 l-100 -48 959 -1 960
-1 -33 34 c-18 19 -59 51 -90 72 -118 79 -320 315 -386 449 -52 107 -94 240
-110 345 -23 146 -20 182 22 358 3 12 4 22 2 22 -2 -1 -34 -29 -71 -63z"/>
<path d="M3850 1235 c0 -26 14 -34 23 -12 2 6 -2 18 -9 25 -12 11 -14 8 -14
-13z"/>
<path d="M3785 1230 c-3 -6 1 -13 10 -16 19 -8 30 0 20 15 -8 14 -22 14 -30 1z"/>
<path d="M3835 1170 c-8 -13 -1 -24 14 -19 6 3 7 10 2 18 -6 10 -10 10 -16 1z"/>
<path d="M3876 1162 c-3 -5 8 -18 23 -30 24 -17 30 -19 35 -7 10 27 -43 60
-58 37z"/>
<path d="M5070 1126 c0 -11 9 -16 26 -16 31 0 28 23 -4 28 -15 2 -22 -2 -22
-12z"/>
<path d="M3272 1085 c0 -16 2 -22 5 -12 2 9 2 23 0 30 -3 6 -5 -1 -5 -18z"/>
<path d="M3922 1085 c2 -13 12 -21 28 -23 24 -2 24 -2 5 9 -11 7 -24 17 -28
23 -5 7 -7 3 -5 -9z"/>
<path d="M3280 1025 c1 -93 50 -235 111 -320 56 -77 61 -50 7 30 -33 48 -70
147 -88 235 -14 72 -30 101 -30 55z"/>
<path d="M3891 644 c0 -11 3 -14 6 -6 3 7 2 16 -1 19 -3 4 -6 -2 -5 -13z"/>
<path d="M3500 575 c1 -5 12 -23 25 -40 14 -16 25 -25 25 -20 -1 6 -12 24 -25
40 -14 17 -25 26 -25 20z"/>
<path d="M3560 485 c0 -8 7 -15 15 -15 8 0 15 4 15 9 0 5 -7 11 -15 15 -9 3
-15 0 -15 -9z"/>
<path d="M3600 454 c0 -20 70 -94 263 -278 18 -17 175 -132 205 -150 6 -4 12
-2 12 3 0 6 -28 32 -62 59 -34 26 -77 61 -94 77 -17 17 -51 46 -75 65 -45 36
-94 82 -191 178 -32 31 -58 52 -58 46z"/>
<path d="M4140 371 c0 -12 5 -21 10 -21 6 0 10 6 10 14 0 8 -4 18 -10 21 -5 3
-10 -3 -10 -14z"/>
<path d="M4170 320 c0 -5 4 -10 9 -10 6 0 13 5 16 10 3 6 -1 10 -9 10 -9 0
-16 -4 -16 -10z"/>
<path d="M4310 233 c0 -5 4 -15 10 -23 11 -18 25 -7 17 15 -6 15 -27 21 -27 8z"/>
</g>
</svg>
