<?xml version="1.0" encoding="utf-8"?>
<!-- Generator: Adobe Illustrator 24.0.0, SVG Export Plug-In . SVG Version: 6.00 Build 0)  -->
<svg version="1.1" id="Layer_1" xmlns="http://www.w3.org/2000/svg" xmlns:xlink="http://www.w3.org/1999/xlink" x="0px" y="0px"
	 viewBox="0 0 432 432" style="enable-background:new 0 0 432 432;" xml:space="preserve">
<style type="text/css">
	.st0{fill:#FEFEFE;}
	.st1{fill:#323232;}
	.st2{fill:#010101;}
	.st3{fill:#262626;}
	.st4{fill:#818585;}
	.st5{fill:#272B2B;}
	.st6{fill:#2E2E2E;}
	.st7{fill:#2B2B2B;}
	.st8{fill:#030404;}
	.st9{fill:#838787;}
	.st10{fill:#7E8282;}
	.st11{fill:#090A0A;}
	.st12{fill:#5E6262;}
	.st13{fill:#575B5B;}
	.st14{fill:#040505;}
	.st15{fill:#0A0D0D;}
	.st16{fill:#0E0F0F;}
	.st17{fill:#7D8181;}
	.st18{fill:#7F8383;}
	.st19{fill:#1F1F1F;}
	.st20{fill:#676B6B;}
	.st21{fill:#686B6B;}
	.st22{fill:#646868;}
	.st23{fill:#343434;}
	.st24{fill:#080C0C;}
	.st25{fill:#070A0A;}
	.st26{fill:#090D0D;}
	.st27{fill:#5D6161;}
	.st28{fill:#7A7E7E;}
	.st29{fill:#2A2A2A;}
	.st30{fill:#636767;}
	.st31{fill:#F8BD99;}
	.st32{fill:#1D1D1D;}
	.st33{fill:#353535;}
	.st34{fill:#222222;}
	.st35{fill:#181A1A;}
	.st36{fill:#212121;}
	.st37{fill:#765A49;}
	.st38{fill:#F9BF9A;}
	.st39{fill:#FABF9B;}
	.st40{fill:#6A221C;}
	.st41{fill:#FFFFFF;}
	.st42{fill:#5C351C;}
	.st43{fill:#5C341C;}
	.st44{fill:#010000;}
	.st45{fill:#303030;}
	.st46{fill:#D9866C;}
	.st47{fill:#5C110E;}
	.st48{fill:#D9866B;}
	.st49{fill:#8D4A3C;}
	.st50{fill:#8D4639;}
	.st51{fill:#D3A182;}
	.st52{fill:#6B241D;}
	.st53{fill:#C7896E;}
	.st54{fill:#C7886D;}
	.st55{fill:#232323;}
	.st56{fill:#272727;}
	.st57{fill:#D2755F;}
	.st58{fill:#282828;}
	.st59{fill:#C55F4E;}
	.st60{fill:#2D2D2D;}
	.st61{fill:#D1D1D1;}
	.st62{fill:#A6A6A6;}
	.st63{fill:#FDFDFD;}
	.st64{fill:#8A8A8A;}
	.st65{fill:#505155;}
	.st66{fill:#292929;}
	.st67{fill:#979797;}
	.st68{fill:#040404;}
	.st69{fill:#040405;}
	.st70{fill:#505156;}
	.st71{fill:#2C2C2C;}
</style>
<g>
	<path class="st0" d="M0,0h0.41C0.31,0.1,0.1,0.31,0,0.41V0z"/>
	<path class="st0" d="M159.13,223.65c3.57-0.51,7.21-0.41,10.77,0.09l0.18,0.84c-2.53,3.93-6.36,6.45-10.38,2.77
		C159.55,226.11,159.35,224.87,159.13,223.65z"/>
	<path class="st0" d="M254.14,223.64c3.63-0.54,7.32-0.3,10.95,0.13l-0.15,0.85c-2.48,4.06-6.56,6.56-10.44,2.49
		C254.39,225.95,254.27,224.79,254.14,223.64z"/>
</g>
<g>
	<path class="st1" d="M211.09,8.84c1.87-4.35,2.63,0.94,3.24,3.13C213.18,11.01,212.08,9.97,211.09,8.84z"/>
</g>
<g>
	<g>
		<path class="st2" d="M211.09,8.84c0.99,1.13,2.09,2.17,3.24,3.13c1.53,8.1,10.29,11.54,13.55,18.87c1.33,2.42,3.1,4.6,5.32,6.25
			c3.18,3.77,2.75-2.15,3.64-4.5c8.94,9.21,16.6,20.1,28.15,26.38c0.34-1.95,0.18-3.93,0.48-5.88
			c11.52,6.02,20.18,16.07,28.54,25.77c2.08-2.21,2.53-6.46,5.55-7.39c1.86,2.95,3.33,6.14,4.54,9.4c1.07,4.38-0.89,12.05,5.8,11.59
			c2.27,0.84,4.74,2.01,3.29,4.81c-2.91,7.82,1.62,15.23,3.74,22.58c0.22,3.22,0.77,6.44,2.25,9.34c0.32,2.61,1.61,4.99,1.82,7.64
			c0.28,4.52,0.82,9.02,2.09,13.38c0.47,3.12,0.73,6.27,1.13,9.39c-0.77,6.59-0.72,13.22-0.02,19.81c-0.26,3.16-0.66,6.3-1.07,9.44
			c-1.51,4.62-2.1,9.47-2.04,14.33c-0.63,3.19-1.39,6.37-1.69,9.61c4.43-0.3,9.21-1.81,13.37,0.48c5.25,2.53,7.83,8.19,9.4,13.49
			c0.43,9.15-0.1,18.31-1.13,27.41c-2.1,12.74-8.94,23.79-16.75,33.8c-2.24,1.89-4.34,3.93-6.28,6.12
			c-0.47,0.24-1.41,0.72-1.88,0.96c-3.02,0.39-6.4,0.12-8.91,2.15c-0.58,0.82-1,1.73-1.26,2.7c-1.11,3.04-1.31,6.28-1.65,9.46
			c-0.4,1.5-0.81,2.99-1.21,4.49c-1.41,2.99-2.43,6.14-3.15,9.37c-3.74,7.37-9.07,13.77-14.6,19.85
			c-3.83,2.87-7.69,5.92-10.07,10.17c-0.25,0.4-0.74,1.19-0.99,1.59c9.11,1.37,18.98,5.12,22.47,14.49
			c2.3,7.38,12.44,3.81,15.94,9.9c1.99,2.94,2.79,7.44,6.9,8.13c7.97,2.25,16.35,4.57,22.54,10.4c3.22,11.22,4.53,22.88,7.13,34.25
			h-5.89c-1.83-9.85-2.75-20.01-5.82-29.54c-5.7-6.84-15.5-6.76-23.25-9.84c-3.91-1.22-9.72-4.59-12.18,0.57
			c-5.25,8.54-14.79,12.59-21.85,19.22c0.17,6.62,2.5,12.99,3.05,19.59h-3.2c-1.08-5.48-1.55-11.11-3.32-16.44
			c-7.39,3.43-12.04,10.65-17.46,16.44h-6.65c9.31-10.83,19.4-21.06,31.5-28.8c6.47-4.1,12.96-8.8,15.85-16.21
			c1.05-3.64,5.14-2,7.92-2.37c-0.88-4.37-6.27-3.64-9.51-5.13c-7.27-1.88-6.86-11.59-13.21-14.67c-5.02-2.53-10.62-4.13-16.26-4.28
			c-5.07,0.47-8.63,4.65-12.48,7.54c-4.17,2.58-11.83,5.57-8.46,11.77c6.78,1.99,14.1,2.6,21.12,2.33
			c4.82-3.29,3.66-9.82,2.75-14.71c7.16-0.85,6.92,9.24,3.9,13.37c-11.89,17.72-28.38,32.07-38.36,51.16h-5.61
			c8.83-17.2,23-30.65,34.17-46.18c-5.67-2.86-7.13,4.13-9.42,7.77c-7.63,14.25-21.43,27.1-38.57,26.63
			c-23.14,2.05-45.08-13.78-53.61-34.74c-0.09-2.25-5.77-0.75-3.61,0.96c12.18,15.4,26.23,29.43,37.5,45.56h-5.91
			c-11.28-14.44-22.66-28.84-35.13-42.29c-5.35-5.07-5.39-13.13-3.45-19.75c0.12-2.47,3.02-1.18,4.62-1.44
			c-0.08,4.36-1.96,9-0.13,13.18c7.43-0.42,15.07-1,22.18-3.31c1.73-5.08-4.33-6.97-7.5-9.38c-4.71-2.96-8.81-8.33-14.94-7.72
			c-5.59,0.48-11.8,1.43-16.08,5.37c-0.46,2.98,0.67,7.01-2.97,8.36c-5.37,4.15-14.38,3.88-17.84,9.91
			c2.98-0.07,5.41-1.87,8.03-3.02c2.56,2.14,3.03,5.7,4.3,8.62c2.31,6.8,8.88,10.56,14.2,14.8c11.43,8.25,22.99,16.46,32.81,26.67
			h-8.54c-5.18-7.77-13.24-13.01-20.93-18c-1.71,5.86-2.05,12-3.07,18h-3.14c0.22-6.87,3.08-13.78,1.93-20.57
			c-6.79-6.66-15.14-11.96-19.38-20.89c-9.21,0.47-18.13,3.82-27.17,5.65c-5.35,1.88-12.37,4.38-13.21,10.88
			c-1.33,8.28-2.32,16.61-3.41,24.93h-5.69c1.02-3.96,1.13-8.05,1.07-12.12l0.19-0.85c2.74-7.36,1.28-16,6.57-22.4
			c2.5-1.77,5.16-3.31,7.89-4.7c3.03-0.57,5.96-1.52,8.66-3.04c4.87-1.95,12.4-0.54,13.94-6.9c2.59-7.49,12.18-6.75,16.85-11.87
			c2.37-5.32,5.64-10.66,11.68-12.24c2.54-1.18,12.22-0.2,9.17-3.57c-12.81-11.99-26.35-25.14-30.11-43.02
			c-0.56-4.73-0.09-10-3.02-14.05c-4.24-1.28-9.07-1.41-12.56-4.46c-11.77-11.74-20.04-26.95-22.38-43.52
			c-0.08-7.51-0.12-15.02-0.11-22.53c1.63-5.06,3.92-10.51,8.84-13.16c4.11-2.58,9.06-1.09,13.56-1.03
			c-0.01-3.14-0.57-6.24-1.11-9.33c-0.47-7.86-0.85-15.78-2.82-23.44c-0.44-9.18-0.59-18.38,0-27.55c1.55-5.35,2.28-10.86,2.62-16.4
			c2.41-9.32,5.68-18.45,10.14-26.98c1.55-3.03,3.51-6,3.8-9.48c0.46-3.42,0.8-6.86,1.18-10.29c3.73-0.47,9.82,1.87,11.01-3.2
			c3.54-9.63,9.63-19.27,19.71-22.94c-0.15,1.99-0.45,3.97-0.65,5.95c11.36-10.55,24.89-19.81,31.73-34.21
			c3.56-0.93,3.27,9.28,6.44,3.62c1.72-2.93,3.13-6.04,4.83-8.99c2.89-3.09,2.73-9.41,7.07-10.62c0.9,1.43,1.58,3.02,2.71,4.3
			C207.87,18.74,209.32,13.69,211.09,8.84z M193.15,51.28c1.69-5.74,6.1-10.35,6.93-16.37c-6.76,8.7-11.53,19.91-21.99,25.06
			c-0.83,0.61-1.68-0.02-2.41-0.44c1.62-1.84,2.82-4.02,3.5-6.38c-7.54,6.82-15.47,13.33-22.5,20.69
			c-4.46,2.23-5.07,9.11-9.83,11.14c-3.72,1.47-3.58-7.64-5.55-1.91c-1.12,2.27-1.77,4.74-2.55,7.15
			c-1.02,6.04-6.37,6.08-11.39,5.87c-0.03,3.06,0.67,6.38-1.19,9.09c-14.13,23.92-19.35,53.18-14.25,80.4
			c8.58-9.18,10.62-22.49,10.35-34.6c-0.27-4.7,3.54-8.91,1.58-13.59c1.74-3.03,5.34-4.22,7.73-6.64c0.07-2.23-0.25-4.44-0.36-6.66
			c3.88,2.26,6.55,6.17,10.74,7.96c-0.76-2.63-1.64-5.25-2.02-7.96c3.39,1.02,6.59,2.57,9.92,3.78c-0.8-1.45-0.71-3.17-1.5-4.62
			c10.18,0.82,20.64-0.01,30.37,3.71c-0.9-1.57-1.79-3.16-2.61-4.78c10.43-0.41,19.81,4.48,28.86,8.93
			c-0.82-2.75-1.93-5.41-2.72-8.17c2.19,1.37,4.65,5.64,7.03,2.21c2.09,2.58,3,5.88,4.84,8.63c2.71-0.96,5.31-2.43,7.26-4.56
			c0.6-0.35,1.78-1.07,2.38-1.42c7.26-1.16,13.83-4.98,21.17-5.7c-1.37,3.6-4.68,5.87-6.88,8.91c7-1.16,12.05-6.4,17.88-9.93
			c-1.06,2.2-2.09,4.42-3.11,6.64c9.24-2.01,18.5-3.99,27.98-4.48c-1.92,2.3-4.02,4.46-5.72,6.94c6.93,0.65,11.49-4.94,16.94-8.05
			c0.24,4.39-2.88,7.76-3.99,11.78c4.97,0.11,7.55-4.67,11.46-6.87c-2.5,5.98,5.07,7.33,5.82,12.36c-4,1.78,0.02,5.92,0.33,8.81
			c3.37,13.7,0.87,29.81,10.36,41.4c5.73-27.89-1.43-56.73-10.27-83.26c-1.34-3.5,2.27-9.62-3.27-9.98
			c-4.57-0.43-2.87-5.88-3.54-9.06c-1.8,0.77-3.48,2.84-5.53,2.37c-3.01-2.54-4.42-6.43-7.01-9.35c-2.25-4.17-5.43-7.93-9.55-10.35
			c0.64,1.86,1.36,3.7,2.35,5.41c-1.15-0.75-2.49-1.27-3.87-1.23c-3.8-5.28-10.63-6.93-15.59-10.87c-6.29-3.56-10.76-9.4-16.7-13.39
			c0.33,1.53,0.69,3.06,1.19,4.54c-3.82-1.02-6.99-3.42-10.46-5.2c-3.19-4.67-6.04-9.81-10.69-13.22c1.29,3.66,3.19,7.11,3.97,10.95
			c-7.09-5.82-9.62-15.28-15.01-22.44C205.13,32.98,201.95,44.43,193.15,51.28z M158.96,128.37c1.21,1.58,2.79,2.79,4.31,4.05
			c-5.07,2.56-10.91-0.07-16.09-1.13c0.95,1.84,1.91,3.67,2.68,5.6c-4.93,1.28-10.97-4.75-14.55,0.45
			c-7.88,10.45-8.38,24.05-9.45,36.55c-0.4,8.02-5.49,14.47-7.94,21.83c-2.36,13.68-0.23,27.58,0.44,41.28
			c-2.2,14.2,1.95,28.26,5.78,41.79c1.11,9.99,3.87,19.72,5.53,29.63c3.3,18.11,17.48,31.25,30.64,42.89
			c0.14,0.11,0.41,0.32,0.55,0.43c0.7,0.53,2.12,1.59,2.82,2.12c0.18,0.13,0.54,0.38,0.72,0.51c0.18,0.12,0.53,0.37,0.7,0.49
			c0.23,0.18,0.7,0.53,0.94,0.71l1.07,0.8c0.25,0.18,0.76,0.55,1.01,0.74c0.21,0.16,0.64,0.47,0.85,0.63
			c0.25,0.18,0.74,0.54,0.99,0.72l1.08,0.77c0.25,0.16,0.75,0.5,0.99,0.67c0.23,0.17,0.68,0.5,0.9,0.66l0.91,0.66
			c0.2,0.14,0.6,0.43,0.79,0.57c0.18,0.13,0.54,0.4,0.72,0.53c0.82,0.59,2.47,1.77,3.29,2.36c0.19,0.12,0.55,0.37,0.74,0.5
			c0.2,0.14,0.6,0.41,0.8,0.54l0.92,0.62c0.23,0.14,0.69,0.44,0.92,0.58c0.23,0.16,0.7,0.46,0.94,0.61l1.03,0.64
			c0.26,0.15,0.77,0.46,1.03,0.61c0.54,0.36,1.62,1.1,2.15,1.47c0.21,0.14,0.62,0.44,0.82,0.58c0.22,0.14,0.66,0.42,0.88,0.56
			l0.92,0.53c0.25,0.13,0.75,0.38,1,0.5l1.02,0.44c0.55,0.26,1.67,0.78,2.23,1.04c0.53,0.25,1.6,0.76,2.14,1.01l0.8,0.37
			c0.2,0.08,0.59,0.23,0.79,0.3c0.5,0.12,1.51,0.36,2.01,0.48c0.53,0.2,1.58,0.58,2.1,0.78c8,1.5,16.24,1.54,24.23-0.04
			c0.53-0.2,1.57-0.58,2.1-0.77c0.5-0.13,1.51-0.37,2.01-0.49c0.2-0.07,0.61-0.23,0.81-0.3l0.82-0.39c0.54-0.26,1.63-0.78,2.17-1.04
			c0.53-0.29,1.6-0.87,2.14-1.16c0.23-0.11,0.7-0.32,0.93-0.42l0.92-0.47c0.25-0.14,0.75-0.42,1-0.55l0.94-0.55
			c0.23-0.15,0.69-0.46,0.92-0.61c0.54-0.33,1.62-1.01,2.16-1.35c0.25-0.14,0.76-0.43,1.01-0.57l1.01-0.63
			c0.23-0.15,0.7-0.46,0.94-0.62c0.24-0.16,0.73-0.49,0.98-0.66l1.07-0.76c0.24-0.18,0.74-0.54,0.98-0.72
			c0.21-0.15,0.64-0.46,0.85-0.61c0.25-0.18,0.76-0.53,1.01-0.71l1.08-0.77c0.25-0.18,0.74-0.54,0.99-0.72s0.75-0.53,1-0.7
			l1.08-0.78c0.25-0.18,0.74-0.54,0.99-0.72c0.21-0.15,0.63-0.45,0.84-0.6c0.24-0.17,0.71-0.5,0.95-0.67l0.97-0.68
			c0.21-0.15,0.62-0.44,0.83-0.59c0.18-0.13,0.55-0.4,0.74-0.53c0.82-0.62,2.46-1.86,3.27-2.48c0.17-0.13,0.49-0.38,0.65-0.51
			c0.12-0.09,0.36-0.27,0.47-0.36c0.17-0.13,0.49-0.38,0.65-0.51c0.76-0.6,2.27-1.8,3.03-2.4c0.13-0.11,0.41-0.32,0.54-0.43
			c0.11-0.09,0.32-0.26,0.43-0.35c8.51-7.23,16.24-15.53,22.38-24.89c6.19-10.09,7.51-22.2,9.37-33.65
			c3.46-17.89,10.61-35.56,8.64-54.08c-0.92-14.04,3.24-28.23,0.27-42.17c-2.6-7.21-7.32-13.68-8.18-21.5
			c-1.31-11.62-1.4-24.07-7.79-34.32c-2.83-5.2-9.82,0.58-13.68-2.94c0.3-1.13,0.71-2.22,1.06-3.33
			c-5.62,0.59-11.54,2.77-17.03,0.46c1.6-1.41,3-3.03,4.61-4.43c-8.99-1.04-17.24,3.11-24.44,7.98c-0.24-1.2-0.47-2.38-0.71-3.57
			c-5.25,1.06-11.52,4.16-16.41,1.02c2.17-1.72,4.52-3.24,6.49-5.22c-7.16,0.8-13.06,5.21-19.14,8.62
			c-2.49-1.27-5.05-2.19-7.76-0.89c-5.27-2.52-9.72-6.8-15.57-8.18c0.51,1.36,0.83,2.77,1.29,4.15
			C181.24,133.63,170.52,127.31,158.96,128.37z M94.52,221.52c-4.77,7.55-4.02,17.07-2.68,25.52c1.61,11.05,4.79,22.29,12.13,30.99
			c4.03,5.25,7.71,13.19,15.65,12.24c-0.65-3.95-1.32-7.99-2.97-11.67c-0.1-1.08-0.29-2.14-0.56-3.17
			c-2.1-11.05-5.25-21.96-5.04-33.33c0.4-2.57,2.27-5.96-0.31-7.94c-0.16-3.86-0.01-7.86-1.32-11.55
			C106.74,217.15,97.81,216.01,94.52,221.52z M322.1,219.07c-6.23,2.87-6.17,10.63-5.67,16.44c-1.19,1.65,0.14,3.86,0.4,5.68
			c-0.31,11.15-2.2,22.12-5.25,32.87c-0.3,1.42-0.41,2.87-0.36,4.32c-1.81,3.65-2.46,7.75-2.94,11.75c3.71,0.61,7.52-1.12,9.72-4.12
			c6.2-8.19,12.98-16.42,15.43-26.64c2.79-11.16,5.41-23.29,1.68-34.53C333.54,219.58,327.11,215.81,322.1,219.07z M187.42,379.41
			c-4,3.78-0.04,10.86-3.87,14.19c-5.61,2.14-3.61-5.73-5.74-8.14c-2.85,0.72-10.4,0.07-7.9,4.61c9,16.73,27.88,28.31,47.1,26.69
			c17.45,1.32,31.91-12.74,38.34-27.76c-1.55-2.29-5.25-2.39-7.77-1.77c-0.17,3.54-0.24,8.82-5.26,6.62
			c-2.06-4.7-0.79-10.01-1.39-14.97c-14.29,5.42-30.47,8.81-45.32,3.46C192.95,381.6,189.83,378.31,187.42,379.41z"/>
	</g>
	<g>
		<path class="st2" d="M132.35,234.65c0.63-7.91,7.65-15.32,15.52-16.9c14.38-0.1,28.78-0.29,43.16,0.09
			c2.03,0.67,3.93,1.87,5.03,3.76c-1.68,0.14-3.36,0.21-5.04,0.37c2.51,5.23,6.5,9.94,7.24,15.87
			c-8.12,8.55-18.94,16.02-31.21,15.87C153.11,254.72,139.5,246.29,132.35,234.65z M138.22,234.76
			c10.19,20.56,41.85,20.77,54.92,3.03c-0.44-7.05-6.05-15.25-14.1-14.08c-3.04-0.27-6.1-0.21-9.14,0.03
			c-3.56-0.5-7.2-0.6-10.77-0.09c-1.69-0.14-3.38-0.15-5.05-0.04C147,222.61,138.87,227.39,138.22,234.76z"/>
	</g>
	<g>
		<path class="st2" d="M231.88,221.58c1.11-1.9,3.02-3.11,5.08-3.77c14.39-0.29,28.8-0.24,43.19-0.02
			c7.43,1.45,12.99,7.82,15.28,14.78c0.92,2.17-1.01,4.04-2.18,5.65c-7.8,9.44-19.75,16.44-32.3,15.49
			c-12.36,0.16-23.29-7.28-31.5-15.89c1.15-5.83,4.84-10.66,7.49-15.86C235.25,221.8,233.56,221.73,231.88,221.58z M234.42,237.63
			c9.59,11.8,27.45,16.99,41.41,10.14c5.9-2.89,11.66-7.43,13.97-13.76c-1.75-6.94-8.88-11.32-15.89-10.3
			c-2.93-0.27-5.89-0.22-8.82,0.06c-3.63-0.43-7.32-0.67-10.95-0.13c-1.74-0.13-3.48-0.13-5.21,0.02
			C240.77,222.58,235.59,230.62,234.42,237.63z"/>
	</g>
	<path class="st2" d="M171.4,316.41c2.92-0.11,5.07,2.75,7.9,3.37c22.03,5.89,45.56,5.84,67.66,0.26c2.95-0.65,5.15-2.96,7.98-3.87
		c2.38,0.53,5.43,3.81,3.41,6.1c-20.59,4.24-42.14,8.37-63.35,4.82c-8.38-0.85-16.4-3.66-24.81-4.2
		C166.07,322.3,168.63,317.07,171.4,316.41z"/>
</g>
<g>
	<path class="st3" d="M195.01,29.3c1.65-4.24,1.74-9.78,5.76-12.6c0.33,0.49,0.98,1.48,1.31,1.98
		C197.74,19.89,197.9,26.21,195.01,29.3z"/>
</g>
<g>
	<path class="st4" d="M193.15,51.28c8.8-6.85,11.98-18.3,18.88-26.75c5.39,7.16,7.92,16.62,15.01,22.44
		c-0.78-3.84-2.68-7.29-3.97-10.95c4.65,3.41,7.5,8.55,10.69,13.22c3.2,5.32,8.28,9.05,12.1,13.86c-8.08-2.6-13.42-9.4-19.24-15.12
		c-0.07,1.33-0.11,2.65-0.21,3.98c-7.56-5.01-9.74-14.29-14.6-21.43c-2.24,4.38-3.58,9.14-4.54,13.94
		c-4.09,10.22-9.33,19.91-16,28.68c-2,1.34-4.04,2.61-6.11,3.83c5.38-8.78,12.47-16.86,15.04-27.07
		c-5.27,4.14-8.72,10.46-15.15,13.09C187.35,58.83,190.26,55.05,193.15,51.28z"/>
	<path class="st4" d="M141.3,83.07c1.71,2.26,3.95,4.25,6.48,5.49c-2.8,0.41-6.7,3.65-9.03,1.66
		C139.53,87.81,140.18,85.34,141.3,83.07z"/>
</g>
<g>
	<g>
		<path class="st5" d="M207.27,44.47c0.96-4.8,2.3-9.56,4.54-13.94c4.86,7.14,7.04,16.42,14.6,21.43c0.1-1.33,0.14-2.65,0.21-3.98
			c5.82,5.72,11.16,12.52,19.24,15.12c-3.82-4.81-8.9-8.54-12.1-13.86c3.47,1.78,6.64,4.18,10.46,5.2
			c8.61,8.78,19.71,15.72,31.1,19.72c1.38-0.04,2.72,0.48,3.87,1.23c2.35,1.21,5.21,7.33,7.2,4.94c2.59,2.92,4,6.81,7.01,9.35
			c2.05,0.47,3.73-1.6,5.53-2.37c0.67,3.18-1.03,8.63,3.54,9.06c5.54,0.36,1.93,6.48,3.27,9.98c8.84,26.53,16,55.37,10.27,83.26
			c-9.49-11.59-6.99-27.7-10.36-41.4c-0.31-2.89-4.33-7.03-0.33-8.81c-0.75-5.03-8.32-6.38-5.82-12.36
			c-3.91,2.2-6.49,6.98-11.46,6.87c1.11-4.02,4.23-7.39,3.99-11.78c-5.45,3.11-10.01,8.7-16.94,8.05c1.7-2.48,3.8-4.64,5.72-6.94
			c-9.48,0.49-18.74,2.47-27.98,4.48c1.02-2.22,2.05-4.44,3.11-6.64c-5.83,3.53-10.88,8.77-17.88,9.93c2.2-3.04,5.51-5.31,6.88-8.91
			c-7.34,0.72-13.91,4.54-21.17,5.7c3.74-2.46,7.92-4.22,11.46-7c-2.76,0.14-5.52,0.45-8.18,1.19c5.92-3.93,12.94-5.34,19.42-8
			c-7.05-4.14-15.18-1.47-22.61-0.22c4.01-7.47,12.94-2.62,19.41-3.7c-7.61-5.15-18.22-4.61-25.07-11.47
			c0.6-0.99,0.87-2.12,0.77-3.28c1.59,1.29,3.28,2.45,5.01,3.56c-1.62-3.66-3.54-7.18-4.95-10.93c6.43,3.87,11.64,9.89,19.12,11.86
			c-3.06-4.34-8.25-6.33-11.69-10.29c-4.18-4.42-6.9-9.91-9.87-15.15c-0.98-2.53-4.04-2.11-6.22-1.97c0.21,3.25,0.98,6.43,1.67,9.61
			c-0.74-0.69-1.49-1.36-2.26-2c-1.61,4.07-2.25,8.43-3.12,12.7c-9.53,11.37-23.92,16.58-37.69,20.73
			c5.32,3.33,11.91-1.12,17.79-0.88c-1.16,1.28-2.14,2.69-3.15,4.09c-3.57-0.25-7.2-0.37-10.7,0.5c5.39,2.37,11.39,2.68,17.14,3.64
			c-1.77-1.39-3.6-2.71-5.53-3.86c4.27,1.07,8.26,2.9,12.07,5.07c-0.4-1.7-0.92-3.36-1.29-5.06c3.87,0.67,7.38,2.57,11.21,3.32
			c2.09-1.8,3.92-3.93,6.28-5.39c0.13,4.83-0.46,9.74,0.71,14.5c2.6-4.05,5.43-8.32,10.07-10.22c0.07,1.62,0.16,3.25,0.1,4.87
			c-0.83,1.54-4.36,3.61-2.28,5.2c-1.95,2.13-4.55,3.6-7.26,4.56c-1.84-2.75-2.75-6.05-4.84-8.63c-2.38,3.43-4.84-0.84-7.03-2.21
			c0.79,2.76,1.9,5.42,2.72,8.17c-9.05-4.45-18.43-9.34-28.86-8.93c0.82,1.62,1.71,3.21,2.61,4.78c-9.73-3.72-20.19-2.89-30.37-3.71
			c0.79,1.45,0.7,3.17,1.5,4.62c-3.33-1.21-6.53-2.76-9.92-3.78c0.38,2.71,1.26,5.33,2.02,7.96c-4.19-1.79-6.86-5.7-10.74-7.96
			c0.11,2.22,0.43,4.43,0.36,6.66c-2.39,2.42-5.99,3.61-7.73,6.64c1.96,4.68-1.85,8.89-1.58,13.59c0.27,12.11-1.77,25.42-10.35,34.6
			c-5.1-27.22,0.12-56.48,14.25-80.4c1.86-2.71,1.16-6.03,1.19-9.09c5.02,0.21,10.37,0.17,11.39-5.87c2.33,1.99,6.23-1.25,9.03-1.66
			c-2.53-1.24-4.77-3.23-6.48-5.49c1.97-5.73,1.83,3.38,5.55,1.91c4.76-2.03,5.37-8.91,9.83-11.14c8.8-0.83,18.03-5.29,23.55-12.42
			c-3.07,1.28-6.04,2.77-9.15,3.93c1.46-2,2.93-4,4.6-5.82c0.73,0.42,1.58,1.05,2.41,0.44c10.46-5.15,15.23-16.36,21.99-25.06
			c-0.83,6.02-5.24,10.63-6.93,16.37c-2.89,3.77-5.8,7.55-8.1,11.72c6.43-2.63,9.88-8.95,15.15-13.09
			c-2.57,10.21-9.66,18.29-15.04,27.07c2.07-1.22,4.11-2.49,6.11-3.83c-2.23,8.89-11.54,12.69-15.61,20.24
			c-1.85,1.55-3.7,3.09-5.52,4.68c13.87-2.7,28.02-10.27,34.79-23.11c-3.29,2.43-6.33,5.18-9.76,7.42
			c4.18-8.63,9.88-16.63,11.93-26.17c-0.74,0.57-1.46,1.15-2.16,1.75C205.86,53.61,210.4,48.72,207.27,44.47z M216.16,50.91
			c-1.06,12,4.92,24.23,14.89,30.94c-1.99-5.17-6.35-9.21-7.32-14.78c4.84,3.15,8.41,8.15,14.11,9.97
			C229.52,69.26,222.85,60.04,216.16,50.91z M229.85,61.11c-0.01,0.48-0.04,1.45-0.06,1.93l-0.83-0.32
			c2.42,6.94,8.45,11.88,13.96,16.42c2.49,1.39,5.45,4.63,8.44,2.83c3.75,2.29,7.52,4.72,11.83,5.81c-1.93-4.39-7.08-5.6-10.57-8.41
			C244.38,74.1,237.68,66.81,229.85,61.11z M171.59,74.74c-2.54,1.09-5.17,2.45-8.02,1.73c-5.56-1.27-9.69,4.38-10.6,9.25
			c6.6-3.87,16.57-3.69,20.05-11.53C172.66,74.33,171.95,74.61,171.59,74.74z M204.9,79.76c-3.42,4.88-6.4,10.19-10.93,14.19
			c-3.19,3.15-7.54,5.14-9.9,9.09c0.47,0.02,1.4,0.07,1.87,0.1l-0.17,0.93c8.32-1.17,16.5-7.88,18.07-16.34l-0.7,0.49
			c1.83-2.67,3.63-5.38,5.03-8.3C207.45,78.74,205.61,78.33,204.9,79.76z M263.88,81.12c4.25,3.76,9.6,5.92,14.5,8.68
			c-0.87-5.12,4.79-1.03,7.53-0.96C280.32,82.97,271.66,81.4,263.88,81.12z M172.62,88.82c-4.54,4.1-9.83,7.09-14.96,10.36
			c6.47,0.55,15.09-4.11,16.24-11.2C173.58,88.19,172.94,88.61,172.62,88.82z M240.82,88.23c3.99,6.83,12.59,9.89,20.17,9.98
			C254.62,94.36,247.5,91.6,240.82,88.23z M144.34,90.17c-6.45,3.77-9.53,10.82-12.09,17.48c4.01,0.74,5.46,4.78,8.29,7.18
			c0.52-1.49,0.98-3,1.51-4.49c2.93,1.52,9.76,4.85,6.49-1.14c3.65-0.3,7.98,0.27,10.56-2.93c-4.67-0.08-9.64-0.37-13.37-3.56
			c4-5.46,12.36-4.99,16.26-10.66c-6.11,1.01-11.99,3.03-17.91,4.8C145.39,94.12,150.73,87.93,144.34,90.17z M269.44,91.46
			c-0.54,1.63,4.58,3.23,6.4,4.71c4.14,1.48,3.36,6.9,7.13,8.84c4.98,2.81,5.55,9.99,11.02,11.92c2.82-1.17,2.15-5.88,5.33-6.35
			c1.21-0.62,3.2-0.23,3.84-1.64c-1.99-2.3-6.97-0.98-7.26-4.78c-0.96-5.37-4.26-11.65-10.59-11.31c0.88,2.03,1.68,4.1,2.54,6.14
			C281.85,96.25,276.4,91.21,269.44,91.46z M252.05,100.97c4.64,5.57,11.86,7.52,17.88,11.1c-1.84,0.63-3.47,1.7-5.09,2.75
			c6.2,1.57,14.56,4.36,20.02,0.02c-3.04-6.88-10.48-10.42-17.41-12.12c-2.03-0.83-3.01,2.53-5.1,1.77
			C258.87,103.44,255.62,101.75,252.05,100.97z M146.09,113.93c1.72,3.51,7.01,7.35,10.35,5.14
			C154.56,116.37,149.44,115.39,146.09,113.93z M298.27,114.03c-0.8,3-1.44,6.04-1.88,9.12C299.86,121.84,302.3,116.1,298.27,114.03
			z"/>
	</g>
</g>
<g>
	<path class="st6" d="M227.88,30.84c2.02,1.87,3.84,3.92,5.32,6.25C230.98,35.44,229.21,33.26,227.88,30.84z"/>
</g>
<g>
	<path class="st7" d="M183.74,34.67c0.75-1.04,1.38-2.5,2.9-2.42c1.18,2,0.13,6.84,3.54,6.04C187.01,43.95,187.3,33.74,183.74,34.67
		z"/>
</g>
<g>
	<path class="st8" d="M207.27,44.47c3.13,4.25-1.41,9.14-2.33,13.49c-5.52,14.54-15.85,27.5-29.28,35.43
		c4.07-7.55,13.38-11.35,15.61-20.24C197.94,64.38,203.18,54.69,207.27,44.47z"/>
</g>
<g>
	<path class="st9" d="M243.03,49.9c5.94,3.99,10.41,9.83,16.7,13.39c4.96,3.94,11.79,5.59,15.59,10.87
		c-11.39-4-22.49-10.94-31.1-19.72C243.72,52.96,243.36,51.43,243.03,49.9z"/>
</g>
<g>
	<path class="st10" d="M216.16,50.91c6.69,9.13,13.36,18.35,21.68,26.13c-5.7-1.82-9.27-6.82-14.11-9.97
		c0.97,5.57,5.33,9.61,7.32,14.78C221.08,75.14,215.1,62.91,216.16,50.91z"/>
	<path class="st10" d="M156.68,73.84c7.03-7.36,14.96-13.87,22.5-20.69c-0.68,2.36-1.88,4.54-3.5,6.38
		c-1.67,1.82-3.14,3.82-4.6,5.82c3.11-1.16,6.08-2.65,9.15-3.93C174.71,68.55,165.48,73.01,156.68,73.84z"/>
	<path class="st10" d="M204.94,57.96c0.7-0.6,1.42-1.18,2.16-1.75c-2.05,9.54-7.75,17.54-11.93,26.17c3.43-2.24,6.47-4.99,9.76-7.42
		c-6.77,12.84-20.92,20.41-34.79,23.11c1.82-1.59,3.67-3.13,5.52-4.68C189.09,85.46,199.42,72.5,204.94,57.96z"/>
</g>
<g>
	<path class="st11" d="M229.85,61.11c7.83,5.7,14.53,12.99,22.77,18.26c3.49,2.81,8.64,4.02,10.57,8.41
		c-4.31-1.09-8.08-3.52-11.83-5.81c-8.34-4.89-15.35-11.6-21.57-18.93C229.81,62.56,229.84,61.59,229.85,61.11z"/>
</g>
<g>
	<path class="st12" d="M228.96,62.72l0.83,0.32c6.22,7.33,13.23,14.04,21.57,18.93c-2.99,1.8-5.95-1.44-8.44-2.83
		C237.41,74.6,231.38,69.66,228.96,62.72z"/>
	<path class="st12" d="M146.09,113.93c3.35,1.46,8.47,2.44,10.35,5.14C153.1,121.28,147.81,117.44,146.09,113.93z"/>
</g>
<g>
	<path class="st13" d="M276.84,69.98c4.12,2.42,7.3,6.18,9.55,10.35c-1.99,2.39-4.85-3.73-7.2-4.94
		C278.2,73.68,277.48,71.84,276.84,69.98z"/>
</g>
<g>
	<path class="st14" d="M210.37,72.4c2.18-0.14,5.24-0.56,6.22,1.97c2.97,5.24,5.69,10.73,9.87,15.15
		c3.44,3.96,8.63,5.95,11.69,10.29c-7.48-1.97-12.69-7.99-19.12-11.86c1.41,3.75,3.33,7.27,4.95,10.93
		c-1.73-1.11-3.42-2.27-5.01-3.56c-3.5-3.71-5.88-8.32-6.93-13.31C211.35,78.83,210.58,75.65,210.37,72.4z"/>
</g>
<g>
	<path class="st15" d="M171.59,74.74c0.36-0.13,1.07-0.41,1.43-0.55c-3.48,7.84-13.45,7.66-20.05,11.53
		c0.91-4.87,5.04-10.52,10.6-9.25C166.42,77.19,169.05,75.83,171.59,74.74z"/>
</g>
<g>
	<path class="st16" d="M204.9,79.76c0.71-1.43,2.55-1.02,3.27,0.16c-1.4,2.92-3.2,5.63-5.03,8.3c-4.73,6.02-10.38,11.32-17.2,14.92
		c-0.47-0.03-1.4-0.08-1.87-0.1c2.36-3.95,6.71-5.94,9.9-9.09C198.5,89.95,201.48,84.64,204.9,79.76z"/>
</g>
<g>
	<path class="st17" d="M206.66,92.71c0.87-4.27,1.51-8.63,3.12-12.7c0.77,0.64,1.52,1.31,2.26,2c1.05,4.99,3.43,9.6,6.93,13.31
		c0.1,1.16-0.17,2.29-0.77,3.28c-2.91-1.82-6.35-4.55-9.92-2.79C206.19,97.08,206.96,93.88,206.66,92.71z"/>
</g>
<g>
	<path class="st18" d="M263.88,81.12c7.78,0.28,16.44,1.85,22.03,7.72c-2.74-0.07-8.4-4.16-7.53,0.96
		C273.48,87.04,268.13,84.88,263.88,81.12z"/>
</g>
<g>
	<path class="st19" d="M304.1,80.87c1.82,3.96,0.84,9.9,5.8,11.59C303.21,92.92,305.17,85.25,304.1,80.87z"/>
</g>
<g>
	<path class="st20" d="M172.62,88.82c0.32-0.21,0.96-0.63,1.28-0.84c-1.15,7.09-9.77,11.75-16.24,11.2
		C162.79,95.91,168.08,92.92,172.62,88.82z"/>
</g>
<g>
	<path class="st21" d="M203.14,88.22l0.7-0.49c-1.57,8.46-9.75,15.17-18.07,16.34l0.17-0.93C192.76,99.54,198.41,94.24,203.14,88.22
		z"/>
</g>
<g>
	<path class="st22" d="M240.82,88.23c6.68,3.37,13.8,6.13,20.17,9.98C253.41,98.12,244.81,95.06,240.82,88.23z"/>
</g>
<g>
	<path class="st23" d="M120.76,99.36c-0.36-3.05-3.12-9.92,1.18-10.29C121.56,92.5,121.22,95.94,120.76,99.36z"/>
</g>
<g>
	<path class="st24" d="M144.34,90.17c6.39-2.24,1.05,3.95-0.26,6.68c5.92-1.77,11.8-3.79,17.91-4.8c-3.9,5.67-12.26,5.2-16.26,10.66
		c3.73,3.19,8.7,3.48,13.37,3.56c-2.58,3.2-6.91,2.63-10.56,2.93c3.27,5.99-3.56,2.66-6.49,1.14c-0.53,1.49-0.99,3-1.51,4.49
		c-2.83-2.4-4.28-6.44-8.29-7.18C134.81,100.99,137.89,93.94,144.34,90.17z"/>
</g>
<g>
	<path class="st25" d="M269.44,91.46c6.96-0.25,12.41,4.79,18.41,7.53c-0.86-2.04-1.66-4.11-2.54-6.14
		c6.33-0.34,9.63,5.94,10.59,11.31c0.29,3.8,5.27,2.48,7.26,4.78c-0.64,1.41-2.63,1.02-3.84,1.64c-3.18,0.47-2.51,5.18-5.33,6.35
		c-5.47-1.93-6.04-9.11-11.02-11.92c-3.77-1.94-2.99-7.36-7.13-8.84C274.02,94.69,268.9,93.09,269.44,91.46z"/>
</g>
<g>
	<path class="st26" d="M168.97,113.44c13.77-4.15,28.16-9.36,37.69-20.73c0.3,1.17-0.47,4.37,1.62,3.1
		c3.57-1.76,7.01,0.97,9.92,2.79c6.85,6.86,17.46,6.32,25.07,11.47c-6.47,1.08-15.4-3.77-19.41,3.7c7.43-1.25,15.56-3.92,22.61,0.22
		c-6.48,2.66-13.5,4.07-19.42,8c-1.15,0.64-2.27,1.33-3.38,2.03c0.06-1.62-0.03-3.25-0.1-4.87c-4.64,1.9-7.47,6.17-10.07,10.22
		c-1.17-4.76-0.58-9.67-0.71-14.5c-2.36,1.46-4.19,3.59-6.28,5.39c-3.83-0.75-7.34-2.65-11.21-3.32c0.37,1.7,0.89,3.36,1.29,5.06
		c-3.81-2.17-7.8-4-12.07-5.07l-0.91-0.28c1.01-1.4,1.99-2.81,3.15-4.09C180.88,112.32,174.29,116.77,168.97,113.44z"/>
	<path class="st26" d="M252.05,100.97c3.57,0.78,6.82,2.47,10.3,3.52c2.09,0.76,3.07-2.6,5.1-1.77c6.93,1.7,14.37,5.24,17.41,12.12
		c-5.46,4.34-13.82,1.55-20.02-0.02c1.62-1.05,3.25-2.12,5.09-2.75C263.91,108.49,256.69,106.54,252.05,100.97z"/>
</g>
<g>
	<path class="st27" d="M298.27,114.03c4.03,2.07,1.59,7.81-1.88,9.12C296.83,120.07,297.47,117.03,298.27,114.03z"/>
</g>
<g>
	<path class="st28" d="M172.91,117.15c3.5-0.87,7.13-0.75,10.7-0.5l0.91,0.28c1.93,1.15,3.76,2.47,5.53,3.86
		C184.3,119.83,178.3,119.52,172.91,117.15z"/>
</g>
<g>
	<path class="st29" d="M316.93,119.85c1.19,3,1.72,6.17,2.25,9.34C317.7,126.29,317.15,123.07,316.93,119.85z"/>
</g>
<g>
	<path class="st30" d="M227.05,121.99c2.66-0.74,5.42-1.05,8.18-1.19c-3.54,2.78-7.72,4.54-11.46,7c-0.6,0.35-1.78,1.07-2.38,1.42
		c-2.08-1.59,1.45-3.66,2.28-5.2C224.78,123.32,225.9,122.63,227.05,121.99z"/>
</g>
<g>
	<g>
		<path class="st31" d="M158.96,128.37c11.56-1.06,22.28,5.26,33.83,4.31c-0.46-1.38-0.78-2.79-1.29-4.15
			c5.85,1.38,10.3,5.66,15.57,8.18c2.71-1.3,5.27-0.38,7.76,0.89c6.08-3.41,11.98-7.82,19.14-8.62c-1.97,1.98-4.32,3.5-6.49,5.22
			c4.89,3.14,11.16,0.04,16.41-1.02c0.24,1.19,0.47,2.37,0.71,3.57c7.2-4.87,15.45-9.02,24.44-7.98c-1.61,1.4-3.01,3.02-4.61,4.43
			c5.49,2.31,11.41,0.13,17.03-0.46c-0.35,1.11-0.76,2.2-1.06,3.33c3.86,3.52,10.85-2.26,13.68,2.94
			c6.39,10.25,6.48,22.7,7.79,34.32c0.86,7.82,5.58,14.29,8.18,21.5c2.97,13.94-1.19,28.13-0.27,42.17
			c1.97,18.52-5.18,36.19-8.64,54.08c-0.78-0.74-1.58-1.45-2.4-2.13c-7.09,10.15-12.67,22.38-23.46,29.18
			c-2.84-4.77-5.1-10.47-10.54-12.88c-11.69-6.07-25.05-1.45-37.42-0.92c-17.48,2.32-34.88-1.34-52.29-2.19
			c-9.58-0.46-17.92,5.29-22.36,13.48c-9.83-4.93-16.01-14.52-21.86-23.44c-0.76-1.58-2.3-1.56-3.77-1.13
			c-0.76-4.14-1.26-8.35-2.9-12.26c-3.83-13.53-7.98-27.59-5.78-41.79c-0.67-13.7-2.8-27.6-0.44-41.28
			c2.45-7.36,7.54-13.81,7.94-21.83c1.07-12.5,1.57-26.1,9.45-36.55c3.58-5.2,9.62,0.83,14.55-0.45c-0.77-1.93-1.73-3.76-2.68-5.6
			c5.18,1.06,11.02,3.69,16.09,1.13C161.75,131.16,160.17,129.95,158.96,128.37z M156.39,188.63c-10.24,1.84-21.84,7.89-23.67,19.13
			c6.27-2.78,12.6-5.69,19.51-6.48c14.83-2.95,29.55,3.19,44.27,2.2c2.13-4.72,0.7-11.67-4.85-13.19
			C180.41,186.32,168.03,187.28,156.39,188.63z M242.37,188.52c-3.64,0.83-7.67,1.7-10.35,4.48c-1.68,3.13-2.11,7.23-0.55,10.5
			c5.89,1.16,11.82-0.72,17.67-1.42c15.47-3.02,31.99-1.84,46.05,5.68c-2.11-11.14-13.26-17.33-23.58-19.13
			C261.95,187.25,252.03,187.06,242.37,188.52z M147.87,217.75c-7.87,1.58-14.89,8.99-15.52,16.9c7.15,11.64,20.76,20.07,34.7,19.06
			c12.27,0.15,23.09-7.32,31.21-15.87c-0.74-5.93-4.73-10.64-7.24-15.87c1.68-0.16,3.36-0.23,5.04-0.37c-1.1-1.89-3-3.09-5.03-3.76
			c-2.5-1.15-5.24-1.65-7.98-1.55C171.31,216.5,159.49,215.7,147.87,217.75z M236.96,217.81c-2.06,0.66-3.97,1.87-5.08,3.77
			c1.68,0.15,3.37,0.22,5.06,0.38c-2.65,5.2-6.34,10.03-7.49,15.86c8.21,8.61,19.14,16.05,31.5,15.89
			c12.55,0.95,24.5-6.05,32.3-15.49c1.17-1.61,3.1-3.48,2.18-5.65c-2.29-6.96-7.85-13.33-15.28-14.78
			c-8.64-1.44-17.41-1.67-26.15-1.44C248.32,216.57,242.32,215.4,236.96,217.81z M226.3,228.53c-2.7,8.54-0.81,17.83-0.43,26.62
			c0.9,3.15,0.24,8.55,3.94,9.71c-0.91-12.26-2.86-24.47-2.07-36.81C227.38,228.17,226.66,228.41,226.3,228.53z M195.61,296.47
			c3.79,2.38,8.09,3.9,12.56,4.3c2.88,3.57,8.63,3.13,11.57-0.12c4.22-0.26,8.37-1.57,11.76-4.15c8.14,2.19,9.85-11.34,3.99-14.67
			c0.17,3.76,2.74,9.77-1.75,11.78c-5.27-1.53-11.47-2.01-14.72,3.43c-3.42-0.17-6.85-0.09-10.26,0.23c-1.87-1.8-3.63-3.97-6.18-4.8
			c-3.34-0.58-6.68,1.84-9.93,0.91c-2.72-3.2-0.99-7.62-0.92-11.36C186.24,285.83,187.82,298.1,195.61,296.47z"/>
	</g>
	<path class="st31" d="M187.42,379.41c2.41-1.1,5.53,2.19,8.19,2.93c14.85,5.35,31.03,1.96,45.32-3.46
		c0.6,4.96-0.67,10.27,1.39,14.97c5.02,2.2,5.09-3.08,5.26-6.62c2.52-0.62,6.22-0.52,7.77,1.77c-6.43,15.02-20.89,29.08-38.34,27.76
		c-19.22,1.62-38.1-9.96-47.1-26.69c-2.5-4.54,5.05-3.89,7.9-4.61c2.13,2.41,0.13,10.28,5.74,8.14
		C187.38,390.27,183.42,383.19,187.42,379.41z"/>
</g>
<g>
	<path class="st3" d="M104.2,152.22c-0.19-5.6,0.71-11.15,2.62-16.4C106.48,141.36,105.75,146.87,104.2,152.22z"/>
</g>
<g>
	<path class="st32" d="M321,136.83c1.54,4.28,1.93,8.86,2.09,13.38C321.82,145.85,321.28,141.35,321,136.83z"/>
</g>
<g>
	<path class="st33" d="M324.22,159.6c1.46,6.52,1.72,13.3-0.02,19.81C323.5,172.82,323.45,166.19,324.22,159.6z"/>
</g>
<g>
	<path class="st34" d="M104.2,179.77c1.97,7.66,2.35,15.58,2.82,23.44C105.17,195.55,104.16,187.66,104.2,179.77z"/>
</g>
<g>
	<path class="st35" d="M156.39,188.63c11.64-1.35,24.02-2.31,35.26,1.66c5.55,1.52,6.98,8.47,4.85,13.19
		c-14.72,0.99-29.44-5.15-44.27-2.2c-6.91,0.79-13.24,3.7-19.51,6.48C134.55,196.52,146.15,190.47,156.39,188.63z"/>
	<path class="st35" d="M242.37,188.52c9.66-1.46,19.58-1.27,29.24,0.11c10.32,1.8,21.47,7.99,23.58,19.13
		c-14.06-7.52-30.58-8.7-46.05-5.68c-5.85,0.7-11.78,2.58-17.67,1.42c-1.56-3.27-1.13-7.37,0.55-10.5
		C234.7,190.22,238.73,189.35,242.37,188.52z"/>
</g>
<g>
	<path class="st36" d="M321.09,203.18c-0.06-4.86,0.53-9.71,2.04-14.33C322.95,193.68,322.39,198.51,321.09,203.18z"/>
</g>
<g>
	<path class="st37" d="M147.87,217.75c11.62-2.05,23.44-1.25,35.18-1.46c2.74-0.1,5.48,0.4,7.98,1.55
		C176.65,217.46,162.25,217.65,147.87,217.75z"/>
	<path class="st37" d="M236.96,217.81c5.36-2.41,11.36-1.24,17.04-1.46c8.74-0.23,17.51,0,26.15,1.44
		C265.76,217.57,251.35,217.52,236.96,217.81z"/>
</g>
<g>
	<path class="st38" d="M94.52,221.52c3.29-5.51,12.22-4.37,14.9,1.09c1.31,3.69,1.16,7.69,1.32,11.55
		c-4.31-3.69-7.35-9.76-13.54-10.4c0.6,1.13,1.27,2.23,1.95,3.32c-6.81,15.18-0.08,32.1,7.27,45.7c2.14,3.75,6.01,5.66,10.23,5.82
		c1.65,3.68,2.32,7.72,2.97,11.67c-7.94,0.95-11.62-6.99-15.65-12.24c-7.34-8.7-10.52-19.94-12.13-30.99
		C90.5,238.59,89.75,229.07,94.52,221.52z"/>
</g>
<g>
	<path class="st39" d="M322.1,219.07c5.01-3.26,11.44,0.51,13.01,5.77c3.73,11.24,1.11,23.37-1.68,34.53
		c-2.45,10.22-9.23,18.45-15.43,26.64c-2.2,3-6.01,4.73-9.72,4.12c0.48-4,1.13-8.1,2.94-11.75c4.69,0.28,8.91-2.32,10.96-6.52
		c6.28-13.27,14.1-30.17,5.83-44.16c0.99-1.28,1.94-2.58,2.85-3.91c-6.94,0.37-10.21,7.24-14.43,11.72
		C315.93,229.7,315.87,221.94,322.1,219.07z"/>
</g>
<g>
	<path class="st40" d="M97.2,223.76c6.19,0.64,9.23,6.71,13.54,10.4c2.58,1.98,0.71,5.37,0.31,7.94c-1-1.53-2.05-3.03-3.24-4.42
		c-5.44,4.88-4.04,12.91-4.28,19.45c-4-6.51-1.85-14.29,0.88-20.81c2.39-4.21-2.47-6.99-5.26-9.24
		C98.47,225.99,97.8,224.89,97.2,223.76z"/>
	<path class="st40" d="M316.43,235.51c4.22-4.48,7.49-11.35,14.43-11.72c-0.91,1.33-1.86,2.63-2.85,3.91c-1.89,1.62-4,3.16-5.19,5.4
		c1.39,7.49,6.83,16.03,1.63,23.23c-0.53-6.24,0.77-13.71-4.21-18.54c-1.2,1.07-2.32,2.22-3.41,3.4
		C316.57,239.37,315.24,237.16,316.43,235.51z"/>
</g>
<g>
	<path class="st41" d="M138.22,234.76c0.65-7.37,8.78-12.15,15.86-11.15c-4.25,8.96,1.54,21.05,11.98,21.13
		c10.66,0.54,17.36-11.78,12.98-21.03c8.05-1.17,13.66,7.03,14.1,14.08C180.07,255.53,148.41,255.32,138.22,234.76z"/>
	<path class="st41" d="M234.42,237.63c1.17-7.01,6.35-15.05,14.51-13.97c-1.12,4.36-2.27,9.23-0.02,13.45
		c3.68,8.07,15.81,10.31,21.92,3.73c4.77-4.37,4.73-11.35,3.08-17.13c7.01-1.02,14.14,3.36,15.89,10.3
		c-2.31,6.33-8.07,10.87-13.97,13.76C261.87,254.62,244.01,249.43,234.42,237.63z"/>
</g>
<g>
	<path class="st42" d="M154.08,223.61c1.67-0.11,3.36-0.1,5.05,0.04c0.22,1.22,0.42,2.46,0.57,3.7c-1.6,5.42,3.44,12.41,9.3,9.73
		c5.38-2.07,5.14-9.21,1.08-12.5l-0.18-0.84c3.04-0.24,6.1-0.3,9.14-0.03c4.38,9.25-2.32,21.57-12.98,21.03
		C155.62,244.66,149.83,232.57,154.08,223.61z"/>
</g>
<g>
	<path class="st43" d="M248.93,223.66c1.73-0.15,3.47-0.15,5.21-0.02c0.13,1.15,0.25,2.31,0.36,3.47c-1.01,5.14,2.02,11.6,8.1,10.43
		c6.27-1.22,6.71-9.24,2.34-12.92l0.15-0.85c2.93-0.28,5.89-0.33,8.82-0.06c1.65,5.78,1.69,12.76-3.08,17.13
		c-6.11,6.58-18.24,4.34-21.92-3.73C246.66,232.89,247.81,228.02,248.93,223.66z"/>
</g>
<g>
	<path class="st44" d="M159.7,227.35c4.02,3.68,7.85,1.16,10.38-2.77c4.06,3.29,4.3,10.43-1.08,12.5
		C163.14,239.76,158.1,232.77,159.7,227.35z"/>
	<path class="st44" d="M254.5,227.11c3.88,4.07,7.96,1.57,10.44-2.49c4.37,3.68,3.93,11.7-2.34,12.92
		C256.52,238.71,253.49,232.25,254.5,227.11z"/>
</g>
<g>
	<path class="st45" d="M85.84,249.26c-1.95-7.33-2.86-15.28-0.11-22.53C85.72,234.24,85.76,241.75,85.84,249.26z"/>
</g>
<g>
	<path class="st46" d="M99.15,227.08c2.79,2.25,7.65,5.03,5.26,9.24c-2.73,6.52-4.88,14.3-0.88,20.81
		c0.24-6.54-1.16-14.57,4.28-19.45c1.19,1.39,2.24,2.89,3.24,4.42c-0.21,11.37,2.94,22.28,5.04,33.33c-3.48,0.58-6.58-1.4-9.67-2.65
		C99.07,259.18,92.34,242.26,99.15,227.08z"/>
</g>
<g>
	<path class="st6" d="M342.17,226.76c3.13,8.89,1.36,18.59-1.13,27.41C342.07,245.07,342.6,235.91,342.17,226.76z"/>
</g>
<g>
	<path class="st47" d="M226.3,228.53c0.36-0.12,1.08-0.36,1.44-0.48c-0.79,12.34,1.16,24.55,2.07,36.81
		c-3.7-1.16-3.04-6.56-3.94-9.71C225.49,246.36,223.6,237.07,226.3,228.53z"/>
</g>
<g>
	<path class="st48" d="M322.82,233.1c1.19-2.24,3.3-3.78,5.19-5.4c8.27,13.99,0.45,30.89-5.83,44.16c-1.71-2.8-7.19,8.31-10.6,2.2
		c3.05-10.75,4.94-21.72,5.25-32.87c1.09-1.18,2.21-2.33,3.41-3.4c4.98,4.83,3.68,12.3,4.21,18.54
		C329.65,249.13,324.21,240.59,322.82,233.1z"/>
</g>
<g>
	<path class="st49" d="M311.58,274.06c3.41,6.11,8.89-5,10.6-2.2c-2.05,4.2-6.27,6.8-10.96,6.52
		C311.17,276.93,311.28,275.48,311.58,274.06z"/>
</g>
<g>
	<path class="st50" d="M106.42,272.78c3.09,1.25,6.19,3.23,9.67,2.65c0.27,1.03,0.46,2.09,0.56,3.17
		C112.43,278.44,108.56,276.53,106.42,272.78z"/>
</g>
<g>
	<g>
		<path class="st51" d="M124.14,278.79c1.64,3.91,2.14,8.12,2.9,12.26c1.47-0.43,3.01-0.45,3.77,1.13
			c5.85,8.92,12.03,18.51,21.86,23.44c4.44-8.19,12.78-13.94,22.36-13.48c17.41,0.85,34.81,4.51,52.29,2.19
			c12.37-0.53,25.73-5.15,37.42,0.92c5.44,2.41,7.7,8.11,10.54,12.88c10.79-6.8,16.37-19.03,23.46-29.18
			c0.82,0.68,1.62,1.39,2.4,2.13c-1.86,11.45-3.18,23.56-9.37,33.65c-6.14,9.36-13.87,17.66-22.38,24.89
			c-0.11,0.09-0.32,0.26-0.43,0.35c-0.13,0.11-0.41,0.32-0.54,0.43c-0.76,0.6-2.27,1.8-3.03,2.4c-0.16,0.13-0.48,0.38-0.65,0.51
			c-0.11,0.09-0.35,0.27-0.47,0.36c-0.16,0.13-0.48,0.38-0.65,0.51c-0.81,0.62-2.45,1.86-3.27,2.48c-0.19,0.13-0.56,0.4-0.74,0.53
			c-0.21,0.15-0.62,0.44-0.83,0.59l-0.97,0.68c-0.24,0.17-0.71,0.5-0.95,0.67c-0.21,0.15-0.63,0.45-0.84,0.6
			c-0.25,0.18-0.74,0.54-0.99,0.72l-1.08,0.78c-0.25,0.17-0.75,0.52-1,0.7s-0.74,0.54-0.99,0.72l-1.08,0.77
			c-0.25,0.18-0.76,0.53-1.01,0.71c-0.21,0.15-0.64,0.46-0.85,0.61c-0.24,0.18-0.74,0.54-0.98,0.72l-1.07,0.76
			c-0.25,0.17-0.74,0.5-0.98,0.66c-0.24,0.16-0.71,0.47-0.94,0.62l-1.01,0.63c-0.25,0.14-0.76,0.43-1.01,0.57
			c-0.54,0.34-1.62,1.02-2.16,1.35c-0.23,0.15-0.69,0.46-0.92,0.61l-0.94,0.55c-0.25,0.13-0.75,0.41-1,0.55l-0.92,0.47
			c-0.23,0.1-0.7,0.31-0.93,0.42c-0.54,0.29-1.61,0.87-2.14,1.16c-0.54,0.26-1.63,0.78-2.17,1.04l-0.82,0.39
			c-0.2,0.07-0.61,0.23-0.81,0.3c-0.5,0.12-1.51,0.36-2.01,0.49c-0.53,0.19-1.57,0.57-2.1,0.77c-7.99,1.58-16.23,1.54-24.23,0.04
			c-0.52-0.2-1.57-0.58-2.1-0.78c-0.5-0.12-1.51-0.36-2.01-0.48c-0.2-0.07-0.59-0.22-0.79-0.3l-0.8-0.37
			c-0.54-0.25-1.61-0.76-2.14-1.01c-0.56-0.26-1.68-0.78-2.23-1.04l-1.02-0.44c-0.25-0.12-0.75-0.37-1-0.5l-0.92-0.53
			c-0.22-0.14-0.66-0.42-0.88-0.56c-0.2-0.14-0.61-0.44-0.82-0.58c-0.53-0.37-1.61-1.11-2.15-1.47c-0.26-0.15-0.77-0.46-1.03-0.61
			l-1.03-0.64c-0.24-0.15-0.71-0.45-0.94-0.61c-0.23-0.14-0.69-0.44-0.92-0.58l-0.92-0.62c-0.2-0.13-0.6-0.4-0.8-0.54
			c-0.19-0.13-0.55-0.38-0.74-0.5c-0.82-0.59-2.47-1.77-3.29-2.36c-0.18-0.13-0.54-0.4-0.72-0.53c-0.19-0.14-0.59-0.43-0.79-0.57
			l-0.91-0.66c-0.22-0.16-0.67-0.49-0.9-0.66c-0.24-0.17-0.74-0.51-0.99-0.67l-1.08-0.77c-0.25-0.18-0.74-0.54-0.99-0.72
			c-0.21-0.16-0.64-0.47-0.85-0.63c-0.25-0.19-0.76-0.56-1.01-0.74l-1.07-0.8c-0.24-0.18-0.71-0.53-0.94-0.71
			c-0.17-0.12-0.52-0.37-0.7-0.49c-0.18-0.13-0.54-0.38-0.72-0.51c-0.7-0.53-2.12-1.59-2.82-2.12c-0.14-0.11-0.41-0.32-0.55-0.43
			c-13.16-11.64-27.34-24.78-30.64-42.89C128.01,298.51,125.25,288.78,124.14,278.79z M171.4,316.41c-2.77,0.66-5.33,5.89-1.21,6.48
			c8.41,0.54,16.43,3.35,24.81,4.2c21.21,3.55,42.76-0.58,63.35-4.82c2.02-2.29-1.03-5.57-3.41-6.1c-2.83,0.91-5.03,3.22-7.98,3.87
			c-22.1,5.58-45.63,5.63-67.66-0.26C176.47,319.16,174.32,316.3,171.4,316.41z M197.94,337.1c0.18,2.29,2.69,2.81,4.48,3.38
			c7.27,1.92,15.07,2.27,22.34,0.18c1.82-0.52,4.02-1.39,4.19-3.59C218.62,337.16,208.28,337.52,197.94,337.1z"/>
	</g>
</g>
<g>
	<path class="st52" d="M195.61,296.47c-7.79,1.63-9.37-10.64-3.88-14.45c-0.07,3.74-1.8,8.16,0.92,11.36
		c3.25,0.93,6.59-1.49,9.93-0.91c2.55,0.83,4.31,3,6.18,4.8c2.61,4.23,7.84,4.1,10.26-0.23c3.25-5.44,9.45-4.96,14.72-3.43
		c4.49-2.01,1.92-8.02,1.75-11.78c5.86,3.33,4.15,16.86-3.99,14.67c-4.81-2.72-8.97,0.18-11.76,4.15
		c-2.94,3.25-8.69,3.69-11.57,0.12C205.27,296.51,200.6,293.88,195.61,296.47z"/>
</g>
<g>
	<path class="st7" d="M318.01,294.09c1.94-2.19,4.04-4.23,6.28-6.12C322.81,290.57,320.8,292.88,318.01,294.09z"/>
</g>
<g>
	<path class="st53" d="M195.61,296.47c4.99-2.59,9.66,0.04,12.56,4.3C203.7,300.37,199.4,298.85,195.61,296.47z"/>
</g>
<g>
	<path class="st54" d="M219.74,300.65c2.79-3.97,6.95-6.87,11.76-4.15C228.11,299.08,223.96,300.39,219.74,300.65z"/>
</g>
<g>
	<path class="st55" d="M307.22,297.2c2.51-2.03,5.89-1.76,8.91-2.15C313.36,296.5,310.27,296.87,307.22,297.2z"/>
</g>
<g>
	<path class="st56" d="M120.78,297.24c2.93,4.05,2.46,9.32,3.02,14.05C122.3,306.72,121.4,302,120.78,297.24z"/>
</g>
<g>
	<path class="st57" d="M208.76,297.27c3.41-0.32,6.84-0.4,10.26-0.23C216.6,301.37,211.37,301.5,208.76,297.27z"/>
</g>
<g>
	<path class="st19" d="M304.31,309.36c0.34-3.18,0.54-6.42,1.65-9.46C305.8,303.12,305.36,306.31,304.31,309.36z"/>
</g>
<g>
	<path class="st58" d="M299.95,323.22c0.72-3.23,1.74-6.38,3.15-9.37C302.58,317.12,301.69,320.36,299.95,323.22z"/>
</g>
<g>
	<path class="st59" d="M197.94,337.1c10.34,0.42,20.68,0.06,31.01-0.03c-0.17,2.2-2.37,3.07-4.19,3.59
		c-7.27,2.09-15.07,1.74-22.34-0.18C200.63,339.91,198.12,339.39,197.94,337.1z"/>
	<path class="st59" d="M268.96,349.97c0.11-0.09,0.32-0.26,0.43-0.35C269.28,349.71,269.07,349.88,268.96,349.97z"/>
	<path class="st59" d="M268.42,350.4c0.13-0.11,0.41-0.32,0.54-0.43C268.83,350.08,268.55,350.29,268.42,350.4z"/>
	<path class="st59" d="M160.31,351.31c0.14,0.11,0.41,0.32,0.55,0.43C160.72,351.63,160.45,351.42,160.31,351.31z"/>
	<path class="st59" d="M264.74,353.31c0.17-0.13,0.49-0.38,0.65-0.51C265.23,352.93,264.91,353.18,264.74,353.31z"/>
	<path class="st59" d="M163.68,353.86c0.18,0.13,0.54,0.38,0.72,0.51C164.22,354.24,163.86,353.99,163.68,353.86z"/>
	<path class="st59" d="M264.27,353.67c0.12-0.09,0.36-0.27,0.47-0.36C264.63,353.4,264.39,353.58,264.27,353.67z"/>
	<path class="st59" d="M164.4,354.37c0.18,0.12,0.53,0.37,0.7,0.49C164.93,354.74,164.58,354.49,164.4,354.37z"/>
	<path class="st59" d="M263.62,354.18c0.17-0.13,0.49-0.38,0.65-0.51C264.11,353.8,263.79,354.05,263.62,354.18z"/>
	<path class="st59" d="M165.1,354.86c0.23,0.18,0.7,0.53,0.94,0.71C165.8,355.39,165.33,355.04,165.1,354.86z"/>
	<path class="st59" d="M167.11,356.37c0.25,0.18,0.76,0.55,1.01,0.74C167.87,356.92,167.36,356.55,167.11,356.37z"/>
	<path class="st59" d="M259.61,357.19c0.18-0.13,0.55-0.4,0.74-0.53C260.16,356.79,259.79,357.06,259.61,357.19z"/>
	<path class="st59" d="M168.12,357.11c0.21,0.16,0.64,0.47,0.85,0.63C168.76,357.58,168.33,357.27,168.12,357.11z"/>
	<path class="st59" d="M258.78,357.78c0.21-0.15,0.62-0.44,0.83-0.59C259.4,357.34,258.99,357.63,258.78,357.78z"/>
	<path class="st59" d="M168.97,357.74c0.25,0.18,0.74,0.54,0.99,0.72C169.71,358.28,169.22,357.92,168.97,357.74z"/>
	<path class="st59" d="M256.86,359.13c0.24-0.17,0.71-0.5,0.95-0.67C257.57,358.63,257.1,358.96,256.86,359.13z"/>
	<path class="st59" d="M171.04,359.23c0.25,0.16,0.75,0.5,0.99,0.67C171.79,359.73,171.29,359.39,171.04,359.23z"/>
	<path class="st59" d="M256.02,359.73c0.21-0.15,0.63-0.45,0.84-0.6C256.65,359.28,256.23,359.58,256.02,359.73z"/>
	<path class="st59" d="M172.03,359.9c0.23,0.17,0.68,0.5,0.9,0.66C172.71,360.4,172.26,360.07,172.03,359.9z"/>
	<path class="st59" d="M255.03,360.45c0.25-0.18,0.74-0.54,0.99-0.72C255.77,359.91,255.28,360.27,255.03,360.45z"/>
	<path class="st59" d="M173.84,361.22c0.2,0.14,0.6,0.43,0.79,0.57C174.44,361.65,174.04,361.36,173.84,361.22z"/>
	<path class="st59" d="M252.95,361.93c0.25-0.18,0.75-0.53,1-0.7C253.7,361.4,253.2,361.75,252.95,361.93z"/>
	<path class="st59" d="M174.63,361.79c0.18,0.13,0.54,0.4,0.72,0.53C175.17,362.19,174.81,361.92,174.63,361.79z"/>
	<path class="st59" d="M251.96,362.65c0.25-0.18,0.74-0.54,0.99-0.72C252.7,362.11,252.21,362.47,251.96,362.65z"/>
	<path class="st59" d="M249.87,364.13c0.25-0.18,0.76-0.53,1.01-0.71C250.63,363.6,250.12,363.95,249.87,364.13z"/>
	<path class="st59" d="M178.64,364.68c0.19,0.12,0.55,0.37,0.74,0.5C179.19,365.05,178.83,364.8,178.64,364.68z"/>
	<path class="st59" d="M249.02,364.74c0.21-0.15,0.64-0.46,0.85-0.61C249.66,364.28,249.23,364.59,249.02,364.74z"/>
	<path class="st59" d="M179.38,365.18c0.2,0.14,0.6,0.41,0.8,0.54C179.98,365.59,179.58,365.32,179.38,365.18z"/>
	<path class="st59" d="M248.04,365.46c0.24-0.18,0.74-0.54,0.98-0.72C248.78,364.92,248.28,365.28,248.04,365.46z"/>
	<path class="st59" d="M181.1,366.34c0.23,0.14,0.69,0.44,0.92,0.58C181.79,366.78,181.33,366.48,181.1,366.34z"/>
	<path class="st59" d="M245.99,366.88c0.24-0.16,0.73-0.49,0.98-0.66C246.72,366.39,246.23,366.72,245.99,366.88z"/>
	<path class="st59" d="M182.02,366.92c0.23,0.16,0.7,0.46,0.94,0.61C182.72,367.38,182.25,367.08,182.02,366.92z"/>
	<path class="st59" d="M245.05,367.5c0.23-0.15,0.7-0.46,0.94-0.62C245.75,367.04,245.28,367.35,245.05,367.5z"/>
	<path class="st59" d="M183.99,368.17c0.26,0.15,0.77,0.46,1.03,0.61C184.76,368.63,184.25,368.32,183.99,368.17z"/>
	<path class="st59" d="M243.03,368.7c0.25-0.14,0.76-0.43,1.01-0.57C243.79,368.27,243.28,368.56,243.03,368.7z"/>
	<path class="st59" d="M185.02,368.78c0.54,0.36,1.62,1.1,2.15,1.47C186.64,369.88,185.56,369.14,185.02,368.78z"/>
	<path class="st59" d="M240.87,370.05c0.54-0.33,1.62-1.01,2.16-1.35C242.49,369.04,241.41,369.72,240.87,370.05z"/>
	<path class="st59" d="M187.17,370.25c0.21,0.14,0.62,0.44,0.82,0.58C187.79,370.69,187.38,370.39,187.17,370.25z"/>
	<path class="st59" d="M239.95,370.66c0.23-0.15,0.69-0.46,0.92-0.61C240.64,370.2,240.18,370.51,239.95,370.66z"/>
	<path class="st59" d="M187.99,370.83c0.22,0.14,0.66,0.42,0.88,0.56C188.65,371.25,188.21,370.97,187.99,370.83z"/>
	<path class="st59" d="M238.01,371.76c0.25-0.14,0.75-0.42,1-0.55C238.76,371.34,238.26,371.62,238.01,371.76z"/>
	<path class="st59" d="M189.79,371.92c0.25,0.13,0.75,0.38,1,0.5C190.54,372.3,190.04,372.05,189.79,371.92z"/>
	<path class="st59" d="M236.16,372.65c0.23-0.11,0.7-0.32,0.93-0.42C236.86,372.33,236.39,372.54,236.16,372.65z"/>
	<path class="st59" d="M191.81,372.86c0.55,0.26,1.67,0.78,2.23,1.04C193.48,373.64,192.36,373.12,191.81,372.86z"/>
	<path class="st59" d="M234.02,373.81c0.53-0.29,1.6-0.87,2.14-1.16C235.62,372.94,234.55,373.52,234.02,373.81z"/>
	<path class="st59" d="M194.04,373.9c0.53,0.25,1.6,0.76,2.14,1.01C195.64,374.66,194.57,374.15,194.04,373.9z"/>
	<path class="st59" d="M231.85,374.85c0.54-0.26,1.63-0.78,2.17-1.04C233.48,374.07,232.39,374.59,231.85,374.85z"/>
	<path class="st59" d="M196.98,375.28c0.2,0.08,0.59,0.23,0.79,0.3C197.57,375.51,197.18,375.36,196.98,375.28z"/>
	<path class="st59" d="M230.22,375.54c0.2-0.07,0.61-0.23,0.81-0.3C230.83,375.31,230.42,375.47,230.22,375.54z"/>
	<path class="st59" d="M199.78,376.06c0.53,0.2,1.58,0.58,2.1,0.78C201.36,376.64,200.31,376.26,199.78,376.06z"/>
	<path class="st59" d="M226.11,376.8c0.53-0.2,1.57-0.58,2.1-0.77C227.68,376.22,226.64,376.6,226.11,376.8z"/>
</g>
<g>
	<path class="st60" d="M275.28,353.24c2.38-4.25,6.24-7.3,10.07-10.17C282.72,347.13,279.28,350.54,275.28,353.24z"/>
</g>
<g>
	<path class="st29" d="M153.91,354.31c3.05,3.37-6.63,2.39-9.17,3.57C147.82,356.74,150.8,355.36,153.91,354.31z"/>
</g>
<g>
	<g>
		<path class="st61" d="M141.97,366.66c4.28-3.94,10.49-4.89,16.08-5.37c6.13-0.61,10.23,4.76,14.94,7.72
			c-4.84-0.34-9.7-0.36-14.55-0.49c-1.6,0.26-4.5-1.03-4.62,1.44c-1.94,6.62-1.9,14.68,3.45,19.75
			c12.47,13.45,23.85,27.85,35.13,42.29h-11.9c-9.82-10.21-21.38-18.42-32.81-26.67c-5.32-4.24-11.89-8-14.2-14.8
			c-1.27-2.92-1.74-6.48-4.3-8.62c-2.62,1.15-5.05,2.95-8.03,3.02c3.46-6.03,12.47-5.76,17.84-9.91
			C142.64,373.67,141.51,369.64,141.97,366.66z M150.04,397.05c8.85,9.65,17.64,19.93,28.8,27
			C171.27,413.16,161.63,403.5,150.04,397.05z"/>
	</g>
	<g>
		<path class="st61" d="M256.51,368.08c3.85-2.89,7.41-7.07,12.48-7.54c5.64,0.15,11.24,1.75,16.26,4.28
			c6.35,3.08,5.94,12.79,13.21,14.67c3.24,1.49,8.63,0.76,9.51,5.13c-2.78,0.37-6.87-1.27-7.92,2.37
			c-2.89,7.41-9.38,12.11-15.85,16.21c-12.1,7.74-22.19,17.97-31.5,28.8h-15.24c9.98-19.09,26.47-33.44,38.36-51.16
			c3.02-4.13,3.26-14.22-3.9-13.37C266.78,367.11,261.65,367.88,256.51,368.08z M280.42,389.62c-7.32,7.93-14.23,16.32-22.5,23.31
			c-4.06,3.45-6.78,8.16-8.83,13.01c5.43-2.73,8.01-8.54,12.19-12.66c6.89-7.07,14.25-13.82,19.75-22.1
			C282.1,390.71,281.22,388.44,280.42,389.62z"/>
	</g>
</g>
<g>
	<path class="st62" d="M256.51,368.08c5.14-0.2,10.27-0.97,15.41-0.61c0.91,4.89,2.07,11.42-2.75,14.71
		c-7.02,0.27-14.34-0.34-21.12-2.33C244.68,373.65,252.34,370.66,256.51,368.08z"/>
	<path class="st62" d="M158.44,368.52c4.85,0.13,9.71,0.15,14.55,0.49c3.17,2.41,9.23,4.3,7.5,9.38
		c-7.11,2.31-14.75,2.89-22.18,3.31C156.48,377.52,158.36,372.88,158.44,368.52z"/>
</g>
<g>
	<path class="st63" d="M160.81,386.44c-2.16-1.71,3.52-3.21,3.61-0.96c8.53,20.96,30.47,36.79,53.61,34.74
		c17.14,0.47,30.94-12.38,38.57-26.63c2.29-3.64,3.75-10.63,9.42-7.77c-11.17,15.53-25.34,28.98-34.17,46.18h-33.54
		C187.04,415.87,172.99,401.84,160.81,386.44z"/>
</g>
<g>
	<path class="st60" d="M93.61,391.93c2.67-1.56,5.64-2.44,8.66-3.04C99.57,390.41,96.64,391.36,93.61,391.93z"/>
</g>
<g>
	<path class="st64" d="M280.42,389.62c0.8-1.18,1.68,1.09,0.61,1.56c-5.5,8.28-12.86,15.03-19.75,22.1
		c-4.18,4.12-6.76,9.93-12.19,12.66c2.05-4.85,4.77-9.56,8.83-13.01C266.19,405.94,273.1,397.55,280.42,389.62z"/>
</g>
<g>
	<path class="st65" d="M100.2,396.19c9.04-1.83,17.96-5.18,27.17-5.65c4.24,8.93,12.59,14.23,19.38,20.89
		c1.15,6.79-1.71,13.7-1.93,20.57h-31.5c-4.66-5.46-8.27-11.76-13.18-17.01c1.96,5.87,4.83,11.38,7.4,17.01H83.58
		c1.09-8.32,2.08-16.65,3.41-24.93C87.83,400.57,94.85,398.07,100.2,396.19z"/>
	<path class="st65" d="M302.13,393.19c2.46-5.16,8.27-1.79,12.18-0.57c7.75,3.08,17.55,3,23.25,9.84
		c3.07,9.53,3.99,19.69,5.82,29.54h-24.04c2.36-5.75,5.46-11.19,7.44-17.09c-5.25,4.99-8.4,11.65-13.12,17.09h-30.33
		c-0.55-6.6-2.88-12.97-3.05-19.59C287.34,405.78,296.88,401.73,302.13,393.19z"/>
	<path class="st65" d="M151.03,414c7.69,4.99,15.75,10.23,20.93,18h-24C148.98,426,149.32,419.86,151.03,414z"/>
</g>
<g>
	<path class="st66" d="M79.15,419.03c0.68-7.57-1.11-17.87,6.57-22.4C80.43,403.03,81.89,411.67,79.15,419.03z"/>
</g>
<g>
	<path class="st67" d="M150.04,397.05c11.59,6.45,21.23,16.11,28.8,27C167.68,416.98,158.89,406.7,150.04,397.05z"/>
</g>
<g>
	<path class="st7" d="M342.14,397.75c2.83,2.26,3.4,5.96,3.91,9.32c1.18,8.35,3.45,16.52,4.23,24.93h-1.01
		C346.67,420.63,345.36,408.97,342.14,397.75z"/>
</g>
<g>
	<path class="st68" d="M100.14,414.99c4.91,5.25,8.52,11.55,13.18,17.01h-5.78C104.97,426.37,102.1,420.86,100.14,414.99z"/>
</g>
<g>
	<path class="st69" d="M313.66,432c4.72-5.44,7.87-12.1,13.12-17.09c-1.98,5.9-5.08,11.34-7.44,17.09H313.66z"/>
</g>
<g>
	<path class="st70" d="M259.35,432c5.42-5.79,10.07-13.01,17.46-16.44c1.77,5.33,2.24,10.96,3.32,16.44H259.35z"/>
</g>
<g>
	<path class="st71" d="M76.83,432c0.07-4.13,0.77-8.22,2.13-12.12c0.06,4.07-0.05,8.16-1.07,12.12H76.83z"/>
</g>
</svg>
